<svg width="76" height="40" viewBox="0 0 76 40" fill="none" xmlns="http://www.w3.org/2000/svg">
<g id="Group 36">
<path id="Vector" d="M22.4929 27.9628C19.4376 27.9628 16.9434 30.457 16.9434 33.5124C16.9434 36.5678 19.4376 39.062 22.4929 39.062C25.5483 39.062 28.0425 36.5678 28.0425 33.5124C28.0425 30.457 25.5483 27.9628 22.4929 27.9628Z" fill="#FCB716"/>
<path id="Vector_2" d="M6.97928 27.9628C3.92389 27.9628 1.42969 30.457 1.42969 33.5124C1.42969 36.5678 3.92389 39.062 6.97928 39.062C10.0347 39.062 12.5289 36.5678 12.5289 33.5124C12.5289 30.457 10.0347 27.9628 6.97928 27.9628Z" fill="#EE363F"/>
<path id="Vector_3" d="M38.0068 27.9628C34.9514 27.9628 32.4572 30.457 32.4572 33.5124C32.4572 36.5678 34.9514 39.062 38.0068 39.062C41.0622 39.062 43.5564 36.5678 43.5564 33.5124C43.5564 30.457 41.0622 27.9628 38.0068 27.9628Z" fill="#07AF56"/>
<path id="Vector_4" d="M69.034 27.9628C65.9786 27.9628 63.4844 30.457 63.4844 33.5124C63.4844 36.5678 65.9786 39.062 69.034 39.062C72.0894 39.062 74.5836 36.5678 74.5836 33.5124C74.5836 30.457 72.0894 27.9628 69.034 27.9628Z" fill="#04A9DF"/>
<path id="Vector_5" d="M53.5203 27.9628C50.4649 27.9628 47.9707 30.457 47.9707 33.5124C47.9707 36.5678 50.4649 39.062 53.5203 39.062C56.5757 39.062 59.0699 36.5678 59.0699 33.5124C59.0699 30.457 56.5757 27.9628 53.5203 27.9628Z" fill="#A1479A"/>
<path id="Vector_6" d="M0.59375 12.2368C0.59375 8.63271 3.48702 5.91403 7.05372 5.91403C10.6578 5.91403 13.5137 8.60777 13.5137 12.2119V17.749C13.5137 18.3102 13.1271 18.7093 12.5285 18.7093C11.9174 18.7093 11.5433 18.3227 11.5433 17.749V16.1278H11.4435C10.6828 17.4248 9.16132 18.5471 6.91654 18.5471C3.44961 18.5596 0.59375 15.8659 0.59375 12.2368ZM11.6056 12.2368C11.6056 9.64286 9.64769 7.68492 7.05372 7.68492C4.45976 7.68492 2.50181 9.64286 2.50181 12.2368C2.50181 14.8308 4.45976 16.7887 7.05372 16.7887C9.64769 16.7887 11.6056 14.8308 11.6056 12.2368ZM18.5644 22.6501C18.0531 22.4007 17.8037 21.9642 18.0033 21.4529C18.2028 20.9166 18.6892 20.6922 19.2005 20.9416C20.0859 21.3531 21.1834 21.6524 22.3556 21.6524C25.2738 21.6524 27.0322 19.919 27.0322 16.9509V16.1402H26.9325C26.1718 17.4372 24.6503 18.5596 22.4055 18.5596C18.9261 18.5596 16.0702 15.8659 16.0702 12.2368C16.0702 8.63271 18.9635 5.91403 22.5302 5.91403C26.1343 5.91403 28.9902 8.60777 28.9902 12.2119V16.8137C28.9902 20.7795 26.4461 23.4482 22.2808 23.4482C21.0088 23.4482 19.7367 23.2113 18.5644 22.6501ZM27.0821 12.2368C27.0821 9.64286 25.1242 7.68492 22.5302 7.68492C19.9363 7.68492 17.9783 9.64286 17.9783 12.2368C17.9783 14.8308 19.9363 16.7887 22.5302 16.7887C25.1242 16.7887 27.0821 14.8308 27.0821 12.2368ZM31.5343 12.2368C31.5343 8.63271 34.4026 5.91403 37.9943 5.91403C41.5984 5.91403 44.4542 8.63271 44.4542 12.2368C44.4542 15.8409 41.5859 18.5596 37.9943 18.5596C34.4026 18.5596 31.5343 15.8409 31.5343 12.2368ZM42.5586 12.2368C42.5586 9.64286 40.6007 7.68492 38.0067 7.68492C35.4128 7.68492 33.4548 9.64286 33.4548 12.2368C33.4548 14.8308 35.4128 16.7887 38.0067 16.7887C40.6007 16.7887 42.5586 14.8308 42.5586 12.2368ZM47.0108 12.2368C47.0108 8.63271 49.8542 5.91403 53.346 5.91403C55.6033 5.91403 57.1123 7.03642 57.873 8.33341H57.9728V1.89838C57.9728 1.33718 58.3594 0.93811 58.958 0.93811C59.5691 0.93811 59.9432 1.32471 59.9432 1.89838V12.2493C59.9432 15.8534 57.0749 18.5471 53.4832 18.5471C49.904 18.5596 47.0108 15.8409 47.0108 12.2368ZM58.0351 12.2368C58.0351 9.64286 56.0772 7.68492 53.4832 7.68492C50.8893 7.68492 48.9313 9.64286 48.9313 12.2368C48.9313 14.8308 50.8893 16.7887 53.4832 16.7887C56.0647 16.7887 58.0351 14.8308 58.0351 12.2368ZM62.4873 12.2368C62.4873 8.63271 65.3805 5.91403 68.9473 5.91403C72.5514 5.91403 75.4072 8.60777 75.4072 12.2119V17.749C75.4072 18.3102 75.0206 18.7093 74.422 18.7093C73.8109 18.7093 73.4368 18.3227 73.4368 17.749V16.1278H73.337C72.5763 17.4248 71.0548 18.5471 68.8101 18.5471C65.3556 18.5596 62.4873 15.8659 62.4873 12.2368ZM73.4992 12.2368C73.4992 9.64286 71.5412 7.68492 68.9473 7.68492C66.3533 7.68492 64.3953 9.64286 64.3953 12.2368C64.3953 14.8308 66.3533 16.7887 68.9473 16.7887C71.5412 16.7887 73.4992 14.8308 73.4992 12.2368Z" fill="#5A5B5B"/>
</g>
</svg>
