<svg width="138" height="28" viewBox="0 0 138 28" fill="none" xmlns="http://www.w3.org/2000/svg">
<path id="Vector" d="M17.6524 6.11184V23.0721C17.6524 25.5536 16.423 27.9212 12.5757 27.9212H5.74602V24.1421H11.5057C12.3025 24.1421 13.1903 23.9372 13.1903 22.7307V19.6801C12.4391 20.955 10.5268 22.0705 8.29576 22.0705C4.01584 22.0705 0.714844 18.8378 0.714844 13.8976C0.714844 8.93477 3.99308 5.70206 8.27299 5.70206C10.6406 5.70206 12.4846 6.7948 13.2586 8.13797C13.2586 7.95584 13.1903 7.6599 13.1903 6.81757V6.08907H17.6524V6.11184ZM9.29744 18.2003C11.6651 18.2003 13.3042 16.4474 13.3042 13.8976C13.3042 11.3024 11.6878 9.54943 9.29744 9.54943C6.95259 9.54943 5.33624 11.3024 5.33624 13.8976C5.31348 16.4474 6.95259 18.2003 9.29744 18.2003ZM35.6144 15.3091H23.8674C24.1178 17.062 25.4837 18.4735 27.4871 18.4735C28.8075 18.4735 30.0368 17.9271 30.6515 16.8572L35.2957 17.3352C33.8842 20.7045 30.9247 22.2981 27.396 22.2981C22.6836 22.2981 19.1321 18.815 19.1321 13.9887C19.1321 9.16242 22.6153 5.6793 27.3277 5.6793C31.6759 5.6793 35.5916 8.50222 35.5916 15.127C35.6144 15.1497 35.6144 15.3091 35.6144 15.3091ZM23.7535 12.3041H30.8109C30.5604 10.7105 29.2173 9.41284 27.3277 9.41284C25.461 9.41284 24.1178 10.6194 23.7535 12.3041ZM43.2408 0.124513V6.11184H46.6557V9.89092H43.2408V17.0165C43.2408 18.0182 44.0376 18.1548 44.7206 18.1548C45.8589 18.1548 46.7922 18.041 46.7922 18.041V21.8656C46.7922 21.8656 44.6295 22.0705 43.3091 22.0705C41.0781 22.0705 38.756 21.6834 38.756 18.519V9.86815H36.2746V6.06631H38.756V0.0789795H43.2408V0.124513ZM58.5165 11.3934C58.5165 10.2552 57.6286 9.52667 55.8984 9.52667C54.3049 9.52667 52.3243 10.3235 51.1405 11.0064L49.3875 7.63713C49.3875 7.63713 52.3243 5.70206 56.1489 5.70206C59.723 5.70206 63.0013 7.36395 63.0013 11.53V21.9111H58.5165V20.4313C57.6969 21.6607 55.8984 22.3209 54.1 22.3209C50.7534 22.3209 48.5907 19.9533 48.5907 17.358C48.5907 14.353 50.799 12.509 54.3049 12.509H57.401C58.1522 12.509 58.4937 12.1675 58.4937 11.5756C58.5165 11.5528 58.5165 11.3934 58.5165 11.3934ZM58.5165 16.2425V15.1042C58.2433 15.3774 57.7652 15.4457 57.1278 15.4457H55.4431C54.0317 15.4457 53.2121 16.0604 53.2121 17.1759C53.2121 18.2459 54.0772 19.0427 55.4431 19.0427C57.0595 19.0427 58.5165 18.2003 58.5165 16.2425ZM74.976 10.5283H73.0864C70.8099 10.5283 69.7854 11.5983 69.7854 14.353V21.9111H65.3006V6.13461H69.6488V8.66158C70.2635 6.97693 71.7888 5.92972 73.7466 5.92972C74.1564 5.92972 74.5662 5.97525 74.976 6.06631C74.976 6.04355 74.976 10.5283 74.976 10.5283ZM75.6361 14.0115C75.6361 9.18519 79.3925 5.70206 84.0822 5.70206C88.7719 5.70206 92.5282 9.18519 92.5282 14.0115C92.5282 18.8378 88.7719 22.3209 84.0822 22.3209C79.3925 22.2981 75.6361 18.8378 75.6361 14.0115ZM80.121 14.0115C80.121 16.4474 81.7373 18.3142 84.0822 18.3142C86.3815 18.3142 88.0206 16.4474 88.0206 14.0115C88.0206 11.53 86.4042 9.70879 84.0822 9.70879C81.7373 9.68603 80.121 11.53 80.121 14.0115ZM93.6892 14.0115C93.6892 9.18519 97.4455 5.70206 102.135 5.70206C106.825 5.70206 110.581 9.18519 110.581 14.0115C110.581 18.8378 106.825 22.3209 102.135 22.3209C97.4455 22.2981 93.6892 18.8378 93.6892 14.0115ZM98.174 14.0115C98.174 16.4474 99.7904 18.3142 102.135 18.3142C104.435 18.3142 106.074 16.4474 106.074 14.0115C106.074 11.53 104.457 9.70879 102.135 9.70879C99.7904 9.68603 98.174 11.53 98.174 14.0115ZM132.823 12.6228C132.823 10.6877 131.594 9.86815 130.205 9.86815C128.93 9.86815 127.792 10.5966 126.927 11.6666V21.9111H122.442V12.6228C122.442 10.7332 121.235 9.86815 119.824 9.86815C118.549 9.86815 117.411 10.5966 116.546 11.6666V21.9111H112.061V6.13461H116.432V6.74928C116.432 7.29565 116.364 7.97861 116.364 7.97861C117.525 6.52162 119.3 5.70206 121.076 5.70206C123.421 5.70206 125.242 6.70375 126.153 8.57052C127.473 6.74928 129.249 5.70206 131.457 5.70206C134.872 5.70206 137.285 7.86478 137.285 11.5528V21.8883H132.8L132.823 12.6228Z" fill="#6BBE56"/>
</svg>
