<svg width="90" height="34" viewBox="0 0 90 34" fill="none" xmlns="http://www.w3.org/2000/svg">
<g id="Group 22">
<path id="Vector" d="M0.445312 17.0001V33.5125H89.5562V0.487732H0.445312V17.0001ZM88.1008 17.0001V32.0572H2.01259V1.94306H88.1008V17.0001Z" fill="black"/>
<path id="Vector_2" d="M8.16992 8.54801C8.16992 8.93983 8.20351 8.99581 8.4386 8.99581C8.58413 8.99581 8.864 9.02939 9.05431 9.06298L9.40135 9.13014V24.8589L9.05431 24.9372C8.864 24.9708 8.58413 25.0044 8.4386 25.0044C8.19231 25.0044 8.16992 25.0492 8.16992 25.5082V26.0119H14.1032V25.038L13.5434 24.9596L12.9837 24.8813L12.9725 21.6124C12.9725 19.81 12.9501 18.2092 12.9389 18.03L12.9165 17.7278H20.8201V24.8813L20.1372 24.9596L19.4655 25.038L19.4991 25.497L19.5327 25.956H25.4659L25.4995 25.4746C25.5331 25.038 25.5107 25.0044 25.2644 25.0044C25.1077 25.0044 24.8278 24.9708 24.6375 24.9372L24.2905 24.8589V9.13014L24.6375 9.06298C24.8278 9.02939 25.1077 8.99581 25.2532 8.99581C25.4883 8.99581 25.5219 8.93983 25.5219 8.54801V8.10022H19.4767V8.96222L20.1484 9.04058L20.8201 9.11895V15.8247H20.5738C14.7749 15.8358 13.0397 15.8247 13.0173 15.7799C12.9949 15.7463 12.9837 14.2238 12.9837 12.4102V9.11895L13.5434 9.04058L14.1032 8.96222V8.10022H8.16992V8.54801ZM30.1118 8.34651C29.2722 8.92864 29.0035 9.81303 29.4289 10.6414C30.2461 12.2535 32.7985 11.705 32.7985 9.92498C32.7985 8.83908 32.0821 8.10022 31.0522 8.10022C30.6491 8.10022 30.3805 8.16739 30.1118 8.34651ZM36.2689 8.48084C36.2689 8.85027 36.2801 8.86147 36.8287 8.92864L37.3884 9.007V25.0044L37.1421 25.0604C36.9966 25.0828 36.7615 25.1276 36.6048 25.1388C36.3697 25.1723 36.3249 25.2395 36.2913 25.5865L36.2578 26.0008L39.0677 26.0119H41.8776L41.844 25.5977C41.8104 25.2395 41.7656 25.1723 41.5305 25.1388C41.3738 25.1276 41.1387 25.0828 41.0044 25.0604L40.7469 25.0044V8.10022H36.2689V8.48084ZM47.8556 9.83542C47.6093 9.92498 46.9712 10.1265 46.4338 10.2832L45.4487 10.5743V13.2386L44.2509 13.2722L43.0418 13.3058V14.3134L44.1837 14.3693L45.3256 14.4253L45.3703 19.1831C45.4151 24.1424 45.4375 24.3999 45.9301 25.1276C46.6801 26.247 49.1318 26.4262 51.9753 25.5642C52.7253 25.3291 52.7253 25.3291 52.7253 24.9149V24.5006L51.3596 24.5342C49.7475 24.5678 49.3445 24.4335 48.9751 23.7058C48.7624 23.2916 48.7512 23.0453 48.7512 18.8473V14.4253L50.2401 14.3917L51.7178 14.3581V13.261L50.2401 13.2275L48.7512 13.1939L48.7176 11.4251C48.684 9.45479 48.7288 9.54435 47.8556 9.83542ZM58.7146 12.9812C57.5839 13.2275 56.7219 13.5521 56.0278 14.0335C54.315 15.2201 53.4194 16.9889 53.3075 19.407C53.1619 23.0901 54.5613 25.3067 57.5391 26.0903C58.569 26.359 61.1327 26.359 62.1178 26.0791C64.2672 25.4858 65.7785 24.12 66.4726 22.1609C66.6965 21.534 66.7637 21.0862 66.8084 20.0003C66.898 17.6046 66.3606 16.0038 65.0508 14.7052C63.7411 13.4066 62.3641 12.9028 60.1811 12.9252C59.4982 12.9364 58.8377 12.9588 58.7146 12.9812ZM60.864 13.9775C61.267 14.1006 61.5581 14.291 61.8939 14.6492C62.8231 15.6567 63.1813 17.0785 63.1813 19.6309C63.1813 23.6498 62.1738 25.4074 59.9236 25.3626C57.9869 25.3179 56.9682 23.3588 56.957 19.6869C56.9458 17.1568 57.3264 15.6343 58.1884 14.694C58.9721 13.8544 59.7445 13.6417 60.864 13.9775ZM75.6524 13.2386C74.9247 13.4737 74.197 13.8768 73.3574 14.4925C73.0328 14.7388 72.7417 14.9291 72.7081 14.9291C72.6745 14.9291 72.6521 14.5484 72.6521 14.0895V13.2498H68.1742V14.1118L68.734 14.1902L69.2937 14.2686V24.982L69.0474 25.0492C68.9019 25.0828 68.6556 25.1164 68.4877 25.1164C68.1966 25.1164 68.1742 25.1499 68.1742 25.5642V26.0119L71.0065 25.9896L73.8276 25.956V25.5642C73.8276 25.1835 73.8164 25.1723 73.2455 25.0828L72.6521 24.982V15.8358L73.6373 15.3545C74.4993 14.9291 74.7008 14.8731 75.4061 14.8731C76.0778 14.8731 76.2681 14.9179 76.6487 15.1754C77.5779 15.7911 77.6674 16.3396 77.6898 21.1646V24.982L77.1077 25.0828C76.5256 25.1723 76.5144 25.1835 76.5144 25.5642V25.956L79.2683 25.9896C82.2685 26.0231 82.2573 26.0231 82.1006 25.3962C82.0446 25.1835 81.9327 25.1164 81.4849 25.0604L80.9363 24.982V20.6496C80.9363 17.8285 80.8915 16.0821 80.8132 15.6679C80.5557 14.4141 79.6937 13.4178 78.619 13.1491C77.8913 12.9588 76.38 13.0036 75.6524 13.2386ZM28.2087 13.6305C28.2087 14.0111 28.2199 14.0223 28.7684 14.1118L29.3393 14.2014V19.5637C29.3281 22.5192 29.3058 24.9484 29.2834 24.982C29.2498 25.0044 28.9923 25.0604 28.7124 25.094C28.1975 25.1499 28.1975 25.1499 28.2311 25.553L28.2646 25.956H33.7501L33.7837 25.553L33.8173 25.1499L33.2575 25.0716L32.6866 24.9932V13.2498H28.2087V13.6305Z" fill="black"/>
</g>
</svg>
