<svg width="176" height="26" viewBox="0 0 176 26" fill="none" xmlns="http://www.w3.org/2000/svg">
<g id="Group 36">
<path id="Vector" d="M25.3851 15.1115V25.1299H19.2692V16.1308C19.2692 13.6262 18.1626 12.5486 16.386 12.5486C14.4057 12.5486 12.8913 13.7718 12.8913 16.6841V25.1299H6.77539V0.899364H12.9204V9.25772C14.2892 8.00542 16.1239 7.36471 18.1917 7.36471C22.2689 7.33559 25.3851 9.69457 25.3851 15.1115ZM40.6457 16.0434C40.6457 18.7228 39.073 20.2372 36.9762 20.2372C34.9084 20.2372 33.3066 18.7228 33.3066 16.0434C33.3066 13.3932 34.9084 11.9079 36.9762 11.9079C39.073 11.9079 40.6457 13.3932 40.6457 16.0434ZM27.1034 16.0434C27.1034 21.3439 31.268 25.1007 36.9762 25.1007C42.7425 25.1007 46.8489 21.3147 46.8489 16.0434C46.8489 10.7721 42.7425 7.04435 36.9762 7.04435C31.2389 7.04435 27.1034 10.7721 27.1034 16.0434ZM67.2643 15.1988C67.4681 12.7234 68.8661 11.3837 70.9629 11.3837C72.6812 11.3837 73.9335 12.3448 74.3412 13.8009L67.2643 15.1988ZM75.7391 18.8975C74.5451 19.9168 73.4093 20.4119 71.691 20.4119C69.7689 20.4119 68.4001 19.7421 67.7303 18.315L80.2241 15.9269C80.195 10.2188 75.9721 7.01524 70.9338 7.01524C65.3713 7.01524 61.2649 10.7721 61.2649 16.0143C61.2649 21.2565 65.313 25.0716 71.5163 25.0716C74.8363 25.0716 77.2827 24.1106 78.9427 22.2467L75.7391 18.8975ZM108.095 16.0434C108.095 18.7228 106.493 20.2372 104.425 20.2372C102.358 20.2372 100.756 18.7228 100.756 16.0434C100.756 13.3932 102.358 11.9079 104.425 11.9079C106.464 11.9079 108.095 13.3932 108.095 16.0434ZM114.269 16.0434C114.269 10.4809 110.425 7.04435 105.678 7.04435C103.639 7.04435 102.008 7.62682 100.814 8.84999V0.870239H94.6692V24.8095H100.523V23.0621C101.688 24.46 103.406 25.1007 105.678 25.1007C110.425 25.1007 114.269 21.6351 114.269 16.0434ZM122.016 15.1988C122.22 12.7234 123.618 11.3837 125.715 11.3837C127.433 11.3837 128.685 12.3448 129.093 13.8009L122.016 15.1988ZM130.52 18.8975C129.326 19.9168 128.19 20.4119 126.472 20.4119C124.55 20.4119 123.181 19.7421 122.511 18.315L135.005 15.9269C134.976 10.2188 130.753 7.01524 125.715 7.01524C120.152 7.01524 116.046 10.7721 116.046 16.0143C116.046 21.2565 120.094 25.0716 126.297 25.0716C129.617 25.0716 132.063 24.1106 133.723 22.2467L130.52 18.8975ZM150.382 16.0434C150.382 18.7228 148.809 20.2372 146.742 20.2372C144.645 20.2372 143.072 18.7228 143.072 16.0434C143.072 13.3932 144.645 11.9079 146.742 11.9079C148.809 11.9079 150.382 13.3932 150.382 16.0434ZM150.295 0.870239V8.84999C149.13 7.62682 147.499 7.04435 145.46 7.04435C140.684 7.04435 136.84 10.51 136.84 16.0434C136.84 21.6351 140.684 25.1007 145.46 25.1007C147.732 25.1007 149.421 24.46 150.586 23.0621V24.8095H156.44V0.870239H150.295ZM158.973 23.2951C160.692 24.3727 163.749 25.1007 166.72 25.1007C172.399 25.1007 175.37 22.5961 175.37 19.3635C175.37 12.4322 165.06 15.0241 165.06 12.6069C165.06 11.9662 165.817 11.3837 167.856 11.3837C169.399 11.3837 171.147 11.7041 172.894 12.6651L174.729 8.50051C172.982 7.53945 170.273 7.01524 167.827 7.01524C162.352 7.01524 159.294 9.51983 159.294 12.8108C159.294 19.8003 169.632 17.1501 169.632 19.48C169.632 20.208 168.963 20.674 166.895 20.674C164.769 20.674 162.41 20.0624 160.808 19.0722L158.973 23.2951ZM58.9933 19.8294C58.4691 20.1789 57.7992 20.3828 57.1294 20.3828C56.0227 20.3828 55.3238 19.6838 55.3238 18.3733V11.6167H59.2845V7.04435H55.3238V2.61763V0.899364H49.1788V2.61763V6.92786V18.4315C49.1788 22.9165 51.7707 25.1007 56.2557 25.1007C57.8575 25.1007 59.4593 24.7804 60.5077 24.1105L58.9933 19.8294ZM82.7578 18.7519C82.7578 22.8874 85.3207 25.1007 89.4853 25.1007C90.4464 25.1007 91.3492 24.9842 92.3102 24.6639L92.0481 20.0916C91.7278 20.2663 91.1744 20.4119 90.6793 20.4119C89.4853 20.4119 88.7863 19.7421 88.7863 18.4315V0.870239H82.7287V18.7519" fill="#193153"/>
<path id="Vector_2" d="M12.9204 18.9849H6.77539V25.1299H12.9204V18.9849Z" fill="#B92354"/>
<path id="Vector_3" d="M12.9204 12.8398H6.77539V18.9848H12.9204V12.8398Z" fill="#193153"/>
<path id="Vector_4" d="M6.77586 12.8398H0.630859V18.9848H6.77586V12.8398Z" fill="#A1CFCA"/>
</g>
</svg>
