<svg width="90" height="24" viewBox="0 0 90 24" fill="none" xmlns="http://www.w3.org/2000/svg">
<g id="Group 24">
<path id="Vector" d="M5.534 23.2254V12.8713C5.534 11.8042 5.83869 10.9466 6.44808 10.2987C7.05746 9.65201 7.82817 9.32799 8.7588 9.32799C9.66872 9.32799 10.3595 9.62307 10.8365 10.2146C11.3136 10.8046 11.5507 11.6553 11.5507 12.7692V23.2254H16.2052V11.4071C16.2052 9.43139 15.673 7.86521 14.61 6.70709C13.5456 5.54899 12.116 4.96992 10.3223 4.96992C9.3461 4.96992 8.44858 5.15743 7.62825 5.53244C6.81473 5.90144 6.09786 6.45407 5.534 7.1469V5.30909H0.88086L0.880859 23.2254H5.534ZM24.8745 23.719C25.8258 23.719 26.7027 23.5315 27.4996 23.1578C28.3129 22.7723 29.0291 22.2087 29.5952 21.5089V23.3454L34.2483 23.3453V5.46213H29.5938V15.9679C29.5938 17.0102 29.2836 17.8595 28.6632 18.5185C28.3729 18.836 28.0182 19.088 27.6229 19.2577C27.2275 19.4274 26.8006 19.5111 26.3704 19.5029C25.4604 19.5029 24.7683 19.2257 24.2927 18.6702C23.8157 18.1145 23.5771 17.3052 23.5771 16.2394V5.46213H18.924V17.2928C18.924 19.2423 19.4672 20.8002 20.5523 21.968C21.6387 23.1358 23.0794 23.719 24.8745 23.719ZM42.1566 4.22819V0.774521H37.2139V4.22819H42.1566ZM42.1566 23.2268V5.46075H37.4607V23.224H42.1566V23.2268ZM51.0203 23.4722C51.3898 23.4722 51.9178 23.4501 52.603 23.4032L54.0204 19.2561C53.6205 19.3016 53.32 19.3291 53.12 19.3402C52.8868 19.3527 52.6533 19.3586 52.4197 19.3581C51.5539 19.3581 50.9693 19.2271 50.6688 18.9666C50.3696 18.7046 50.2192 18.2579 50.2192 17.6237V9.35972H53.7873L53.7874 5.38216H50.2192V0.280945L45.6309 2.28696L45.6172 5.38216V18.6108C45.6172 20.3094 46.0404 21.5448 46.8856 22.3154C47.7293 23.0875 49.108 23.4735 51.0203 23.4735V23.4722ZM63.6065 23.719C65.4361 23.719 67.0464 23.2612 68.4348 22.3472C69.8245 21.4331 70.8351 20.1771 71.4679 18.5778L67.4697 17.137C67.198 17.9836 66.7293 18.6343 66.0634 19.092C65.3961 19.5484 64.5882 19.7772 63.641 19.7772C62.4664 19.7772 61.4889 19.3884 60.7099 18.6108C59.9295 17.8346 59.4607 16.7607 59.3036 15.3888H71.5699V13.9826C71.5699 11.2872 70.8351 9.11017 69.3668 7.45439C67.8998 5.79577 65.9213 4.96855 63.4383 4.96855C62.1947 4.96855 61.0311 5.20844 59.9474 5.68824C58.8718 6.16178 57.9121 6.8637 57.1349 7.74528C56.3571 8.60695 55.7582 9.61454 55.3729 10.7095C54.9608 11.8708 54.7541 13.095 54.7621 14.3272C54.7621 15.6756 54.9662 16.9192 55.3729 18.0635C55.7796 19.2051 56.3655 20.2005 57.1349 21.0457C57.9232 21.9125 58.8955 22.5918 59.9805 23.0338C61.0877 23.4901 62.2968 23.719 63.6065 23.719ZM66.8741 12.124H59.458C59.731 11.0073 60.2122 10.1525 60.9043 9.55962C61.5964 8.96681 62.4291 8.66901 63.4039 8.66901C64.4475 8.66901 65.2803 8.98334 65.9034 9.61338C66.528 10.2421 66.8507 11.0789 66.8741 12.1227V12.124ZM81.1546 23.719C82.9845 23.719 84.5949 23.2612 85.9842 22.3472C87.3728 21.4331 88.3836 20.1771 89.0173 18.5778L85.0192 17.137C84.7462 17.9836 84.2792 18.6343 83.6129 19.092C82.9457 19.5484 82.1374 19.7772 81.1895 19.7772C80.0143 19.7772 79.0384 19.3884 78.258 18.6108C77.4791 17.8346 77.0103 16.7607 76.8517 15.3888H89.1182V13.9826C89.1182 11.2872 88.3836 9.11017 86.9151 7.45439C85.4467 5.79577 83.4709 4.96855 80.9863 4.96855C79.7428 4.96855 78.5792 5.20844 77.4956 5.68824C76.42 6.16178 75.4602 6.8637 74.6831 7.74528C73.9053 8.60695 73.3064 9.61454 72.9211 10.7095C72.5094 11.8709 72.3032 13.0951 72.3117 14.3272C72.3117 15.6756 72.5144 16.9192 72.9211 18.0635C73.3278 19.2051 73.9138 20.2005 74.6831 21.0457C75.4713 21.9125 76.4436 22.5918 77.5287 23.0338C78.6358 23.4901 79.8452 23.719 81.1546 23.719ZM84.4219 12.124H77.0076C77.2792 11.0073 77.7617 10.1525 78.4528 9.55962C79.1447 8.96681 79.977 8.66901 80.9521 8.66901C81.9955 8.66901 82.8286 8.98334 83.4531 9.61338C84.076 10.2421 84.3987 11.0789 84.4219 12.1227V12.124Z" fill="#19172C"/>
</g>
</svg>
