<svg width="132" height="32" viewBox="0 0 132 32" fill="none" xmlns="http://www.w3.org/2000/svg">
<g id="Group 33">
<path id="Vector" d="M119.178 14.4885C119.178 13.8751 119.025 12.9769 118.28 12.0787C116.834 10.6986 114.534 10.7644 113.154 12.2102C113.154 12.2102 113.154 12.2102 113.154 12.2321C112.54 12.9769 112.409 13.7436 112.256 14.6418H119.2V14.4885H119.178ZM124.151 20.9947C123.603 21.9367 122.946 22.791 122.179 23.5578C120.668 25.0693 118.411 26.1208 115.673 26.1208C110.547 26.1208 106.91 22.791 106.91 17.0515C106.91 12.8236 109.035 7.54409 115.826 7.54409C116.725 7.54409 119.748 7.54409 121.873 9.95381C124.129 12.3635 124.282 15.8467 124.436 17.8182H112.037C112.037 19.9432 113.241 22.0462 115.958 22.0462C118.828 22.0462 119.726 20.228 120.492 19.0231C120.536 19.0231 124.151 20.9947 124.151 20.9947ZM94.8399 9.64712C95.3 9.03374 95.7381 8.74895 96.6582 8.13557C97.403 7.98223 98.4764 7.67553 99.6813 7.67553C100.733 7.67553 101.938 7.67553 102.704 8.28891C104.676 9.34043 105.114 10.852 105.114 13.5684V25.3541H99.988V15.6933V12.9769C99.5279 12.0787 98.6297 11.7721 97.7316 11.7721C95.0152 11.7721 95.0152 13.897 95.0152 16V25.376H89.8891V8.15748H95.0152V9.66903H94.8399V9.64712ZM86.5374 3.60092C86.5374 5.11247 85.3325 6.47068 83.8209 6.47068C82.3094 6.47068 81.1045 5.26582 81.1045 3.60092C81.1045 2.08937 82.3094 0.884517 83.8209 0.884517C85.3325 0.884517 86.5374 2.11128 86.5374 3.60092ZM81.3893 8.13557H86.384V25.3541H81.3893V7.98222V8.13557ZM77.9281 0.599731V25.376H72.802V0.599731C72.7801 0.599731 77.9281 0.599731 77.9281 0.599731ZM65.2442 14.4885C65.2442 13.7436 65.0909 12.6702 64.3461 11.9254C62.9002 10.5453 60.6001 10.611 59.2199 12.0568C59.2199 12.0568 59.2199 12.0568 59.2199 12.0787C58.6066 12.8236 58.4751 13.5903 58.3218 14.4885C58.278 14.4885 65.2442 14.4885 65.2442 14.4885ZM70.3704 20.8413C69.7789 21.8271 69.0779 22.7472 68.2454 23.5578C66.7339 25.0693 64.4775 26.1208 61.7392 26.1208C56.6131 26.1208 52.9766 22.791 52.9766 17.0515C53.1299 12.9769 55.233 7.54409 62.1992 7.54409C63.0974 7.54409 66.1205 7.54409 68.2454 9.95381C70.6551 12.3635 70.6551 15.8467 70.8085 17.8182H58.4313C58.4313 19.9432 59.6362 22.0462 62.3526 22.0462C65.2223 22.0462 66.1205 20.228 66.8872 19.0231L70.6551 20.9947L70.3704 20.8413ZM50.4354 19.9213L49.9754 20.5347C48.9239 21.7395 47.719 21.7395 47.4123 21.7395C44.6959 21.7395 43.6444 18.8698 43.6444 16.6134C43.6444 14.4885 44.5426 11.3339 47.2809 11.3339C48.0257 11.3339 48.7924 11.6406 49.0991 11.9473C49.844 12.4073 50.1507 12.9988 50.4573 13.4588C51.0707 12.1006 51.6622 10.7424 52.7137 9.69093C51.1803 8.31082 49.1868 7.566 47.1275 7.566C41.388 7.566 38.5183 11.9473 38.5183 16.942C38.5183 24.0397 43.7978 26.0113 47.1275 26.0113C49.1868 26.0113 51.1803 25.2665 52.7137 23.8863C51.6841 22.8348 50.9393 21.5423 50.5888 20.1184L50.4354 19.9213ZM36.5248 3.60092C36.5248 5.11247 35.3199 6.47068 33.8084 6.47068C32.2968 6.47068 31.092 5.26582 31.092 3.60092C31.092 2.08937 32.2968 0.884517 33.8084 0.884517C35.3199 0.884517 36.5248 2.11128 36.5248 3.60092ZM31.2453 8.13557H36.24V25.3541H31.2453V7.98222V8.13557ZM24.1476 9.80047C25.1991 8.9023 26.404 8.13557 29.1423 7.82888V12.3635L27.4774 12.6702C25.0677 13.1303 24.301 13.415 24.301 15.6933V25.3541H19.1748V7.98222H24.1695V9.95381V9.80047H24.1476ZM8.72544 11.4654C7.69584 11.4434 6.73195 11.9692 6.16238 12.8236C5.41756 13.7217 5.11087 15.2333 5.11087 16.8982C5.11087 19.1545 5.72425 20.5347 6.31573 21.2795C6.92911 21.8929 7.82728 22.1776 8.5721 22.1776C11.1352 22.0243 12.34 19.3079 12.34 16.5915C12.1867 14.4666 11.5952 11.9035 9.31692 11.4654H8.5721H8.72544ZM4.80418 9.80047C4.80418 9.49378 5.11087 9.34043 5.26421 9.18708C6.16238 8.28891 7.67393 7.67553 9.64552 7.67553C13.8735 7.67553 17.2033 10.852 17.2033 16.7448C17.2033 20.228 15.5384 25.8141 9.64552 25.8141C7.67393 25.8141 6.62242 25.0693 5.41756 24.3026V31.4003H0.269531V8.13557H4.80418V9.64712V9.80047Z" fill="#0068EF"/>
<path id="Vector_2" d="M127.94 2.39598C129.298 2.35217 130.569 3.05318 131.27 4.21423C131.577 4.82761 131.73 5.41909 131.73 6.18581C131.73 6.79919 131.577 7.54401 131.27 8.00405C130.284 9.8442 127.984 10.5233 126.144 9.53751C125.487 9.187 124.961 8.66125 124.61 8.00405C124.304 7.54401 124.15 6.95254 124.15 6.18581C124.15 5.57243 124.304 4.82761 124.61 4.36757C125.268 3.16271 126.538 2.39598 127.94 2.39598ZM127.94 9.05556C128.4 9.05556 128.992 8.90222 129.452 8.59553C130.262 8.04787 130.766 7.1497 130.81 6.18581C130.81 5.15621 130.218 4.21423 129.298 3.7761C128.992 3.46941 128.554 3.31606 127.94 3.31606C126.911 3.31606 125.969 3.90753 125.53 4.82761C125.224 5.1343 125.07 5.72577 125.07 6.33915C125.136 7.8507 126.407 9.05556 127.94 9.05556ZM129.452 5.57243V6.18581C129.298 6.4925 129.145 6.64584 128.838 6.64584L129.583 7.8507H128.685L128.225 6.79919H127.173V7.8507H126.429V4.36757H127.94C128.4 4.36757 128.685 4.36757 128.992 4.67426C129.298 4.8276 129.452 5.11239 129.452 5.57243ZM127.327 6.18581H128.072L128.532 6.03246V5.41909V4.95905H127.173V6.01056L127.327 6.18581Z" fill="#0068EF"/>
</g>
</svg>
