<svg width="158" height="26" viewBox="0 0 158 26" fill="none" xmlns="http://www.w3.org/2000/svg">
<g id="g1690">
<g id="g1666">
<path id="path1654" d="M17.6091 22.0906C17.9724 22.0906 18.3184 22.0041 18.6471 21.8138L22.4355 19.6341C23.1967 19.2017 24.0789 19.0114 24.9612 19.1152C29.5627 19.6514 32.7803 20.5164 33.7317 20.7932C33.922 20.8451 34.1469 20.7759 34.268 20.6202C34.4237 20.4299 34.614 20.1185 34.7697 19.6687C34.9081 19.2363 34.9254 18.873 34.9081 18.6135C34.8908 18.4059 34.7524 18.2156 34.5448 18.1637C33.0571 17.7313 26.4662 15.9495 17.6091 15.9495C8.7521 15.9495 2.16121 17.7313 0.6735 18.1637C0.465913 18.2156 0.327522 18.4059 0.310223 18.6135C0.292924 18.8557 0.310224 19.219 0.448615 19.6687C0.587006 20.1185 0.794594 20.4299 0.950284 20.6202C1.07138 20.7759 1.29626 20.8451 1.48655 20.7932C2.43799 20.5164 5.67289 19.6514 10.2571 19.1152C11.1393 19.0114 12.0216 19.2017 12.7827 19.6341L16.5712 21.8138C16.8999 22.0041 17.2632 22.0906 17.6091 22.0906Z" fill="#0770E3"/>
<path id="path1656" d="M11.2955 9.82563C11.5031 10.1889 11.8318 10.4311 12.2124 10.5349C12.5929 10.6387 12.9908 10.5868 13.3541 10.3792C13.7174 10.1716 13.9596 9.84292 14.0633 9.46235C14.1671 9.08177 14.1152 8.68389 13.9077 8.32062L10.4998 2.42169C10.396 2.2314 10.1711 2.1622 9.9635 2.1795C9.68672 2.1968 9.30614 2.33519 8.85637 2.59468C8.4066 2.85416 8.09522 3.11364 7.93953 3.33853C7.81843 3.51152 7.78384 3.7364 7.88763 3.92669L11.2955 9.82563Z" fill="#0770E3"/>
<path id="path1658" d="M8.1804 14.0466C8.54368 14.2542 8.95885 14.2888 9.32213 14.2023C9.7027 14.0985 10.0314 13.8563 10.239 13.493C10.4466 13.1297 10.4812 12.7146 10.3947 12.3513C10.3082 11.988 10.0487 11.642 9.68541 11.4344L3.78647 8.02655C3.59618 7.92275 3.3713 7.95735 3.19831 8.07844C2.97342 8.23413 2.71394 8.54551 2.45446 8.99529C2.19497 9.44506 2.05658 9.82563 2.03928 10.1024C2.02198 10.3273 2.10848 10.5349 2.28147 10.6387L8.1804 14.0466Z" fill="#0770E3"/>
<path id="path1660" d="M19.1135 7.73247C19.1135 8.14765 18.9405 8.52822 18.6811 8.805C18.4043 9.08179 18.041 9.23748 17.6085 9.23748C17.1933 9.23748 16.8128 9.06449 16.536 8.805C16.2592 8.52822 16.1035 8.16494 16.1035 7.73247V0.933995C16.1035 0.709109 16.2419 0.536121 16.4495 0.449626C16.6917 0.328534 17.0896 0.259338 17.6085 0.259338C18.1275 0.259338 18.5254 0.328534 18.7676 0.449626C18.9578 0.55342 19.1135 0.709109 19.1135 0.933995V7.73247Z" fill="#0770E3"/>
<path id="path1662" d="M23.9231 9.82563C23.7156 10.1889 23.3869 10.4311 23.0063 10.5349C22.6257 10.6387 22.2279 10.5868 21.8646 10.3792C21.5013 10.1716 21.2591 9.84292 21.1553 9.46235C21.0515 9.08177 21.1034 8.68389 21.311 8.32062L24.7189 2.42169C24.8227 2.2314 25.0476 2.1622 25.2552 2.1795C25.5319 2.1968 25.9125 2.33519 26.3623 2.59468C26.8121 2.85416 27.1234 3.11364 27.2791 3.33853C27.4002 3.51152 27.4348 3.7364 27.331 3.92669L23.9231 9.82563Z" fill="#0770E3"/>
<path id="path1664" d="M27.0378 14.0466C26.6745 14.2542 26.2593 14.2888 25.896 14.2023C25.5155 14.0985 25.1868 13.8563 24.9792 13.493C24.7716 13.1297 24.737 12.7146 24.8235 12.3513C24.9273 11.9707 25.1695 11.642 25.5328 11.4344L31.4317 8.02655C31.622 7.92275 31.8469 7.95735 32.0199 8.07844C32.2447 8.23413 32.5042 8.54551 32.7637 8.99529C33.0232 9.44506 33.1616 9.82563 33.1789 10.1024C33.1962 10.3273 33.1097 10.5349 32.9367 10.6387L27.0378 14.0466Z" fill="#0770E3"/>
</g>
<g id="g1688">
<path id="path1668" d="M64.6637 9.35852H67.5007C67.6045 9.35852 67.691 9.42772 67.7429 9.51421L70.5626 16.7452L73.2958 9.51421C73.3304 9.41042 73.4342 9.35852 73.538 9.35852H76.3231C76.5134 9.35852 76.6345 9.54881 76.548 9.7045L69.6285 25.5849C69.5939 25.6714 69.4901 25.7406 69.4036 25.7406H66.9471C66.7741 25.7406 66.6357 25.5503 66.7222 25.3946L69.0922 19.8417L64.4561 9.7045C64.3523 9.54881 64.4734 9.35852 64.6637 9.35852Z" fill="#0770E3"/>
<path id="path1670" d="M106.545 10.9673V9.61793C106.545 9.47954 106.666 9.35845 106.804 9.35845H109.313C109.451 9.35845 109.572 9.47954 109.572 9.61793V20.3952C109.572 20.5336 109.451 20.6546 109.313 20.6546H106.804C106.666 20.6546 106.545 20.5336 106.545 20.3952V18.9767C106.009 19.807 104.832 20.8968 102.912 20.8968C99.2447 20.8968 97.3418 18.0944 97.3418 14.9633C97.3418 10.8808 100.179 9.13357 102.826 9.13357C104.573 9.11627 105.784 9.94661 106.545 10.9673ZM100.369 14.9806C100.369 16.9181 101.563 18.4058 103.483 18.4058C105.403 18.4058 106.631 17.1084 106.631 15.119C106.631 13.1296 105.438 11.6073 103.396 11.6073C101.476 11.6073 100.369 13.095 100.369 14.9806Z" fill="#0770E3"/>
<path id="path1672" d="M111.838 20.3953V9.61803C111.838 9.47964 111.959 9.35855 112.097 9.35855H114.606C114.744 9.35855 114.865 9.47964 114.865 9.61803V11.0884C115.453 10.0678 116.56 9.13367 118.446 9.13367C120.384 9.13367 122.546 10.0851 122.546 14.4617V20.3953C122.546 20.5337 122.425 20.6547 122.286 20.6547H119.778C119.64 20.6547 119.519 20.5337 119.519 20.3953V14.5136C119.519 13.4584 119.259 11.642 117.391 11.642C115.523 11.642 114.865 13.2854 114.865 14.8077V20.3953C114.865 20.5337 114.744 20.6547 114.606 20.6547H112.097C111.942 20.6374 111.838 20.5337 111.838 20.3953Z" fill="#0770E3"/>
<path id="path1674" d="M124.689 20.3953V9.61803C124.689 9.47964 124.811 9.35855 124.949 9.35855H127.457C127.596 9.35855 127.717 9.47964 127.717 9.61803V11.0884C128.305 10.0678 129.412 9.13367 131.298 9.13367C133.235 9.13367 135.397 10.0851 135.397 14.4617V20.3953C135.397 20.5337 135.276 20.6547 135.138 20.6547H132.63C132.491 20.6547 132.37 20.5337 132.37 20.3953V14.5136C132.37 13.4584 132.111 11.642 130.242 11.642C128.374 11.642 127.717 13.2854 127.717 14.8077V20.3953C127.717 20.5337 127.596 20.6547 127.457 20.6547H124.949C124.811 20.6374 124.689 20.5337 124.689 20.3953Z" fill="#0770E3"/>
<path id="path1676" d="M151.037 9.35847H153.476C153.614 9.35847 153.735 9.47956 153.735 9.61795V11.8495C154.22 9.63526 156.122 8.8741 157.506 9.20278C157.627 9.22008 157.697 9.32387 157.697 9.44497V11.9014C157.697 12.0571 157.558 12.1782 157.385 12.1436C154.825 11.6419 153.787 13.0258 153.787 14.9633V20.3952C153.787 20.5336 153.666 20.6547 153.528 20.6547H151.019C150.881 20.6547 150.76 20.5336 150.76 20.3952V9.61795C150.777 9.47956 150.898 9.35847 151.037 9.35847Z" fill="#0770E3"/>
<path id="path1678" d="M48.0387 11.815C47.2602 11.5555 46.8451 11.3998 46.2223 11.1922C45.5823 10.9673 44.4924 10.3446 44.4924 9.34124C44.4924 8.33791 45.1844 7.69785 46.5856 7.69785C47.8657 7.69785 48.575 8.32061 49.042 9.32394C49.1112 9.46234 49.2669 9.51423 49.4053 9.44504L51.4639 8.25141C51.5677 8.18222 51.6196 8.04383 51.5677 7.92273C50.9449 6.55612 49.4918 4.91272 46.6202 4.91272C43.4199 4.91272 41.4132 6.8156 41.4132 9.32394C41.4132 11.815 43.0566 13.1124 45.2882 13.8736C46.1012 14.1503 46.4299 14.2714 47.1219 14.4963C48.4366 14.9461 49.042 15.5343 49.042 16.3473C49.042 17.1604 48.5231 18.1291 46.4818 18.1291C44.6135 18.1291 43.9562 17.1431 43.5756 16.2089C43.5237 16.0705 43.3507 16.0013 43.2123 16.0878L41.0499 17.3333C40.9461 17.4025 40.8942 17.5236 40.9461 17.6447C41.7765 19.686 44.0426 20.8969 46.5856 20.8969C49.5783 20.8969 52.1039 19.3746 52.1039 16.2954C52.1039 13.2162 48.8172 12.0745 48.0387 11.815Z" fill="#0770E3"/>
<path id="path1680" d="M64.5596 17.6966C64.4904 17.5755 64.3174 17.5236 64.1963 17.6101C63.2276 18.3194 62.0859 18.3367 61.2209 17.0047C60.4943 15.8802 59.6121 14.4963 59.6121 14.4963L63.4179 9.77371C63.5563 9.60072 63.4352 9.35853 63.2276 9.35853H60.2522C60.1657 9.35853 60.0965 9.39313 60.0446 9.46232L56.7578 13.9773V4.89541C56.7578 4.75702 56.6367 4.63593 56.4983 4.63593H53.99C53.8516 4.63593 53.7305 4.75702 53.7305 4.89541V20.3952C53.7305 20.5336 53.8516 20.6547 53.99 20.6547H56.5156C56.654 20.6547 56.7751 20.5336 56.7751 20.3952V15.3613C56.7751 15.3613 58.4531 18.008 59.0931 18.994C59.9581 20.3433 61.169 20.8969 62.4837 20.8969C63.7292 20.8969 64.525 20.5682 65.4764 19.6341C65.5629 19.5476 65.5802 19.4265 65.5283 19.3227L64.5596 17.6966Z" fill="#0770E3"/>
<path id="path1682" d="M82.5675 14.1331C81.7718 13.839 81.495 13.7352 80.8895 13.5103C80.2841 13.2854 79.7478 12.9567 79.7478 12.4724C79.7478 11.988 80.1976 11.4517 81.1144 11.4517C81.9102 11.4517 82.3946 11.7631 82.6713 12.3167C82.7405 12.4551 82.8962 12.4897 83.0173 12.4205L84.7818 11.3998C84.9029 11.3306 84.9375 11.1749 84.8683 11.0538C84.3839 10.2062 83.4325 9.13367 81.1317 9.13367C78.312 9.13367 76.8589 10.7598 76.8589 12.5589C76.8589 14.3579 78.3293 15.2056 79.6786 15.7419C81.2009 16.3646 81.3047 16.3992 81.495 16.4684C81.9621 16.6587 82.5329 16.9528 82.5329 17.489C82.5329 18.0253 81.9102 18.5097 80.9587 18.5097C80.0765 18.5097 79.0732 18.1464 78.658 17.1258C78.6061 16.9874 78.4331 16.9182 78.2947 17.0047L76.5129 18.0253C76.4091 18.0945 76.3572 18.2156 76.4091 18.3367C76.9281 19.686 78.4677 20.8796 80.9587 20.8796C83.6574 20.8796 85.4565 19.4438 85.4565 17.4198C85.4565 15.3959 84.0725 14.6866 82.5675 14.1331Z" fill="#0770E3"/>
<path id="path1684" d="M92.7044 11.815C93.8288 11.815 94.6591 12.1609 95.4376 12.7145C95.5587 12.801 95.7317 12.7664 95.8009 12.6453L96.8388 10.8462C96.908 10.7251 96.8734 10.5867 96.7523 10.5175C95.6798 9.79099 94.3478 9.11633 92.5487 9.11633C90.7669 9.11633 89.1235 9.6007 87.9472 10.7943C86.7708 11.9707 86.2346 13.3719 86.2346 15.0326C86.2346 17.0392 87.0649 18.3194 87.9645 19.2189C88.864 20.1184 90.4901 20.8796 92.566 20.8796C94.4343 20.8796 95.8182 20.1011 96.7696 19.4784C96.8734 19.4092 96.908 19.2535 96.8388 19.1497L95.8182 17.3679C95.749 17.2468 95.576 17.1949 95.4549 17.2814C94.7802 17.7658 93.8115 18.181 92.7217 18.181C91.4934 18.181 89.2619 17.489 89.2619 14.998C89.2619 12.5069 91.4761 11.815 92.7044 11.815Z" fill="#0770E3"/>
<path id="path1686" d="M143.597 18.3886C142.594 18.3886 141.643 18.1464 140.951 17.5928C140.259 17.0392 139.93 16.4684 139.93 15.7937H148.891C149.029 15.7937 149.15 15.6726 149.15 15.5342C149.098 12.8702 148.233 11.6247 147.403 10.777C146.538 9.91208 145.068 9.11633 143.13 9.11633C141.193 9.11633 139.705 9.82559 138.684 10.8289C137.681 11.8323 136.92 13.1124 136.92 15.0499C136.92 16.9873 137.698 18.2675 138.65 19.2189C139.601 20.1703 141.158 20.8796 143.39 20.8796C145.5 20.8796 147.282 20.1357 148.562 18.6653C148.666 18.5442 148.631 18.354 148.493 18.2848L146.711 17.2468C146.625 17.1949 146.504 17.1949 146.417 17.2814C145.535 18.1118 144.41 18.3886 143.597 18.3886ZM143.113 11.5382C144.549 11.5382 145.863 12.4031 146.071 13.96H140.034C140.432 12.282 141.677 11.5382 143.113 11.5382Z" fill="#0770E3"/>
</g>
</g>
</svg>
