<svg width="110" height="38" viewBox="0 0 110 38" fill="none" xmlns="http://www.w3.org/2000/svg">
<g id="Group 38">
<path id="Vector" d="M0.345518 3.86197C0.96052 3.85072 1.57549 3.84294 2.19058 3.83757C2.39988 3.83533 2.60918 3.8323 2.81847 3.82846C3.11902 3.82308 3.41949 3.82056 3.72008 3.81859C3.86083 3.81516 3.86083 3.81516 4.00443 3.81165C4.24364 3.81155 4.4636 3.81571 4.69827 3.86197C4.88433 4.05787 4.88433 4.05787 4.96477 4.30613C4.9895 4.38047 5.01423 4.45482 5.03972 4.53142C5.05895 4.6096 5.07819 4.68778 5.09801 4.76833C5.12 4.85547 5.14198 4.94261 5.16464 5.0324C5.18662 5.12251 5.20861 5.21263 5.23126 5.30548C5.37138 5.87107 5.51722 6.42773 5.70713 6.9788C5.77761 7.18849 5.83104 7.39963 5.88084 7.61511C6.00499 8.12609 6.14655 8.63103 6.29169 9.13635C6.31495 9.21739 6.33821 9.29844 6.36217 9.38194C6.46333 9.73358 6.56503 10.085 6.66783 10.4362C6.81244 10.9334 6.94563 11.4289 7.05786 11.9345C7.12901 12.2536 7.20562 12.5572 7.32436 12.8617C7.50537 13.3261 7.62971 13.7523 7.62971 14.2553C7.68834 14.2553 7.74697 14.2553 7.80738 14.2553C7.81889 14.1757 7.81889 14.1757 7.83063 14.0946C7.92832 13.4914 8.08475 12.9193 8.26169 12.336C8.37385 11.9636 8.47394 11.593 8.5569 11.2128C8.75964 10.297 9.03885 9.40015 9.30077 8.49995C9.54492 7.65949 9.78299 6.82325 9.97092 5.96825C10.0391 5.68156 10.1293 5.40753 10.2273 5.1299C10.3353 4.80601 10.4182 4.47557 10.5036 4.14512C10.5612 3.9508 10.5612 3.9508 10.65 3.86197C10.7782 3.85371 10.9067 3.85153 11.0352 3.85188C11.117 3.85189 11.1988 3.8519 11.2831 3.8519C11.372 3.85236 11.4609 3.85282 11.5525 3.85329C11.6431 3.85342 11.7337 3.85354 11.827 3.85367C12.1176 3.85417 12.4081 3.85529 12.6987 3.85642C12.8951 3.85686 13.0916 3.85727 13.288 3.85763C13.7708 3.85861 14.2535 3.8601 14.7362 3.86197C14.8985 4.22696 15.0392 4.57478 15.136 4.96334C15.158 5.04991 15.18 5.13648 15.2026 5.22567C15.2246 5.3143 15.2466 5.40293 15.2692 5.49425C15.4095 6.05512 15.557 6.6065 15.7451 7.15329C15.8194 7.37844 15.8706 7.60515 15.9188 7.83719C16.1215 8.74719 16.3946 9.639 16.6564 10.5334C16.814 11.072 16.9641 11.6084 17.0847 12.1566C17.2367 12.8398 17.4517 13.5014 17.6677 14.1664C18.1316 12.7106 18.1316 12.7106 18.4935 11.2274C18.5441 11.0178 18.6036 10.824 18.674 10.6208C18.8735 10.0351 19.0219 9.43493 19.1778 8.83654C19.5234 7.50985 19.5234 7.50985 19.7445 6.87184C19.8252 6.62724 19.8795 6.37895 19.9329 6.12718C20.0383 5.65501 20.1714 5.20577 20.3326 4.75029C20.4026 4.53572 20.4722 4.32102 20.5415 4.10626C20.5991 3.9508 20.5991 3.9508 20.688 3.86197C20.8243 3.85369 20.961 3.85153 21.0976 3.85188C21.1848 3.85189 21.2719 3.8519 21.3617 3.8519C21.4564 3.85236 21.5512 3.85282 21.6488 3.85329C21.7935 3.85348 21.7935 3.85348 21.9412 3.85367C22.2508 3.85417 22.5603 3.85529 22.8699 3.85642C23.0792 3.85686 23.2885 3.85727 23.4978 3.85763C24.0121 3.85861 24.5264 3.8601 25.0407 3.86197C25.1298 4.17537 25.1151 4.35051 25.0241 4.66596C24.9864 4.79876 24.9864 4.79876 24.9479 4.93424C24.9199 5.02927 24.8919 5.1243 24.8631 5.2222C24.8347 5.32113 24.8063 5.42005 24.777 5.52197C24.5645 6.25792 24.3399 6.99008 24.1136 7.7219C23.8765 8.49592 23.6732 9.27741 23.4723 10.0614C23.2794 10.8138 23.085 11.5638 22.7984 12.2867C22.7197 12.5111 22.6638 12.7364 22.6079 12.9676C22.4737 13.5126 22.3277 14.0535 22.1759 14.5939C22.149 14.6901 22.1221 14.7863 22.0943 14.8854C21.8942 15.5953 21.68 16.3001 21.4613 17.0045C21.2014 17.8522 20.9765 18.709 20.7548 19.5674C20.365 21.063 20.365 21.063 20.155 21.273C20.0115 21.2827 19.8675 21.2862 19.7237 21.2873C19.6318 21.2881 19.5399 21.289 19.4452 21.2899C19.3452 21.2903 19.2451 21.2906 19.1421 21.291C18.9891 21.2918 18.9891 21.2918 18.8331 21.2926C18.6169 21.2934 18.4007 21.294 18.1845 21.2943C17.8526 21.2952 17.5208 21.2979 17.189 21.3007C16.9795 21.3013 16.77 21.3018 16.5604 21.3021C16.4606 21.3032 16.3607 21.3043 16.2579 21.3054C16.1196 21.305 16.1196 21.305 15.9785 21.3046C15.8971 21.305 15.8157 21.3053 15.7319 21.3056C15.6671 21.2948 15.6024 21.2841 15.5357 21.273C15.3358 20.9731 15.279 20.7366 15.1946 20.3867C15.1797 20.3259 15.1649 20.2651 15.1495 20.2024C15.1019 20.0079 15.0551 19.8132 15.0083 19.6185C14.757 18.5606 14.757 18.5606 14.4347 17.5227C14.36 17.303 14.3115 17.0806 14.2643 16.8536C14.0616 15.9436 13.7886 15.0518 13.5268 14.1574C13.34 13.5193 13.1698 12.8831 13.0314 12.2326C12.939 11.8632 12.8175 11.5059 12.6931 11.1462C12.6775 11.204 12.662 11.2619 12.6459 11.3215C12.6238 11.4036 12.6017 11.4857 12.579 11.5702C12.5541 11.6626 12.5292 11.755 12.5036 11.8502C12.448 12.0565 12.3924 12.2628 12.3368 12.4691C12.1908 13.011 12.0453 13.553 11.9009 14.0953C11.8736 14.1976 11.8463 14.2999 11.8182 14.4052C11.7661 14.6004 11.7142 14.7956 11.6625 14.9909C11.5367 15.4616 11.3998 15.9243 11.2421 16.3852C11.1541 16.6527 11.0878 16.9241 11.022 17.1978C10.992 17.3203 10.9619 17.4428 10.9318 17.5653C10.9154 17.6316 10.8991 17.698 10.8823 17.7663C10.7761 18.1938 10.666 18.6202 10.5556 19.0466C10.5338 19.1318 10.512 19.2169 10.4896 19.3047C10.3148 19.9782 10.109 20.6268 9.85051 21.273C8.32616 21.273 6.8018 21.273 5.23126 21.273C5.05491 20.8027 4.90833 20.377 4.7871 19.8961C4.68271 19.49 4.56769 19.0976 4.41033 18.7089C4.33068 18.4847 4.27559 18.2596 4.22011 18.0282C4.08892 17.4949 3.9389 16.969 3.78219 16.4428C3.545 15.6392 3.31801 14.8336 3.10301 14.0239C3.00878 13.6721 2.91003 13.3245 2.79255 12.9797C2.62349 12.4833 2.48454 11.9789 2.34423 11.4737C2.31801 11.3804 2.29179 11.287 2.26477 11.1908C2.10895 10.6324 1.96293 10.0726 1.8272 9.50896C1.7739 9.30744 1.71091 9.11868 1.63358 8.92537C1.52631 8.65474 1.45137 8.38688 1.38374 8.10368C1.26396 7.60567 1.12137 7.11687 0.972892 6.62685C0.938292 6.51213 0.938292 6.51213 0.902993 6.39508C0.81649 6.10854 0.729956 5.82201 0.641898 5.53593C0.590477 5.36866 0.540138 5.20106 0.48987 5.03344C0.4617 4.94126 0.433531 4.84908 0.404508 4.7541C0.338197 4.45024 0.341629 4.17215 0.345518 3.86197Z" fill="#FF0000"/>
<path id="Vector_2" d="M37.735 2.60767C37.8089 2.60786 37.8829 2.60806 37.9591 2.60826C38.0427 2.60827 38.1263 2.60828 38.2124 2.60828C38.3033 2.60874 38.3941 2.6092 38.4878 2.60967C38.5803 2.6098 38.6728 2.60992 38.7682 2.61005C39.0651 2.61055 39.362 2.61167 39.6589 2.6128C39.8596 2.61324 40.0604 2.61365 40.2611 2.61401C40.7544 2.61499 41.2476 2.61648 41.7409 2.61835C41.8696 2.87588 41.8403 3.09931 41.8398 3.38699C41.8398 3.44767 41.8398 3.50835 41.8398 3.57086C41.8398 3.77178 41.8391 3.97268 41.8384 4.1736C41.8382 4.31276 41.8381 4.45192 41.838 4.59108C41.8377 4.95763 41.8368 5.32419 41.8358 5.69074C41.8349 6.06467 41.8345 6.43859 41.834 6.81252C41.8331 7.54643 41.8316 8.28033 41.8297 9.01423C41.9276 8.95047 41.9276 8.95047 42.0274 8.88543C42.114 8.82957 42.2006 8.77371 42.2898 8.71616C42.3752 8.66083 42.4606 8.6055 42.5486 8.54849C43.9 7.73158 45.8032 7.57596 47.321 7.94651C47.6339 8.04074 47.9296 8.16461 48.2256 8.30358C48.2946 8.33323 48.3637 8.36289 48.4348 8.39345C48.892 8.60301 49.3452 8.87549 49.7357 9.19189C49.7357 9.25052 49.7357 9.30915 49.7357 9.36956C49.7943 9.36956 49.853 9.36956 49.9134 9.36956C49.9134 9.42818 49.9134 9.48681 49.9134 9.54722C49.992 9.5802 49.992 9.5802 50.0723 9.61384C51.0011 10.139 51.5614 11.6099 51.8677 12.5675C52.3813 14.4919 52.222 16.7182 51.2205 18.4561C50.5066 19.5847 50.5066 19.5847 50.091 19.9405C50.0324 19.9405 49.9738 19.9405 49.9134 19.9405C49.9134 19.9992 49.9134 20.0578 49.9134 20.1182C49.8548 20.1182 49.7961 20.1182 49.7357 20.1182C49.7357 20.1768 49.7357 20.2354 49.7357 20.2959C48.4692 21.208 47.2373 21.66 45.6772 21.6616C45.5715 21.6638 45.4657 21.666 45.3568 21.6682C44.0478 21.6725 42.8898 21.2267 41.8297 20.4735C41.8004 20.7373 41.7711 21.0012 41.7409 21.273C41.1479 21.2752 40.5549 21.2768 39.962 21.2779C39.7601 21.2783 39.5582 21.2789 39.3563 21.2797C39.0668 21.2808 38.7773 21.2813 38.4878 21.2817C38.3969 21.2821 38.306 21.2826 38.2124 21.2831C38.1288 21.2831 38.0452 21.2831 37.9591 21.2831C37.8851 21.2833 37.8112 21.2835 37.735 21.2837C37.5658 21.273 37.5658 21.273 37.4769 21.1842C37.4681 20.9462 37.465 20.7106 37.4657 20.4726C37.4655 20.3594 37.4655 20.3594 37.4652 20.2439C37.4649 19.9891 37.4652 19.7342 37.4655 19.4794C37.4653 19.2975 37.4652 19.1156 37.465 18.9336C37.4646 18.4381 37.4647 17.9426 37.465 17.447C37.4652 16.9297 37.465 16.4124 37.4649 15.895C37.4647 15.0261 37.4649 14.1571 37.4654 13.2881C37.4658 12.2819 37.4657 11.2757 37.4652 10.2695C37.4648 9.40726 37.4647 8.54505 37.465 7.68284C37.4651 7.16714 37.4651 6.65143 37.4648 6.13572C37.4646 5.65101 37.4648 5.16629 37.4653 4.68158C37.4654 4.50313 37.4654 4.32469 37.4652 4.14624C37.4649 3.90373 37.4652 3.66123 37.4657 3.41872C37.4655 3.34715 37.4653 3.27558 37.4651 3.20183C37.4671 2.62458 37.4671 2.62458 37.735 2.60767ZM42.5022 12.5588C41.8547 13.4237 41.7548 14.366 41.8297 15.4101C41.9578 15.995 42.1543 16.5458 42.5404 17.0091C42.599 17.0091 42.6576 17.0091 42.718 17.0091C42.718 17.0677 42.718 17.1263 42.718 17.1867C43.3959 17.7745 44.1935 18.039 45.0835 18.0057C45.7445 17.9447 46.2394 17.707 46.8043 17.3644C46.8043 17.3058 46.8043 17.2471 46.8043 17.1867C46.8629 17.1867 46.9215 17.1867 46.9819 17.1867C46.9819 17.1281 46.9819 17.0695 46.9819 17.0091C47.0406 17.0091 47.0992 17.0091 47.1596 17.0091C47.7627 16.3324 47.919 15.3624 47.89 14.4857C47.8099 13.5528 47.479 12.7814 46.8043 12.1233C45.4582 11.1069 43.6445 11.3501 42.5022 12.5588Z" fill="#FF0000"/>
<path id="Vector_3" d="M92.8199 2.61835C93.507 2.61652 94.194 2.61468 94.9019 2.6128C95.2276 2.61158 95.2276 2.61158 95.56 2.61035C95.731 2.61009 95.902 2.60986 96.073 2.60967C96.1627 2.60922 96.2524 2.60876 96.3448 2.6083C96.4296 2.60829 96.5143 2.60827 96.6016 2.60826C96.6756 2.60807 96.7496 2.60787 96.8258 2.60767C96.995 2.61835 96.995 2.61835 97.0838 2.70718C97.0927 2.94511 97.0958 3.18075 97.0951 3.41872C97.0952 3.49419 97.0954 3.56965 97.0955 3.6474C97.0959 3.90227 97.0956 4.15712 97.0953 4.41198C97.0954 4.59389 97.0956 4.7758 97.0958 4.9577C97.0962 5.45324 97.096 5.94877 97.0958 6.4443C97.0955 6.96165 97.0957 7.47899 97.0959 7.99633C97.096 8.86529 97.0958 9.73426 97.0954 10.6032C97.0949 11.6094 97.0951 12.6157 97.0956 13.6219C97.096 14.4841 97.096 15.3463 97.0958 16.2085C97.0957 16.7242 97.0956 17.2399 97.0959 17.7556C97.0962 18.2403 97.096 18.7251 97.0955 19.2098C97.0954 19.3882 97.0954 19.5667 97.0956 19.7451C97.0958 19.9876 97.0955 20.2301 97.0951 20.4726C97.0953 20.5442 97.0955 20.6158 97.0957 20.6895C97.094 21.174 97.094 21.174 96.995 21.273C96.8641 21.2813 96.7328 21.2834 96.6016 21.2831C96.5181 21.2831 96.4345 21.2831 96.3484 21.2831C96.2575 21.2826 96.1666 21.2821 96.073 21.2817C95.9342 21.2815 95.9342 21.2815 95.7926 21.2813C95.4957 21.2808 95.1988 21.2797 94.9019 21.2786C94.7012 21.2781 94.5004 21.2777 94.2997 21.2773C93.8064 21.2764 93.3132 21.2748 92.8199 21.273C92.8199 21.0092 92.8199 20.7453 92.8199 20.4735C92.7704 20.5015 92.721 20.5294 92.67 20.5582C91.4138 21.2626 90.3997 21.6601 88.9391 21.6616C88.8333 21.6638 88.7276 21.666 88.6186 21.6682C87.2044 21.6728 85.6783 21.1242 84.6474 20.1182C84.6474 20.0596 84.6474 20.0009 84.6474 19.9405C84.5888 19.9405 84.5301 19.9405 84.4697 19.9405C84.4697 19.8819 84.4697 19.8233 84.4697 19.7629C84.4111 19.7629 84.3525 19.7629 84.2921 19.7629C84.2921 19.7042 84.2921 19.6456 84.2921 19.5852C84.2334 19.5852 84.1748 19.5852 84.1144 19.5852C84.0265 19.3653 84.0265 19.3653 83.9367 19.141C83.8781 19.141 83.8195 19.141 83.7591 19.141C82.5602 17.4225 82.1708 15.2812 82.5317 13.2292C82.7708 12.219 83.1322 11.1852 83.7591 10.3467C83.8177 10.3467 83.8763 10.3467 83.9367 10.3467C83.973 10.2687 83.973 10.2687 84.01 10.1892C84.2215 9.78851 84.4953 9.44559 84.9028 9.24186C84.9962 9.21713 84.9962 9.21713 85.0915 9.19189C85.0915 9.13326 85.0915 9.07463 85.0915 9.01423C85.2856 8.9009 85.48 8.7881 85.6745 8.67556C85.7286 8.6439 85.7827 8.61223 85.8385 8.57961C87.2666 7.75597 88.9883 7.59011 90.6026 7.94027C91.2092 8.10507 91.7623 8.37153 92.2855 8.71824C92.4878 8.85707 92.4878 8.85707 92.8199 9.01423C92.8199 6.90359 92.8199 4.79295 92.8199 2.61835ZM87.3994 12.5349C86.7076 13.3618 86.6059 14.3646 86.6905 15.4101C86.8718 16.2957 87.2394 16.9741 87.9897 17.4865C88.7467 17.962 89.5369 18.1152 90.4214 17.9196C91.2687 17.6768 91.9156 17.2113 92.4101 16.4688C92.8057 15.7231 92.956 14.8711 92.7724 14.0402C92.7092 13.8398 92.6356 13.6491 92.5534 13.4558C92.5307 13.3966 92.5081 13.3374 92.4847 13.2764C92.252 12.7352 91.8573 12.3106 91.3986 11.9457C91.3107 11.9457 91.2227 11.9457 91.1321 11.9457C91.1321 11.887 91.1321 11.8284 91.1321 11.768C89.7884 11.1572 88.3861 11.4989 87.3994 12.5349Z" fill="#FF0000"/>
<path id="Vector_4" d="M53.5117 8.46971C53.6393 8.46929 53.6393 8.46929 53.7695 8.46886C53.862 8.46904 53.9546 8.46922 54.0499 8.46941C54.1442 8.46932 54.2385 8.46924 54.3357 8.46915C54.5355 8.46909 54.7353 8.46925 54.9352 8.46962C55.2422 8.4701 55.5493 8.46963 55.8564 8.46906C56.05 8.46912 56.2436 8.46923 56.4372 8.46941C56.576 8.46914 56.576 8.46914 56.7176 8.46886C56.8027 8.46914 56.8878 8.46942 56.9754 8.46971C57.0507 8.46978 57.126 8.46985 57.2036 8.46992C57.3755 8.4812 57.3755 8.4812 57.4644 8.57004C57.4721 8.74767 57.4739 8.92557 57.473 9.10337C57.4727 9.2113 57.4725 9.31922 57.4722 9.43042C57.471 9.6009 57.471 9.6009 57.4699 9.77482C57.4695 9.88881 57.4691 10.0028 57.4687 10.1203C57.4676 10.403 57.4662 10.6857 57.4644 10.9685C58.046 10.9625 58.6275 10.9545 59.2091 10.9452C59.4067 10.9422 59.6044 10.9397 59.802 10.9377C60.087 10.9347 60.3718 10.9301 60.6567 10.9251C60.7444 10.9245 60.8321 10.924 60.9224 10.9234C61.4768 10.9117 62.0483 10.8798 62.4854 10.4937C62.8776 10.0499 62.9954 9.66305 62.9775 9.08082C62.9727 8.91061 62.9701 8.7403 62.9719 8.57004C63.0012 8.54072 63.0305 8.51141 63.0608 8.4812C64.2441 8.48854 65.3224 8.70379 66.2587 9.45835C66.5858 9.8301 66.7529 10.1506 66.8201 10.6447C66.7801 10.9752 66.6285 11.1115 66.403 11.3516C66.3309 11.43 66.2588 11.5085 66.1844 11.5893C65.9922 11.768 65.9922 11.768 65.8145 11.768C65.8145 11.8266 65.8145 11.8852 65.8145 11.9456C65.58 12.0629 65.3455 12.1802 65.1039 12.301C65.5436 12.5355 65.9833 12.77 66.4364 13.0116C66.4364 13.0702 66.4364 13.1289 66.4364 13.1893C66.495 13.1893 66.5536 13.1893 66.614 13.1893C66.614 13.2479 66.614 13.3065 66.614 13.3669C66.6726 13.3669 66.7313 13.3669 66.7917 13.3669C66.7917 13.4256 66.7917 13.4842 66.7917 13.5446C66.8503 13.5446 66.9089 13.5446 66.9693 13.5446C67.1165 13.7591 67.1165 13.7591 67.2803 14.0443C67.3343 14.137 67.3884 14.2298 67.444 14.3254C67.7876 14.9915 67.8013 15.5733 67.8021 16.3095C67.8043 16.4126 67.8065 16.5156 67.8087 16.6218C67.8119 17.5554 67.6106 18.3811 67.0915 19.1632C67.039 19.2443 66.9866 19.3254 66.9326 19.4089C66.8861 19.4671 66.8396 19.5252 66.7917 19.5852C66.7331 19.5852 66.6744 19.5852 66.614 19.5852C66.614 19.6438 66.614 19.7024 66.614 19.7628C66.5554 19.7628 66.4968 19.7628 66.4364 19.7628C66.4364 19.8215 66.4364 19.8801 66.4364 19.9405C65.3298 21.0216 63.6697 21.3034 62.1897 21.2931C62.04 21.2932 62.04 21.2932 61.8873 21.2932C61.561 21.2931 61.2347 21.2917 60.9083 21.2903C60.6807 21.29 60.453 21.2897 60.2254 21.2896C59.6897 21.2889 59.1539 21.2876 58.6182 21.2858C58.0076 21.2838 57.3971 21.2828 56.7865 21.2819C55.5319 21.2801 54.2773 21.2769 53.0228 21.273C53.0207 19.6182 53.0191 17.9635 53.0182 16.3088C53.0177 15.5405 53.0171 14.7723 53.0161 14.004C53.0152 13.3346 53.0146 12.6653 53.0144 11.9959C53.0143 11.6413 53.014 11.2866 53.0134 10.932C53.0128 10.5985 53.0126 10.2651 53.0127 9.93169C53.0127 9.80897 53.0125 9.68624 53.0122 9.56352C53.0117 9.39667 53.0119 9.22982 53.0121 9.06297C53.012 8.96938 53.0119 8.87578 53.0118 8.77935C53.0309 8.41354 53.1863 8.47002 53.5117 8.46971ZM57.4644 14.0776C57.4644 15.2795 57.4644 16.4814 57.4644 17.7197C58.0538 17.7279 58.643 17.735 59.2324 17.7392C59.4326 17.741 59.6327 17.7434 59.8328 17.7465C60.1219 17.7509 60.411 17.7528 60.7001 17.7544C60.7883 17.7562 60.8766 17.7581 60.9675 17.76C61.6075 17.7602 62.1189 17.617 62.7054 17.3644C62.7054 17.3057 62.7054 17.2471 62.7054 17.1867C62.7641 17.1867 62.8227 17.1867 62.8831 17.1867C63.3002 16.6306 63.3867 16.1799 63.3272 15.4989C63.2271 14.9927 63.0101 14.6918 62.6176 14.3642C62.0647 14.0271 61.5085 14.0542 60.8823 14.0603C60.7845 14.0605 60.6866 14.0608 60.5858 14.061C60.2745 14.062 59.9632 14.0642 59.6518 14.0665C59.4403 14.0674 59.2287 14.0682 59.0172 14.0689C58.4996 14.0707 57.982 14.0742 57.4644 14.0776Z" fill="#FF0000"/>
<path id="Vector_5" d="M77.8069 8.30355C77.9028 8.3442 77.9986 8.38485 78.0974 8.42673C78.7251 8.71494 79.2466 9.08905 79.7612 9.54719C79.8178 9.59746 79.8744 9.64773 79.9326 9.69952C81.2041 10.9003 81.8174 12.6197 81.8932 14.3441C81.9223 15.5893 81.9223 15.5893 81.8044 15.9431C78.7263 15.9431 75.6483 15.9431 72.477 15.9431C72.5943 16.2069 72.7115 16.4707 72.8324 16.7426C72.8324 16.8305 72.8324 16.9184 72.8324 17.0091C72.891 17.0091 72.9496 17.0091 73.01 17.0091C73.2765 17.3165 73.2765 17.3165 73.2765 17.542C73.3727 17.5778 73.3727 17.5778 73.4708 17.6142C73.7207 17.7197 73.7207 17.7197 73.9483 17.8585C74.5544 18.216 75.4174 18.1493 76.0928 18.0341C76.808 17.8215 77.3504 17.3861 77.7181 16.7426C78.3834 16.7737 78.9994 16.8487 79.6419 17.024C80.2369 17.172 80.8445 17.2634 81.449 17.3644C81.5597 17.7838 81.5013 17.955 81.2995 18.3235C80.8602 19.0587 80.8602 19.0587 80.6495 19.3187C80.5909 19.3187 80.5323 19.3187 80.4719 19.3187C80.4517 19.3681 80.4316 19.4176 80.4108 19.4686C80.2609 19.7328 80.0751 19.9156 79.8501 20.1182C79.7914 20.1182 79.7328 20.1182 79.6724 20.1182C79.6724 20.1768 79.6724 20.2354 79.6724 20.2958C79.4951 20.4214 79.3199 20.5345 79.1339 20.6456C79.0339 20.7069 78.9339 20.7681 78.8309 20.8312C77.2597 21.7436 75.1186 21.9294 73.357 21.5474C73.0209 21.4554 72.7055 21.3286 72.3882 21.1841C72.2914 21.1414 72.1947 21.0987 72.095 21.0547C71.5502 20.7976 70.9865 20.507 70.5227 20.1182C70.5227 20.0595 70.5227 20.0009 70.5227 19.9405C70.4696 19.9167 70.4165 19.8929 70.3617 19.8683C70.1675 19.7629 70.0419 19.6655 69.9009 19.4963C69.9009 19.4377 69.9009 19.3791 69.9009 19.3187C69.8423 19.3187 69.7837 19.3187 69.7233 19.3187C69.5855 19.1382 69.4618 18.9601 69.3402 18.769C69.3045 18.7135 69.2688 18.658 69.2321 18.6008C68.94 18.1315 68.7389 17.6605 68.5573 17.1378C68.4998 16.9277 68.4998 16.9277 68.3908 16.8314C67.868 14.9642 68.1349 12.9449 69.0296 11.2516C69.487 10.4454 69.487 10.4454 69.7233 10.169C69.7819 10.169 69.8405 10.169 69.9009 10.169C69.9315 10.0929 69.9315 10.0929 69.9627 10.0153C70.5406 9.00995 72.0314 8.35519 73.0989 8.03705C73.2001 8.00545 73.3013 7.97384 73.4056 7.94128C74.7984 7.6029 76.5006 7.71762 77.8069 8.30355ZM73.8095 11.5903C73.8095 11.6489 73.8095 11.7076 73.8095 11.768C73.7573 11.777 73.7051 11.7861 73.6513 11.7954C73.4197 11.8676 73.3143 11.9583 73.1433 12.1289C73.0677 12.2019 73.0677 12.2019 72.9906 12.2763C72.7699 12.5447 72.7699 12.5447 72.477 13.1893C74.148 13.1893 75.8189 13.1893 77.5404 13.1893C77.4089 12.5315 77.0585 12.0444 76.5001 11.6646C75.7 11.2106 74.6384 11.2018 73.8095 11.5903Z" fill="#FF0000"/>
<path id="Vector_6" d="M34.0127 9.01433C34.0127 9.07296 34.0127 9.13159 34.0127 9.192C34.0731 9.20848 34.1336 9.22497 34.1959 9.24196C35.2614 9.76337 35.8858 11.0655 36.2966 12.1238C36.5951 13.0133 36.7169 13.8216 36.6998 14.7606C36.6994 14.8652 36.6989 14.9698 36.6984 15.0776C36.6914 15.8406 36.6914 15.8406 36.5888 15.9432C36.4685 15.9517 36.3479 15.954 36.2274 15.9539C36.1106 15.9541 36.1106 15.9541 35.9914 15.9543C35.8623 15.9538 35.8623 15.9538 35.7306 15.9533C35.6405 15.9533 35.5504 15.9533 35.4575 15.9533C35.1581 15.9533 34.8586 15.9526 34.5592 15.9519C34.3522 15.9517 34.1452 15.9516 33.9382 15.9515C33.3921 15.9512 32.8461 15.9503 32.3001 15.9493C31.7434 15.9484 31.1866 15.948 30.6299 15.9475C29.5367 15.9466 28.4435 15.9451 27.3503 15.9432C27.4033 16.0841 27.4571 16.2247 27.5113 16.3652C27.5412 16.4435 27.5711 16.5218 27.6019 16.6025C27.7028 16.8254 27.825 16.993 27.9721 17.1868C27.9721 17.2455 27.9721 17.3041 27.9721 17.3645C28.0307 17.3645 28.0894 17.3645 28.1498 17.3645C28.1498 17.4231 28.1498 17.4818 28.1498 17.5422C28.2084 17.5422 28.267 17.5422 28.3274 17.5422C28.3274 17.6008 28.3274 17.6594 28.3274 17.7198C28.4044 17.7455 28.4813 17.7711 28.5606 17.7976C28.7434 17.8585 28.9253 17.9221 29.1054 17.9905C29.972 18.2453 30.8209 18.115 31.6142 17.7198C31.7618 17.6595 31.9098 17.6 32.0584 17.5422C32.0584 17.4835 32.0584 17.4249 32.0584 17.3645C32.117 17.3645 32.1756 17.3645 32.236 17.3645C32.2617 17.2949 32.2873 17.2253 32.3138 17.1535C32.4137 16.9204 32.4137 16.9204 32.5913 16.7427C33.1765 16.6867 33.7367 16.8335 34.3069 16.9537C34.4026 16.9734 34.4983 16.9931 34.5968 17.0133C34.7854 17.0522 34.974 17.0912 35.1625 17.1305C35.5487 17.2106 35.9354 17.2878 36.3223 17.3645C36.4105 17.6421 36.4181 17.7025 36.3032 17.9877C36.2527 18.0825 36.2022 18.1773 36.1502 18.275C36.0999 18.3708 36.0496 18.4665 35.9978 18.5651C35.9583 18.638 35.9188 18.7108 35.8781 18.7858C35.8195 18.7858 35.7609 18.7858 35.7005 18.7858C35.693 18.8357 35.6856 18.8857 35.6779 18.9371C35.5913 19.2038 35.4492 19.3557 35.2619 19.5631C35.1672 19.6696 35.1672 19.6696 35.0707 19.7782C34.901 19.9406 34.901 19.9406 34.7233 19.9406C34.7233 19.9993 34.7233 20.0579 34.7233 20.1183C34.125 20.6423 33.4058 20.9659 32.6802 21.2731C32.6139 21.3037 32.5476 21.3342 32.4793 21.3658C31.6677 21.6494 30.8622 21.6557 30.0097 21.6506C29.8933 21.6513 29.7769 21.652 29.657 21.6527C28.5864 21.6506 27.7871 21.4522 26.8173 21.0066C26.6962 20.9522 26.6962 20.9522 26.5727 20.8966C25.8369 20.5335 25.2452 20.0009 24.6853 19.4076C24.656 19.3197 24.6267 19.2317 24.5965 19.1411C24.5379 19.1411 24.4792 19.1411 24.4188 19.1411C23.8974 18.4378 23.529 17.6645 23.264 16.8315C23.2316 16.7304 23.1992 16.6293 23.1658 16.5251C23.0294 15.9572 23.0473 15.3692 23.0475 14.7884C23.0474 14.7269 23.0473 14.6654 23.0472 14.6021C23.0493 13.6476 23.126 12.8234 23.5305 11.9458C23.5753 11.846 23.6201 11.7463 23.6662 11.6435C23.8818 11.1909 24.1103 10.7434 24.4188 10.3468C24.4775 10.3468 24.5361 10.3468 24.5965 10.3468C24.6203 10.2942 24.6441 10.2417 24.6687 10.1875C25.2035 9.19351 26.4447 8.61563 27.4391 8.21485C27.5258 8.17786 27.6125 8.14087 27.7018 8.10277C29.7668 7.3625 32.2223 7.82076 34.0127 9.01433ZM29.0381 11.5016C28.9833 11.5231 28.9286 11.5447 28.8722 11.5669C28.6109 11.6731 28.3851 11.7889 28.1498 11.9458C28.1498 12.0044 28.1498 12.063 28.1498 12.1234C28.0911 12.1234 28.0325 12.1234 27.9721 12.1234C27.8572 12.2463 27.8572 12.2463 27.75 12.4066C27.7125 12.4592 27.6749 12.5117 27.6362 12.5659C27.4997 12.7811 27.4997 12.7811 27.3503 13.1894C29.0212 13.1894 30.6921 13.1894 32.4137 13.1894C32.188 12.5122 31.8627 11.993 31.2589 11.5905C30.5775 11.2716 29.7371 11.222 29.0381 11.5016Z" fill="#FF0000"/>
<path id="Vector_7" d="M103.484 7.82617C103.546 7.82625 103.607 7.82633 103.67 7.82641C105.404 7.83368 106.98 8.18863 108.266 9.43659C108.783 9.98582 109.211 10.5927 109.431 11.3239C109.398 11.5755 109.398 11.5755 109.342 11.7681C109.246 11.7842 109.151 11.8004 109.052 11.817C108.346 11.9379 107.648 12.0721 106.952 12.2393C106.508 12.339 106.06 12.4099 105.611 12.4787C105.536 12.3643 105.462 12.2495 105.389 12.1345C105.327 12.0387 105.327 12.0387 105.264 11.9409C105.167 11.7681 105.167 11.7681 105.167 11.5904C105.108 11.5904 105.049 11.5904 104.989 11.5904C104.989 11.5318 104.989 11.4732 104.989 11.4128C104.893 11.3743 104.893 11.3743 104.795 11.335C104.643 11.2745 104.493 11.2109 104.346 11.1417C104.048 11.0394 103.799 11.0307 103.484 11.0297C103.379 11.0282 103.274 11.0267 103.166 11.0252C102.825 11.0608 102.614 11.1438 102.324 11.3239C102.118 11.6324 102.124 11.7616 102.146 12.1234C102.176 12.2113 102.205 12.2993 102.235 12.3899C102.445 12.4643 102.641 12.5192 102.857 12.5676C102.952 12.5901 102.952 12.5901 103.049 12.613C103.573 12.7341 104.101 12.8273 104.631 12.9161C105.147 13.0038 105.643 13.1287 106.144 13.2782C106.248 13.3057 106.353 13.3332 106.46 13.3615C107.105 13.5608 107.7 13.8157 108.276 14.1665C108.276 14.2252 108.276 14.2838 108.276 14.3442C108.354 14.3772 108.354 14.3772 108.434 14.4108C108.662 14.5392 108.781 14.6718 108.942 14.8772C108.992 14.9395 109.043 15.0018 109.095 15.066C109.532 15.7718 109.666 16.4072 109.653 17.2312C109.655 17.3602 109.655 17.3602 109.657 17.4918C109.651 18.5319 109.229 19.3491 108.542 20.1183C107.204 21.3107 105.589 21.6617 103.849 21.6613C103.648 21.6617 103.446 21.6649 103.244 21.6683C102.068 21.6775 100.931 21.4981 99.8813 20.9344C99.8226 20.904 99.764 20.8735 99.7035 20.8422C99.1293 20.5343 98.6002 20.196 98.3267 19.5853C98.2681 19.5853 98.2094 19.5853 98.149 19.5853C97.8294 19.0783 97.5174 18.4972 97.5317 17.8818C97.616 17.7198 97.616 17.7198 97.843 17.6167C98.1836 17.5337 98.5249 17.47 98.8708 17.4144C99.3287 17.338 99.7766 17.2517 100.225 17.1313C100.715 17.0017 101.197 16.9491 101.702 16.9203C101.762 17.0348 101.821 17.1496 101.88 17.2645C101.913 17.3284 101.946 17.3923 101.98 17.4582C102.058 17.631 102.058 17.631 102.058 17.8086C102.116 17.8086 102.175 17.8086 102.235 17.8086C102.235 17.8673 102.235 17.9259 102.235 17.9863C103.232 18.3866 104.165 18.4341 105.172 18.064C105.229 18.0384 105.286 18.0127 105.344 17.9863C105.399 17.7333 105.442 17.5308 105.433 17.2756C104.857 16.5403 103.431 16.5171 102.562 16.3607C100.959 16.0705 99.3769 15.7109 98.359 14.3237C97.7956 13.3678 97.6519 12.3408 97.8603 11.2517C98.1697 10.0862 98.9842 9.16955 100.015 8.57014C101.162 8.00569 102.213 7.82225 103.484 7.82617Z" fill="#FF0000"/>
<path id="Vector_8" d="M55.7657 1.79308C55.8821 1.79219 55.8821 1.79219 56.001 1.79127C56.257 1.78959 56.513 1.78924 56.769 1.78905C56.9483 1.78848 57.1276 1.78788 57.3068 1.78725C57.6828 1.78619 58.0588 1.78586 58.4348 1.78597C58.9132 1.78599 59.3916 1.78357 59.8701 1.7805C60.2407 1.77851 60.6113 1.77816 60.982 1.77826C61.1581 1.77805 61.3343 1.77728 61.5105 1.77589C63.3042 1.76311 64.8051 2.02437 66.1553 3.31064C66.8829 4.05667 67.3396 5.09858 67.3292 6.14388C67.3284 6.24866 67.3276 6.35343 67.3268 6.46138C67.3253 6.58179 67.3253 6.58179 67.3237 6.70463C67.0606 6.6502 66.9345 6.59326 66.7019 6.43814C66.7019 6.37951 66.7019 6.32088 66.7019 6.26047C66.6498 6.24925 66.5977 6.23803 66.544 6.22647C66.3508 6.17282 66.2045 6.10231 66.0301 6.00508C64.9317 5.44579 63.6331 5.34592 62.4202 5.34524C62.3188 5.34449 62.2174 5.34374 62.1129 5.34297C61.7822 5.3407 61.4515 5.33961 61.1207 5.3385C60.8896 5.33706 60.6584 5.33553 60.4273 5.33392C59.8838 5.3303 59.3403 5.32735 58.7968 5.32482C57.7629 5.31999 56.729 5.31398 55.6951 5.30724C55.3553 5.3052 55.0155 5.30376 54.6757 5.30237C54.4693 5.30118 54.2629 5.29998 54.0564 5.29874C53.9614 5.29851 53.8663 5.29828 53.7684 5.29804C53.6825 5.29743 53.5966 5.29681 53.5081 5.29618C53.433 5.29584 53.358 5.2955 53.2806 5.29515C53.1106 5.28332 53.1106 5.28332 53.0218 5.19449C52.9574 4.21205 53.0009 3.41335 53.6436 2.61837C54.3154 2.00941 54.8673 1.79208 55.7657 1.79308Z" fill="#FF0000"/>
<path id="Vector_9" d="M24.4199 28.7349C24.7493 28.7097 25.0682 28.6988 25.3971 28.7349C25.7054 29.0142 25.7577 29.4914 25.8551 29.8886C25.9305 30.1579 26.0252 30.4124 26.1252 30.6732C26.2779 31.0877 26.4009 31.5124 26.5297 31.9347C26.6312 32.2622 26.736 32.5816 26.8739 32.8957C26.968 33.112 27.0389 33.3021 27.0849 33.5318C27.1074 33.4631 27.13 33.3944 27.1532 33.3236C27.1838 33.2311 27.2144 33.1385 27.2459 33.0432C27.2758 32.9525 27.3057 32.8618 27.3364 32.7684C27.4107 32.5519 27.4876 32.3384 27.5689 32.1247C27.7411 31.6697 27.8899 31.2073 28.0398 30.7445C28.1759 30.3302 28.3318 29.934 28.5062 29.5344C28.5582 29.3889 28.6086 29.2428 28.6561 29.0957C28.6946 28.9767 28.733 28.8576 28.7727 28.7349C29.0951 28.7349 29.4176 28.7349 29.7498 28.7349C29.9505 29.1847 30.1147 29.6357 30.263 30.1052C30.2855 30.1751 30.3079 30.2451 30.331 30.3172C30.426 30.6134 30.5204 30.9099 30.6147 31.2063C30.9875 32.383 30.9875 32.383 31.4376 33.5318C31.5848 33.1053 31.7317 32.6788 31.8784 32.2522C31.9282 32.1075 31.9781 31.9627 32.0281 31.818C32.2701 31.1167 32.5105 30.417 32.7178 29.7044C32.8218 29.3661 32.9757 29.0549 33.1254 28.7349C33.4186 28.7349 33.7117 28.7349 34.0137 28.7349C34.0435 29.132 33.9659 29.4103 33.8227 29.7781C33.6662 30.1939 33.5437 30.6216 33.4141 31.0464C33.3135 31.3711 33.2101 31.6879 33.0727 31.9991C32.9604 32.2589 32.8822 32.5027 32.8145 32.7767C32.7126 33.1664 32.5744 33.5168 32.4148 33.8871C32.3181 34.1912 32.2264 34.4964 32.1365 34.8025C32.0594 35.0419 32.0594 35.0419 31.9706 35.1307C31.7912 35.1372 31.6116 35.1382 31.4321 35.1363C31.3339 35.1355 31.2358 35.1347 31.1347 35.1339C31.0588 35.1328 30.9829 35.1318 30.9046 35.1307C30.6626 34.5205 30.435 33.9139 30.2544 33.2826C30.1907 33.065 30.1907 33.065 30.0607 32.7767C29.9228 32.455 29.8255 32.1348 29.728 31.7992C29.5934 31.3538 29.4294 30.9258 29.2168 30.5115C29.1967 30.5728 29.1766 30.6342 29.1558 30.6973C29.0636 30.9779 28.9709 31.2582 28.8782 31.5386C28.8465 31.6351 28.8148 31.7316 28.7822 31.831C28.5151 32.6374 28.5151 32.6374 28.3608 32.9877C28.2387 33.2675 28.148 33.5444 28.062 33.8371C27.9302 34.2764 27.7852 34.7039 27.6179 35.1307C27.2368 35.1307 26.8557 35.1307 26.4631 35.1307C26.3499 34.8088 26.2371 34.4868 26.1244 34.1647C26.0927 34.0747 26.0611 33.9847 26.0284 33.892C25.8875 33.4885 25.7493 33.0859 25.6303 32.6754C25.5085 32.2606 25.3688 31.8531 25.2267 31.4449C25.2033 31.3775 25.1798 31.31 25.1557 31.2406C25.0577 30.9591 24.9596 30.6777 24.8607 30.3966C24.7879 30.1891 24.7158 29.9815 24.6437 29.7738C24.6213 29.7104 24.5988 29.647 24.5756 29.5817C24.4711 29.2789 24.4199 29.0595 24.4199 28.7349Z" fill="#FF0000"/>
<path id="Vector_10" d="M37.4766 28.7348C38.334 28.7266 38.334 28.7266 39.2088 28.7182C39.3878 28.7157 39.5669 28.7133 39.7513 28.7108C39.8953 28.71 40.0392 28.7093 40.1832 28.7088C40.2562 28.7074 40.3293 28.7061 40.4046 28.7047C41.1275 28.7043 41.6927 28.911 42.2735 29.3566C42.6094 29.7372 42.631 30.106 42.6288 30.6003C42.5816 30.9134 42.5047 31.2038 42.3623 31.4886C42.3037 31.4886 42.245 31.4886 42.1846 31.4886C42.1846 31.5472 42.1846 31.6058 42.1846 31.6663C42.126 31.6663 42.0674 31.6663 42.007 31.6663C42.0729 31.7304 42.1389 31.7945 42.2068 31.8606C42.6332 32.2966 42.914 32.6423 42.9841 33.2652C42.9778 33.6949 42.926 34.041 42.7176 34.42C42.659 34.42 42.6004 34.42 42.54 34.42C42.5188 34.4746 42.4976 34.5291 42.4758 34.5853C42.2619 34.9435 41.8599 35.0247 41.474 35.1307C41.1518 35.1725 40.8372 35.1726 40.5128 35.1654C40.4351 35.165 40.3574 35.1647 40.2774 35.1643C39.9915 35.1625 39.7056 35.1575 39.4198 35.1529C38.7785 35.1456 38.1372 35.1382 37.4766 35.1307C37.4766 33.02 37.4766 30.9094 37.4766 28.7348ZM38.4537 29.6231C38.4511 29.9174 38.4496 30.2116 38.4482 30.5059C38.4474 30.5899 38.4467 30.6739 38.4459 30.7604C38.4456 30.8403 38.4453 30.9202 38.445 31.0024C38.4446 31.0764 38.4441 31.1504 38.4436 31.2266C38.4345 31.4002 38.4345 31.4002 38.5425 31.4886C38.6804 31.4974 38.8187 31.5002 38.9569 31.5004C39.0845 31.5006 39.0845 31.5006 39.2147 31.5007C39.3492 31.5002 39.3492 31.5002 39.4864 31.4997C39.6178 31.5002 39.6178 31.5002 39.7518 31.5007C40.2171 31.5001 40.6603 31.4806 41.1187 31.3998C41.1187 31.3411 41.1187 31.2825 41.1187 31.2221C41.2066 31.2221 41.2945 31.2221 41.3852 31.2221C41.5628 30.9236 41.6565 30.7518 41.6294 30.4004C41.573 30.1619 41.573 30.1619 41.474 29.9785C41.4154 29.9785 41.3567 29.9785 41.2963 29.9785C41.2963 29.9198 41.2963 29.8612 41.2963 29.8008C40.9817 29.6057 40.7281 29.6024 40.3622 29.6058C40.2511 29.6063 40.1401 29.6069 40.0256 29.6075C39.91 29.609 39.7943 29.6105 39.6751 29.612C39.4996 29.6132 39.4996 29.6132 39.3205 29.6144C39.0316 29.6165 38.7426 29.6195 38.4537 29.6231ZM38.4537 32.2881C38.4511 32.6119 38.4496 32.9358 38.4482 33.2597C38.4474 33.3521 38.4467 33.4446 38.4459 33.5399C38.4456 33.6278 38.4453 33.7156 38.445 33.8062C38.4446 33.8876 38.4441 33.969 38.4436 34.0529C38.4325 34.2409 38.4325 34.2409 38.5425 34.3312C38.8991 34.3539 39.2569 34.3477 39.6141 34.3479C39.7136 34.3489 39.8132 34.35 39.9158 34.3512C40.5246 34.3522 41.096 34.3426 41.6517 34.0647C41.6517 34.0061 41.6517 33.9475 41.6517 33.887C41.7103 33.887 41.7689 33.887 41.8293 33.887C41.9375 33.5626 41.9529 33.3401 41.9181 32.9987C41.6855 32.6251 41.4872 32.4307 41.0591 32.32C40.5819 32.2464 40.0956 32.2704 39.6141 32.277C39.5025 32.2778 39.3909 32.2786 39.2759 32.2794C39.0018 32.2815 38.7278 32.2844 38.4537 32.2881Z" fill="#FF0000"/>
<path id="Vector_11" d="M72.3704 30.4616C72.7081 30.655 72.7081 30.655 72.8312 30.778C72.8898 30.6022 72.9485 30.4263 73.0089 30.2451C73.2727 30.2451 73.5365 30.2451 73.8084 30.2451C73.9147 30.4578 73.909 30.5909 73.9101 30.8284C73.9107 30.9126 73.9112 30.9969 73.9118 31.0837C73.9119 31.1752 73.912 31.2667 73.9121 31.361C73.9125 31.5024 73.9125 31.5024 73.913 31.6466C73.9135 31.8468 73.9137 32.0469 73.9136 32.247C73.9138 32.551 73.9154 32.8549 73.9171 33.1588C73.9174 33.3535 73.9176 33.5481 73.9177 33.7428C73.9183 33.8329 73.9189 33.9229 73.9196 34.0157C73.9167 34.935 73.8433 35.8065 73.1643 36.4855C72.4028 36.9701 71.5871 37.0685 70.6992 36.9963C70.1732 36.8759 69.6665 36.7174 69.1891 36.4633C69.1891 36.4046 69.1891 36.346 69.1891 36.2856C69.1305 36.2856 69.0718 36.2856 69.0114 36.2856C69.1107 35.942 69.1917 35.7269 69.4556 35.4861C69.5559 35.5342 69.5559 35.5342 69.6582 35.5833C70.45 35.9292 71.1684 36.065 72.0317 35.9303C72.4796 35.6915 72.6412 35.5068 72.7906 35.0395C72.8395 34.8284 72.8514 34.6358 72.8312 34.4201C72.7524 34.4751 72.6736 34.5301 72.5925 34.5867C71.9438 35.0028 71.3695 35.0201 70.6104 34.9531C69.7875 34.7523 69.3576 34.3142 68.924 33.6089C68.6329 33.0736 68.6539 32.361 68.8088 31.7836C69.0722 31.1528 69.4923 30.769 70.0774 30.4227C70.8239 30.13 71.6448 30.1003 72.3704 30.4616ZM70.1663 31.4887C70.1663 31.5473 70.1663 31.606 70.1663 31.6664C70.1076 31.6664 70.049 31.6664 69.9886 31.6664C69.7954 31.9792 69.7871 32.2355 69.7887 32.5991C69.7883 32.6989 69.7878 32.7988 69.7873 32.9017C69.8098 33.1632 69.8524 33.3113 69.9886 33.5318C70.0472 33.5318 70.1058 33.5318 70.1663 33.5318C70.1663 33.5905 70.1663 33.6491 70.1663 33.7095C70.7075 34.1031 71.1932 34.164 71.8541 34.0648C72.2885 33.912 72.5622 33.6773 72.7868 33.2764C72.9562 32.8725 72.9951 32.5332 72.8645 32.107C72.6906 31.6924 72.4628 31.4263 72.0682 31.2087C71.3807 30.9669 70.7449 31.0679 70.1663 31.4887Z" fill="#FF0000"/>
<path id="Vector_12" d="M5.96404 28.7136C6.03849 28.7129 6.11294 28.7122 6.18965 28.7115C6.34812 28.7102 6.50659 28.7093 6.66506 28.7086C6.90451 28.7071 7.14384 28.7032 7.38326 28.6992C8.61805 28.688 9.60845 28.8588 10.5618 29.7119C11.1936 30.4746 11.4348 31.2968 11.3613 32.2881C11.223 33.1976 10.8858 33.8802 10.2064 34.5089C9.51472 34.9914 8.86124 35.1581 8.02833 35.1511C7.94846 35.1511 7.86858 35.1511 7.78629 35.151C7.61838 35.1508 7.45047 35.1501 7.28257 35.149C7.02447 35.1473 6.7664 35.1471 6.5083 35.1472C6.34504 35.1467 6.18178 35.1462 6.01851 35.1456C5.94098 35.1455 5.86344 35.1454 5.78356 35.1453C5.24218 35.141 5.24218 35.141 5.14304 35.0418C5.13419 34.8488 5.13167 34.6556 5.13154 34.4624C5.13139 34.4018 5.13123 34.3413 5.13107 34.279C5.13068 34.078 5.13094 33.877 5.13124 33.6761C5.13118 33.537 5.13109 33.3979 5.13098 33.2588C5.13085 32.967 5.13104 32.6752 5.13146 32.3833C5.13196 32.0084 5.13167 31.6335 5.13114 31.2586C5.13082 30.9713 5.13092 30.684 5.13115 30.3967C5.13121 30.2584 5.13114 30.1202 5.13093 29.9819C5.13071 29.789 5.13105 29.596 5.13154 29.4031C5.13161 29.2931 5.13168 29.1831 5.13176 29.0698C5.15464 28.5705 5.56157 28.7173 5.96404 28.7136ZM6.20902 29.6231C6.20902 31.1475 6.20902 32.6718 6.20902 34.2424C8.32069 34.3853 8.32069 34.3853 9.40696 33.887C9.40696 33.8284 9.40696 33.7698 9.40696 33.7094C9.46009 33.6855 9.51322 33.6617 9.56797 33.6372C10.0329 33.3848 10.1487 33.0236 10.313 32.5396C10.5175 31.8163 10.3094 31.2818 10.0288 30.6003C9.97015 30.6003 9.91152 30.6003 9.85112 30.6003C9.82844 30.5464 9.80577 30.4926 9.78241 30.4372C9.66016 30.2215 9.56071 30.141 9.35144 30.0117C9.29533 29.9758 9.23922 29.9398 9.18141 29.9028C8.20641 29.4478 7.31451 29.6231 6.20902 29.6231Z" fill="#FF0000"/>
<path id="Vector_13" d="M17.7793 29.4331C18.4048 30.0319 18.8025 30.6962 18.8512 31.582C18.8737 32.6423 18.7119 33.3998 18.0215 34.2386C17.3258 34.9506 16.4287 35.2686 15.4513 35.3307C14.3701 35.2963 13.5881 34.9322 12.8047 34.197C12.2244 33.5607 11.9868 32.7646 11.9785 31.9148C12.0219 30.9816 12.3066 30.2153 12.9584 29.5344C14.3388 28.4088 16.35 28.262 17.7793 29.4331ZM13.5914 30.3339C13.5421 30.3925 13.4929 30.4511 13.4422 30.5115C13.039 31.0694 12.9884 31.7057 13.0473 32.377C13.1629 33.0009 13.4605 33.467 13.9356 33.8871C13.9942 33.8871 14.0528 33.8871 14.1133 33.8871C14.1133 33.9458 14.1133 34.0044 14.1133 34.0648C14.7608 34.3597 15.6495 34.4399 16.334 34.2425C16.899 33.9518 16.899 33.9518 17.2224 33.443C17.281 33.443 17.3396 33.443 17.4 33.443C17.8029 32.7671 17.9238 32.1076 17.7831 31.3277C17.481 30.5939 17.1023 30.1473 16.4492 29.6964C16.1263 29.5806 15.8084 29.5905 15.4679 29.5899C15.3992 29.5877 15.3305 29.5856 15.2597 29.5833C14.5775 29.5799 14.0302 29.7964 13.5914 30.3339Z" fill="#FF0000"/>
<path id="Vector_14" d="M81.8934 29.1791C81.8268 29.7787 81.8268 29.7787 81.6269 29.9786C81.5096 29.9786 81.3924 29.9786 81.2716 29.9786C81.2716 29.9199 81.2716 29.8613 81.2716 29.8009C79.9954 29.5592 79.9954 29.5592 78.751 29.8064C78.5272 30.0733 78.4896 30.3457 78.5178 30.6892C78.7265 31.0584 78.9268 31.1753 79.3173 31.311C79.4962 31.3526 79.6758 31.3913 79.8558 31.4276C80.6663 31.613 81.5242 31.8246 82.0575 32.5092C82.2732 32.9794 82.236 33.4744 82.1599 33.976C81.9172 34.508 81.4508 34.8956 80.9162 35.1308C79.7177 35.456 78.6375 35.2563 77.5254 34.729C77.363 34.5978 77.363 34.5978 77.287 34.3768C77.2701 34.0828 77.3726 33.9447 77.5406 33.7095C77.9626 33.7872 77.9626 33.7872 78.1624 33.8871C78.1624 33.9458 78.1624 34.0044 78.1624 34.0648C78.2276 34.0774 78.2928 34.09 78.3599 34.103C78.5075 34.1333 78.6547 34.1662 78.8006 34.2043C79.4571 34.3659 80.0708 34.3137 80.7386 34.2425C80.7386 34.1838 80.7386 34.1252 80.7386 34.0648C80.8265 34.0062 80.9145 33.9476 81.0051 33.8871C81.1034 33.4809 81.1034 33.4809 81.0273 33.079C80.7772 32.6985 80.2682 32.5896 79.8447 32.4919C79.7494 32.4723 79.6542 32.4527 79.556 32.4325C78.7652 32.2617 78.0153 31.9943 77.5406 31.311C77.343 30.8216 77.3249 30.3966 77.4518 29.8897C77.7065 29.3993 78.0619 29.059 78.5511 28.8015C79.6366 28.4914 80.9442 28.547 81.8934 29.1791Z" fill="#FF0000"/>
<path id="Vector_15" d="M55.5313 28.3678C55.612 28.368 55.6926 28.3683 55.7756 28.3685C55.8966 28.3681 55.8966 28.3681 56.0199 28.3678C56.2198 28.3796 56.2198 28.3796 56.3086 28.4684C56.3195 28.5911 56.3244 28.7142 56.3269 28.8373C56.3286 28.9156 56.3304 28.9938 56.3322 29.0744C56.3337 29.1595 56.3352 29.2445 56.3367 29.3321C56.3386 29.4187 56.3404 29.5054 56.3423 29.5946C56.3482 29.8725 56.3534 30.1504 56.3586 30.4283C56.3624 30.6162 56.3663 30.8041 56.3702 30.992C56.3798 31.4536 56.3888 31.9153 56.3975 32.377C56.4723 32.3065 56.5472 32.2359 56.6244 32.1633C56.7227 32.0716 56.821 31.98 56.9193 31.8884C56.9687 31.8418 57.0181 31.7952 57.0689 31.7472C57.4433 31.3999 57.4433 31.3999 57.6411 31.3999C57.6411 31.3412 57.6411 31.2826 57.6411 31.2222C57.8075 31.0545 57.9867 30.9074 58.1682 30.7562C58.362 30.5981 58.362 30.5981 58.5516 30.3839C58.9591 30.1523 59.404 30.2188 59.8619 30.2451C59.667 30.7584 59.667 30.7584 59.4177 30.9557C59.3591 30.9557 59.3005 30.9557 59.2401 30.9557C59.2401 31.0143 59.2401 31.073 59.2401 31.1334C59.1814 31.1334 59.1228 31.1334 59.0624 31.1334C59.0624 31.192 59.0624 31.2506 59.0624 31.311C59.0038 31.311 58.9452 31.311 58.8847 31.311C58.8554 31.399 58.8261 31.4869 58.7959 31.5775C58.7373 31.5775 58.6787 31.5775 58.6183 31.5775C58.6183 31.6362 58.6183 31.6948 58.6183 31.7552C58.5596 31.7552 58.501 31.7552 58.4406 31.7552C58.4406 31.8138 58.4406 31.8725 58.4406 31.9329C58.382 31.9329 58.3233 31.9329 58.2629 31.9329C58.2629 31.9915 58.2629 32.0501 58.2629 32.1105C58.2043 32.1105 58.1457 32.1105 58.0853 32.1105C58.1317 32.3559 58.1837 32.5837 58.2629 32.8212C58.3216 32.8212 58.3802 32.8212 58.4406 32.8212C58.4992 32.9678 58.5578 33.1143 58.6183 33.2653C58.6769 33.2653 58.7355 33.2653 58.7959 33.2653C58.9459 33.4418 59.0855 33.6184 59.2234 33.8039C59.2632 33.8565 59.303 33.9092 59.344 33.9634C59.6115 34.3187 59.8739 34.6772 60.1284 35.042C60.0396 35.1308 60.0396 35.1308 59.7783 35.1395C59.6721 35.1384 59.566 35.1374 59.4566 35.1364C59.297 35.1352 59.297 35.1352 59.1342 35.1339C59.0107 35.1324 59.0107 35.1324 58.8847 35.1308C58.8847 35.0722 58.8847 35.0135 58.8847 34.9531C58.8261 34.9531 58.7675 34.9531 58.7071 34.9531C58.6485 34.8066 58.5898 34.66 58.5294 34.509C58.4708 34.509 58.4122 34.509 58.3518 34.509C58.1844 34.3084 58.0254 34.107 57.8687 33.8983C57.7822 33.7835 57.6954 33.669 57.6081 33.5547C57.5697 33.5036 57.5313 33.4524 57.4917 33.3997C57.3642 33.2416 57.3642 33.2416 57.1081 33.0877C57.0717 33.1262 57.0353 33.1646 56.9978 33.2043C56.926 33.2785 56.926 33.2785 56.8527 33.3542C56.8053 33.4036 56.7579 33.4531 56.7091 33.5041C56.5751 33.6207 56.5751 33.6207 56.3975 33.6207C56.3921 33.7222 56.3867 33.8238 56.3811 33.9285C56.3737 34.0609 56.3661 34.1933 56.3586 34.3258C56.3534 34.4263 56.3534 34.4263 56.348 34.5289C56.3187 35.0319 56.3187 35.0319 56.2198 35.1308C56.072 35.1395 55.9237 35.1423 55.7756 35.1419C55.6547 35.1423 55.6547 35.1423 55.5313 35.1426C55.3315 35.1308 55.3315 35.1308 55.2426 35.042C55.2338 34.8381 55.2313 34.6339 55.2312 34.4299C55.231 34.3659 55.2308 34.3019 55.2307 34.236C55.2303 34.0235 55.2305 33.811 55.2308 33.5985C55.2308 33.4514 55.2307 33.3044 55.2306 33.1573C55.2305 32.8488 55.2307 32.5402 55.2311 32.2316C55.2316 31.8352 55.2313 31.4388 55.2307 31.0424C55.2304 30.7386 55.2305 30.4349 55.2308 30.1311C55.2308 29.9849 55.2307 29.8387 55.2305 29.6925C55.2303 29.4885 55.2307 29.2845 55.2312 29.0805C55.2312 28.9642 55.2313 28.8479 55.2314 28.7281C55.2463 28.3846 55.2463 28.3846 55.5313 28.3678Z" fill="#FF0000"/>
<path id="Vector_16" d="M51.0968 1.20263C51.6515 1.51396 52.0285 1.91975 52.2238 2.52955C52.2995 3.26641 52.2808 3.8595 51.8685 4.48385C51.7342 4.63549 51.7342 4.63549 51.602 4.75034C51.5434 4.75034 51.4848 4.75034 51.4243 4.75034C51.4243 4.80897 51.4243 4.8676 51.4243 4.92801C50.8364 5.25317 50.3188 5.38318 49.6477 5.28333C49.3663 5.18885 49.1078 5.07158 48.8482 4.92801C48.8482 4.86938 48.8482 4.81075 48.8482 4.75034C48.7896 4.75034 48.731 4.75034 48.6706 4.75034C48.6706 4.69171 48.6706 4.63309 48.6706 4.57268C48.6119 4.57268 48.5533 4.57268 48.4929 4.57268C48.0174 3.93863 47.9926 3.39514 48.0487 2.61838C48.1742 2.08005 48.5009 1.64118 48.9513 1.33171C49.6682 0.927239 50.3394 0.860847 51.0968 1.20263Z" fill="#FF0000"/>
<path id="Vector_17" d="M92.3561 30.4834C93.0219 30.8784 93.3125 31.3783 93.5304 32.1105C93.5304 32.4329 93.5304 32.7554 93.5304 33.0876C92.2698 33.0876 91.0093 33.0876 89.7106 33.0876C89.9833 33.7239 90.0845 33.9205 90.6933 34.1814C91.2093 34.2715 91.8055 34.3054 92.2867 34.0648C92.4069 33.9783 92.5247 33.8885 92.6421 33.7983C92.9459 33.8996 93.0189 33.9692 93.175 34.2424C93.175 34.4201 93.175 34.4201 93.0862 34.5978C92.4667 35.1829 91.7743 35.2114 90.9543 35.2196C90.2989 35.1591 89.8097 34.9106 89.2998 34.4978C88.7571 33.8409 88.5732 33.2621 88.6075 32.4068C88.6931 31.7235 89.0141 31.1442 89.5329 30.6892C90.4002 30.1477 91.416 30.0454 92.3561 30.4834ZM89.8883 31.6663C89.6778 31.9287 89.6778 31.9287 89.7106 32.2881C90.6194 32.2881 91.5281 32.2881 92.4644 32.2881C92.4644 31.7649 92.3748 31.6736 92.0202 31.311C91.3139 30.8562 90.3934 31.0275 89.8883 31.6663Z" fill="#FF0000"/>
<path id="Vector_18" d="M47.603 30.6004C48.2216 31.014 48.5782 31.5548 48.7356 32.2854C48.8199 32.9707 48.5673 33.6698 48.247 34.2647C48.0066 34.5584 47.7486 34.7574 47.4253 34.9531C47.3727 34.9853 47.3202 35.0175 47.266 35.0506C46.6216 35.3141 45.6532 35.3103 45.0119 35.0537C44.3944 34.7538 43.972 34.2911 43.6815 33.6696C43.4199 32.8896 43.4969 32.1805 43.8387 31.4443C43.879 31.371 43.9193 31.2977 43.9609 31.2222C44.0195 31.2222 44.0781 31.2222 44.1385 31.2222C44.1587 31.1709 44.1788 31.1196 44.1996 31.0667C44.4355 30.6622 44.8114 30.4431 45.2493 30.2933C46.0643 30.116 46.8777 30.1813 47.603 30.6004ZM45.2045 31.311C45.2045 31.3696 45.2045 31.4283 45.2045 31.4887C45.1459 31.4887 45.0872 31.4887 45.0268 31.4887C44.97 31.5858 44.9132 31.6829 44.8547 31.7829C44.8068 31.8649 44.8068 31.8649 44.7579 31.9484C44.501 32.4303 44.5284 32.9023 44.6771 33.4097C44.8893 33.7794 45.0958 34.0338 45.471 34.2424C45.9647 34.3752 46.4285 34.3855 46.8923 34.1536C47.2903 33.8883 47.5092 33.6574 47.656 33.1987C47.7396 32.7313 47.6827 32.2852 47.4864 31.8551C47.2334 31.5365 47.0075 31.2867 46.6258 31.1333C46.3671 31.1053 46.3671 31.1053 46.0928 31.1111C46.0012 31.1107 45.9096 31.1102 45.8152 31.1097C45.5646 31.1329 45.4176 31.1819 45.2045 31.311Z" fill="#FF0000"/>
<path id="Vector_19" d="M53.0211 30.4823C53.5436 30.8245 54.0672 31.2312 54.2672 31.8439C54.4103 32.6767 54.3997 33.3961 53.9643 34.1344C53.6298 34.6004 53.2164 34.9531 52.6682 35.1307C51.8161 35.2675 50.9943 35.2772 50.2427 34.8034C49.6887 34.3733 49.3316 33.8693 49.2038 33.1764C49.1259 32.4806 49.21 31.8429 49.6306 31.2703C50.4773 30.2814 51.7989 29.8359 53.0211 30.4823ZM50.7139 31.4886C50.6626 31.5307 50.6113 31.5728 50.5585 31.6163C50.2328 32.0234 50.2224 32.4908 50.2292 32.9911C50.2941 33.4297 50.5057 33.7424 50.8028 34.0647C51.2238 34.3454 51.6806 34.3717 52.1779 34.2989C52.6348 34.1742 52.8712 33.995 53.1235 33.5955C53.3563 33.1382 53.3696 32.5979 53.2428 32.1041C53.0859 31.71 52.872 31.4361 52.5117 31.2148C51.9031 30.9652 51.1999 31.0524 50.7139 31.4886Z" fill="#FF0000"/>
<path id="Vector_20" d="M63.5389 30.2117C63.7572 30.2124 63.7572 30.2124 63.9498 30.245C64.133 30.4671 64.133 30.4671 64.2163 30.6892C64.3134 30.6324 64.4105 30.5756 64.5105 30.5171C65.0973 30.1739 65.6815 30.1918 66.3482 30.245C66.8296 30.3822 67.1877 30.6571 67.503 31.0445C67.7626 31.5403 67.8061 31.9305 67.7956 32.4849C67.7952 32.5609 67.7948 32.637 67.7944 32.7153C67.7929 32.956 67.7896 33.1967 67.7862 33.4374C67.7849 33.6015 67.7836 33.7656 67.7826 33.9296C67.7796 34.3301 67.775 34.7304 67.7695 35.1308C67.6085 35.1332 67.4475 35.1349 67.2865 35.1363C67.1969 35.1374 67.1072 35.1384 67.0148 35.1395C66.7924 35.1308 66.7924 35.1308 66.7036 35.042C66.6904 34.8019 66.6827 34.5639 66.6786 34.3237C66.6761 34.2154 66.6761 34.2154 66.6736 34.1049C66.6684 33.8732 66.6637 33.6414 66.6591 33.4097C66.6531 33.1055 66.6466 32.8013 66.6397 32.4971C66.6385 32.4268 66.6373 32.3566 66.6361 32.2842C66.6296 31.9977 66.6171 31.7623 66.5259 31.4887C66.4673 31.4887 66.4086 31.4887 66.3482 31.4887C66.3482 31.4301 66.3482 31.3714 66.3482 31.311C65.7029 31.1497 65.237 31.1592 64.6604 31.4887C64.6018 31.4887 64.5432 31.4887 64.4828 31.4887C64.4828 31.5473 64.4828 31.6059 64.4828 31.6663C64.4241 31.6663 64.3655 31.6663 64.3051 31.6663C64.2136 32.0483 64.1973 32.4238 64.1882 32.8146C64.1863 32.881 64.1845 32.9474 64.1826 33.0158C64.1768 33.2267 64.1715 33.4375 64.1663 33.6484C64.1625 33.7919 64.1586 33.9354 64.1547 34.0789C64.1452 34.4295 64.1362 34.7801 64.1274 35.1308C63.7757 35.1308 63.4239 35.1308 63.0615 35.1308C63.0593 34.4493 63.0577 33.7677 63.0566 33.0862C63.0561 32.8541 63.0555 32.6221 63.0548 32.39C63.0537 32.0573 63.0532 31.7246 63.0528 31.3919C63.0523 31.2874 63.0519 31.1829 63.0514 31.0753C63.0514 30.9313 63.0514 30.9313 63.0514 30.7843C63.0512 30.6993 63.051 30.6143 63.0508 30.5267C63.0697 30.1854 63.2341 30.2246 63.5389 30.2117Z" fill="#FF0000"/>
<path id="Vector_21" d="M19.2985 28.7242C19.3914 28.7244 19.4843 28.7246 19.58 28.7248C19.685 28.7248 19.7899 28.7248 19.898 28.7248C20.0122 28.7253 20.1263 28.7257 20.244 28.7262C20.4183 28.7264 20.4183 28.7264 20.5961 28.7266C20.9056 28.7269 21.215 28.7278 21.5245 28.7288C21.8401 28.7297 22.1556 28.7301 22.4712 28.7305C23.0908 28.7315 23.7103 28.733 24.3299 28.7349C24.3299 29.028 24.3299 29.3212 24.3299 29.6232C23.6264 29.6232 22.9228 29.6232 22.1979 29.6232C22.1984 29.7869 22.1989 29.9505 22.1994 30.1192C22.2008 30.6588 22.2018 31.1985 22.2025 31.7381C22.203 32.0654 22.2036 32.3928 22.2046 32.7201C22.2056 33.0357 22.2061 33.3513 22.2064 33.667C22.2065 33.7877 22.2069 33.9083 22.2073 34.029C22.208 34.1975 22.208 34.3659 22.208 34.5344C22.2082 34.6305 22.2084 34.7265 22.2086 34.8255C22.1979 35.0419 22.1979 35.0419 22.1091 35.1307C21.9613 35.1395 21.813 35.1423 21.665 35.1418C21.544 35.1422 21.544 35.1422 21.4207 35.1425C21.2208 35.1307 21.2208 35.1307 21.132 35.0419C21.1236 34.8729 21.1215 34.7036 21.1219 34.5344C21.1219 34.4259 21.1219 34.3174 21.1219 34.2057C21.1223 34.0864 21.1228 33.9672 21.1233 33.8479C21.1235 33.7265 21.1236 33.6052 21.1237 33.4838C21.124 33.1638 21.1249 32.8439 21.1259 32.5239C21.1268 32.1976 21.1272 31.8713 21.1276 31.545C21.1286 30.9044 21.1301 30.2638 21.132 29.6232C20.4284 29.6232 19.7249 29.6232 19 29.6232C19 28.7394 19 28.7394 19.2985 28.7242Z" fill="#FF0000"/>
<path id="Vector_22" d="M86.6 29.179C86.6888 29.2678 86.6888 29.2678 86.6975 29.4903C86.6946 29.7418 86.6917 29.9934 86.6888 30.245C87.1285 30.245 87.5683 30.245 88.0213 30.245C88.1538 30.5099 88.1207 30.7527 88.1101 31.0445C88.0213 31.1333 88.0213 31.1333 87.7211 31.142C87.5973 31.1414 87.4734 31.1403 87.3495 31.1388C87.2864 31.1384 87.2232 31.138 87.1581 31.1376C87.0017 31.1366 86.8453 31.135 86.6888 31.1333C86.6993 31.519 86.7104 31.9047 86.7219 32.2903C86.7257 32.4215 86.7294 32.5526 86.733 32.6837C86.7381 32.8725 86.7438 33.0612 86.7495 33.25C86.7528 33.3635 86.7561 33.477 86.7594 33.594C86.7739 33.8266 86.798 34.0212 86.8665 34.2424C87.3541 34.3419 87.6513 34.3128 88.1101 34.1536C88.2965 34.3632 88.3739 34.4686 88.3933 34.7532C88.385 34.8521 88.385 34.8521 88.3766 34.9531C87.8867 35.229 87.3568 35.2233 86.8054 35.214C86.4163 35.1039 86.1344 34.9223 85.8893 34.5977C85.7357 34.151 85.6905 33.7644 85.6943 33.2934C85.6946 33.2311 85.6948 33.1689 85.6951 33.1048C85.6961 32.9085 85.6983 32.7121 85.7006 32.5157C85.7015 32.3816 85.7023 32.2475 85.703 32.1134C85.7049 31.7867 85.708 31.46 85.7117 31.1333C85.5962 31.1351 85.4808 31.137 85.3619 31.1388C85.2416 31.1408 85.1212 31.1396 85.001 31.1333C84.9122 31.0445 84.9122 31.0445 84.9004 30.8835C84.9006 30.8193 84.9008 30.7552 84.9011 30.6891C84.9009 30.625 84.9006 30.5609 84.9004 30.4948C84.9122 30.3338 84.9122 30.3338 85.001 30.245C85.2078 30.2123 85.4151 30.1826 85.6228 30.1561C85.6272 30.0931 85.6315 30.03 85.636 29.965C85.6427 29.8833 85.6493 29.8017 85.6562 29.7175C85.6623 29.6361 85.6685 29.5547 85.6749 29.4708C85.687 29.4038 85.6992 29.3368 85.7117 29.2678C86.0006 29.1233 86.2795 29.1688 86.6 29.179Z" fill="#FF0000"/>
<path id="Vector_23" d="M83.4295 30.2363C83.5516 30.2379 83.5516 30.2379 83.6762 30.2395C83.7578 30.2403 83.8395 30.2411 83.9236 30.2419C83.9867 30.2429 84.0498 30.2439 84.1148 30.245C84.2258 30.467 84.2149 30.6171 84.2151 30.8655C84.2154 30.9576 84.2157 31.0498 84.216 31.1448C84.2158 31.2446 84.2156 31.3445 84.2154 31.4474C84.2155 31.5494 84.2156 31.6515 84.2157 31.7566C84.2157 31.9727 84.2156 32.1887 84.2152 32.4047C84.2147 32.7368 84.2152 33.0688 84.2158 33.4008C84.2157 33.6102 84.2156 33.8196 84.2154 34.029C84.2156 34.129 84.2158 34.2291 84.216 34.3321C84.2157 34.424 84.2154 34.5159 84.2151 34.6106C84.215 34.7326 84.215 34.7326 84.2149 34.8571C84.2036 35.0419 84.2036 35.0419 84.1148 35.1307C83.9502 35.1372 83.7854 35.1382 83.6207 35.1363C83.5308 35.1355 83.4409 35.1347 83.3483 35.1339C83.2788 35.1328 83.2092 35.1318 83.1376 35.1307C83.1354 34.4492 83.1338 33.7677 83.1328 33.0862C83.1323 32.8541 83.1317 32.6221 83.1309 32.39C83.1299 32.0573 83.1294 31.7246 83.129 31.3918C83.1285 31.2874 83.128 31.1829 83.1276 31.0753C83.1276 30.9312 83.1276 30.9312 83.1276 30.7843C83.1274 30.6992 83.1272 30.6142 83.127 30.5266C83.1418 30.2594 83.1616 30.2478 83.4295 30.2363Z" fill="#FF0000"/>
<path id="Vector_24" d="M61.1458 30.2228C61.2171 30.2205 61.2884 30.2182 61.3619 30.2159C61.4555 30.2303 61.4555 30.2303 61.5511 30.245C61.7451 30.5361 61.7508 30.6192 61.7503 30.9562C61.7506 31.0466 61.7508 31.137 61.7511 31.2302C61.7505 31.3276 61.7498 31.4251 61.7492 31.5255C61.7491 31.6754 61.7491 31.6754 61.7491 31.8284C61.7488 32.0397 61.7481 32.251 61.747 32.4624C61.7454 32.7871 61.7452 33.1119 61.7452 33.4367C61.7448 33.6417 61.7442 33.8466 61.7436 34.0516C61.7435 34.1494 61.7434 34.2472 61.7433 34.348C61.7428 34.4378 61.7422 34.5276 61.7416 34.6202C61.7413 34.6997 61.7409 34.7792 61.7406 34.8611C61.7287 35.0419 61.7287 35.0419 61.6399 35.1308C61.492 35.1395 61.3438 35.1423 61.1957 35.1419C61.0748 35.1422 61.0748 35.1422 60.9514 35.1426C60.7516 35.1308 60.7516 35.1308 60.6627 35.0419C60.654 34.8952 60.6514 34.7481 60.6512 34.6011C60.651 34.5071 60.6507 34.4131 60.6504 34.3163C60.6507 34.163 60.6507 34.163 60.6509 34.0065C60.6509 33.9023 60.6508 33.7982 60.6507 33.6908C60.6506 33.4701 60.6508 33.2494 60.6512 33.0286C60.6516 32.6894 60.6512 32.3501 60.6506 32.0109C60.6506 31.797 60.6508 31.5832 60.6509 31.3693C60.6508 31.2671 60.6506 31.1648 60.6504 31.0595C60.6507 30.9655 60.651 30.8715 60.6512 30.7747C60.6513 30.6915 60.6514 30.6084 60.6515 30.5227C60.6719 30.18 60.8426 30.2286 61.1458 30.2228Z" fill="#FF0000"/>
<path id="Vector_25" d="M83.9371 28.202C84.1925 28.3907 84.1925 28.3907 84.3813 28.6461C84.3813 28.931 84.3378 29.0992 84.1981 29.3457C83.9158 29.5096 83.6322 29.5036 83.3153 29.4456C83.1321 29.3068 83.1321 29.3068 83.0488 29.0903C83.0547 28.7536 83.0637 28.5503 83.2931 28.2963C83.5415 28.179 83.6658 28.149 83.9371 28.202Z" fill="#FF0000"/>
<path id="Vector_26" d="M61.2941 28.2074C61.682 28.3339 61.682 28.3339 61.816 28.5572C61.8482 28.8578 61.8679 29.0785 61.7272 29.3511C61.4394 29.5041 61.1569 29.4926 60.8389 29.4455C60.6612 29.3511 60.6612 29.3511 60.5724 29.179C60.528 28.8737 60.528 28.8737 60.5724 28.5572C60.81 28.2777 60.925 28.2001 61.2941 28.2074Z" fill="#FF0000"/>
</g>
</svg>
