<svg width="436" height="372" viewBox="0 0 436 372" fill="none" xmlns="http://www.w3.org/2000/svg">
<path d="M366.335 42.1926H56.8783V61.6975H366.335V42.1926Z" fill="white"/>
<path d="M366.335 262.222H56.8783C56.7486 262.222 56.6425 262.116 56.6425 261.986V42.1926C56.6425 42.0629 56.7486 41.9568 56.8783 41.9568H366.335C366.465 41.9568 366.571 42.0629 366.571 42.1926V261.989C366.571 262.053 366.548 262.111 366.503 262.156C366.458 262.201 366.399 262.225 366.335 262.225V262.222ZM57.1142 261.751H366.1V42.4285H57.1142V261.753V261.751Z" fill="white"/>
<path d="M74.194 52.9588C74.6795 50.5572 73.1263 48.2168 70.7248 47.7313C68.3232 47.2457 65.9828 48.7989 65.4973 51.2005C65.0117 53.602 66.5649 55.9424 68.9665 56.428C71.368 56.9135 73.7084 55.3603 74.194 52.9588Z" fill="#F2E6DC"/>
<path d="M87.733 54.7394C89.2006 52.7775 88.8 49.9973 86.8381 48.5296C84.8762 47.0619 82.096 47.4626 80.6283 49.4245C79.1606 51.3864 79.5613 54.1666 81.5231 55.6343C83.485 57.102 86.2653 56.7013 87.733 54.7394Z" fill="#F2E6DC"/>
<path d="M102.067 54.7399C103.535 52.778 103.134 49.9978 101.172 48.5301C99.2106 47.0624 96.4303 47.4631 94.9627 49.425C93.495 51.3869 93.8956 54.1671 95.8575 55.6348C97.8194 57.1025 100.6 56.7018 102.067 54.7399Z" fill="#F2E6DC"/>
<path d="M290.626 337.841C313.251 343.428 334.838 334.815 338.84 318.605C342.845 302.392 327.748 284.72 305.123 279.133C282.498 273.545 266.427 283.52 262.423 299.732C258.418 315.944 268 332.253 290.626 337.841Z" fill="white"/>
<path d="M303.064 336.319C298.616 336.319 293.982 335.772 289.305 334.617C278.491 331.947 270.114 326.702 265.081 319.451C260.378 312.678 258.904 304.428 260.93 296.223C262.956 288.017 268.102 281.402 275.418 277.595C283.248 273.522 293.102 272.781 303.916 275.451C314.907 278.166 324.482 283.786 330.883 291.279C337.303 298.793 339.76 307.291 337.805 315.209C334.607 328.161 320.225 336.322 303.064 336.322V336.319ZM289.418 334.159C311.878 339.706 333.383 331.154 337.348 315.095C339.265 307.331 336.843 298.982 330.525 291.586C324.187 284.168 314.699 278.6 303.803 275.911C293.102 273.27 283.361 273.996 275.635 278.015C268.442 281.758 263.38 288.263 261.387 296.336C257.085 313.756 268.35 328.956 289.418 334.159Z" fill="#363E44"/>
<path d="M283.793 332.466C283.774 332.466 283.755 332.466 283.737 332.459C283.609 332.428 283.534 332.301 283.564 332.173L297.815 274.47C297.845 274.343 297.973 274.267 298.1 274.298C298.227 274.328 298.303 274.456 298.272 274.583L284.022 332.286C283.996 332.395 283.899 332.466 283.793 332.466Z" fill="#363E44"/>
<path d="M290.64 303.973C290.621 303.973 290.602 303.973 290.583 303.966L261.505 296.784C261.378 296.753 261.303 296.626 261.333 296.499C261.364 296.371 261.491 296.296 261.619 296.326L290.697 303.508C290.824 303.539 290.899 303.666 290.869 303.793C290.843 303.902 290.746 303.973 290.64 303.973Z" fill="#363E44"/>
<path d="M378.889 371.754C378.889 371.754 359.337 361.768 347.156 356.069C341.642 353.489 337.281 351.869 334.762 351.697C333.189 351.591 330.408 351.414 326.993 350.216C314.34 345.772 307.309 331.218 297.604 319.131C293.62 314.171 275.151 313.319 275.636 307.303C275.886 304.189 281.103 302.576 292.16 303.47C283.837 301.826 272.648 299.102 273.57 294.505C274.919 289.255 288.441 290.911 296.571 292.312C286.729 290.616 282.002 286.77 283.155 284.336C284.969 280.503 292.908 280.041 305.828 282.788C297.436 278.399 296.054 276.085 297.599 274.182C300.417 270.706 312.184 272.713 321.205 276.319C331.359 280.378 345.932 292.843 351.144 295.52C356.137 298.086 435.475 334.145 435.475 334.145L378.889 371.754Z" fill="#BC8271"/>
<path d="M316.514 332.267C299.113 332.414 292.868 336.154 292.979 338.911C293.165 343.548 306.889 348.461 332.349 351.451C328.113 345.39 320.75 338.329 316.514 332.267Z" fill="#BC8271"/>
<path d="M315.557 340.909C315.505 340.909 315.45 340.893 315.406 340.855C312.611 338.548 309.46 335.784 307.288 332.765C307.212 332.659 307.236 332.513 307.342 332.435C307.448 332.359 307.594 332.383 307.672 332.489C309.811 335.463 312.934 338.204 315.707 340.489C315.809 340.572 315.823 340.72 315.738 340.822C315.691 340.878 315.625 340.907 315.557 340.907V340.909Z" fill="#363E44"/>
<path d="M308.443 312.548C308.387 312.548 308.332 312.529 308.288 312.489C308.104 312.326 307.884 312.126 307.632 311.895C306.066 310.465 303.151 307.803 300.596 306.718C297.644 305.463 294.533 304.355 291.842 303.597C291.717 303.562 291.644 303.432 291.679 303.307C291.714 303.182 291.844 303.109 291.969 303.145C294.681 303.906 297.811 305.022 300.783 306.284C303.408 307.399 306.363 310.098 307.95 311.548C308.2 311.777 308.42 311.977 308.601 312.138C308.698 312.225 308.707 312.373 308.62 312.47C308.573 312.522 308.509 312.55 308.443 312.55V312.548Z" fill="#363E44"/>
<path d="M316.335 301.029C316.288 301.029 316.238 301.015 316.196 300.984C313.936 299.326 311.457 297.862 308.83 296.63C305.016 294.84 300.858 293.522 296.469 292.711C296.342 292.687 296.257 292.564 296.28 292.435C296.304 292.307 296.427 292.222 296.556 292.246C300.983 293.067 305.181 294.397 309.031 296.203C311.684 297.449 314.189 298.93 316.474 300.604C316.58 300.682 316.601 300.828 316.526 300.935C316.479 300.998 316.408 301.031 316.335 301.031V301.029Z" fill="#363E44"/>
<path d="M323.111 290.093C323.064 290.093 323.019 290.078 322.977 290.05C320.887 288.611 318.653 287.361 316.337 286.333C312.974 284.843 309.403 283.802 305.726 283.243C305.597 283.225 305.51 283.104 305.528 282.975C305.547 282.845 305.668 282.758 305.797 282.776C309.517 283.343 313.125 284.392 316.528 285.902C318.873 286.939 321.132 288.206 323.245 289.661C323.352 289.734 323.38 289.883 323.307 289.989C323.262 290.055 323.186 290.09 323.113 290.09L323.111 290.093Z" fill="#363E44"/>
<path d="M338.497 0.246582H223.973V114.771H338.497V0.246582Z" fill="#E6D0BE"/>
<path d="M246.679 34.0958C246.617 34.0958 246.558 34.0722 246.511 34.0274L235.896 23.4094L246.511 12.7914C246.603 12.6994 246.752 12.6994 246.844 12.7914C246.936 12.8834 246.936 13.032 246.844 13.1239L236.561 23.407L246.844 33.6901C246.936 33.7821 246.936 33.9307 246.844 34.0227C246.797 34.0698 246.738 34.0911 246.676 34.0911L246.679 34.0958Z" fill="white"/>
<path d="M263.797 34.0959C263.735 34.0959 263.676 34.0724 263.629 34.0275C263.537 33.9356 263.537 33.787 263.629 33.695L273.912 23.4119L263.629 13.1288C263.537 13.0368 263.537 12.8883 263.629 12.7963C263.721 12.7043 263.87 12.7043 263.962 12.7963L274.577 23.4143L263.962 34.0323C263.914 34.0794 263.856 34.1007 263.794 34.1007L263.797 34.0959Z" fill="white"/>
<path d="M250.768 33.4519C250.735 33.4519 250.702 33.4448 250.669 33.4307C250.551 33.3764 250.499 33.2373 250.554 33.117L259.573 13.4305C259.627 13.3126 259.766 13.2607 259.886 13.315C260.004 13.3692 260.056 13.5084 260.002 13.6287L250.983 33.3151C250.943 33.4024 250.858 33.4519 250.768 33.4519Z" fill="white"/>
<path d="M331.434 9.91406H287.186V37.0581H331.434V9.91406Z" fill="#F2E6DC"/>
<path d="M295.118 47.334H235.624C235.495 47.334 235.388 47.2279 235.388 47.0982C235.388 46.9684 235.495 46.8623 235.624 46.8623H295.118C295.247 46.8623 295.353 46.9684 295.353 47.0982C295.353 47.2279 295.247 47.334 295.118 47.334Z" fill="white"/>
<path d="M329.358 58.7468H277.028C276.898 58.7468 276.792 58.6407 276.792 58.511C276.792 58.3813 276.898 58.2751 277.028 58.2751H329.358C329.488 58.2751 329.594 58.3813 329.594 58.511C329.594 58.6407 329.488 58.7468 329.358 58.7468Z" fill="white"/>
<path d="M265.615 58.7468H235.624C235.495 58.7468 235.388 58.6407 235.388 58.511C235.388 58.3813 235.495 58.2751 235.624 58.2751H265.615C265.745 58.2751 265.851 58.3813 265.851 58.511C265.851 58.6407 265.745 58.7468 265.615 58.7468Z" fill="white"/>
<path d="M329.358 70.1597H303.056C302.927 70.1597 302.82 70.0536 302.82 69.9238C302.82 69.7941 302.927 69.688 303.056 69.688H329.358C329.488 69.688 329.594 69.7941 329.594 69.9238C329.594 70.0536 329.488 70.1597 329.358 70.1597Z" fill="white"/>
<path d="M291.641 70.1597H235.624C235.495 70.1597 235.388 70.0536 235.388 69.9238C235.388 69.7941 235.495 69.688 235.624 69.688H291.641C291.771 69.688 291.877 69.7941 291.877 69.9238C291.877 70.0536 291.771 70.1597 291.641 70.1597Z" fill="white"/>
<path d="M312.238 81.5725H235.624C235.495 81.5725 235.388 81.4664 235.388 81.3367C235.388 81.207 235.495 81.1008 235.624 81.1008H312.238C312.368 81.1008 312.474 81.207 312.474 81.3367C312.474 81.4664 312.368 81.5725 312.238 81.5725Z" fill="white"/>
<path d="M227.168 286.491C227.1 286.491 227.029 286.461 226.982 286.402L218.696 275.935L210.411 286.402C210.331 286.503 210.182 286.522 210.078 286.44C209.977 286.359 209.958 286.211 210.041 286.109L218.512 275.409C218.602 275.296 218.793 275.296 218.883 275.409L227.354 286.109C227.435 286.211 227.418 286.359 227.317 286.44C227.274 286.475 227.222 286.491 227.17 286.491H227.168Z" fill="#E6D0BE"/>
<path d="M218.696 302.013C218.567 302.013 218.461 301.907 218.461 301.777V276.421C218.461 276.291 218.567 276.185 218.696 276.185C218.826 276.185 218.932 276.291 218.932 276.421V301.777C218.932 301.907 218.826 302.013 218.696 302.013Z" fill="#E6D0BE"/>
<path d="M197.567 316.093C197.515 316.093 197.463 316.076 197.421 316.041L186.72 307.569C186.664 307.525 186.631 307.456 186.631 307.385C186.631 307.315 186.664 307.246 186.72 307.201L197.421 298.73C197.525 298.65 197.671 298.666 197.753 298.767C197.834 298.869 197.817 299.017 197.716 299.098L187.249 307.383L197.716 315.668C197.817 315.749 197.836 315.897 197.753 315.999C197.706 316.058 197.638 316.088 197.567 316.088V316.093Z" fill="#E6D0BE"/>
<path d="M213.086 307.621H187.73C187.6 307.621 187.494 307.515 187.494 307.385C187.494 307.256 187.6 307.149 187.73 307.149H213.086C213.216 307.149 213.322 307.256 213.322 307.385C213.322 307.515 213.216 307.621 213.086 307.621Z" fill="#E6D0BE"/>
<path d="M239.829 316.093C239.76 316.093 239.69 316.062 239.643 316.003C239.562 315.902 239.579 315.753 239.68 315.673L250.147 307.388L239.68 299.102C239.579 299.022 239.56 298.874 239.643 298.772C239.723 298.671 239.871 298.652 239.975 298.734L250.676 307.206C250.732 307.251 250.765 307.319 250.765 307.39C250.765 307.461 250.732 307.529 250.676 307.574L239.975 316.046C239.933 316.081 239.881 316.098 239.829 316.098V316.093Z" fill="#E6D0BE"/>
<path d="M249.664 307.621H224.308C224.178 307.621 224.072 307.515 224.072 307.385C224.072 307.256 224.178 307.149 224.308 307.149H249.664C249.794 307.149 249.9 307.256 249.9 307.385C249.9 307.515 249.794 307.621 249.664 307.621Z" fill="#E6D0BE"/>
<path d="M327.316 178.401H262.938C253.652 178.401 246.1 170.847 246.1 161.564C246.1 152.281 253.655 144.726 262.938 144.726H327.316C336.601 144.726 344.153 152.281 344.153 161.564C344.153 170.847 336.599 178.401 327.316 178.401ZM262.938 145.196C253.914 145.196 246.572 152.538 246.572 161.561C246.572 170.585 253.914 177.927 262.938 177.927H327.316C336.339 177.927 343.681 170.585 343.681 161.561C343.681 152.538 336.339 145.196 327.316 145.196H262.938Z" fill="#EFBC73"/>
<path d="M212.206 144.377H70.236C70.1063 144.377 70.0002 144.271 70.0002 144.141V126.033C70.0002 125.903 70.1063 125.797 70.236 125.797H212.204C212.334 125.797 212.44 125.903 212.44 126.033V144.141C212.44 144.271 212.334 144.377 212.204 144.377H212.206ZM70.4719 143.905H211.968V126.269H70.4719V143.905Z" fill="#EFBC73"/>
<path d="M430.205 142.493C421.846 138.2 388.867 119.679 372.695 109.273C368.452 103.377 356.999 87.0819 336.704 79.9403C316.407 72.7964 292.645 79.9804 292.694 85.5724C292.718 88.188 296.414 93.7046 303.485 91.8791C311.982 89.6833 316.444 91.2517 322.305 92.7352C321.437 93.1456 316.475 94.3366 315.364 98.7305C314.232 103.202 317.074 107.69 317.487 108.412C314.935 110.863 312.808 113.03 312.935 117.528C313.086 122.844 317.489 125.893 317.489 125.893C317.489 125.893 314.595 131.896 316.237 139.011C317.492 144.453 323.928 150.721 329.011 149.535C330.789 149.12 334.638 146.486 332.03 140.047C333.659 142.226 337.886 153.618 344.737 159.309C350.433 164.04 358.079 163.559 360.586 163.861C399.49 194.429 398.134 193.658 432.695 221.781C431.905 197.95 431.002 174.007 430.209 142.495L430.205 142.493Z" fill="#E2A18D"/>
<path d="M331.671 95.2493C331.631 95.2493 331.588 95.2375 331.551 95.2163C330.128 94.3743 328.602 93.7328 327.011 93.3106C325.692 92.9615 324.329 92.7634 322.963 92.721C322.834 92.7163 322.73 92.6078 322.735 92.478C322.739 92.3507 322.843 92.2493 322.97 92.2493C322.973 92.2493 322.975 92.2493 322.977 92.2493C324.381 92.2917 325.777 92.4946 327.131 92.853C328.763 93.287 330.331 93.945 331.791 94.8082C331.902 94.8743 331.94 95.0182 331.874 95.1314C331.829 95.2068 331.751 95.2469 331.671 95.2469V95.2493Z" fill="#363E44"/>
<path d="M326.313 109.181C326.291 109.181 326.273 109.179 326.251 109.174C324.655 108.742 323.013 108.532 321.367 108.554C320.004 108.568 318.638 108.742 317.31 109.068C317.185 109.098 317.056 109.021 317.025 108.896C316.994 108.768 317.072 108.641 317.197 108.61C318.56 108.275 319.961 108.098 321.36 108.082C323.046 108.063 324.735 108.278 326.372 108.719C326.497 108.752 326.572 108.881 326.539 109.009C326.511 109.115 326.416 109.183 326.313 109.183V109.181Z" fill="#363E44"/>
<path d="M330.629 126.528C330.574 126.528 330.518 126.509 330.473 126.469C329.357 125.495 327.008 123.867 323.761 123.867C323.742 123.867 323.725 123.867 323.706 123.867C321.902 123.877 319.808 124.573 318.367 125.641C318.261 125.719 318.114 125.698 318.036 125.592C317.959 125.488 317.98 125.339 318.086 125.261C319.6 124.139 321.805 123.405 323.704 123.396C323.723 123.396 323.742 123.396 323.761 123.396C327.162 123.396 329.619 125.096 330.784 126.113C330.883 126.198 330.893 126.346 330.805 126.445C330.758 126.5 330.695 126.525 330.629 126.525V126.528Z" fill="#363E44"/>
<path d="M332.247 140.419C332.209 140.419 332.171 140.41 332.136 140.391L325.978 137.066C325.862 137.004 325.82 136.86 325.881 136.747C325.942 136.632 326.086 136.589 326.199 136.653L332.357 139.978C332.473 140.04 332.515 140.184 332.454 140.297C332.412 140.375 332.329 140.422 332.247 140.422V140.419Z" fill="#363E44"/>
<path d="M213.131 157.953H71.67V241.378H213.131V157.953Z" fill="#F7F1EB"/>
<path d="M142.4 213.913C153.599 213.913 162.678 204.834 162.678 193.635C162.678 182.435 153.599 173.356 142.4 173.356C131.2 173.356 122.121 182.435 122.121 193.635C122.121 204.834 131.2 213.913 142.4 213.913Z" fill="#E6D0BE"/>
<path d="M154.348 193.635L135.253 182.611V204.658L154.348 193.635Z" fill="white"/>
<path d="M203.999 228.335H78.4063V233.776H203.999V228.335Z" fill="#E6D0BE"/>
<path d="M327.318 191.76H262.938C253.769 191.76 246.336 199.192 246.336 208.361V208.363C246.336 217.532 253.769 224.965 262.938 224.965H327.318C336.487 224.965 343.919 217.532 343.919 208.363V208.361C343.919 199.192 336.487 191.76 327.318 191.76Z" fill="#EFBC73"/>
<path d="M0.0585327 88.0161C0.0585327 88.0161 50.2546 112.205 73.5519 125.104C105.281 142.672 155.755 173.911 150.192 182.236C147.809 185.8 135.833 179.948 117.904 170.92C118.354 172.283 118.897 176.47 116.064 179.337C111.873 183.58 107.314 181.413 106.828 181.38C107.019 181.83 108.932 186.731 106.606 190.047C103.988 193.781 100.135 194.677 96.6299 193.946C97.0662 195.076 98.2549 199.411 95.9271 202.531C93.5308 205.741 88.7006 207.352 85.0756 205.274C78.4246 201.463 58.8773 189.755 48.6697 185.217C38.4243 180.661 0.0703252 166.564 0.0703252 166.564L0.0585327 88.0161Z" fill="#84524D"/>
<path d="M110.847 159.877C110.795 159.877 110.746 159.861 110.701 159.828C110.599 159.748 110.58 159.599 110.661 159.498L114.42 154.729C114.5 154.627 114.649 154.609 114.75 154.689C114.852 154.769 114.871 154.918 114.79 155.019L111.031 159.788C110.984 159.847 110.915 159.877 110.845 159.877H110.847Z" fill="#363E44"/>
<path d="M101.324 171.993C101.272 171.993 101.222 171.976 101.177 171.943C101.076 171.863 101.057 171.715 101.137 171.613L104.897 166.844C104.977 166.743 105.125 166.724 105.227 166.804C105.328 166.884 105.347 167.033 105.267 167.134L101.508 171.903C101.46 171.962 101.392 171.993 101.321 171.993H101.324Z" fill="#363E44"/>
<path d="M91.7642 184.437C91.7123 184.437 91.6628 184.42 91.618 184.387C91.5166 184.307 91.4977 184.158 91.5779 184.057L95.3374 179.288C95.4176 179.187 95.5662 179.168 95.6676 179.248C95.769 179.328 95.7878 179.477 95.7077 179.578L91.9482 184.347C91.901 184.406 91.8326 184.437 91.7619 184.437H91.7642Z" fill="#363E44"/>
<path d="M82.8632 195.543C82.8113 195.543 82.7618 195.526 82.717 195.493C82.6155 195.413 82.5967 195.264 82.6769 195.163L86.4363 190.394C86.5165 190.293 86.6651 190.274 86.7665 190.354C86.8679 190.434 86.8868 190.583 86.8066 190.684L83.0471 195.453C83 195.512 82.9316 195.543 82.8608 195.543H82.8632Z" fill="#363E44"/>
<path d="M315.879 257.909L312.709 204.413L352.24 240.597L330.023 240.772L315.882 257.909H315.879ZM313.247 205.548L316.278 256.685L329.797 240.302L351.035 240.135L313.249 205.548H313.247Z" fill="#776E42"/>
<path d="M212.204 72.4712H70.2361V114.146H212.204V72.4712Z" fill="#EFBC73"/>
</svg>
