<svg width="40" height="41" viewBox="0 0 40 41" fill="none" xmlns="http://www.w3.org/2000/svg">
<g id="Frame 1000002944">
<g id="Group 40">
<path id="Vector" d="M24.602 16.0087L24.602 25.7237C24.602 27.3806 23.2589 28.7237 21.602 28.7237L7.80258 28.7237C6.14573 28.7237 4.80258 27.3806 4.80258 25.7237L4.80259 16.0087" stroke="#F26C23" stroke-width="2" stroke-linecap="round" stroke-linejoin="round"/>
<path id="Vector_2" d="M22.158 4.62134C22.158 4.06906 21.7103 3.62134 21.158 3.62134C20.6057 3.62134 20.158 4.06906 20.158 4.62134L22.158 4.62134ZM22.158 10.7537L22.158 4.62134L20.158 4.62134L20.158 10.7537L22.158 10.7537Z" fill="#F26C23"/>
<path id="Vector_3" d="M14.7031 36.3786L14.7031 28.7234" stroke="#F26C23" stroke-width="2" stroke-linejoin="round"/>
<path id="Vector_4" d="M9.24609 4.62134C9.24609 4.06906 8.79838 3.62134 8.24609 3.62134C7.69381 3.62134 7.24609 4.06906 7.24609 4.62134L9.24609 4.62134ZM9.24609 10.7537L9.24609 4.62134L7.24609 4.62134L7.24609 10.7537L9.24609 10.7537Z" fill="#F26C23"/>
<path id="Vector_5" d="M0 15.3277H29.4062" stroke="#F26C23" stroke-width="2" stroke-linejoin="round"/>
</g>
</g>
</svg>
