<svg width="380" height="302" viewBox="0 0 380 302" fill="none" xmlns="http://www.w3.org/2000/svg">
<path d="M65.1959 154.03C65.1959 154.03 54.3154 155.046 54.3154 168.653C54.3154 182.26 56.6947 189.398 50.2341 199.254C43.7735 209.118 54.9927 219.999 73.6972 214.554C92.4017 209.11 81.8598 151.303 65.1959 154.03Z" fill="#9A9CE3"/>
<path d="M67.3713 189.612C67.3713 189.612 71.9071 222.173 64.0208 233.82" stroke="#333342" stroke-miterlimit="10" stroke-linecap="round"/>
<path d="M74.4176 197.347L68.7056 205.135" stroke="#333342" stroke-miterlimit="10" stroke-linecap="round"/>
<path d="M93.1407 235.729C93.1407 235.729 88.1148 219.52 67.5746 227.281C67.5746 227.281 54.5644 220.206 44.5215 234.588L93.1407 235.729Z" fill="#CDC9FF"/>
<path d="M342.646 191.421C343.715 184.488 335.927 179.391 329.992 183.151C328.246 184.256 326.49 186.029 324.833 188.703C316.118 202.791 317.454 230.291 336.569 228.277C355.683 226.263 349.65 212.184 344.615 202.123C342.459 197.81 342.209 194.174 342.637 191.43L342.646 191.421Z" fill="#E3E0FF"/>
<path d="M333.014 201.677C333.014 201.677 342.816 228.232 333.325 242.784" stroke="#333342" stroke-miterlimit="10" stroke-linecap="round"/>
<path d="M330.483 214.919L337.22 221.728" stroke="#333342" stroke-miterlimit="10" stroke-linecap="round"/>
<path d="M312.639 248.318H379.019C379.019 248.318 372.157 235.896 361.776 240.904C361.776 240.904 332.297 225.889 313.941 238.124L312.639 248.318Z" fill="#CDC9FF"/>
<path d="M30.8602 191.421C31.9296 184.488 24.1412 179.391 18.2064 183.151C16.4598 184.256 14.7043 186.029 13.0469 188.703C4.33175 202.791 5.66842 230.291 24.7828 228.277C43.8973 226.263 37.8644 212.184 32.8296 202.123C30.6731 197.81 30.4236 194.174 30.8513 191.43L30.8602 191.421Z" fill="#E3E0FF"/>
<path d="M21.2277 201.677C21.2277 201.677 31.03 228.232 21.5396 242.784" stroke="#333342" stroke-miterlimit="10" stroke-linecap="round"/>
<path d="M18.7051 214.919L25.442 221.727" stroke="#333342" stroke-miterlimit="10" stroke-linecap="round"/>
<path d="M67.2444 248.318H0.865234C0.865234 248.318 7.72682 235.896 18.1083 240.904C18.1083 240.904 47.5864 225.889 65.9434 238.124L67.2444 248.318Z" fill="#CDC9FF"/>
<path d="M172.786 315.069C155.488 331.398 167.498 355.626 176.127 368.539H85.0429C58.4779 312.284 117.029 296.47 154.129 283.664C192.356 270.468 182.948 238.565 182.948 238.565H211.221C216.575 276.693 197.362 291.853 172.786 315.069Z" fill="url(#paint0_linear_1_1003)"/>
<path d="M43.2434 58.5567H115.248C115.248 58.5567 114.322 51.4505 105.668 52.9976C105.668 52.9976 102.328 35.3512 81.562 36.3118C65.3183 37.0683 57.7701 54.2386 57.7701 54.2386C57.7701 54.2386 48.4965 49.2915 43.2434 58.5651V58.5567Z" fill="#CDC9FF"/>
<path d="M314.207 28.4777C319.319 23.3657 319.319 15.0774 314.207 9.96538C309.095 4.85332 300.807 4.85332 295.695 9.96537C290.583 15.0774 290.583 23.3657 295.695 28.4777C300.807 33.5898 309.095 33.5898 314.207 28.4777Z" fill="white"/>
<path d="M278.715 34.2463H320.705C320.705 34.2463 318.903 25.4146 308.644 29.6987C308.644 29.6987 285.141 11.5509 278.706 34.2463H278.715Z" fill="#CDC9FF"/>
<path d="M255.976 104.412L314.549 104.412V86.1977H255.976V104.412Z" fill="#9A9CE3"/>
<path d="M255.982 107.665H306.927V104.412H255.982V107.665Z" fill="#7F80C9"/>
<path d="M140.469 229.284H81.8962V247.499H140.469V229.284Z" fill="#9A9CE3"/>
<path d="M140.469 86.1978H81.8962V104.412H140.469V86.1978Z" fill="#9A9CE3"/>
<path d="M140.47 104.412H89.5254V107.665H140.47V104.412Z" fill="#7F80C9"/>
<path d="M219.004 31.6526C214.968 24.1405 207.028 19.2216 198.233 19.2216C189.437 19.2216 181.48 24.2742 177.478 31.6526H155.611V46.3649H240.846V31.6526H219.004Z" fill="#9A9CE3"/>
<path d="M261.153 49.9204H135.827V66.1476H261.153V49.9204Z" fill="#CDC9FF"/>
<path d="M255.984 66.1388H140.469V248.354H255.984V66.1388Z" fill="#CDC9FF"/>
<path d="M261.153 42.8182H135.827V49.9204H261.153V42.8182Z" fill="#9A9CE3"/>
<path d="M306.922 107.665H89.5254V247.757H306.922V107.665Z" fill="#CDC9FF"/>
<path d="M204.997 201.276V184.31H193.288V201.276H204.997Z" fill="#9A9CE3"/>
<path d="M203.577 185.726H194.71V199.851H203.577V185.726Z" fill="white"/>
<path d="M204.666 190.699V189.772H193.856V190.699H204.666Z" fill="#9A9CE3"/>
<path d="M205.006 175.737V158.77H193.297V175.737H205.006Z" fill="#9A9CE3"/>
<path d="M203.577 160.187H194.711V174.311H203.577V160.187Z" fill="white"/>
<path d="M204.656 165.151V164.224H193.847V165.151H204.656Z" fill="#9A9CE3"/>
<path d="M205.006 150.189V133.222H193.297V150.189H205.006Z" fill="#9A9CE3"/>
<path d="M203.577 134.648H194.711V148.772H203.577V134.648Z" fill="white"/>
<path d="M204.666 139.611V138.684H193.857V139.611H204.666Z" fill="#9A9CE3"/>
<path d="M204.997 124.649V107.682H193.288V124.649H204.997Z" fill="#9A9CE3"/>
<path d="M203.577 109.099H194.71V123.224H203.577V109.099Z" fill="white"/>
<path d="M204.666 114.072V113.145H193.856V114.072H204.666Z" fill="#9A9CE3"/>
<path d="M205.006 99.1099V82.1431H193.297V99.1099H205.006Z" fill="#9A9CE3"/>
<path d="M203.577 83.5599H194.711V97.6841H203.577V83.5599Z" fill="white"/>
<path d="M204.656 88.5236V87.5968H193.847V88.5236H204.656Z" fill="#9A9CE3"/>
<path d="M241.009 201.276V184.31H229.299V201.276H241.009Z" fill="#9A9CE3"/>
<path d="M239.588 185.726H230.722V199.851H239.588V185.726Z" fill="white"/>
<path d="M240.677 190.699V189.772H229.868V190.699H240.677Z" fill="#9A9CE3"/>
<path d="M291.124 201.276V184.31H279.414V201.276H291.124Z" fill="#9A9CE3"/>
<path d="M289.703 185.726H280.837V199.851H289.703V185.726Z" fill="white"/>
<path d="M290.792 190.699V189.772H279.983V190.699H290.792Z" fill="#9A9CE3"/>
<path d="M291.132 175.737V158.77H279.423V175.737H291.132Z" fill="#9A9CE3"/>
<path d="M289.704 160.187H280.837V174.311H289.704V160.187Z" fill="white"/>
<path d="M290.782 165.15V164.224H279.973V165.15H290.782Z" fill="#9A9CE3"/>
<path d="M291.132 150.189V133.222H279.423V150.189H291.132Z" fill="#9A9CE3"/>
<path d="M289.704 134.648H280.837V148.772H289.704V134.648Z" fill="white"/>
<path d="M290.792 139.611V138.684H279.983V139.611H290.792Z" fill="#9A9CE3"/>
<path d="M118.409 201.268V184.301H106.699V201.268H118.409Z" fill="#9A9CE3"/>
<path d="M116.988 185.727H108.122V199.851H116.988V185.727Z" fill="white"/>
<path d="M118.077 190.699V189.772H107.268V190.699H118.077Z" fill="#9A9CE3"/>
<path d="M118.415 175.728V158.761H106.706V175.728H118.415Z" fill="#9A9CE3"/>
<path d="M116.986 160.187H108.12V174.311H116.986V160.187Z" fill="white"/>
<path d="M118.065 165.151V164.224H107.255V165.151H118.065Z" fill="#9A9CE3"/>
<path d="M118.409 150.189V133.222H106.699V150.189H118.409Z" fill="#9A9CE3"/>
<path d="M116.988 134.648H108.122V148.772H116.988V134.648Z" fill="white"/>
<path d="M118.077 139.611V138.684H107.268V139.611H118.077Z" fill="#9A9CE3"/>
<path d="M168.988 201.276V184.31H157.279V201.276H168.988Z" fill="#9A9CE3"/>
<path d="M167.568 185.726H158.701V199.851H167.568V185.726Z" fill="white"/>
<path d="M168.656 190.708V189.781H157.847V190.708H168.656Z" fill="#9A9CE3"/>
<path d="M241.013 175.737V158.77H229.304V175.737H241.013Z" fill="#9A9CE3"/>
<path d="M239.586 160.187H230.72V174.311H239.586V160.187Z" fill="white"/>
<path d="M240.665 165.151V164.224H229.856V165.151H240.665Z" fill="#9A9CE3"/>
<path d="M168.997 175.737V158.77H157.288V175.737H168.997Z" fill="#9A9CE3"/>
<path d="M167.568 160.187H158.702V174.311H167.568V160.187Z" fill="white"/>
<path d="M168.647 165.16V164.233H157.837V165.16H168.647Z" fill="#9A9CE3"/>
<path d="M241.013 150.189V133.222H229.304V150.189H241.013Z" fill="#9A9CE3"/>
<path d="M239.586 134.648H230.72V148.772H239.586V134.648Z" fill="white"/>
<path d="M240.673 139.611V138.684H229.864V139.611H240.673Z" fill="#9A9CE3"/>
<path d="M168.997 150.189V133.222H157.288V150.189H168.997Z" fill="#9A9CE3"/>
<path d="M167.568 134.648H158.702V148.772H167.568V134.648Z" fill="white"/>
<path d="M168.657 139.62V138.693H157.848V139.62H168.657Z" fill="#9A9CE3"/>
<path d="M241.009 124.649V107.682H229.299V124.649H241.009Z" fill="#9A9CE3"/>
<path d="M239.588 109.099H230.722V123.223H239.588V109.099Z" fill="white"/>
<path d="M240.677 114.072V113.145H229.868V114.072H240.677Z" fill="#9A9CE3"/>
<path d="M168.988 124.649V107.682H157.279V124.649H168.988Z" fill="#9A9CE3"/>
<path d="M167.568 109.099H158.701V123.223H167.568V109.099Z" fill="white"/>
<path d="M168.656 114.08V113.154H157.847V114.08H168.656Z" fill="#9A9CE3"/>
<path d="M241.013 99.1099V82.1431H229.304V99.1099H241.013Z" fill="#9A9CE3"/>
<path d="M239.586 83.5599H230.72V97.6841H239.586V83.5599Z" fill="white"/>
<path d="M240.665 88.5232V87.5964H229.856V88.5232H240.665Z" fill="#9A9CE3"/>
<path d="M168.997 99.1099V82.1431H157.288V99.1099H168.997Z" fill="#9A9CE3"/>
<path d="M167.568 83.5599H158.702V97.6841H167.568V83.5599Z" fill="white"/>
<path d="M168.647 88.5325V87.6057H157.838V88.5325H168.647Z" fill="#9A9CE3"/>
<path d="M255.984 66.1388H140.469V69.7567H255.984V66.1388Z" fill="#7F80C9"/>
<path d="M263.256 107.665H255.984V247.757H263.256V107.665Z" fill="#9A9CE3"/>
<path d="M140.138 107.665H132.866V247.757H140.138V107.665Z" fill="#9A9CE3"/>
<path d="M205.637 214.198C204.193 211.515 201.369 209.76 198.232 209.76C195.095 209.76 192.252 211.56 190.827 214.198H183.029V248.354H213.434V214.198H205.646H205.637Z" fill="#9A9CE3"/>
<path d="M256.103 248.292H314.675V230.077H256.103V248.292Z" fill="#9A9CE3"/>
<path d="M211.063 218.011H185.667V248.309H211.063V218.011Z" fill="#7F80C9"/>
<path d="M240.755 39.6904H156.393V42.5776H240.755V39.6904Z" fill="#7F80C9"/>
<path d="M278.935 247.225H270.642C266.395 247.225 262.952 250.668 262.952 254.915V263.005C262.952 267.252 266.395 270.695 270.642 270.695H278.935C283.182 270.695 286.625 267.252 286.625 263.005V254.915C286.625 250.668 283.182 247.225 278.935 247.225Z" fill="#FFC4A3"/>
<path d="M313.953 251.313H274.923V303.554H313.953V251.313Z" fill="#FFC4A3"/>
<path d="M303.313 259.34H313.908V193.825C308.059 193.825 303.313 198.571 303.313 204.42V259.34Z" fill="#FFC4A3"/>
<path d="M252.911 222.949L227.382 212.949C224.195 211.696 222.621 208.101 223.866 204.906C225.119 201.719 228.713 200.145 231.908 201.39L257.438 211.39L252.911 222.949Z" fill="#FFC4A3"/>
<path d="M266.546 233.685H239.129C235.699 233.685 232.927 230.905 232.927 227.483C232.927 224.053 235.707 221.281 239.129 221.281H266.546V233.693V233.685Z" fill="#FFC4A3"/>
<path d="M242.183 235.729H269.6V248.141H242.183C238.761 248.141 235.981 245.361 235.981 241.939C235.981 238.517 238.761 235.737 242.183 235.737V235.729Z" fill="#FFC4A3"/>
<path d="M299.585 155.014H247.931C245.855 155.014 244.172 156.697 244.172 158.773V256.803C244.172 258.879 245.855 260.562 247.931 260.562H299.585C301.661 260.562 303.344 258.879 303.344 256.803V158.773C303.344 156.697 301.661 155.014 299.585 155.014Z" fill="#5C5D78"/>
<path d="M299.584 156.58H247.93C246.719 156.58 245.737 157.562 245.737 158.773V244.265C245.737 245.476 246.719 246.458 247.93 246.458H299.584C300.795 246.458 301.777 245.476 301.777 244.265V158.773C301.777 157.562 300.795 156.58 299.584 156.58Z" fill="#FCE4D8"/>
<path d="M305.12 222.604C305.12 222.604 289.849 247.679 303.311 259.34L305.12 222.604Z" fill="#FFC4A3"/>
<path d="M318.098 283.021H271.174V303.554H318.098V283.021Z" fill="#5C5D78"/>
<path d="M277.759 253.521C277.759 255.73 275.966 257.523 273.757 257.523C271.549 257.523 269.756 255.73 269.756 253.521C269.756 251.313 271.549 249.52 273.757 249.52C275.966 249.52 277.759 251.313 277.759 253.521Z" fill="#333342"/>
<path d="M293.07 225.063H254.932V237.1H293.07V225.063Z" fill="white"/>
<path d="M263.475 231.372C263.814 231.549 264.076 231.799 264.26 232.124C264.452 232.441 264.548 232.805 264.548 233.218C264.548 233.837 264.308 234.364 263.829 234.799C263.357 235.234 262.786 235.451 262.116 235.451H258.821V227.712H262.027C262.69 227.712 263.243 227.904 263.685 228.287C264.128 228.663 264.349 229.135 264.349 229.702C264.349 230.034 264.271 230.347 264.117 230.642C263.962 230.937 263.748 231.18 263.475 231.372ZM262.724 229.968C262.724 229.842 262.702 229.732 262.657 229.636C262.62 229.533 262.565 229.444 262.491 229.371C262.418 229.297 262.326 229.242 262.215 229.205C262.112 229.161 261.994 229.139 261.861 229.139H260.468V230.786H261.861C262.127 230.786 262.337 230.712 262.491 230.565C262.646 230.41 262.724 230.211 262.724 229.968ZM261.95 233.915C262.222 233.915 262.444 233.834 262.613 233.671C262.783 233.509 262.867 233.299 262.867 233.041C262.867 232.791 262.783 232.584 262.613 232.422C262.444 232.26 262.222 232.179 261.95 232.179H260.468V233.915H261.95ZM269.585 235.617C268.405 235.617 267.421 235.234 266.633 234.467C265.852 233.693 265.461 232.732 265.461 231.582C265.461 230.432 265.852 229.474 266.633 228.707C267.421 227.934 268.405 227.547 269.585 227.547C270.359 227.547 271.059 227.724 271.685 228.077C272.319 228.424 272.813 228.906 273.167 229.526C273.52 230.137 273.697 230.823 273.697 231.582C273.697 232.739 273.307 233.701 272.525 234.467C271.744 235.234 270.764 235.617 269.585 235.617ZM269.585 234.036C270.042 234.036 270.454 233.933 270.823 233.727C271.191 233.513 271.479 233.218 271.685 232.842C271.899 232.466 272.006 232.046 272.006 231.582C272.006 230.882 271.774 230.299 271.309 229.835C270.852 229.363 270.277 229.128 269.585 229.128C268.899 229.128 268.321 229.363 267.849 229.835C267.385 230.299 267.152 230.882 267.152 231.582C267.152 232.282 267.385 232.868 267.849 233.34C268.321 233.804 268.899 234.036 269.585 234.036ZM278.686 235.617C277.507 235.617 276.523 235.234 275.734 234.467C274.953 233.693 274.562 232.732 274.562 231.582C274.562 230.432 274.953 229.474 275.734 228.707C276.523 227.934 277.507 227.547 278.686 227.547C279.46 227.547 280.16 227.724 280.787 228.077C281.42 228.424 281.914 228.906 282.268 229.526C282.622 230.137 282.799 230.823 282.799 231.582C282.799 232.739 282.408 233.701 281.627 234.467C280.846 235.234 279.865 235.617 278.686 235.617ZM278.686 234.036C279.143 234.036 279.556 233.933 279.924 233.727C280.293 233.513 280.58 233.218 280.787 232.842C281 232.466 281.107 232.046 281.107 231.582C281.107 230.882 280.875 230.299 280.411 229.835C279.954 229.363 279.379 229.128 278.686 229.128C278.001 229.128 277.422 229.363 276.95 229.835C276.486 230.299 276.254 230.882 276.254 231.582C276.254 232.282 276.486 232.868 276.95 233.34C277.422 233.804 278.001 234.036 278.686 234.036ZM290.573 235.451H288.528L285.797 231.67V235.451H284.117V227.712H285.797V231.283L288.329 227.712H290.286L287.644 231.416L290.573 235.451Z" fill="#7F80C9"/>
<path d="M281.364 206.791C291.26 202.619 295.9 191.216 291.728 181.32C287.556 171.425 276.152 166.785 266.257 170.957C256.361 175.128 251.721 186.532 255.893 196.428C260.065 206.323 271.469 210.963 281.364 206.791Z" fill="white"/>
<path d="M273.805 173.268C265.159 173.268 258.151 180.277 258.151 188.923C258.151 197.568 265.159 204.569 273.805 204.569C282.45 204.569 289.451 197.56 289.451 188.923C289.451 180.285 282.45 173.268 273.805 173.268ZM273.805 195.853C269.975 195.853 266.867 192.752 266.867 188.923C266.867 185.093 269.975 181.984 273.805 181.984C277.634 181.984 280.735 185.093 280.735 188.923C280.735 192.752 277.634 195.853 273.805 195.853Z" fill="#9A9CE3"/>
<path d="M274.971 199.174L274.11 199.362L273.241 199.174L266.709 199.957L273.797 215.556L274.102 216.238L274.415 215.556L281.495 199.957L274.971 199.174Z" fill="#9A9CE3"/>
<path d="M315.664 276.059H273.462V283.092H315.664V276.059Z" fill="#E3E0FF"/>
<path opacity="0.35" d="M301.777 158.773V184.451L245.737 215.431V185.039L297.219 156.58H299.584C300.79 156.58 301.777 157.567 301.777 158.773Z" fill="white"/>
<path opacity="0.35" d="M301.777 191.233V206.269L245.737 237.248V222.205L301.777 191.233Z" fill="white"/>
<defs>
<linearGradient id="paint0_linear_1_1003" x1="194.08" y1="238.565" x2="194.08" y2="312.218" gradientUnits="userSpaceOnUse">
<stop stop-color="white"/>
<stop offset="1" stop-color="white" stop-opacity="0"/>
</linearGradient>
</defs>
</svg>
