<svg width="663" height="349" viewBox="0 0 663 349" fill="none" xmlns="http://www.w3.org/2000/svg">
<g clip-path="url(#clip0_1_1455)">
<path d="M431.921 348.432H537.907C551.436 348.432 562.404 337.445 562.404 323.893V41.3307C562.404 27.7782 551.436 16.7918 537.907 16.7918H431.921C418.392 16.7918 407.425 27.7782 407.425 41.3307V323.893C407.425 337.445 418.392 348.432 431.921 348.432Z" fill="#1F275F"/>
<path d="M415.849 348.432H521.834C535.363 348.432 546.331 337.445 546.331 323.893V41.3307C546.331 27.7782 535.363 16.7918 521.834 16.7918H415.849C402.32 16.7918 391.352 27.7782 391.352 41.3307V323.893C391.352 337.445 402.32 348.432 415.849 348.432Z" fill="#537EEF"/>
<path d="M415.707 340.997H521.976C531.291 340.997 538.843 333.432 538.843 324.101V42.6755C538.843 33.3441 531.291 25.7795 521.976 25.7795H415.707C406.392 25.7795 398.84 33.3441 398.84 42.6755V324.101C398.84 333.432 406.392 340.997 415.707 340.997Z" fill="white"/>
<path d="M493.669 34.0854L442.86 34.0854C440.345 34.0854 438.303 32.0398 438.303 29.5205V22.0764L498.226 22.0764V29.5205C498.226 32.0398 496.184 34.0854 493.669 34.0854Z" fill="#537EEF"/>
<path d="M454.489 26.4331H477.975" stroke="#312220" stroke-width="0.87" stroke-linecap="round" stroke-linejoin="round"/>
<path d="M531.289 82.1499H406.498V175.769H531.289V82.1499Z" fill="#D8DFFD"/>
<mask id="mask0_1_1455" style="mask-type:luminance" maskUnits="userSpaceOnUse" x="406" y="82" width="126" height="94">
<path d="M531.289 82.1499H406.498V175.769H531.289V82.1499Z" fill="white"/>
</mask>
<g mask="url(#mask0_1_1455)">
<path d="M539.136 89.3478L384.081 206.616" stroke="white" stroke-width="5.13" stroke-miterlimit="10"/>
<path d="M576.037 108.716L420.983 225.983" stroke="white" stroke-width="5.13" stroke-miterlimit="10"/>
<path d="M501.516 70.5765L364.463 174.235" stroke="white" stroke-width="5.13" stroke-miterlimit="10"/>
<path d="M415.338 73.1621L472.784 157.765C474.732 160.635 474.221 164.508 471.602 166.772L453.166 182.711C444.761 189.985 443.598 197.902 450.537 206.587L480.3 248.552" stroke="white" stroke-width="5.13" stroke-miterlimit="10"/>
</g>
<path d="M511.047 72.8969C511.047 60.9826 498.491 52.0043 485.907 58.5108C483.95 59.5241 481.463 61.9676 480.404 63.8997C477.114 69.8663 477.407 75.7571 479.771 80.3978H479.752L479.884 80.6441C479.941 80.7577 480.007 80.8714 480.073 80.985L494.501 107.125L508.957 80.9472C509.004 80.8619 509.052 80.7672 509.099 80.682L509.165 80.5588C510.366 78.2669 511.047 75.6624 511.047 72.8969Z" fill="#FFB444"/>
<path d="M497.322 79.5268C501.058 77.9683 502.825 73.6713 501.269 69.9292C499.713 66.187 495.424 64.4168 491.688 65.9753C487.952 67.5337 486.185 71.8307 487.741 75.5729C489.297 79.315 493.586 81.0853 497.322 79.5268Z" fill="white"/>
<path d="M344.599 269.578H327.468C310.648 269.578 297.015 287.25 297.015 309.052C297.015 330.854 310.648 348.527 327.468 348.527H344.599C361.419 348.527 375.052 330.854 375.052 309.052C375.052 287.25 361.419 269.578 344.599 269.578Z" fill="black"/>
<path d="M558.244 269.578H541.112C524.292 269.578 510.659 287.25 510.659 309.052C510.659 330.854 524.292 348.527 541.112 348.527H558.244C575.063 348.527 588.697 330.854 588.697 309.052C588.697 287.25 575.063 269.578 558.244 269.578Z" fill="black"/>
<path d="M476.868 260.022H350.584V316.6H476.868V260.022Z" fill="black"/>
<path d="M419.631 348.441C436.058 348.441 449.375 331.175 449.375 309.876C449.375 288.577 436.058 271.311 419.631 271.311C403.203 271.311 389.887 288.577 389.887 309.876C389.887 331.175 403.203 348.441 419.631 348.441Z" fill="black"/>
<path d="M402.896 348.432H419.631L436.734 331.299L419.631 271.311H402.896V348.432Z" fill="black"/>
<path d="M402.896 348.441C419.323 348.441 432.64 331.175 432.64 309.876C432.64 288.577 419.323 271.311 402.896 271.311C386.469 271.311 373.152 288.577 373.152 309.876C373.152 331.175 386.469 348.441 402.896 348.441Z" fill="#253A6A"/>
<path d="M400.835 328.571C408.767 328.571 415.196 319.837 415.196 309.062C415.196 298.286 408.767 289.552 400.835 289.552C392.903 289.552 386.473 298.286 386.473 309.062C386.473 319.837 392.903 328.571 400.835 328.571Z" fill="#B8B8C2"/>
<mask id="mask1_1_1455" style="mask-type:luminance" maskUnits="userSpaceOnUse" x="386" y="289" width="30" height="40">
<path d="M400.835 328.571C408.767 328.571 415.196 319.837 415.196 309.062C415.196 298.286 408.767 289.552 400.835 289.552C392.903 289.552 386.473 298.286 386.473 309.062C386.473 319.837 392.903 328.571 400.835 328.571Z" fill="white"/>
</mask>
<g mask="url(#mask1_1_1455)">
<path d="M407.519 328.571C415.451 328.571 421.881 319.837 421.881 309.062C421.881 298.286 415.451 289.552 407.519 289.552C399.588 289.552 393.158 298.286 393.158 309.062C393.158 319.837 399.588 328.571 407.519 328.571Z" fill="white"/>
</g>
<path d="M263.224 260.022H136.94V316.6H263.224V260.022Z" fill="black"/>
<path d="M205.977 348.441C222.404 348.441 235.721 331.175 235.721 309.876C235.721 288.577 222.404 271.311 205.977 271.311C189.55 271.311 176.233 288.577 176.233 309.876C176.233 331.175 189.55 348.441 205.977 348.441Z" fill="black"/>
<path d="M189.242 348.432H205.977L223.089 331.299L205.977 271.311H189.242V348.432Z" fill="black"/>
<path d="M189.242 348.441C205.669 348.441 218.986 331.175 218.986 309.876C218.986 288.577 205.669 271.311 189.242 271.311C172.815 271.311 159.498 288.577 159.498 309.876C159.498 331.175 172.815 348.441 189.242 348.441Z" fill="#253A6A"/>
<path d="M187.191 328.571C195.122 328.571 201.552 319.837 201.552 309.062C201.552 298.286 195.122 289.552 187.191 289.552C179.259 289.552 172.829 298.286 172.829 309.062C172.829 319.837 179.259 328.571 187.191 328.571Z" fill="#B8B8C2"/>
<mask id="mask2_1_1455" style="mask-type:luminance" maskUnits="userSpaceOnUse" x="172" y="289" width="30" height="40">
<path d="M187.191 328.571C195.122 328.571 201.552 319.837 201.552 309.062C201.552 298.286 195.122 289.552 187.191 289.552C179.259 289.552 172.829 298.286 172.829 309.062C172.829 319.837 179.259 328.571 187.191 328.571Z" fill="white"/>
</mask>
<g mask="url(#mask2_1_1455)">
<path d="M193.875 328.571C201.806 328.571 208.236 319.837 208.236 309.062C208.236 298.286 201.806 289.552 193.875 289.552C185.943 289.552 179.513 298.286 179.513 309.062C179.513 319.837 185.943 328.571 193.875 328.571Z" fill="white"/>
</g>
<path d="M116.877 316.6V249.604C116.877 240.048 123.873 231.903 133.319 230.596C141.61 229.44 152.228 228.436 163.214 228.635C163.214 228.635 226.711 189.54 249.988 189.54L395.852 188.791C415.376 188.526 434.682 192.93 452.164 201.643L517.126 234.024L603.493 252.966C603.493 252.966 621.381 257.824 625.22 269.473C629.058 281.123 627.772 293.927 627.772 293.927H438.076C438.076 293.927 429.53 267.002 402.178 267.002C374.826 267.002 367.413 300.045 369.124 316.6H225.803C225.803 316.6 226.37 267.504 189.327 269.218C152.284 270.932 155.13 316.6 155.13 316.6H116.868" fill="#F5AB3A"/>
<mask id="mask3_1_1455" style="mask-type:luminance" maskUnits="userSpaceOnUse" x="116" y="188" width="512" height="129">
<path d="M116.877 316.6V249.604C116.877 240.048 123.873 231.903 133.319 230.596C141.61 229.44 152.228 228.436 163.214 228.635C163.214 228.635 226.711 189.54 249.988 189.54L395.852 188.791C415.376 188.526 434.682 192.93 452.164 201.643L517.126 234.024L603.493 252.966C603.493 252.966 621.381 257.824 625.22 269.473C629.058 281.123 627.772 293.927 627.772 293.927H438.076C438.076 293.927 429.53 267.002 402.178 267.002C374.826 267.002 367.413 300.045 369.124 316.6H225.803C225.803 316.6 226.37 267.504 189.327 269.218C152.284 270.932 155.13 316.6 155.13 316.6H116.868" fill="white"/>
</mask>
<g mask="url(#mask3_1_1455)">
<path d="M366.014 218.861L467.111 272.504L663 272.277L490.946 188.772L459.898 227.11L366.014 218.861Z" fill="#FFD175"/>
</g>
<path d="M118.286 293.927C113.284 293.927 109.238 297.981 109.228 302.991V307.537C109.228 312.547 113.275 316.6 118.276 316.6H155.14C155.14 316.6 154.951 304.241 158.222 293.927H118.286Z" fill="#E4891F"/>
<path d="M283.438 170.323H340.042C344.751 170.323 348.58 174.159 348.58 178.876V189.54H274.9V178.876C274.9 174.159 278.729 170.323 283.438 170.323Z" fill="black"/>
<path d="M294.452 170.323H351.057C355.765 170.323 359.594 174.159 359.594 178.876V189.54H285.915V178.876C285.915 174.159 289.744 170.323 294.452 170.323Z" fill="#E4891F"/>
<path d="M306.176 176.3H302.668V174.633H311.65V176.3H308.143V185.24H306.176V176.3Z" fill="black"/>
<path d="M320.613 182.778H315.319L314.279 185.23H312.255L317.02 174.623H318.959L323.743 185.23H321.681L320.623 182.778H320.613ZM319.961 181.234L317.966 176.593L315.98 181.234H319.961Z" fill="black"/>
<path d="M332.356 185.23L329.481 181.196L326.636 185.23H324.395L328.328 179.823L324.603 174.623H326.825L329.529 178.393L332.204 174.623H334.341L330.635 179.747L334.615 185.23H332.346H332.356Z" fill="black"/>
<path d="M336.96 174.633H338.927V185.24H336.96V174.633Z" fill="black"/>
<path d="M368.567 231.335L310.922 198.859C306.025 196.103 300.503 194.654 294.887 194.654H260.567C251.689 194.654 242.982 197.164 235.465 201.909L180.705 233.039C179.145 233.93 179.769 236.316 181.565 236.316H367.262C369.994 236.316 370.94 232.679 368.567 231.344V231.335Z" fill="black"/>
<mask id="mask4_1_1455" style="mask-type:luminance" maskUnits="userSpaceOnUse" x="179" y="194" width="191" height="43">
<path d="M368.567 231.335L310.922 198.859C306.025 196.103 300.503 194.654 294.887 194.654H260.567C251.689 194.654 242.982 197.164 235.465 201.909L180.705 233.039C179.145 233.93 179.769 236.316 181.565 236.316H367.262C369.994 236.316 370.94 232.679 368.567 231.344V231.335Z" fill="white"/>
</mask>
<g mask="url(#mask4_1_1455)">
<path d="M181.669 192.712L299.974 260.022H347.587L229.32 192.712H181.669Z" fill="#5E5E5E"/>
</g>
<path d="M180.336 234.375V257.673C180.336 257.673 230.625 247.53 235.721 305.264H350.584C350.584 305.264 347.511 248.827 368.718 235.066" stroke="black" stroke-width="0.79" stroke-linecap="round" stroke-linejoin="round"/>
<path d="M274.078 236.307C274.078 236.307 262.099 241.629 267.904 305.264" stroke="black" stroke-width="0.79" stroke-linecap="round" stroke-linejoin="round"/>
<path d="M292.543 241.942H281.008C279.744 241.942 278.72 242.968 278.72 244.234V245.294C278.72 246.56 279.744 247.586 281.008 247.586H292.543C293.806 247.586 294.831 246.56 294.831 245.294V244.234C294.831 242.968 293.806 241.942 292.543 241.942Z" fill="black"/>
<path d="M205.854 241.942H194.319C193.056 241.942 192.031 242.968 192.031 244.234V245.294C192.031 246.56 193.056 247.586 194.319 247.586H205.854C207.117 247.586 208.142 246.56 208.142 245.294V244.234C208.142 242.968 207.117 241.942 205.854 241.942Z" fill="black"/>
<path d="M332.838 201.217L398.812 236.307H510.971L435.514 199.342C429.199 196.245 422.259 194.645 415.234 194.645H334.464C330.833 194.645 329.623 199.513 332.828 201.217H332.838Z" fill="black"/>
<path d="M415.196 241.942H519.026" stroke="black" stroke-width="0.79" stroke-linecap="round" stroke-linejoin="round"/>
<path d="M354.205 194.645L427.44 236.307H451.88L378.664 194.645H354.205Z" fill="#5E5E5E"/>
<path d="M399.823 194.645L473.058 236.307H481L407.784 194.645H399.823Z" fill="#5E5E5E"/>
<path d="M616.654 316.6H447.115C442.114 316.6 438.067 312.537 438.067 307.537L438.086 293.937H627.782L627.631 305.614C627.631 311.685 622.714 316.61 616.654 316.61V316.6Z" fill="#E4891F"/>
<path d="M572.643 291.114H541.868V300.443H572.643V291.114Z" fill="white"/>
<path d="M505.374 272.514H596.081" stroke="black" stroke-width="0.79" stroke-linecap="round" stroke-linejoin="round"/>
<path d="M521.929 279.456H581.549" stroke="black" stroke-width="0.79" stroke-linecap="round" stroke-linejoin="round"/>
<path d="M521.929 286.369H581.549" stroke="black" stroke-width="0.79" stroke-linecap="round" stroke-linejoin="round"/>
<path d="M509.146 269.578H469.56C466.213 269.578 463.5 272.296 463.5 275.648V281.331C463.5 284.684 466.213 287.402 469.56 287.402H509.146C512.493 287.402 515.207 284.684 515.207 281.331V275.648C515.207 272.296 512.493 269.578 509.146 269.578Z" fill="white"/>
<path d="M625.286 269.578H595.258C591.911 269.578 589.198 272.296 589.198 275.648V281.34C589.198 284.693 591.911 287.411 595.258 287.411H627.99C628.255 275.44 625.692 270.316 625.286 269.587V269.578Z" fill="white"/>
<path d="M463.5 281.34H515.216" stroke="black" stroke-width="0.79" stroke-linecap="round" stroke-linejoin="round"/>
<path d="M589.198 281.34H627.782" stroke="black" stroke-width="0.79" stroke-linecap="round" stroke-linejoin="round"/>
<path d="M269.473 24.5484C269.473 6.89481 250.867 -6.4117 232.223 3.23907C229.329 4.73546 225.642 8.36279 224.063 11.223C219.185 20.0687 219.62 28.7819 223.127 35.6767H223.099L223.297 36.0365C223.383 36.207 223.477 36.368 223.572 36.5385L244.948 75.2647L266.363 36.4722C266.439 36.3396 266.505 36.2165 266.58 36.0839L266.675 35.904H266.665C268.443 32.5039 269.455 28.6493 269.455 24.5484H269.473Z" fill="#FFB444"/>
<path d="M244.967 35.1747C250.967 35.1747 255.831 30.3027 255.831 24.2927C255.831 18.2828 250.967 13.4108 244.967 13.4108C238.968 13.4108 234.104 18.2828 234.104 24.2927C234.104 30.3027 238.968 35.1747 244.967 35.1747Z" fill="white"/>
<path d="M155.348 329.301H170.636L195.927 342.854L152.445 342.333L155.348 329.301Z" fill="#101010"/>
<path d="M152.294 348.063L152.445 342.333L195.927 342.854L195.775 348.583L152.294 348.063Z" fill="white"/>
<path d="M181.206 334.292L176.195 335.665" stroke="white" stroke-width="1.46" stroke-linecap="round" stroke-linejoin="round"/>
<path d="M176.308 331.773L171.297 333.146" stroke="white" stroke-width="1.46" stroke-linecap="round" stroke-linejoin="round"/>
<path d="M172.252 307.707H156.671L155.348 329.301H170.929L172.252 307.707Z" fill="#EBB28B"/>
<path d="M182.454 165.815L172.839 322.359H151.14L154.894 165.815H182.454Z" fill="#98BDFC"/>
<path d="M120.205 329.301H135.493L160.784 342.854L117.303 342.333L120.205 329.301Z" fill="#101010"/>
<path d="M117.151 348.063L117.303 342.333L160.784 342.854L160.633 348.583L117.151 348.063Z" fill="white"/>
<path d="M146.063 334.292L141.052 335.665" stroke="white" stroke-width="1.46" stroke-linecap="round" stroke-linejoin="round"/>
<path d="M141.166 331.773L136.155 333.146" stroke="white" stroke-width="1.46" stroke-linecap="round" stroke-linejoin="round"/>
<path d="M138.66 307.707H123.079L120.205 329.301H135.786L138.66 307.707Z" fill="#EBB28B"/>
<path d="M136.495 165.815L115.251 322.359H138.972L169.86 165.815H136.495Z" fill="#98BDFC"/>
<path d="M152.823 252.17L164.953 190.695L173.803 184.918" stroke="#171717" stroke-width="0.64" stroke-linecap="round" stroke-linejoin="round"/>
<path d="M133.385 188.763L146.64 178.317" stroke="#171717" stroke-width="0.64" stroke-linecap="round" stroke-linejoin="round"/>
<path d="M186.538 106.32L210.676 138.075C213.342 141.068 213.512 145.538 211.073 148.711C207.991 152.717 202.091 153.077 198.555 149.478L172.612 119.418C169.057 115.8 168.943 110.023 172.347 106.263C176.157 102.058 182.766 102.086 186.538 106.32Z" fill="#EBB28B"/>
<path d="M174.711 94.2821C174.711 94.2821 186.51 95.7595 195.548 113.3L181.669 129.968L174.711 94.2821Z" fill="#537EEF"/>
<path d="M194.121 139.382L227.221 118.584L233.811 125.403L209.815 150.028L194.121 139.382Z" fill="#EBB28B"/>
<path d="M232.525 105.6L248.938 110.392C248.938 110.392 248.938 123.13 233.801 125.432C232.969 125.555 229.244 124.125 228.611 123.556L226.096 116.368C225.207 115.184 225.283 113.536 226.276 112.447L232.535 105.6H232.525Z" fill="#EBB28B"/>
<path d="M231.164 107.712L236.969 100.078C237.829 99.0175 239.304 98.7902 240.287 99.5763C241.223 100.334 241.375 101.755 240.637 102.844L235.276 111.216L231.173 107.712H231.164Z" fill="#E9B0A0"/>
<path d="M238.179 113.811L245.156 106.916C246.121 105.95 247.548 105.846 248.371 106.698C249.156 107.513 249.108 108.914 248.257 109.909L241.601 117.561L238.179 113.811Z" fill="#E9B0A0"/>
<path d="M235.494 109.094L242.084 102.569C243.057 101.613 244.532 101.565 245.402 102.474C246.234 103.346 246.215 104.795 245.364 105.789L239.124 113.11L235.494 109.085V109.094Z" fill="#E9B0A0"/>
<path d="M246.584 89.0732L249.203 89.2437V106.424L240.032 120.801L237.243 120.573L242.159 102.512L246.584 89.0732Z" fill="#36438D"/>
<path d="M231.22 112.921L238.888 120.157C239.588 121.028 240.921 121.018 241.601 120.128L258.289 99.2639C258.695 98.7335 258.686 97.9948 258.27 97.4739L250.233 89.7741C249.647 89.0449 248.541 89.0543 247.974 89.793L231.201 110.761C230.71 111.396 230.719 112.286 231.22 112.911V112.921Z" fill="#050907"/>
<path d="M228.668 112.75L236.335 119.986C237.035 120.857 238.368 120.848 239.049 119.958L255.736 99.0933C256.143 98.563 256.133 97.8243 255.717 97.3034L247.681 89.6036C247.095 88.8743 245.988 88.8838 245.421 89.6225L228.649 110.591C228.157 111.225 228.167 112.116 228.668 112.741V112.75Z" fill="white"/>
<path d="M227.855 118.707C226.956 118.262 224.716 115.923 225.113 112.371C225.633 107.693 228.044 104.16 228.044 104.16C228.847 102.654 229.774 101.925 231.079 102.105C232.487 102.304 233.395 103.81 233.14 104.852L231.674 108.119C231.674 108.119 233.291 112.258 229.906 118.528L227.864 118.707H227.855Z" fill="#EBB28B"/>
<path d="M152.502 90.9106C152.502 90.9106 143.577 93.0036 137.214 96.2142C133.205 98.241 132.761 102.617 133.271 107.077L136.505 165.815H182.454L185.668 109.066C186.113 102.844 182.463 96.7446 176.564 94.7368C169.955 92.4827 165.785 90.3423 162.268 90.1434L152.511 90.9106H152.502Z" fill="#537EEF"/>
<path d="M184.695 126.341L185.668 109.076" stroke="#171717" stroke-width="0.64" stroke-linecap="round" stroke-linejoin="round"/>
<path d="M152.502 90.9106L147.207 92.3691C147.207 92.3691 151.14 99.9647 165.436 98.6767C175.457 97.7769 171.42 92.8616 171.42 92.8616L166.438 91.0527L152.511 90.9011L152.502 90.9106Z" fill="#EBB28B"/>
<path d="M109.077 124.636L132.808 159.631L126.417 166.63L100.228 140.916L109.077 124.636Z" fill="#EBB28B"/>
<path d="M154.61 161.222L144.456 156.051L145.449 153.816C145.808 153.001 145.59 152.045 144.9 151.486C144.191 150.899 143.17 150.889 142.452 151.448L132.458 159.309L126.417 166.63C131.9 171.337 135.484 171.27 137.545 170.361C137.781 170.437 138.027 170.532 138.273 170.598L146.706 173.023C147.491 173.363 148.389 173.023 148.777 172.274C149.051 171.725 149.155 170.835 147.529 170.011L149.155 170.835C149.977 171.195 150.942 170.835 151.32 170.02C151.679 169.3 151.235 168.353 150.28 167.728L151.518 168.221C152.417 168.609 153.476 168.164 153.816 167.207C154.109 166.383 153.674 165.465 152.889 165.067L151.093 164.158L153.22 164.679C154.204 165.029 155.291 164.499 155.612 163.476C155.886 162.595 155.414 161.648 154.591 161.222H154.61Z" fill="#EBB28B"/>
<path d="M151.641 164.414L145.647 161.582" stroke="#171717" stroke-width="0.41" stroke-linecap="round" stroke-linejoin="round"/>
<path d="M150.034 167.624L144.248 165.209" stroke="#171717" stroke-width="0.41" stroke-linecap="round" stroke-linejoin="round"/>
<path d="M148.068 170.219L143.161 168.287" stroke="#171717" stroke-width="0.41" stroke-linecap="round" stroke-linejoin="round"/>
<path d="M142.357 114.985L112.188 141.059C109.37 143.909 104.927 144.345 101.608 142.1C97.4291 139.269 96.7105 133.387 100.086 129.627L128.459 101.859C131.853 98.0799 137.592 97.6159 141.553 100.798C145.969 104.35 146.347 110.96 142.367 114.995L142.357 114.985Z" fill="#EBB28B"/>
<path d="M143.719 93.515C143.719 93.515 127.967 96.6025 115.052 113.006L128.743 130.887L148.37 116.804L143.719 93.515Z" fill="#537EEF"/>
<path d="M135.408 126.095L146.801 117.931" stroke="#171717" stroke-width="0.64" stroke-linecap="round" stroke-linejoin="round"/>
<path d="M176.913 41.6053C176.913 41.6053 182.227 46.3597 177.821 57.0523L170.522 42.6282L176.913 41.6053Z" fill="#1F275F"/>
<path d="M147.132 42.8935C147.132 42.8935 140.92 42.2211 139.511 51.8055C138.103 61.3995 145.137 67.1293 152.946 71.77L147.122 42.8935H147.132Z" fill="#1F275F"/>
<path d="M160.075 73.4084C169.912 73.4084 177.887 65.2333 177.887 55.1487C177.887 45.0641 169.912 36.8889 160.075 36.8889C150.237 36.8889 142.263 45.0641 142.263 55.1487C142.263 65.2333 150.237 73.4084 160.075 73.4084Z" fill="#1F275F"/>
<path d="M171.581 63.0189C172.375 65.3866 174.937 66.6652 177.301 65.8696C179.665 65.0741 180.941 62.5075 180.147 60.1398C179.353 57.7721 176.791 56.4935 174.427 57.2891C172.063 58.0846 170.787 60.6512 171.581 63.0189Z" fill="#DD8161"/>
<path d="M166.513 73.522L166.778 93.2214L152.114 90.7874L153.183 62.5359L166.513 73.522Z" fill="#EBB28B"/>
<path d="M166.655 83.5043L156.359 73.4084L166.986 75.2837L166.655 83.5043Z" fill="#171717"/>
<path d="M175.76 46.3787C175.76 46.3787 179.731 62.2423 177.935 68.3321C176.148 74.4218 171.42 78.3712 163.535 77.0737C163.535 77.0737 154.44 76.9032 151.755 63.4641C147.708 43.2439 165.975 35.8377 175.76 46.3692V46.3787Z" fill="#EBB28B"/>
<path d="M154.298 63.4641C154.298 63.4641 160.122 50.0724 153.797 47.4584C151.897 46.6723 150.791 46.2746 149.892 52.9894C148.994 59.7042 151.339 60.8028 151.339 60.8028L154.298 63.4641Z" fill="#1F275F"/>
<path d="M146.252 64.9983C147.075 67.4512 149.722 68.7677 152.171 67.9437C154.62 67.1198 155.934 64.4679 155.111 62.015C154.289 59.562 151.641 58.2456 149.193 59.0696C146.744 59.8935 145.43 62.5454 146.252 64.9983Z" fill="#EBB28B"/>
<path d="M148.531 62.2044C148.531 62.2044 151.925 61.1153 152.946 64.8657" stroke="#171717" stroke-width="0.39" stroke-linecap="round" stroke-linejoin="round"/>
<path d="M172.508 61.6931L173.519 65.1216C173.567 65.3773 173.406 65.6235 173.16 65.6898L172.016 65.8792" stroke="#1E0B07" stroke-width="0.37" stroke-linecap="round" stroke-linejoin="round"/>
<path d="M165.379 60.6134C165.341 61.2385 165.814 61.7688 166.438 61.8067C167.062 61.8446 167.591 61.3711 167.629 60.746C167.667 60.1209 167.194 59.5905 166.57 59.5527C165.946 59.5148 165.417 59.9883 165.379 60.6134Z" fill="#171717"/>
<path d="M174.824 60.3577C174.786 60.9354 175.231 61.4374 175.807 61.4658C176.384 61.5037 176.885 61.0585 176.913 60.4808C176.951 59.9031 176.507 59.4011 175.93 59.3727C175.353 59.3349 174.852 59.78 174.824 60.3577Z" fill="#171717"/>
<path d="M168.631 52.9516L160.122 55.6792C160.122 55.6792 162.013 53.0747 164.471 52.2981C166.929 51.5215 168.631 52.9516 168.631 52.9516Z" fill="#171717"/>
<path d="M173.406 52.7526L177.887 54.2017C177.887 54.2017 177.121 52.2791 175.826 51.8718C174.531 51.4646 173.406 52.7526 173.406 52.7526Z" fill="#171717"/>
<path d="M166.504 66.7126C166.504 66.7126 169.633 68.3132 172.772 68.3132C172.772 68.3132 168.508 71.4102 166.504 66.7126Z" fill="white"/>
<path d="M151.906 47.6099C151.906 47.6099 156.643 51.6918 168.357 49.3336C180.071 46.9659 180.535 39.0104 179.126 36.2165C179.126 36.2165 174.815 39.5692 167.705 37.7318C163.743 36.709 154.894 32.9775 149.58 36.9742C147.746 38.3474 146.687 40.6394 147.122 42.884C147.463 44.6266 148.625 46.6155 151.897 47.6099H151.906Z" fill="#1F275F"/>
<path d="M79.8909 178.08H86.7454C93.2691 178.08 98.5731 183.393 98.5731 189.928V255.39H68.0727V189.928C68.0727 183.393 73.3767 178.08 79.9003 178.08H79.8909Z" stroke="#101010" stroke-width="2.87" stroke-miterlimit="10"/>
<path d="M74.6057 343.119C75.5014 339.306 73.1413 335.487 69.3343 334.59C65.5273 333.692 61.7149 336.056 60.8192 339.87C59.9235 343.684 62.2835 347.503 66.0906 348.4C69.8976 349.297 73.7099 346.933 74.6057 343.119Z" fill="#101010"/>
<path d="M103.943 346.506C106.708 343.735 106.708 339.244 103.943 336.474C101.177 333.703 96.6934 333.703 93.9279 336.474C91.1625 339.244 91.1625 343.735 93.928 346.506C96.6934 349.276 101.177 349.276 103.943 346.506Z" fill="#101010"/>
<path d="M59.1003 232.907H107.536C114.447 232.907 120.054 238.523 120.054 245.446V327.293C120.054 334.216 114.447 339.832 107.536 339.832H59.1003C52.1891 339.832 46.5825 334.216 46.5825 327.293V245.446C46.5825 238.523 52.1891 232.907 59.1003 232.907Z" fill="#537EEF"/>
<path d="M61.8705 249.812H59.1854V323.713H61.8705V249.812Z" stroke="#171717" stroke-width="0.61" stroke-linecap="round" stroke-linejoin="round"/>
<path d="M76.1374 249.812H73.4523V323.713H76.1374V249.812Z" stroke="#171717" stroke-width="0.61" stroke-linecap="round" stroke-linejoin="round"/>
<path d="M90.4043 249.812H87.7192V323.713H90.4043V249.812Z" stroke="#171717" stroke-width="0.61" stroke-linecap="round" stroke-linejoin="round"/>
<path d="M104.671 249.812H101.986V323.713H104.671V249.812Z" stroke="#171717" stroke-width="0.61" stroke-linecap="round" stroke-linejoin="round"/>
<path d="M0.463287 348.536H639.335" stroke="black" stroke-width="0.98" stroke-linecap="round" stroke-linejoin="round"/>
</g>
<defs>
<clipPath id="clip0_1_1455">
<rect width="663" height="349" fill="white"/>
</clipPath>
</defs>
</svg>
