<svg width="594" height="264" viewBox="0 0 594 264" fill="none" xmlns="http://www.w3.org/2000/svg">
<path d="M197.399 274.111C306.189 275.395 394.462 269.514 394.563 260.974C394.664 252.435 306.554 244.471 197.764 243.187C88.9743 241.903 0.701012 247.785 0.600226 256.325C0.49944 264.864 88.6093 272.827 197.399 274.111Z" fill="#7A8DB0"/>
<path d="M461.959 275.89C535.662 276.76 595.488 270.843 595.584 262.675C595.681 254.507 536.011 247.18 462.309 246.31C388.606 245.44 328.78 251.356 328.684 259.525C328.587 267.693 388.257 275.02 461.959 275.89Z" fill="#7A8DB0"/>
<path d="M187.659 89.4256C187.039 88.9788 186.39 88.6013 185.717 88.3064C180.023 85.8101 175.379 89.9528 172.092 94.2584C164.739 103.891 157.979 117.613 158.967 132.88C160.054 149.669 165.461 167.406 170.569 184.296C171.274 186.628 172.269 191.641 174 194.619C175.493 193.658 177.017 192.728 178.628 191.981C178.609 189.633 178.332 187.058 178.303 185.655C177.961 169.254 179.916 153.41 185.055 139.795C189.612 127.721 197.616 119.104 195.139 102.858C194.37 97.8191 191.57 92.2424 187.658 89.4245L187.659 89.4256Z" fill="#5E9E6B"/>
<path d="M170.51 196.41L172.248 195.457C172.227 195.424 172.208 195.388 172.187 195.356C171.69 194.628 171.123 193.976 170.578 193.185C169.606 191.773 168.638 190.391 167.568 189.05C165.237 186.128 162.763 183.372 160.336 180.563C156.457 176.072 152.441 171.69 148.025 168.053C143.526 164.348 138.536 161.447 133.668 160.689C121.977 158.867 109.139 170.668 112.203 185.735C113.214 190.704 116.441 195.94 120.581 198.009C122.568 199.002 124.615 199.222 126.5 199.02C129.054 198.747 131.383 197.719 133.248 196.041C137.797 191.949 142.633 186.471 149.101 185.49C149.752 185.39 150.426 185.359 151.111 185.389C154.808 185.551 158.683 187.497 162.301 189.752C165.253 191.591 168.183 193.47 170.51 196.411V196.41Z" fill="#419786"/>
<path d="M152.114 167.805C155.651 172.116 158.962 176.686 162.198 181.3C163.801 183.588 170.216 191.351 172.413 195.639L172.596 195.538C172.987 195.282 173.849 194.72 174.001 194.619C173.43 189.927 170.666 185.761 168.895 181.072C162.019 162.868 155.99 142.082 143.628 126.566C136.481 117.595 127.396 110.168 118.178 107.925C108.96 105.683 99.8495 109.485 97.0271 118.636C96.491 120.375 96.1805 122.315 96.4753 124.387C97.2047 129.51 101.348 134.066 105.412 137.114C108.886 139.721 112.573 141.749 116.285 143.095C120.163 144.501 124.054 145.164 127.921 146.78C132.491 148.689 136.783 151.805 140.81 155.512C144.84 159.221 148.604 163.523 152.116 167.803L152.114 167.805Z" fill="#6FC183"/>
<path d="M174.388 120.599C167.257 141.316 172.136 167.973 175.945 192.44L181.352 104.415C178.849 109.657 176.344 114.916 174.389 120.598L174.388 120.599Z" fill="#6FC183"/>
<path d="M141.43 176.966C134.584 176.552 129.384 180.237 124.823 183.587L171.241 195.555C161.092 185.772 152.104 177.782 141.43 176.968V176.966Z" fill="#6FC183"/>
<path d="M122 129.184L172.878 194.142C159.137 169.758 146.68 138.253 122 129.184Z" fill="#419786"/>
<path d="M419.597 150.434C419.986 150.142 420.409 149.892 420.868 149.692C424.75 147.997 429.129 150.43 432.496 152.999C440.031 158.746 447.912 167.034 450.146 176.483C452.603 186.875 451.928 197.968 451.318 208.53C451.234 209.989 451.453 213.11 450.708 214.995C449.373 214.441 448.021 213.909 446.637 213.491C446.192 212.041 445.899 210.444 445.647 209.578C442.695 199.447 438.086 189.719 431.471 181.454C425.605 174.125 417.771 169.022 416.486 158.927C416.089 155.797 417.145 152.28 419.597 150.435V150.434Z" fill="#419786"/>
<path d="M453.739 216.006L452.218 215.464C452.228 215.444 452.235 215.421 452.246 215.401C452.485 214.938 452.791 214.519 453.054 214.017C453.525 213.12 453.996 212.24 454.554 211.383C455.772 209.517 457.131 207.749 458.444 205.949C460.541 203.072 462.767 200.261 465.444 197.896C468.172 195.488 471.434 193.563 475.024 192.964C483.643 191.524 495.814 198.464 496.416 207.846C496.615 210.941 495.163 214.258 492.39 215.647C491.058 216.314 489.53 216.504 488.044 216.43C486.029 216.331 484.039 215.759 482.278 214.774C477.983 212.37 473.196 209.12 468.038 208.688C467.518 208.644 466.996 208.643 466.475 208.68C463.668 208.88 461.074 210.185 458.738 211.673C456.832 212.889 454.952 214.127 453.74 216.005L453.739 216.006Z" fill="#5E9E6B"/>
<path d="M462.255 197.855C460.384 200.611 458.739 203.521 457.159 206.456C456.376 207.911 452.973 212.876 452.127 215.581L451.966 215.524C451.616 215.377 450.844 215.053 450.708 214.995C450.226 212.083 451.532 209.438 451.973 206.496C453.683 195.075 454.237 182.083 460.687 172.174C464.417 166.444 469.935 161.614 476.574 159.982C483.213 158.351 490.953 160.453 494.914 166.025C495.667 167.084 496.285 168.273 496.465 169.56C496.91 172.742 494.621 175.665 492.099 177.656C489.942 179.359 487.509 180.71 484.923 181.64C482.221 182.612 479.363 183.127 476.711 184.227C473.576 185.528 470.891 187.567 468.527 189.964C466.16 192.362 464.114 195.118 462.255 197.855Z" fill="#6FC183"/>
<path d="M435.898 169.318C433.282 165.863 430.328 162.685 427.378 159.517L448.787 213.703C446.914 198.498 445.434 181.913 435.898 169.319V169.318Z" fill="#6FC183"/>
<path d="M472.256 203.222C464.219 204.011 458.885 209.186 453.01 215.496L486.305 206.861C482.146 204.915 477.431 202.782 472.256 203.222Z" fill="#6FC183"/>
<path d="M451.474 214.67L477.804 173.207C460.632 179.469 457.244 199.25 451.474 214.67Z" fill="#419786"/>
<path d="M424.501 33.7974C421.944 33.7974 419.434 33.9973 416.985 34.3804C416.985 34.3804 416.982 34.3804 416.979 34.3804C416.351 34.4787 415.725 34.5893 415.105 34.7121C415.102 34.7121 415.1 34.7132 415.096 34.7143C414.812 34.7702 414.528 34.8294 414.245 34.8908C414.202 34.8998 414.158 34.9098 414.115 34.9187C413.824 34.9824 413.534 35.0483 413.245 35.1175C411.664 35.4928 410.114 35.9485 408.598 36.4779C408.43 36.5371 408.261 36.5963 408.094 36.6566C407.592 36.8365 407.094 37.0263 406.598 37.2252C406.434 37.2911 406.268 37.3581 406.104 37.4251C405.12 37.8294 404.152 38.2672 403.202 38.7352C403.044 38.8134 402.886 38.8927 402.729 38.972C402.571 39.0524 402.415 39.1328 402.259 39.2133C402.102 39.2948 401.946 39.3774 401.791 39.459C401.635 39.5427 401.48 39.6254 401.326 39.7103C400.708 40.0476 400.1 40.3983 399.498 40.7635C399.348 40.854 399.198 40.9467 399.049 41.0394C398.9 41.131 398.752 41.2259 398.604 41.3197C398.456 41.4136 398.309 41.5085 398.162 41.6046C398.015 41.7006 397.869 41.7967 397.723 41.8949C397.577 41.9921 397.432 42.0893 397.286 42.1887C397.148 42.2836 397.009 42.3786 396.871 42.4757C396.857 42.4858 396.842 42.4958 396.828 42.5059C396.693 42.5997 396.559 42.6958 396.425 42.7918C395.855 43.1984 395.296 43.6172 394.745 44.0495C394.469 44.2639 394.197 44.4828 393.925 44.7051C393.79 44.8168 393.656 44.9273 393.522 45.0402C393.388 45.153 393.255 45.2647 393.122 45.3786C392.989 45.4925 392.858 45.6064 392.726 45.7215C392.594 45.8354 392.463 45.9516 392.334 46.0677C392.203 46.1839 392.074 46.3023 391.944 46.4195C391.814 46.5368 391.686 46.6552 391.559 46.7747C391.176 47.131 390.798 47.4951 390.427 47.8648C390.18 48.1105 389.935 48.3596 389.692 48.612C389.582 48.726 389.472 48.8421 389.362 48.9583C389.337 48.9851 389.313 49.0119 389.288 49.0387C389.182 49.1504 389.078 49.261 388.975 49.3738C388.975 49.3738 388.973 49.3738 388.973 49.376C388.86 49.4966 388.751 49.6184 388.64 49.7412C388.62 49.7636 388.6 49.7859 388.578 49.8082C388.476 49.9222 388.373 50.0383 388.27 50.1534C387.807 50.6772 387.356 51.2111 386.918 51.755C386.815 51.8823 386.713 52.0097 386.613 52.137C386.603 52.1493 386.594 52.1604 386.585 52.1716C386.478 52.3068 386.372 52.4419 386.268 52.5793C386.161 52.7178 386.053 52.8563 385.95 52.9959C385.847 53.131 385.745 53.2662 385.646 53.4024C385.639 53.4114 385.633 53.4181 385.628 53.4259C385.526 53.5644 385.426 53.7018 385.325 53.8414C385.222 53.9821 385.121 54.1251 385.02 54.2681C384.412 55.1292 383.831 56.0104 383.279 56.9118C383.203 57.0357 383.128 57.1597 383.053 57.2837C383.027 57.3284 383 57.3742 382.972 57.42C382.922 57.5037 382.872 57.5875 382.823 57.6724C382.754 57.7885 382.686 57.9047 382.62 58.022C382.607 58.0443 382.593 58.0666 382.581 58.089C382.523 58.1884 382.467 58.2878 382.411 58.3883C382.348 58.5 382.286 58.6106 382.224 58.7223C382.221 58.7256 382.22 58.729 382.218 58.7323C382.14 58.8742 382.062 59.0171 381.985 59.159C381.959 59.2059 381.933 59.2528 381.909 59.2997C381.846 59.417 381.782 59.5365 381.72 59.6538C381.556 59.9665 381.395 60.2804 381.237 60.5964C381.166 60.7405 381.094 60.8868 381.023 61.032C381.015 61.0477 381.007 61.0644 380.999 61.0801C380.961 61.1605 380.922 61.2398 380.885 61.3202C380.832 61.4297 380.78 61.538 380.729 61.6486C380.664 61.7882 380.598 61.93 380.535 62.0708C380.483 62.1825 380.433 62.293 380.384 62.4058C380.343 62.4974 380.301 62.5901 380.261 62.6817C380.243 62.723 380.224 62.7655 380.206 62.8057C380.151 62.9341 380.095 63.0626 380.041 63.1921C380.01 63.2636 379.98 63.3351 379.951 63.4066C379.916 63.487 379.884 63.5663 379.85 63.6467C379.811 63.7428 379.771 63.8377 379.733 63.9349C379.709 63.9941 379.685 64.0522 379.662 64.1102C379.612 64.2331 379.564 64.356 379.516 64.4788C379.355 64.8887 379.2 65.2997 379.052 65.7141C379.012 65.8225 378.972 65.9297 378.934 66.0391C378.928 66.0592 378.922 66.0782 378.914 66.0995C378.856 66.2636 378.8 66.4256 378.745 66.5909C378.693 66.745 378.642 66.9003 378.591 67.0555C378.554 67.1683 378.518 67.28 378.482 67.3939C378.46 67.4598 378.438 67.528 378.418 67.595C378.386 67.6955 378.355 67.796 378.324 67.8966C378.3 67.9747 378.276 68.0529 378.253 68.1322C378.223 68.2316 378.193 68.331 378.165 68.4304C378.133 68.5321 378.104 68.6326 378.076 68.7354C378.032 68.8895 377.988 69.0447 377.946 69.2C377.91 69.3228 377.878 69.4457 377.845 69.5697C377.658 70.2655 377.486 70.9692 377.329 71.6784C377.29 71.8538 377.253 72.0302 377.216 72.2067C377.187 72.3452 377.158 72.4859 377.13 72.6255C377.116 72.7026 377.099 72.7786 377.086 72.8567C377.072 72.9238 377.059 72.9919 377.048 73.0589C377.024 73.1762 377.003 73.2946 376.982 73.4118C376.958 73.5436 376.935 73.6766 376.913 73.8083C376.913 73.8117 376.91 73.8151 376.91 73.8195C376.884 73.9681 376.859 74.1177 376.834 74.2674C376.818 74.3746 376.8 74.4818 376.784 74.588C376.772 74.6583 376.762 74.7287 376.751 74.8013C376.724 74.971 376.699 75.1419 376.676 75.3139C376.674 75.3273 376.671 75.3419 376.669 75.3553C376.641 75.553 376.614 75.7518 376.59 75.9506C376.53 76.4174 376.477 76.8865 376.432 77.3579C376.42 77.4763 376.409 77.5958 376.398 77.7142C376.393 77.7633 376.389 77.8125 376.384 77.8627C376.37 78.0303 376.355 78.1978 376.344 78.3665C376.341 78.3888 376.34 78.4111 376.339 78.4346C376.325 78.5932 376.315 78.7507 376.305 78.9104C376.299 78.9707 376.296 79.0288 376.293 79.0891C376.283 79.2332 376.275 79.3784 376.268 79.5224C376.264 79.5794 376.261 79.6364 376.259 79.6922C376.251 79.8207 376.247 79.9491 376.242 80.0775C376.238 80.1568 376.235 80.2361 376.232 80.3166C376.226 80.4674 376.221 80.617 376.219 80.7678C376.217 80.8047 376.216 80.8404 376.216 80.8773C376.21 81.0772 376.206 81.2771 376.203 81.477C376.2 81.6859 376.199 81.8936 376.199 82.1014C376.199 102.742 405.116 140.407 418.201 156.396C418.53 156.797 418.887 157.158 419.268 157.477C419.358 157.555 419.451 157.629 419.544 157.7C419.666 157.793 419.788 157.884 419.914 157.968C420.015 158.038 420.117 158.105 420.221 158.166C420.269 158.197 420.317 158.228 420.366 158.254C420.471 158.317 420.578 158.377 420.684 158.434C421.08 158.644 421.49 158.818 421.909 158.958C421.958 158.974 422.006 158.989 422.054 159.004C422.096 159.017 422.14 159.031 422.182 159.043C422.284 159.074 422.386 159.102 422.49 159.128C422.526 159.137 422.56 159.145 422.595 159.153C422.72 159.184 422.847 159.212 422.974 159.235C423.255 159.289 423.539 159.327 423.823 159.349C423.834 159.349 423.847 159.351 423.86 159.352C424.12 159.374 424.38 159.381 424.641 159.376C424.648 159.376 424.655 159.376 424.659 159.376C424.813 159.374 424.966 159.366 425.121 159.353C425.236 159.344 425.35 159.333 425.465 159.319C425.519 159.312 425.573 159.304 425.627 159.298C425.665 159.292 425.701 159.289 425.739 159.283C425.739 159.283 425.739 159.282 425.739 159.281C427.644 158.992 429.463 158.031 430.802 156.395C443.889 140.406 472.806 102.741 472.806 82.1003C472.806 55.4241 451.179 33.7985 424.503 33.7985L424.501 33.7974ZM436.635 106.157C432.988 108 428.866 109.039 424.5 109.039C409.621 109.039 397.56 96.9775 397.56 82.0992C397.56 69.1017 406.764 58.2554 419.01 55.7211C420.783 55.3537 422.618 55.1605 424.5 55.1605C439.378 55.1605 451.439 67.2219 451.439 82.0992C451.439 92.6126 445.417 101.72 436.635 106.157Z" fill="#FACC88"/>
<path d="M436.634 106.157C432.987 108 428.865 109.039 424.499 109.039C409.62 109.039 397.559 96.9773 397.559 82.099C397.559 69.1016 406.763 58.2553 419.009 55.721C417.17 52.1614 415.936 48.221 415.823 43.473C415.747 40.3244 416.175 37.2876 416.983 34.3802C415.72 34.5779 414.471 34.8237 413.242 35.1174C411.662 35.4949 410.112 35.9495 408.596 36.4778C408.427 36.537 408.259 36.5962 408.092 36.6565C407.59 36.8386 407.091 37.0273 406.596 37.225C406.432 37.2909 406.266 37.3579 406.102 37.4249C405.118 37.8315 404.15 38.2682 403.2 38.7351C403.042 38.8133 402.884 38.8926 402.727 38.9719C402.569 39.0523 402.413 39.1327 402.257 39.2131C402.1 39.2946 401.944 39.3773 401.79 39.4588C401.634 39.5426 401.479 39.6252 401.325 39.7101C400.706 40.0486 400.099 40.4004 399.497 40.7634C399.347 40.8538 399.197 40.9466 399.048 41.0393C398.899 41.1308 398.751 41.2258 398.603 41.3196C398.455 41.4134 398.308 41.5084 398.161 41.6044C398.015 41.7005 397.868 41.7965 397.722 41.8948C397.576 41.992 397.432 42.0891 397.285 42.1886C397.147 42.2835 397.008 42.3784 396.87 42.4756C396.856 42.4856 396.841 42.4957 396.827 42.5058C396.692 42.5996 396.558 42.6956 396.424 42.7917C395.854 43.1994 395.295 43.6182 394.744 44.0493C394.469 44.2649 394.196 44.4838 393.924 44.7049C393.789 44.8166 393.655 44.9272 393.521 45.04C393.387 45.1528 393.254 45.2645 393.121 45.3784C392.988 45.4924 392.857 45.6063 392.725 45.7213C392.593 45.8353 392.462 45.9514 392.333 46.0676C392.202 46.1837 392.073 46.3021 391.943 46.4194C391.813 46.5367 391.685 46.6551 391.558 46.7746C391.175 47.132 390.797 47.495 390.426 47.8647C390.179 48.1115 389.935 48.3606 389.691 48.6119C389.581 48.7258 389.471 48.842 389.361 48.9581C389.336 48.9849 389.312 49.0117 389.287 49.0385C389.181 49.1502 389.077 49.2608 388.974 49.3736C388.974 49.3736 388.972 49.3736 388.972 49.3759C388.859 49.4965 388.75 49.6182 388.639 49.7411C388.619 49.7634 388.599 49.7858 388.577 49.8081C388.475 49.922 388.372 50.0382 388.27 50.1532C387.807 50.677 387.356 51.2109 386.917 51.7549C386.814 51.8822 386.713 52.0095 386.612 52.1368C386.602 52.1491 386.593 52.1603 386.584 52.1715C386.477 52.3066 386.371 52.4418 386.267 52.5791C386.16 52.7176 386.052 52.8561 385.949 52.9958C385.846 53.1309 385.744 53.266 385.645 53.4023C385.638 53.4112 385.634 53.4179 385.627 53.4258C385.525 53.5643 385.425 53.7016 385.324 53.8413C385.221 53.982 385.12 54.1249 385.019 54.2679C384.411 55.129 383.83 56.0103 383.278 56.9116C383.202 57.0356 383.127 57.1596 383.052 57.2836C383.026 57.3282 382.999 57.374 382.971 57.4198C382.921 57.5036 382.872 57.5874 382.822 57.6722C382.753 57.7884 382.685 57.9046 382.619 58.0218C382.606 58.0442 382.592 58.0665 382.58 58.0888C382.522 58.1883 382.466 58.2877 382.41 58.3882C382.348 58.4999 382.285 58.6104 382.223 58.7221C382.22 58.7255 382.219 58.7288 382.217 58.7322C382.139 58.874 382.061 59.017 381.984 59.1588C381.958 59.2058 381.932 59.2527 381.908 59.2996C381.845 59.4169 381.781 59.5364 381.719 59.6536C381.554 59.9664 381.394 60.2802 381.236 60.5963C381.165 60.7404 381.093 60.8867 381.022 61.0319C381.014 61.0475 381.006 61.0643 380.998 61.0799C380.96 61.1603 380.921 61.2396 380.885 61.3201C380.831 61.4295 380.78 61.5379 380.728 61.6484C380.663 61.788 380.597 61.9299 380.534 62.0706C380.482 62.1823 380.432 62.2929 380.383 62.4057C380.342 62.4973 380.3 62.59 380.26 62.6816C380.242 62.7229 380.223 62.7653 380.205 62.8056C380.15 62.934 380.094 63.0624 380.04 63.192C380.009 63.2635 379.979 63.335 379.95 63.4065C379.915 63.4869 379.883 63.5662 379.849 63.6466C379.81 63.7426 379.77 63.8376 379.732 63.9347C379.708 63.9939 379.684 64.052 379.662 64.1101C379.611 64.233 379.563 64.3558 379.515 64.4787C379.354 64.8886 379.199 65.2996 379.051 65.714C379.011 65.8223 378.971 65.9295 378.933 66.039C378.927 66.0591 378.921 66.0781 378.913 66.0993C378.855 66.2635 378.799 66.4254 378.745 66.5907C378.692 66.7449 378.641 66.9001 378.59 67.0554C378.554 67.1682 378.517 67.2799 378.481 67.3938C378.459 67.4597 378.437 67.5278 378.417 67.5949C378.385 67.6954 378.354 67.7959 378.323 67.8964C378.299 67.9746 378.275 68.0528 378.252 68.1321C378.222 68.2315 378.192 68.3309 378.164 68.4303C378.132 68.5319 378.103 68.6325 378.076 68.7352C378.031 68.8893 377.987 69.0446 377.945 69.1998C377.909 69.3227 377.877 69.4456 377.844 69.5695C377.657 70.2654 377.485 70.969 377.328 71.6783C377.289 71.8536 377.252 72.0301 377.215 72.2066C377.186 72.3451 377.157 72.4858 377.129 72.6254C377.115 72.7025 377.098 72.7784 377.085 72.8566C377.071 72.9236 377.058 72.9917 377.047 73.0588C377.023 73.176 377.002 73.2944 376.981 73.4117C376.957 73.5435 376.934 73.6764 376.912 73.8082C376.912 73.8116 376.909 73.8149 376.909 73.8194C376.883 73.9679 376.858 74.1176 376.833 74.2673C376.817 74.3745 376.799 74.4817 376.783 74.5878C376.771 74.6582 376.761 74.7285 376.75 74.8011C376.723 74.9709 376.698 75.1418 376.675 75.3138C376.673 75.3272 376.67 75.3417 376.668 75.3551C376.64 75.5528 376.613 75.7516 376.589 75.9504C376.529 76.4173 376.476 76.8864 376.431 77.3577C376.419 77.4761 376.408 77.5956 376.397 77.714C376.392 77.7632 376.388 77.8123 376.385 77.8626C376.37 78.0301 376.355 78.1977 376.344 78.3663C376.341 78.3886 376.34 78.411 376.339 78.4344C376.325 78.593 376.315 78.7505 376.305 78.9102C376.3 78.9706 376.296 79.0286 376.293 79.0889C376.283 79.233 376.275 79.3782 376.268 79.5223C376.264 79.5793 376.262 79.6362 376.259 79.6921C376.252 79.8205 376.247 79.949 376.243 80.0774C376.238 80.1567 376.235 80.236 376.233 80.3164C376.226 80.4672 376.221 80.6169 376.219 80.7677C376.217 80.8045 376.216 80.8403 376.216 80.8771C376.21 81.077 376.206 81.277 376.204 81.4769C376.2 81.6858 376.199 81.8935 376.199 82.1012C376.199 102.742 405.116 140.407 418.202 156.396C418.53 156.797 418.887 157.157 419.268 157.477C419.359 157.554 419.451 157.629 419.544 157.7C419.666 157.793 419.789 157.883 419.914 157.968C420.015 158.038 420.117 158.105 420.221 158.166C420.269 158.197 420.317 158.227 420.366 158.254C420.471 158.317 420.578 158.377 420.684 158.434C421.08 158.644 421.49 158.818 421.91 158.958C421.958 158.974 422.006 158.989 422.054 159.004C422.096 159.017 422.14 159.03 422.182 159.043C422.284 159.073 422.387 159.101 422.49 159.128C422.526 159.137 422.56 159.144 422.595 159.153C422.721 159.184 422.848 159.21 422.974 159.235C423.256 159.287 423.539 159.325 423.823 159.349C423.835 159.349 423.847 159.351 423.86 159.352C424.12 159.371 424.381 159.38 424.642 159.376C424.648 159.376 424.655 159.376 424.659 159.376C424.814 159.372 424.968 159.364 425.121 159.353C425.327 159.338 425.534 159.314 425.738 159.283C423.397 150.444 423.326 142.896 424.288 136.562C426.371 122.842 433.196 115.464 436.635 106.158L436.634 106.157Z" fill="#F4A471"/>
<path d="M414.906 169.244C413.244 167.99 411.034 167.41 408.84 167.657L390.327 169.728C386.509 170.154 383.631 172.971 383.631 176.278V180.881H387.875V176.278C387.875 174.796 389.165 173.535 390.875 173.343L409.389 171.272C410.385 171.16 411.351 171.413 412.106 171.984C412.861 172.554 413.278 173.344 413.278 174.207V178.444H417.522V174.207C417.522 172.306 416.569 170.497 414.908 169.244H414.906Z" fill="#3D5891"/>
<path d="M452.91 179.143L430.372 175.63L428.934 256.105L449.057 250.033C450.538 249.824 451.649 248.755 451.724 247.468L455.524 181.972C455.603 180.598 454.485 179.388 452.91 179.142V179.143Z" fill="#426A99"/>
<path d="M359.248 180.843C356.684 181.032 354.779 182.963 354.986 185.168L353.889 240.044L353.737 247.636C353.913 249.518 355.59 251.041 357.767 251.295L428.935 256.107L430.372 175.633L419.873 176.402L359.248 180.844V180.843Z" fill="#99B1DA"/>
<path d="M405.97 233.823C394.922 238.733 369.505 239.846 353.889 240.044L353.737 247.636C353.913 249.518 355.59 251.041 357.767 251.295L428.935 256.107L430.372 175.633L419.873 176.402C420.091 190.098 419.442 227.837 405.97 233.825V233.823Z" fill="#6186BC"/>
<path d="M440.364 250.168C440.35 250.738 440.941 251.178 441.596 251.085C442.101 251.014 442.474 250.646 442.485 250.207C442.894 233.58 444.017 191.266 444.376 177.813L442.261 177.483C441.908 190.731 440.774 233.387 440.364 250.168Z" fill="#99B1DA"/>
<path d="M305.072 5.83338L185.541 5.96965C180.432 5.97523 176.295 10.1212 176.302 15.2299L176.563 244.063C176.569 249.172 180.715 253.309 185.823 253.302L305.355 253.166C310.464 253.16 314.601 249.014 314.594 243.906L314.333 15.0724C314.327 9.96371 310.181 5.82668 305.072 5.83338Z" fill="#27437A"/>
<path d="M314.714 5.82215L195.182 5.95841C190.073 5.964 185.936 10.11 185.943 15.2187L186.204 244.052C186.21 249.161 190.356 253.298 195.465 253.291L314.996 253.155C320.105 253.149 324.242 249.003 324.235 243.894L323.974 15.0612C323.968 9.95248 319.822 5.81545 314.714 5.82215Z" fill="#5681BF"/>
<path d="M316.081 19.2173L191.854 19.3591C191.307 19.3591 190.87 19.8115 190.87 20.3766L191.111 231.023C191.111 231.588 191.55 232.045 192.097 232.045L316.324 231.903C316.871 231.903 317.308 231.444 317.308 230.879L317.068 20.2326C317.068 19.6674 316.629 19.2162 316.081 19.2173Z" fill="#D1DBED"/>
<g style="mix-blend-mode:overlay" opacity="0.3">
<path d="M226.086 19.3289L197.446 19.3612L297.975 231.932L317.315 231.91C317.863 231.91 318.299 231.451 318.299 230.886L318.28 214.285L226.086 19.3289Z" fill="white"/>
<path d="M191.923 72L266.851 230.44L286.893 230.418L191.874 29.4983L191.923 72Z" fill="white"/>
</g>
<path d="M275.385 11.1722L234.52 11.2192C232.542 11.2214 231.113 12.8152 231.325 14.7475L232.029 21.1507C232.225 22.94 233.891 24.3663 235.752 24.364L274.183 24.3205C276.044 24.3182 277.706 22.8886 277.898 21.0993L278.587 14.695C278.795 12.7616 277.363 11.1722 275.385 11.1745V11.1722Z" fill="#393939"/>
<path d="M262.78 16.5087H240.222C239.155 16.5087 238.29 17.3743 238.29 18.4409C238.29 19.5076 239.156 20.3732 240.222 20.3732H262.78C263.848 20.3732 264.713 19.5076 264.713 18.4409C264.713 17.3743 263.847 16.5087 262.78 16.5087Z" fill="#595959"/>
<path d="M271.001 16.2183C269.773 16.2183 268.778 17.2134 268.778 18.4409C268.778 19.6684 269.773 20.6636 271.001 20.6636C272.228 20.6636 273.223 19.6684 273.223 18.4409C273.223 17.2134 272.228 16.2183 271.001 16.2183Z" fill="#595959"/>
<path d="M254.413 34.2574C236.806 34.2574 221.084 42.3226 210.739 54.9604C202.775 64.6865 197.997 77.121 197.997 90.6725C197.997 104.224 202.774 116.658 210.739 126.384C221.082 139.022 236.806 147.089 254.413 147.089C272.02 147.089 287.744 139.022 298.088 126.383C306.051 116.657 310.827 104.223 310.827 90.6725C310.827 77.1221 306.05 64.6887 298.088 54.9627C287.744 42.3238 272.02 34.2574 254.413 34.2574Z" fill="white"/>
<path d="M210.739 125.216C217.337 133.277 226.124 139.478 236.193 142.913C241.91 144.863 248.038 145.92 254.414 145.92C260.789 145.92 266.919 144.863 272.635 142.913C282.704 139.478 291.49 133.277 298.088 125.215V10.7064H210.739V125.216Z" fill="#99B1DA"/>
<path d="M298.088 62.1132H210.739V63.9572H298.088V62.1132Z" fill="#4E5A6D"/>
<path d="M298.088 102.857H210.739V104.701H298.088V102.857Z" fill="#4E5A6D"/>
<path d="M269.361 112.398H238.274V141.762H269.361V112.398Z" fill="#5681BF"/>
<path d="M250.635 115.497H241.415V127.079H250.635V115.497Z" fill="#E1E1E1"/>
<path d="M266.252 115.497H257.032V127.079H266.252V115.497Z" fill="#E1E1E1"/>
<path d="M272.831 108.656H235.337V112.398H272.831V108.656Z" fill="#243354"/>
<path d="M271.417 141.398H236.219V144.08H271.417V141.398Z" fill="#243354"/>
<path d="M254.413 147.088C260.789 147.088 266.918 146.03 272.634 144.08H236.191C241.908 146.03 248.037 147.088 254.413 147.088Z" fill="#243354"/>
<path d="M271.417 143.195H236.219V144.08H271.417V143.195Z" fill="#5681BF"/>
<path d="M240.344 71.4904H227.656V88.0708H240.344V71.4904Z" fill="#B5CAE8"/>
<path d="M227.254 85.0242L228.269 87.6612L237.097 72.0625L234.914 71.4906L227.254 85.0242Z" fill="white"/>
<path d="M228.323 90.8198L229.532 91.6351L240.851 71.6336L239.641 70.8193L228.323 90.8198Z" fill="white"/>
<path d="M226.991 88.8675H241.011V70.8182H226.991V88.8675ZM228.323 72.4132H239.679V87.2748H228.323V72.4132Z" fill="#2F4171"/>
<path d="M242.503 88.071H225.498V92.4739H242.503V88.071Z" fill="#243354"/>
<path d="M242.503 92.4741H225.498V95.9946H242.503V92.4741Z" fill="#5681BF"/>
<path d="M240.344 79.167H227.656V80.7608H240.344V79.167Z" fill="#2F4171"/>
<path d="M281.177 71.4906H268.489V88.0711H281.177V71.4906Z" fill="#B5CAE8"/>
<path d="M268.087 85.024L269.102 87.6611L277.929 72.0623L275.747 71.4905L268.087 85.024Z" fill="white"/>
<path d="M269.154 90.8197L270.363 91.635L281.682 71.6334L280.473 70.8192L269.154 90.8197Z" fill="white"/>
<path d="M267.824 88.8675H281.844V70.8182H267.824V88.8675ZM269.156 72.4132H280.512V87.2748H269.156V72.4132Z" fill="#2F4171"/>
<path d="M283.336 88.071H266.331V92.4739H283.336V88.071Z" fill="#243354"/>
<path d="M283.336 92.474H266.331V95.9945H283.336V92.474Z" fill="#5681BF"/>
<path d="M281.177 79.167H268.489V80.7608H281.177V79.167Z" fill="#2F4171"/>
<path d="M240.344 29.8568H227.656V46.4373H240.344V29.8568Z" fill="#B5CAE8"/>
<path d="M227.254 43.3915L228.269 46.0274L237.097 30.4287L234.914 29.8568L227.254 43.3915Z" fill="white"/>
<path d="M228.323 49.186L229.532 50.0014L240.851 30.0009L239.641 29.1855L228.323 49.186Z" fill="white"/>
<path d="M226.991 47.2348H241.011V29.1855H226.991V47.2348ZM228.323 30.7794H239.679V45.6409H228.323V30.7794Z" fill="#2F4171"/>
<path d="M242.503 46.4374H225.498V50.8402H242.503V46.4374Z" fill="#243354"/>
<path d="M242.503 50.8403H225.498V54.3608H242.503V50.8403Z" fill="#5681BF"/>
<path d="M240.344 37.5333H227.656V39.1272H240.344V37.5333Z" fill="#2F4171"/>
<path d="M281.177 29.8567H268.489V46.4372H281.177V29.8567Z" fill="#B5CAE8"/>
<path d="M268.087 43.3915L269.102 46.0274L277.929 30.4287L275.747 29.8568L268.087 43.3915Z" fill="white"/>
<path d="M269.154 49.186L270.363 50.0014L281.682 30.0009L280.473 29.1855L269.154 49.186Z" fill="white"/>
<path d="M267.824 47.2348H281.844V29.1855H267.824V47.2348ZM269.156 30.7794H280.512V45.6409H269.156V30.7794Z" fill="#2F4171"/>
<path d="M283.336 46.4373H266.331V50.8401H283.336V46.4373Z" fill="#243354"/>
<path d="M283.336 50.8403H266.331V54.3608H283.336V50.8403Z" fill="#5681BF"/>
<path d="M281.177 37.5332H268.489V39.127H281.177V37.5332Z" fill="#2F4171"/>
<path d="M299.539 11.7954H209.289V15.7146H299.539V11.7954Z" fill="#3D5891"/>
<path d="M276.451 0.435547H230.071C227.027 0.435547 224.558 2.90391 224.558 5.9486V14.5488H281.964V5.9486C281.964 2.90391 279.496 0.435547 276.451 0.435547Z" fill="#3D5891"/>
<path d="M237.824 6.38174H235.235V3.85864H233.336V10.5724H235.235V7.95434H237.824V10.5724H239.722V3.85864H237.824V6.38174Z" fill="white"/>
<path d="M248.282 4.17608C247.716 3.87564 247.078 3.72485 246.369 3.72485C245.66 3.72485 245.022 3.87564 244.456 4.17608C243.89 4.47653 243.446 4.89202 243.123 5.42255C242.801 5.95308 242.639 6.55063 242.639 7.21631C242.639 7.88198 242.801 8.47953 243.123 9.01006C243.446 9.54059 243.891 9.95608 244.456 10.2565C245.022 10.557 245.66 10.7078 246.369 10.7078C247.078 10.7078 247.716 10.5581 248.282 10.2565C248.849 9.95608 249.292 9.54059 249.615 9.01006C249.938 8.47953 250.1 7.88198 250.1 7.21631C250.1 6.55063 249.938 5.9542 249.615 5.42255C249.292 4.89202 248.848 4.47653 248.282 4.17608ZM247.943 8.21817C247.783 8.50969 247.565 8.73418 247.291 8.8939C247.016 9.05362 246.709 9.13404 246.37 9.13404C246.032 9.13404 245.725 9.05362 245.45 8.8939C245.175 8.73418 244.957 8.50857 244.798 8.21817C244.638 7.92778 244.557 7.59382 244.557 7.21631C244.557 6.83879 244.638 6.50484 244.798 6.21444C244.957 5.92405 245.175 5.69843 245.45 5.53871C245.725 5.37899 246.032 5.29858 246.37 5.29858C246.709 5.29858 247.016 5.37899 247.291 5.53871C247.565 5.69843 247.783 5.92405 247.943 6.21444C248.103 6.50595 248.183 6.83991 248.183 7.21631C248.183 7.59271 248.103 7.92778 247.943 8.21817Z" fill="white"/>
<path d="M252.287 5.36423H254.349V10.5724H256.248V5.36423H258.299V3.85864H252.287V5.36423Z" fill="white"/>
<path d="M262.806 7.87728H265.788V6.45769H262.806V5.32626H266.191V3.85864H260.926V10.5724H266.315V9.10476H262.806V7.87728Z" fill="white"/>
<path d="M271.185 3.85864H269.287V10.5724H274.389V9.06678H271.185V3.85864Z" fill="white"/>
<path d="M299.537 15.6691H209.287V20.235H299.537V15.6691Z" fill="#3D79BF"/>
<path d="M221.975 193.657H282.122C285.657 193.657 288.527 196.526 288.527 200.061V210.086C288.527 213.621 285.657 216.49 282.122 216.49H221.975C218.44 216.49 215.57 213.621 215.57 210.086V200.061C215.57 196.526 218.44 193.657 221.975 193.657Z" fill="#5681BF"/>
<path d="M224.552 204.737H224.399V206.233H224.552V204.737Z" fill="white"/>
<path d="M226.202 205.677C226.726 205.677 227.167 205.6 227.525 205.447C227.587 205.42 227.645 205.392 227.702 205.362C227.332 205.227 226.896 205.159 226.394 205.159L226.202 205.677Z" fill="white"/>
<path d="M227.751 205.38C227.736 205.374 227.718 205.369 227.702 205.363C227.645 205.393 227.587 205.421 227.526 205.447C227.167 205.6 226.726 205.677 226.202 205.677L226.394 205.159C226.897 205.159 227.332 205.227 227.702 205.363C227.975 205.22 228.19 205.039 228.346 204.819C228.535 204.553 228.629 204.251 228.629 203.912C228.629 203.4 228.409 202.98 227.967 202.651C227.526 202.321 226.841 202.157 225.914 202.157H222.326V208.872H226.106C227.033 208.872 227.738 208.709 228.221 208.383C228.704 208.056 228.945 207.603 228.945 207.02C228.945 206.63 228.841 206.296 228.634 206.018C228.426 205.74 228.131 205.528 227.751 205.38ZM226.476 207.155C226.351 207.244 226.164 207.289 225.915 207.289H224.552V206.234H224.399V204.737H224.552V203.74H225.608C225.864 203.74 226.05 203.781 226.169 203.865C226.287 203.947 226.346 204.072 226.346 204.239C226.346 204.405 226.287 204.521 226.169 204.609C226.05 204.695 225.862 204.738 225.608 204.738H224.552V206.235H225.915C226.164 206.235 226.352 206.279 226.476 206.369C226.601 206.458 226.662 206.59 226.662 206.762C226.662 206.934 226.6 207.066 226.476 207.155Z" fill="white"/>
<path d="M235.977 202.997C235.637 202.681 235.238 202.436 234.777 202.263C234.317 202.09 233.811 202.004 233.262 202.004C232.712 202.004 232.214 202.09 231.75 202.263C231.287 202.436 230.886 202.681 230.546 202.997C230.207 203.313 229.943 203.685 229.756 204.109C229.567 204.535 229.473 205.003 229.473 205.514C229.473 206.026 229.567 206.486 229.756 206.915C229.944 207.344 230.208 207.716 230.546 208.033C230.886 208.349 231.287 208.594 231.75 208.767C232.214 208.94 232.718 209.026 233.262 209.026C233.806 209.026 234.317 208.94 234.777 208.767C235.237 208.594 235.637 208.349 235.977 208.033C236.315 207.717 236.58 207.344 236.769 206.915C236.957 206.487 237.051 206.02 237.051 205.514C237.051 205.008 236.957 204.535 236.769 204.109C236.58 203.684 236.316 203.313 235.977 202.997ZM234.653 206.219C234.576 206.427 234.469 206.603 234.332 206.746C234.194 206.89 234.034 207.001 233.852 207.077C233.67 207.154 233.474 207.192 233.263 207.192C233.052 207.192 232.855 207.154 232.673 207.077C232.491 207 232.331 206.89 232.194 206.746C232.056 206.602 231.949 206.427 231.872 206.219C231.795 206.011 231.757 205.777 231.757 205.514C231.757 205.252 231.795 205.017 231.872 204.81C231.949 204.602 232.056 204.425 232.194 204.282C232.331 204.138 232.491 204.028 232.673 203.952C232.855 203.875 233.052 203.837 233.263 203.837C233.474 203.837 233.67 203.875 233.852 203.952C234.034 204.029 234.194 204.138 234.332 204.282C234.469 204.426 234.576 204.602 234.653 204.81C234.73 205.017 234.768 205.253 234.768 205.514C234.768 205.776 234.73 206.011 234.653 206.219Z" fill="white"/>
<path d="M244.11 202.997C243.771 202.681 243.372 202.436 242.911 202.263C242.451 202.09 241.945 202.004 241.395 202.004C240.846 202.004 240.348 202.09 239.884 202.263C239.42 202.436 239.02 202.681 238.68 202.997C238.34 203.313 238.077 203.685 237.889 204.109C237.7 204.535 237.607 205.003 237.607 205.514C237.607 206.026 237.7 206.486 237.889 206.915C238.078 207.344 238.342 207.716 238.68 208.033C239.02 208.349 239.42 208.594 239.884 208.767C240.348 208.94 240.851 209.026 241.395 209.026C241.939 209.026 242.451 208.94 242.911 208.767C243.371 208.594 243.771 208.349 244.11 208.033C244.449 207.717 244.714 207.344 244.902 206.915C245.091 206.487 245.185 206.02 245.185 205.514C245.185 205.008 245.091 204.535 244.902 204.109C244.714 203.684 244.45 203.313 244.11 202.997ZM242.787 206.219C242.71 206.427 242.603 206.603 242.465 206.746C242.328 206.89 242.168 207.001 241.986 207.077C241.804 207.154 241.607 207.192 241.396 207.192C241.185 207.192 240.989 207.154 240.807 207.077C240.625 207 240.465 206.89 240.326 206.746C240.189 206.602 240.082 206.427 240.005 206.219C239.928 206.011 239.89 205.777 239.89 205.514C239.89 205.252 239.928 205.017 240.005 204.81C240.082 204.602 240.189 204.425 240.326 204.282C240.464 204.138 240.623 204.028 240.807 203.952C240.989 203.875 241.185 203.837 241.396 203.837C241.607 203.837 241.804 203.875 241.986 203.952C242.168 204.029 242.328 204.138 242.465 204.282C242.603 204.426 242.71 204.602 242.787 204.81C242.864 205.017 242.902 205.253 242.902 205.514C242.902 205.776 242.864 206.011 242.787 206.219Z" fill="white"/>
<path d="M247.91 204.948L248.236 204.59V202.157H246.01V208.872H248.236V207.209L248.034 207.433L247.91 204.948Z" fill="white"/>
<path d="M247.907 204.948L248.031 207.433L248.234 207.209V204.59L247.907 204.948Z" fill="white"/>
<path d="M250.066 205.284L248.81 206.57L248.738 206.649L250.422 208.872H253.04L250.219 205.116L250.066 205.284Z" fill="white"/>
<path d="M249.913 204.709L250.219 205.116L252.906 202.157H250.441L248.235 204.59V207.209L248.738 206.649L248.446 206.263L249.913 204.709Z" fill="white"/>
<path d="M250.069 205.284L250.222 205.115L249.916 204.709L248.448 206.262L248.741 206.649L248.812 206.57L250.069 205.284Z" fill="white"/>
<path d="M261.501 206.244L260.638 205.211V206.244H261.501Z" fill="white"/>
<path d="M260.637 205.211L261.5 206.244H260.637V205.211L258.086 202.157H256.225V208.872H258.431V205.818L257.568 204.785H258.431V205.818L260.982 208.872H262.843V202.157H260.637V205.211Z" fill="white"/>
<path d="M257.567 204.785L258.431 205.818V204.785H257.567Z" fill="white"/>
<path d="M270.172 202.997C269.833 202.681 269.434 202.436 268.973 202.263C268.511 202.09 268.007 202.004 267.457 202.004C266.907 202.004 266.409 202.09 265.946 202.263C265.482 202.436 265.081 202.681 264.742 202.997C264.402 203.313 264.139 203.685 263.95 204.109C263.761 204.535 263.667 205.003 263.667 205.514C263.667 206.026 263.761 206.486 263.95 206.915C264.139 207.344 264.402 207.716 264.742 208.033C265.08 208.349 265.482 208.594 265.946 208.767C266.409 208.94 266.913 209.026 267.457 209.026C268.001 209.026 268.513 208.94 268.973 208.767C269.433 208.594 269.833 208.349 270.172 208.033C270.511 207.717 270.775 207.344 270.963 206.915C271.152 206.487 271.246 206.02 271.246 205.514C271.246 205.008 271.151 204.535 270.963 204.109C270.774 203.684 270.511 203.313 270.172 202.997ZM268.848 206.219C268.771 206.427 268.663 206.603 268.526 206.746C268.389 206.89 268.229 207.001 268.047 207.077C267.865 207.154 267.668 207.192 267.457 207.192C267.246 207.192 267.049 207.154 266.867 207.077C266.685 207 266.526 206.89 266.388 206.746C266.251 206.602 266.144 206.427 266.066 206.219C265.989 206.011 265.951 205.777 265.951 205.514C265.951 205.252 265.989 205.017 266.066 204.81C266.144 204.602 266.25 204.425 266.388 204.282C266.526 204.138 266.685 204.028 266.867 203.952C267.049 203.875 267.246 203.837 267.457 203.837C267.668 203.837 267.865 203.875 268.047 203.952C268.229 204.029 268.389 204.138 268.526 204.282C268.663 204.426 268.771 204.602 268.848 204.81C268.925 205.017 268.963 205.253 268.963 205.514C268.963 205.776 268.925 206.011 268.848 206.219Z" fill="white"/>
<path d="M275.449 207.826L274.881 205.972L274.279 207.826H275.449Z" fill="white"/>
<path d="M279.916 207.826L279.37 206.024L278.793 207.826H279.916Z" fill="white"/>
<path d="M276.782 204.229L277.099 205.281L277.434 204.229H276.782Z" fill="white"/>
<path d="M279.371 206.024L279.917 207.826H278.795L279.371 206.024L278.201 202.157H276.119L274.879 205.972L275.448 207.826H274.277L274.879 205.972L273.711 202.157H271.381L273.529 208.872H275.956L277.098 205.281L276.781 204.229H277.433L277.098 205.281L278.182 208.872H280.608L282.757 202.157H280.608L279.371 206.024Z" fill="white"/>
<path d="M360.576 36.057L360.53 42.6099L360.526 42.9204C360.526 42.9204 360.511 44.3322 365.364 45.6602C370.22 46.9915 372.786 42.1285 372.723 41.3567C372.68 40.8262 372.916 33.6958 373.07 30.9281C373.139 29.6794 373.189 28.7915 373.189 28.7915L360.885 30.9159L360.576 36.0559V36.057Z" fill="#F5B0A6"/>
<path d="M360.577 36.0569L360.531 42.6098C365.094 42.5305 369.631 37.2978 371.489 31.0241C371.558 29.7754 371.609 28.8875 371.609 28.8875L360.886 30.9169L360.577 36.0569Z" fill="#F18A8B"/>
<path d="M372.474 21.9235C372.474 21.9235 371.787 24.7928 370.762 25.3736C370.738 25.3859 370.72 25.3982 370.697 25.4116C370.667 25.4238 370.631 25.4373 370.595 25.4495C370.571 25.4562 370.54 25.4562 370.517 25.4629C369.463 25.4283 367.236 16.2205 367.236 16.2205C367.236 16.2205 365.95 15.279 362.317 15.0813C350.873 14.4603 353.41 17.878 353.41 17.878C353.41 17.878 353.839 18.1796 353.851 19.0586C353.858 19.4987 353.87 20.0404 353.893 20.6848C353.916 21.2935 353.897 24.1428 353.943 26.8479C353.958 27.6242 353.979 28.3904 354.004 29.0895C354.04 30.1003 354.1 30.9726 354.182 31.5322C354.781 35.6201 359.71 36.0054 359.792 36.0121V36.0088C359.792 36.0088 364.781 36.431 368.204 34.9946C368.393 34.9153 368.572 34.836 368.742 34.7578C370.332 34.0285 371.594 32.7228 372.259 31.1067C372.768 29.8725 373.58 28.8036 374.335 28.6573C375.973 28.3367 378.178 26.0772 377.189 22.5165C376.116 18.6621 372.477 21.9246 372.477 21.9246L372.474 21.9235Z" fill="#F5B0A6"/>
<path d="M363.631 30.0579L357.825 30.2466C356.305 30.4789 358.667 33.6443 360.757 33.3036C362.463 33.2489 363.855 32.0314 364.066 30.5013C364.104 30.2533 363.874 30.0456 363.631 30.059V30.0579Z" fill="white"/>
<path d="M357.826 30.2464C359.454 31.3521 362.617 31.3744 363.773 30.0755C363.651 30.0163 357.964 30.2631 357.826 30.2464Z" fill="white"/>
<path d="M364.638 23.0504C364.087 23.0605 363.654 23.7049 363.668 24.4901C363.683 25.2742 364.141 25.9019 364.692 25.8918C365.242 25.8818 365.676 25.2373 365.661 24.4521C365.646 23.6669 365.189 23.0404 364.638 23.0504Z" fill="#202020"/>
<path d="M364.12 23.4749C363.831 23.4805 363.602 23.8055 363.609 24.1998C363.617 24.5952 363.857 24.9101 364.147 24.9057C364.436 24.9001 364.665 24.5751 364.659 24.1808C364.651 23.7854 364.411 23.4704 364.12 23.4749Z" fill="white"/>
<path d="M356.839 23.1982C356.288 23.2083 355.855 23.8527 355.869 24.6379C355.884 25.422 356.342 26.0497 356.892 26.0397C357.443 26.0296 357.876 25.3851 357.862 24.6C357.847 23.8148 357.389 23.1882 356.839 23.1982Z" fill="#202020"/>
<path d="M356.321 23.6224C356.032 23.6279 355.803 23.953 355.81 24.3472C355.818 24.7426 356.058 25.0576 356.348 25.0531C356.637 25.0475 356.866 24.7225 356.86 24.3282C356.852 23.9329 356.612 23.6179 356.321 23.6224Z" fill="white"/>
<path d="M366.801 22.8283C366.677 22.8283 366.555 22.768 366.482 22.6563C365.598 21.3138 364.343 21.803 364.289 21.8242C364.094 21.9035 363.87 21.8086 363.791 21.6131C363.712 21.4176 363.807 21.1943 364.002 21.115C364.652 20.8514 366.14 20.7475 367.119 22.2352C367.235 22.4117 367.186 22.6485 367.01 22.7646C366.945 22.8071 366.872 22.8272 366.8 22.8272L366.801 22.8283Z" fill="#1C1C1C"/>
<path d="M360.281 28.243C360.25 28.243 360.219 28.2385 360.189 28.2284C360.152 28.2161 359.282 27.9291 359.099 27.1138C358.922 26.333 359.788 25.2887 359.887 25.1726C359.995 25.0452 360.186 25.0307 360.312 25.1391C360.438 25.2474 360.454 25.4373 360.346 25.5635C360.025 25.9421 359.608 26.6324 359.687 26.982C359.795 27.4578 360.37 27.6543 360.376 27.6555C360.533 27.708 360.619 27.8777 360.568 28.0352C360.526 28.1625 360.409 28.243 360.282 28.243H360.281Z" fill="#1C1C1C"/>
<path d="M355.495 21.766C355.385 21.766 355.275 21.718 355.199 21.6264C355.065 21.4634 355.09 21.2221 355.253 21.0881C356.525 20.0449 358.124 20.7407 358.191 20.7709C358.383 20.8569 358.471 21.0825 358.385 21.2757C358.298 21.4678 358.073 21.5549 357.881 21.4689C357.829 21.4466 356.64 20.9384 355.737 21.6789C355.666 21.737 355.581 21.766 355.495 21.766Z" fill="#1C1C1C"/>
<path d="M366.399 26.5799C365.2 26.6023 364.237 27.1362 364.249 27.7728C364.261 28.4083 365.243 28.9053 366.443 28.883C367.642 28.8607 368.605 28.3268 368.593 27.6902C368.58 27.0546 367.599 26.5576 366.399 26.5799Z" fill="#F18A8B"/>
<path d="M354.438 26.809C354.264 26.8124 354.095 26.828 353.939 26.8481C353.953 27.6255 353.973 28.3906 353.999 29.0886C354.157 29.1043 354.313 29.1132 354.482 29.1099C355.68 29.0875 356.646 28.5503 356.635 27.9181C356.623 27.2792 355.638 26.7856 354.438 26.809Z" fill="#F18A8B"/>
<path d="M374.806 22.8258C372.833 23.5551 372.953 25.7197 373.292 26.7629C373.335 26.8925 373.455 26.9729 373.585 26.9707C373.614 26.9707 373.643 26.9651 373.672 26.9561C373.831 26.9048 373.917 26.735 373.866 26.5775C373.834 26.477 373.093 24.1013 375.014 23.3921C375.171 23.334 375.251 23.1609 375.193 23.0045C375.135 22.8493 374.959 22.77 374.806 22.8269V22.8258Z" fill="#F18A8B"/>
<path d="M373.17 25.1121C373.047 25.2238 373.037 25.4148 373.15 25.5376C373.21 25.6047 373.295 25.6382 373.379 25.6359C373.449 25.6348 373.519 25.6091 373.575 25.5577C374.566 24.6575 375.144 25.1992 375.206 25.2629C375.321 25.3813 375.511 25.3869 375.63 25.274C375.75 25.1601 375.759 24.9736 375.646 24.8519C375.636 24.8407 374.628 23.7841 373.17 25.111V25.1121Z" fill="#F18A8B"/>
<path d="M375.346 13.5456C375.346 13.5456 374.723 7.96778 371.32 6.49011C367.916 5.01132 360.372 6.0668 355.21 7.86167C350.047 9.65542 347.608 11.6458 347.608 11.9093C347.608 12.1729 348.402 14.1264 350.331 14.39C350.331 14.39 348.971 14.8647 348.743 15.6566C348.516 16.4485 350.046 17.0817 351.692 17.1878C351.692 17.1878 350.61 20.7921 352.939 22.8428C352.939 22.8428 354.813 17.5039 355.72 16.7657C356.627 16.0263 364.626 15.9738 367.178 16.3424C367.178 16.3424 367.416 18.1998 367.7 20.2593C367.983 22.3167 369.618 24.4712 369.618 24.4712V25.3301C369.618 26.0505 370.946 27.5114 371.666 27.5114C371.666 27.5114 370.993 23.2884 373.269 22.0241C376.427 20.2705 377.042 22.4943 377.369 23.3778C378.557 22.711 378.48 19.673 378.468 18.718C378.411 14.3375 375.347 13.5456 375.347 13.5456H375.346Z" fill="#2C2C2C"/>
<path d="M366.252 12.2677C365.199 11.6914 365.237 9.75467 365.237 9.75467C365.237 9.75467 360.587 12.0019 359.926 10.4885C359.265 8.97395 360.433 7.76099 360.433 7.76099C360.433 7.76099 357.92 8.77626 358.707 11.0335C359.495 13.2897 364.408 11.1865 364.408 11.1865C364.408 11.1865 364.072 13.1288 366.05 13.3522C368.028 13.5756 368.363 11.6333 368.363 11.6333C368.363 11.6333 367.306 12.8452 366.252 12.2688V12.2677Z" fill="#3D3D3D"/>
<path d="M387.377 229.876L378.538 230.355L378.835 238.703L378.712 250.09L391.761 249.392L387.353 238.41L387.377 229.876Z" fill="#F5B0A6"/>
<path d="M342.976 241.216L331.24 246.547L332.297 251.492L350.179 251.618L351.374 241.379L352.856 229.473L342.797 229.928L342.976 241.216Z" fill="#F5B0A6"/>
<path d="M384.423 241.332C381.424 241.492 379.36 243.516 378.79 242.956C378.79 242.956 377.307 251.14 378.063 253.132C378.819 255.123 384.249 254.833 387.091 254.762C389.932 254.692 392.443 253.013 392.788 251.857C393.132 250.701 389.343 243.364 388.961 242.412C388.961 242.412 387.421 241.171 384.423 241.332Z" fill="#1D2F59"/>
<path d="M344.266 246.27C341.202 245.913 342.111 242.918 340.467 242.357C338.823 241.795 328.263 246.854 326.341 249.326C324.417 251.798 327.297 253.033 332.513 253.151C337.729 253.27 344.31 252.895 344.31 252.895C344.31 252.895 350.649 252.49 351.602 252.03C352.555 251.569 350.904 245.411 350.904 245.411C350.904 245.411 347.33 246.629 344.266 246.271V246.27Z" fill="#1D2F59"/>
<path d="M387.07 106.234L362.957 106.936L348.342 107.299C348.342 107.299 348.334 107.327 348.328 107.375C348.311 107.423 348.296 107.498 348.274 107.602C347.958 109.018 347.595 111.538 344.228 129.365C339.841 152.574 340.385 231.081 340.385 231.081L354.539 230.325L367.303 136.548L376.113 230.478L391.569 229.652C391.569 229.652 391.866 154.747 391.66 135.898C391.455 117.05 387.07 106.236 387.07 106.236V106.234Z" fill="#2C4DA2"/>
<g opacity="0.49">
<path d="M360.518 121.194C360.518 121.194 356.891 211.32 347.493 230.701L354.538 230.324L367.302 136.547C367.302 136.547 365.755 127.849 365.207 125.825C364.669 123.791 360.518 121.196 360.518 121.196V121.194Z" fill="#1D2F59"/>
</g>
<g opacity="0.49">
<path d="M387.07 106.235L362.957 106.936L348.356 107.299L348.275 107.602C352.157 108.635 374.237 108.662 382.14 130.636C391.191 155.767 380.916 230.221 380.916 230.221L391.57 229.651C391.57 229.651 391.867 154.747 391.662 135.898C391.456 117.049 387.071 106.235 387.071 106.235H387.07Z" fill="#1D2F59"/>
</g>
<path d="M379.559 46.0139C379.559 46.0139 377.197 49.9008 377.152 50.8546C377.109 51.8073 381.536 54.7068 382.205 54.7191C382.873 54.7314 382.562 48.4901 382.562 48.4901L379.559 46.0139Z" fill="#C7C7C7"/>
<path d="M368.716 51.2814C369.058 52.3324 373.4 55.3324 373.583 55.1794C373.765 55.0275 377.153 50.8536 377.153 50.8536L373.185 47.7385C373.185 47.7385 368.375 50.2292 368.716 51.2802V51.2814Z" fill="#C7C7C7"/>
<path d="M385.536 41.229L372.594 38.1575C372.594 38.1575 371.094 43.8314 365.159 44.6813C359.424 45.5034 360.664 39.4855 360.664 39.4855L349.113 44.1955C345.955 45.4933 343.407 47.9338 341.967 51.0343L322.452 86.275L329.523 90.4232L333.635 92.8256C333.635 92.8256 338.601 88.4719 342.529 81.833C342.718 81.5236 346.961 78.7414 347.14 78.4242C348.722 84.9805 347.244 99.5315 346.327 106.932C346.033 109.31 347.912 111.398 350.307 111.347L350.751 111.338L387.498 110.57C389.97 110.519 391.776 108.223 391.254 105.806C389.572 98.0215 386.767 82.2452 389.08 72.2343L399.733 90.5416L414.412 88.2921C411.622 74.8445 399.494 56.0749 394.857 47.3742C393.27 44.3976 388.855 41.8824 385.536 41.229Z" fill="#6FC183"/>
<path d="M389.081 72.2342L382.28 55.7107C382.28 55.7107 380.471 76.1278 383.313 85.9487C386.157 95.7697 382.021 107.4 374.527 108.434C367.965 109.339 354.868 108.66 350.752 111.338L387.499 110.57C389.971 110.518 391.777 108.223 391.256 105.806C389.574 98.0214 386.768 82.2451 389.081 72.2342Z" fill="#419786"/>
<path d="M329.522 90.4233L333.636 92.8258C333.636 92.8258 338.6 88.4732 342.53 81.8332L347.141 78.4244L348.369 54.5181C348.358 54.8364 344.396 63.7214 343.75 68.0583C342.533 76.1771 337.262 80.8648 329.524 90.4233H329.522Z" fill="#419786"/>
<path d="M358.537 76.4831C358.49 76.1994 358.257 76.0017 358.019 76.0408L349.247 77.5073C349.007 77.5475 348.852 77.8145 348.903 78.1004L351.746 93.8655C351.796 94.1459 352.026 94.3391 352.261 94.2989L360.831 92.867C361.069 92.8268 361.223 92.5655 361.176 92.2818L358.535 76.4831H358.537Z" fill="#2C4DA2"/>
<path d="M357.678 77.1132C357.631 76.8295 357.399 76.6319 357.161 76.6709L348.389 78.1374C348.148 78.1777 347.993 78.4446 348.044 78.7305L350.887 94.4957C350.937 94.776 351.167 94.9692 351.402 94.929L359.972 93.4972C360.21 93.457 360.364 93.1956 360.317 92.9119L357.677 77.1132H357.678Z" fill="#496DAD"/>
<path d="M356.266 77.8413L353.699 78.2702C353.629 78.2825 353.579 78.3305 353.588 78.3774L354.081 80.9698C354.09 81.0156 354.153 81.0435 354.221 81.0323L356.728 80.6135C356.798 80.6023 356.848 80.5543 356.84 80.5074L356.406 77.905C356.398 77.8581 356.335 77.8302 356.265 77.8413H356.266Z" fill="#2C4DA2"/>
<path d="M400.673 85.453C392.347 84.6801 366.085 89.284 362.77 89.8738C362.538 89.551 360.891 87.2926 359.689 86.4516C358.394 85.5457 354.53 85.2375 354.226 85.6329C353.922 86.0282 354.875 86.628 356.055 86.9173C357.236 87.2066 358.03 87.354 358.03 87.354L357.815 87.8801L350.694 87.9895C350.694 87.9895 350.385 88.2766 350.557 88.9724C350.73 89.6671 351.58 89.8659 351.58 89.8659C351.58 89.8659 350.893 91.2029 352.229 91.863C352.229 91.863 351.631 92.8436 352.698 93.545C352.698 93.545 352.445 94.3715 353.432 95.1042C354.399 95.8224 361.159 95.8034 361.431 95.8023C365.316 96.3764 385.631 99.2469 398.045 98.436C411.815 97.5369 414.698 89.5979 414.409 88.2944C414.409 88.2944 409.565 86.2773 400.673 85.453Z" fill="#F5B0A6"/>
<path d="M324.667 81.4935C323.179 80.1387 320.663 79.1301 318.233 77.5139C312.932 73.989 306.792 70.6762 303.905 68.3296C302.797 69.4912 301.541 71.8702 300.025 73.4071C303.883 78.5906 321.915 101.449 333.639 92.8278C333.639 92.8278 330.514 86.8111 324.668 81.4935H324.667Z" fill="#F5B0A6"/>
<path d="M302.809 61.2062C302.376 61.2609 302.027 63.4858 301.848 65.5811C300.46 64.0755 298.52 62.561 298.52 62.561L298.502 62.5878C298.147 62.2081 295.536 59.4728 294.591 59.523C293.771 59.5666 296.154 62.5364 297.672 64.0923L297.511 64.3916C296.74 63.5484 293.496 60.0938 292.502 60.1909C291.483 60.2959 295.02 64.6072 296.589 66.0648L296.267 66.6567C295.784 66.1329 292.416 62.4828 291.423 62.58C290.436 62.6772 293.971 66.9627 295.397 68.2327L295.207 68.5845C294.305 67.653 292.269 65.6325 291.584 65.7062C291.477 65.7185 291.437 65.7833 291.442 65.8905C291.477 66.5461 293.342 68.7911 294.476 69.9125H294.482C294.756 70.1817 294.988 70.3905 295.146 70.4899C295.205 70.5313 295.263 70.5592 295.309 70.5759C295.843 70.9892 296.593 71.5499 297.433 72.1184C298.279 72.6925 299.208 73.2744 300.117 73.7256L303.907 68.3298C303.925 67.128 303.711 65.1712 303.653 63.5003C303.58 61.2989 303.482 61.1269 302.81 61.2073L302.809 61.2062Z" fill="#F5B0A6"/>
<path d="M327.487 143.336H298.428C295.975 143.336 293.984 145.325 293.984 147.78V184.649C293.984 186.052 295.732 186.695 296.641 185.627L300.079 181.586H327.486C329.94 181.586 331.929 179.596 331.929 177.143V147.781C331.929 145.327 329.94 143.338 327.486 143.338L327.487 143.336Z" fill="#496DAD"/>
<path d="M323.44 159.246C323.024 159.021 322.53 159.012 322.057 159.007C320.462 158.995 318.868 158.984 317.273 158.972C317.705 156.476 317.835 153.757 316.567 151.565C316.185 150.905 315.159 150.113 314.345 150.621C313.581 151.098 313.793 152.281 313.831 153.028C313.991 156.132 312.224 159.254 309.482 160.717C309.482 160.717 309.663 167.328 309.623 170.701C313.458 170.767 317.339 170.819 320.865 170.575C321.982 170.498 322.946 168.724 321.59 168.165C322.161 167.872 322.738 167.59 322.988 166.951C323.224 166.345 322.94 165.523 322.309 165.367C323.64 165.696 324.163 163.585 323.126 162.904C323.674 162.436 324.131 161.818 324.247 161.107C324.363 160.396 324.071 159.591 323.439 159.247L323.44 159.246Z" fill="white"/>
<path d="M308.235 160.717H302.439V170.692H308.235V160.717Z" fill="#507CC9"/>
<path d="M211.914 173.441C219.672 173.441 225.961 167.152 225.961 159.394C225.961 151.636 219.672 145.346 211.914 145.346C204.156 145.346 197.866 151.636 197.866 159.394C197.866 167.152 204.156 173.441 211.914 173.441Z" fill="#719BD8"/>
<path d="M218.586 163.064C217.57 162.255 216.056 161.279 215.34 161.392C214.627 161.506 214.571 161.592 214.248 162.215C213.925 162.837 213.227 163.935 213.227 163.935C213.227 163.935 210.782 162.675 209.295 160.787C207.804 158.899 207.341 157.493 207.279 157.182C207.218 156.873 207.46 156.803 207.675 156.756C207.891 156.708 209.423 156.609 209.624 155.577C209.825 154.544 208.878 152.853 208.206 151.87C207.535 150.888 206.253 151.293 205.034 151.986C203.813 152.679 203.166 153.268 203.024 153.744C202.881 154.221 203.071 156.676 204.634 159.438C206.196 162.199 208.946 165.482 212.054 167.116C215.162 168.751 216.166 168.784 217.082 168.083C217.998 167.383 219.058 165.526 219.328 164.946C219.599 164.365 219.604 163.874 218.587 163.065L218.586 163.064Z" fill="white"/>
<path d="M215.164 155.613C214.301 154.887 213.182 155.002 213.135 155.002C212.845 155.033 212.635 155.293 212.664 155.584C212.695 155.873 212.961 156.086 213.245 156.053C213.247 156.046 213.97 155.989 214.484 156.421C214.814 156.701 215.002 157.143 215.042 157.738C215.061 158.029 215.312 158.249 215.602 158.231C215.602 158.231 215.604 158.231 215.606 158.231C215.896 158.211 216.118 157.959 216.097 157.668C216.037 156.773 215.724 156.082 215.164 155.612V155.613Z" fill="#DADADA"/>
<path d="M212.853 152.656C212.563 152.674 212.341 152.923 212.357 153.214C212.374 153.505 212.624 153.729 212.916 153.712C213.088 153.702 217.15 153.519 217.446 157.983C217.465 158.273 217.715 158.493 218.006 158.477C218.006 158.477 218.007 158.477 218.009 158.477C218.301 158.458 218.521 158.205 218.502 157.915C218.137 152.416 212.908 152.653 212.856 152.656H212.853Z" fill="#DADADA"/>
<path d="M218.032 152.049C215.576 150.003 212.482 150.28 212.348 150.292C212.056 150.32 211.844 150.578 211.872 150.869C211.901 151.16 212.157 151.384 212.448 151.344C212.48 151.346 215.233 151.095 217.354 152.861C218.763 154.033 219.581 155.836 219.784 158.216C219.809 158.503 220.058 158.717 220.344 158.7C220.347 158.7 220.353 158.7 220.356 158.7C220.646 158.674 220.863 158.417 220.839 158.128C220.608 155.455 219.665 153.41 218.031 152.05L218.032 152.049Z" fill="#DADADA"/>
<path d="M420.57 0.473389H389.42C386.833 0.473389 384.736 2.57063 384.736 5.1577V20.2237C384.736 22.8107 386.833 24.908 389.42 24.908H420.57C423.157 24.908 425.254 22.8107 425.254 20.2237V5.1577C425.254 2.57063 423.157 0.473389 420.57 0.473389Z" fill="#719BD8"/>
<path d="M395.028 31.9457C395.446 32.78 396.643 32.7655 397.041 31.9211L401.028 23.4761L390.749 23.427L395.028 31.9457Z" fill="#719BD8"/>
<path d="M394.358 10.6854C393.284 10.6854 392.413 11.5566 392.413 12.6311C392.413 13.7055 393.284 14.5767 394.358 14.5767C395.433 14.5767 396.304 13.7055 396.304 12.6311C396.304 11.5566 395.433 10.6854 394.358 10.6854Z" fill="white"/>
<path d="M404.745 10.6854C403.67 10.6854 402.799 11.5566 402.799 12.6311C402.799 13.7055 403.67 14.5767 404.745 14.5767C405.819 14.5767 406.69 13.7055 406.69 12.6311C406.69 11.5566 405.819 10.6854 404.745 10.6854Z" fill="white"/>
<path d="M415.129 10.6854C414.055 10.6854 413.184 11.5566 413.184 12.6311C413.184 13.7055 414.055 14.5767 415.129 14.5767C416.204 14.5767 417.075 13.7055 417.075 12.6311C417.075 11.5566 416.204 10.6854 415.129 10.6854Z" fill="white"/>
<path d="M188.703 55.9246H115.847C112.947 55.9246 110.596 58.2758 110.596 61.1763V73.8733C110.596 76.7737 112.947 79.125 115.847 79.125H188.703C191.604 79.125 193.955 76.7737 193.955 73.8733V61.1763C193.955 58.2758 191.604 55.9246 188.703 55.9246Z" fill="#719BD8"/>
<path d="M114.827 55.9246H187.683C190.581 55.9246 192.935 58.2779 192.935 61.1763V73.8733C192.935 76.7716 190.581 79.125 187.683 79.125H114.827C111.929 79.125 109.575 76.7716 109.575 73.8733V61.1763C109.575 58.2779 111.929 55.9246 114.827 55.9246Z" fill="#719BD8"/>
<path d="M161.548 85.8175C161.967 86.6518 163.163 86.6373 163.562 85.7929L167.548 77.348L157.269 77.2988L161.548 85.8175Z" fill="#719BD8"/>
<path d="M184.324 65.3937L182.631 61.9625L180.938 65.3937L177.151 65.9443L179.891 68.6148L179.244 72.3855L182.631 70.6051L186.017 72.3855L185.371 68.6148L188.11 65.9443L184.324 65.3937Z" fill="white"/>
<path d="M169.114 65.3937L167.421 61.9625L165.728 65.3937L161.942 65.9443L164.681 68.6148L164.035 72.3855L167.421 70.6051L170.809 72.3855L170.161 68.6148L172.902 65.9443L169.114 65.3937Z" fill="white"/>
<path d="M153.901 65.3937L152.208 61.9625L150.515 65.3937L146.728 65.9443L149.468 68.6148L148.821 72.3855L152.208 70.6051L155.594 72.3855L154.948 68.6148L157.687 65.9443L153.901 65.3937Z" fill="white"/>
<path d="M137.033 61.9625L135.34 65.3937L131.554 65.9443L134.294 68.6148L133.647 72.3855L137.033 70.6051L140.42 72.3855C140.016 70.0244 140.797 67.6163 142.513 65.9443L138.727 65.3937L137.033 61.9625Z" fill="white"/>
<path d="M123.552 65.3937L121.859 61.9625L120.166 65.3937L116.38 65.9443L119.119 68.6148L118.473 72.3855C120.593 71.2708 123.126 71.2708 125.246 72.3855L124.599 68.6148L127.339 65.9443L123.552 65.3937Z" fill="white"/>
<path d="M107.396 196.088C107.394 201.827 109.277 240.811 110.047 256.504C110.128 258.171 110.899 259.72 112.167 260.783C113.435 261.847 115.084 262.315 116.705 262.073L128.762 260.279L116.278 189.144C116.278 189.144 107.398 188.873 107.396 196.088Z" fill="#EA7839"/>
<path d="M204.588 184.454C204.044 181.266 201.096 179.063 197.885 179.445L113.372 189.477C110.859 189.775 109.092 192.095 109.472 194.598L119.571 261.038C119.928 263.389 122.144 264.99 124.489 264.59L208.813 250.201C212.566 249.561 215.089 245.999 214.449 242.245L204.588 184.455V184.454Z" fill="#F4A471"/>
<path d="M202.633 184.938C202.537 183.901 201.61 183.145 200.576 183.266L115.654 193.154C114.489 193.289 113.654 194.339 113.782 195.504C114.834 205.035 119.306 244.267 123.124 257.881C123.356 258.709 124.176 259.229 125.025 259.089L213.51 244.525C214.712 244.327 215.461 243.112 215.097 241.95C212.68 234.241 204.74 207.668 202.633 184.938Z" fill="white"/>
<path d="M200.776 186.612C200.683 185.615 199.792 184.887 198.797 185.002L117.074 194.519C115.954 194.649 115.148 195.659 115.272 196.78C116.284 205.953 120.589 243.707 124.262 256.808C124.486 257.606 125.274 258.105 126.092 257.971L211.245 243.955C212.402 243.765 213.122 242.596 212.772 241.478C210.446 234.059 202.804 208.487 200.777 186.612H200.776Z" fill="#FACC88"/>
<g opacity="0.72">
<path d="M154.446 205.695C154.302 204.854 153.531 204.269 152.682 204.357L146.627 204.986C145.696 205.083 145.041 205.946 145.199 206.869L146.246 213.008C146.395 213.88 147.216 214.471 148.091 214.336L154.094 213.407C154.987 213.269 155.595 212.426 155.443 211.534L154.447 205.695H154.446Z" fill="white"/>
</g>
<g opacity="0.72">
<path d="M177.065 203.167C176.921 202.32 176.141 201.734 175.288 201.83L169.242 202.509C168.317 202.613 167.671 203.473 167.827 204.391L168.718 209.612C168.867 210.485 169.688 211.076 170.562 210.94L176.566 210.012C177.459 209.874 178.067 209.03 177.915 208.139L177.066 203.167H177.065Z" fill="white"/>
</g>
<g opacity="0.72">
<path d="M182.913 237.43C182.75 236.476 181.85 235.831 180.894 235.983L175.186 236.888C174.214 237.043 173.555 237.961 173.721 238.931L174.663 244.452C174.83 245.428 175.767 246.077 176.74 245.891L182.415 244.798C183.359 244.616 183.984 243.714 183.823 242.766L182.913 237.43Z" fill="white"/>
</g>
<g opacity="0.72">
<path d="M194.124 235.618C193.964 234.68 193.08 234.046 192.139 234.195L186.372 235.111C185.418 235.263 184.77 236.166 184.933 237.118L185.823 242.335C185.987 243.295 186.907 243.933 187.864 243.748L193.599 242.645C194.527 242.466 195.141 241.578 194.983 240.647L194.125 235.617L194.124 235.618Z" fill="white"/>
</g>
<g opacity="0.72">
<path d="M190.274 213.063C190.103 212.062 189.164 211.381 188.16 211.528L182.643 212.339C181.606 212.492 180.896 213.468 181.073 214.502L181.803 218.785C181.979 219.81 182.957 220.496 183.981 220.309L189.465 219.308C190.473 219.124 191.144 218.165 190.972 217.155L190.274 213.063Z" fill="white"/>
</g>
<g opacity="0.72">
<path d="M192.001 223.178C191.826 222.152 190.848 221.467 189.823 221.654L184.211 222.678C183.275 222.849 182.651 223.741 182.81 224.678L183.928 231.228C184.087 232.159 184.962 232.793 185.896 232.653L191.673 231.792C192.636 231.649 193.293 230.742 193.129 229.782L192.003 223.176L192.001 223.178Z" fill="white"/>
</g>
<g opacity="0.72">
<path d="M165.755 204.438C165.611 203.591 164.832 203.005 163.978 203.101L157.933 203.78C157.008 203.884 156.361 204.744 156.517 205.662L157.488 211.349C157.637 212.222 158.458 212.812 159.332 212.677L165.335 211.749C166.229 211.611 166.837 210.767 166.685 209.876L165.757 204.438H165.755Z" fill="white"/>
</g>
<g opacity="0.72">
<path d="M180.809 225.116C180.644 224.147 179.718 223.499 178.749 223.675L173.064 224.713C172.112 224.887 171.477 225.794 171.639 226.749L172.685 232.875C172.847 233.824 173.736 234.468 174.687 234.326L180.404 233.474C181.383 233.328 182.052 232.405 181.885 231.429L180.808 225.117L180.809 225.116Z" fill="white"/>
</g>
<g opacity="0.72">
<path d="M167.705 215.859C167.582 215.141 166.91 214.653 166.188 214.759L159.625 215.724C158.881 215.833 158.372 216.534 158.499 217.275L159.542 223.392C159.668 224.128 160.37 224.619 161.104 224.485L167.629 223.294C168.351 223.163 168.833 222.475 168.709 221.751L167.704 215.86L167.705 215.859Z" fill="white"/>
</g>
<g opacity="0.72">
<path d="M156.521 217.844C156.367 216.942 155.521 216.327 154.615 216.461L148.734 217.326C147.798 217.463 147.159 218.343 147.319 219.276L148.31 225.088C148.468 226.013 149.35 226.631 150.274 226.462L156.121 225.395C157.029 225.23 157.634 224.365 157.479 223.455L156.522 217.845L156.521 217.844Z" fill="white"/>
</g>
<g opacity="0.72">
<path d="M178.947 214.206C178.824 213.488 178.152 213 177.431 213.106L170.868 214.071C170.124 214.18 169.614 214.881 169.742 215.622L170.719 221.352C170.844 222.088 171.547 222.58 172.28 222.445L178.805 221.255C179.528 221.123 180.009 220.435 179.886 219.711L178.946 214.207L178.947 214.206Z" fill="white"/>
</g>
<g opacity="0.72">
<path d="M169.634 227.155C169.469 226.186 168.543 225.538 167.574 225.715L161.889 226.752C160.937 226.927 160.302 227.833 160.464 228.788L161.447 234.549C161.609 235.498 162.498 236.142 163.45 236L169.166 235.148C170.145 235.002 170.814 234.079 170.647 233.103L169.633 227.157L169.634 227.155Z" fill="white"/>
</g>
<g opacity="0.72">
<path d="M158.423 228.994C158.277 228.135 157.457 227.561 156.599 227.717L150.517 228.827C149.673 228.982 149.11 229.785 149.255 230.63L150.242 236.418C150.385 237.257 151.173 237.827 152.016 237.702L158.133 236.791C159.001 236.661 159.593 235.845 159.445 234.98L158.423 228.994Z" fill="white"/>
</g>
<g opacity="0.72">
<path d="M188.447 202.358C188.251 201.21 187.192 200.413 186.035 200.544L180.933 201.117C179.791 201.245 178.991 202.308 179.185 203.441L179.825 207.192C180.032 208.4 181.17 209.22 182.382 209.032L186.939 208.328C188.292 208.118 189.213 206.84 188.983 205.49L188.448 202.358H188.447Z" fill="white"/>
</g>
<g opacity="0.72">
<path d="M202.811 234.821C202.598 233.567 201.214 232.753 199.706 232.993L197.723 233.308C196.695 233.471 195.998 234.443 196.173 235.468L196.979 240.189C197.143 241.148 198.063 241.786 199.019 241.601L201.139 241.194C202.626 240.908 203.642 239.688 203.43 238.446L202.811 234.821Z" fill="white"/>
</g>
<g opacity="0.72">
<path d="M138.032 244.559C137.869 243.604 136.968 242.958 136.012 243.11L132.11 243.73C130.573 243.974 129.493 245.218 129.711 246.496L130.705 252.322C130.925 253.61 132.376 254.427 133.917 254.13L137.782 253.386C138.727 253.204 139.353 252.301 139.192 251.352L138.032 244.559Z" fill="white"/>
</g>
<g opacity="0.72">
<path d="M200.637 222.075C200.419 220.797 198.987 219.981 197.456 220.26L195.514 220.614C194.506 220.798 193.835 221.758 194.007 222.767L195.143 229.426C195.314 230.428 196.255 231.111 197.26 230.961L199.199 230.672C200.752 230.441 201.85 229.189 201.63 227.901L200.636 222.075H200.637Z" fill="white"/>
</g>
<g opacity="0.72">
<path d="M198.957 212.224C198.746 210.983 197.386 210.171 195.891 210.391L193.425 210.754C192.64 210.869 192.104 211.608 192.238 212.39L193.059 217.199C193.192 217.976 193.932 218.494 194.706 218.352L197.136 217.909C198.638 217.635 199.672 216.407 199.459 215.155L198.959 212.225L198.957 212.224Z" fill="white"/>
</g>
<g opacity="0.72">
<path d="M131.834 208.233C131.684 207.353 130.872 206.743 129.985 206.842L126.047 207.285C124.441 207.466 123.271 208.744 123.497 210.071L124.456 215.684C124.669 216.933 126.043 217.746 127.546 217.513L131.577 216.89C132.506 216.746 133.138 215.869 132.98 214.942L131.835 208.232L131.834 208.233Z" fill="white"/>
</g>
<g opacity="0.72">
<path d="M171.687 239.213C171.524 238.259 170.624 237.613 169.668 237.765L163.961 238.672C162.989 238.826 162.33 239.744 162.496 240.715L163.501 246.601C163.667 247.577 164.604 248.226 165.577 248.039L171.252 246.946C172.196 246.764 172.821 245.862 172.66 244.914L171.687 239.213Z" fill="white"/>
</g>
<g opacity="0.72">
<path d="M134.038 221.15C133.884 220.248 133.039 219.633 132.133 219.767L128.161 220.351C126.606 220.58 125.504 221.834 125.724 223.124L126.622 228.384C126.84 229.662 128.272 230.478 129.803 230.199L133.77 229.475C134.678 229.31 135.284 228.444 135.128 227.535L134.039 221.152L134.038 221.15Z" fill="white"/>
</g>
<g opacity="0.72">
<path d="M136.074 233.073C135.927 232.214 135.107 231.64 134.25 231.797L130.125 232.549C128.624 232.823 127.588 234.05 127.802 235.303L128.421 238.928C128.633 240.171 129.995 240.983 131.493 240.761L135.658 240.14C136.526 240.01 137.118 239.194 136.97 238.329L136.074 233.073Z" fill="white"/>
</g>
<g opacity="0.72">
<path d="M147.248 231.033C147.102 230.175 146.282 229.601 145.424 229.757L139.342 230.867C138.499 231.021 137.936 231.824 138.08 232.67L139.006 238.092C139.149 238.931 139.937 239.502 140.779 239.377L146.897 238.465C147.764 238.336 148.356 237.519 148.209 236.654L147.249 231.032L147.248 231.033Z" fill="white"/>
</g>
<g opacity="0.72">
<path d="M149.252 242.778C149.089 241.823 148.188 241.176 147.232 241.328L141.528 242.234C140.555 242.388 139.896 243.307 140.061 244.278L141.189 250.891C141.356 251.868 142.294 252.517 143.267 252.33L148.939 251.239C149.884 251.057 150.511 250.154 150.349 249.205L149.252 242.778Z" fill="white"/>
</g>
<g opacity="0.72">
<path d="M197.124 201.478C196.919 200.274 195.629 199.466 194.171 199.629L191.626 199.915C190.818 200.006 190.253 200.758 190.391 201.558L191.194 206.263C191.323 207.023 192.04 207.54 192.803 207.422L195.192 207.052C196.736 206.813 197.824 205.566 197.605 204.284L197.126 201.478H197.124Z" fill="white"/>
</g>
<g opacity="0.72">
<path d="M160.486 241.091C160.314 240.083 159.363 239.402 158.353 239.561L152.745 240.453C151.772 240.607 151.113 241.526 151.279 242.497L152.345 248.745C152.512 249.722 153.449 250.371 154.423 250.184L160.095 249.093C161.04 248.911 161.667 248.007 161.505 247.059L160.486 241.091Z" fill="white"/>
</g>
<g opacity="0.72">
<path d="M143.139 206.962C142.99 206.082 142.178 205.472 141.291 205.572L135.375 206.236C134.413 206.344 133.739 207.239 133.902 208.193L135.009 214.681C135.165 215.588 136.018 216.203 136.927 216.063L142.802 215.155C143.731 215.01 144.363 214.134 144.205 213.207L143.139 206.963V206.962Z" fill="white"/>
</g>
<g opacity="0.72">
<path d="M145.278 219.497C145.124 218.595 144.279 217.981 143.373 218.115L137.491 218.979C136.555 219.116 135.916 219.997 136.076 220.929L137.134 227.128C137.291 228.053 138.174 228.67 139.096 228.502L144.943 227.434C145.851 227.269 146.457 226.403 146.301 225.494L145.278 219.497Z" fill="white"/>
</g>
<path d="M192.614 193.17L192.199 193.186C191.404 193.216 190.816 193.94 190.95 194.724L191.296 196.748C191.418 197.465 192.099 197.947 192.816 197.824L192.909 197.809C193.548 197.699 194.013 197.142 194.005 196.494L193.981 194.47C193.972 193.73 193.354 193.141 192.614 193.17Z" fill="white"/>
<path d="M183.333 194.03L182.918 194.046C182.123 194.076 181.537 194.8 181.67 195.584L182.015 197.608C182.138 198.325 182.818 198.807 183.535 198.684L183.629 198.669C184.268 198.559 184.732 198.002 184.724 197.354L184.7 195.33C184.691 194.59 184.073 194.001 183.333 194.03Z" fill="white"/>
<path d="M172.025 195.873L171.61 195.889C170.815 195.919 170.228 196.643 170.362 197.427L170.707 199.451C170.83 200.168 171.51 200.65 172.227 200.528L172.321 200.512C172.96 200.402 173.424 199.845 173.416 199.197L173.392 197.173C173.383 196.433 172.765 195.844 172.025 195.873Z" fill="white"/>
<path d="M160.915 197.021L160.501 197.037C159.706 197.067 159.118 197.791 159.252 198.575L159.597 200.599C159.72 201.316 160.4 201.798 161.118 201.675L161.211 201.66C161.85 201.55 162.315 200.993 162.307 200.345L162.282 198.321C162.274 197.581 161.655 196.992 160.915 197.021Z" fill="white"/>
<path d="M149.366 197.268L148.951 197.284C148.156 197.314 147.568 198.038 147.702 198.822L148.048 200.846C148.17 201.563 148.851 202.045 149.568 201.923L149.662 201.907C150.3 201.797 150.765 201.24 150.757 200.592L150.733 198.568C150.724 197.828 150.106 197.239 149.366 197.268Z" fill="white"/>
<path d="M137.393 199.311L136.979 199.327C136.184 199.357 135.597 200.081 135.73 200.865L136.076 202.889C136.198 203.606 136.879 204.088 137.596 203.965L137.689 203.95C138.328 203.84 138.793 203.283 138.785 202.635L138.761 200.611C138.752 199.871 138.134 199.282 137.393 199.311Z" fill="white"/>
<path d="M127.227 200.608L126.812 200.623C126.017 200.654 125.43 201.377 125.564 202.161L125.909 204.185C126.032 204.902 126.712 205.385 127.429 205.262L127.523 205.246C128.162 205.137 128.626 204.579 128.618 203.932L128.594 201.908C128.585 201.167 127.967 200.579 127.227 200.608Z" fill="white"/>
<path d="M131.525 219.625C131.057 220.764 130.729 221.939 130.475 223.134C130.121 222.218 129.701 221.327 129.236 220.459C128.795 219.636 128.317 218.834 127.824 218.041C127.402 217.361 127.027 216.619 126.314 216.211C126.062 216.067 125.774 216.238 125.801 216.534C125.87 217.31 126.331 217.903 126.732 218.552C127.185 219.285 127.627 220.026 128.038 220.784C128.9 222.379 129.586 224.022 130.04 225.778C130.207 226.421 131.161 226.443 131.239 225.736C131.46 223.734 131.844 221.757 132.098 219.759C132.141 219.415 131.65 219.322 131.525 219.625Z" fill="#AA4B17"/>
<path d="M129.565 216.309C129.16 216.228 129.105 216.86 129.501 216.944C132.569 217.589 135.277 219.483 136.818 222.23C138.421 225.086 138.481 229.087 134.685 230.049C133.047 230.463 131.358 230.098 129.806 229.52C128.277 228.951 126.65 228.266 125.352 227.265C122.544 225.101 122.363 220.863 125.509 218.881C125.984 218.581 125.676 217.901 125.137 218.088C121.767 219.253 120.883 223.279 122.523 226.223C124.088 229.033 127.903 230.564 130.885 231.249C133.597 231.874 136.991 231.324 138.423 228.645C139.807 226.056 138.526 222.899 136.859 220.774C135.045 218.464 132.437 216.88 129.564 216.309H129.565Z" fill="#AA4B17"/>
<path d="M197.291 230.296C196.807 231.078 196.467 231.886 196.205 232.707C195.839 232.078 195.405 231.466 194.924 230.869C194.467 230.304 193.973 229.753 193.464 229.207C193.027 228.739 192.639 228.23 191.903 227.951C191.641 227.852 191.344 227.97 191.372 228.173C191.445 228.707 191.921 229.114 192.335 229.559C192.803 230.063 193.261 230.571 193.685 231.093C194.578 232.189 195.286 233.317 195.756 234.524C195.928 234.966 196.915 234.981 196.996 234.496C197.225 233.12 197.621 231.762 197.884 230.389C197.928 230.154 197.42 230.09 197.292 230.298L197.291 230.296Z" fill="#AA4B17"/>
<path d="M200.139 238.369C199.671 237.865 199.213 237.357 198.789 236.835C197.897 235.739 197.188 234.611 196.718 233.404C196.546 232.962 195.56 232.947 195.478 233.432C195.249 234.808 194.853 236.166 194.59 237.539C194.546 237.774 195.054 237.838 195.182 237.63C195.666 236.848 196.006 236.041 196.268 235.22C196.634 235.849 197.068 236.461 197.549 237.057C198.006 237.622 198.5 238.174 199.009 238.719C199.446 239.187 199.834 239.697 200.57 239.976C200.832 240.075 201.129 239.957 201.101 239.754C201.028 239.22 200.553 238.813 200.138 238.367L200.139 238.369Z" fill="#AA4B17"/>
<path d="M194.865 227.001C194.46 226.921 194.405 227.553 194.802 227.637C197.869 228.281 200.577 230.176 202.119 232.923C203.721 235.779 203.782 239.78 199.985 240.742C198.347 241.156 196.658 240.791 195.107 240.213C193.578 239.644 191.95 238.959 190.652 237.958C187.844 235.794 187.664 231.556 190.809 229.574C191.285 229.274 190.976 228.594 190.437 228.781C187.067 229.946 186.184 233.972 187.823 236.916C189.388 239.726 193.203 241.257 196.186 241.942C198.897 242.567 202.292 242.017 203.724 239.338C205.107 236.749 203.826 233.592 202.159 231.467C200.345 229.157 197.737 227.573 194.864 227.001H194.865Z" fill="#AA4B17"/>
<path d="M114.162 222.853C114.146 222.735 114.036 222.653 113.919 222.67H113.918C113.801 222.688 113.719 222.796 113.736 222.913L119.049 260.38C119.066 260.498 119.175 260.58 119.292 260.563H119.294C119.411 260.545 119.492 260.437 119.476 260.32L114.162 222.853Z" fill="white"/>
<path d="M111.086 201.165C111.07 201.047 110.96 200.965 110.843 200.982H110.842C110.724 201 110.643 201.108 110.66 201.225L112.516 214.311C112.533 214.429 112.642 214.511 112.76 214.494H112.761C112.878 214.476 112.959 214.368 112.943 214.251L111.086 201.165Z" fill="white"/>
<path d="M190.554 187.031C189.294 187.218 188.425 188.391 188.613 189.651C188.801 190.911 189.973 191.78 191.233 191.592C192.493 191.405 193.362 190.232 193.174 188.972C192.987 187.712 191.814 186.843 190.554 187.031Z" fill="#444444"/>
<path d="M171.845 189.636C170.585 189.824 169.716 190.997 169.903 192.257C170.091 193.516 171.264 194.385 172.524 194.198C173.784 194.01 174.652 192.837 174.465 191.578C174.277 190.318 173.104 189.449 171.845 189.636Z" fill="#444444"/>
<path d="M152.895 191.831C151.635 192.019 150.766 193.192 150.954 194.452C151.142 195.711 152.314 196.58 153.574 196.393C154.834 196.205 155.703 195.032 155.516 193.772C155.328 192.513 154.155 191.644 152.895 191.831Z" fill="#444444"/>
<path d="M134.076 193.735C132.816 193.923 131.947 195.096 132.135 196.356C132.322 197.616 133.495 198.485 134.755 198.297C136.015 198.109 136.884 196.936 136.696 195.677C136.509 194.417 135.336 193.548 134.076 193.735Z" fill="#444444"/>
<path d="M130.331 180.472C125.35 180.138 125.373 188.122 125.373 188.122L127.566 187.796C127.322 183.82 129.402 183.877 129.402 183.877C132.298 183.934 132.921 192.959 133.051 196.107C133.062 196.378 133.187 196.633 133.397 196.806C133.606 196.979 133.88 197.056 134.148 197.017C135.115 196.873 135.807 196.01 135.737 195.033C135.435 190.889 134.294 180.738 130.332 180.472H130.331Z" fill="#EA7839"/>
<path d="M149.092 178.209C144.111 177.875 144.133 185.852 144.133 185.852L146.325 185.526C146.094 181.635 148.163 181.614 148.163 181.614C151.059 181.671 151.683 190.704 151.813 193.852C151.824 194.123 151.949 194.377 152.159 194.55C152.368 194.723 152.642 194.8 152.91 194.76C153.877 194.616 154.569 193.75 154.498 192.775C154.196 188.63 153.055 178.476 149.092 178.211V178.209Z" fill="#EA7839"/>
<path d="M167.857 175.949C162.875 175.615 162.896 183.586 162.896 183.586L165.101 183.336C164.868 179.425 166.927 179.352 166.927 179.352C169.824 179.408 170.448 188.447 170.579 191.594C170.59 191.866 170.715 192.119 170.925 192.292C171.134 192.465 171.407 192.541 171.675 192.501C172.643 192.357 173.335 191.49 173.264 190.515C172.962 186.37 171.821 176.214 167.858 175.949H167.857Z" fill="#EA7839"/>
<path d="M186.63 173.771C181.649 173.437 181.669 181.398 181.669 181.398L183.862 181.072C183.63 177.181 185.701 177.174 185.701 177.174C188.597 177.231 189.224 186.279 189.354 189.426C189.365 189.698 189.49 189.951 189.699 190.124C189.907 190.297 190.18 190.372 190.449 190.332C191.416 190.188 192.108 189.319 192.037 188.343C191.736 184.198 190.593 174.036 186.63 173.771Z" fill="#EA7839"/>
</svg>
