<svg width="40" height="41" viewBox="0 0 40 41" fill="none" xmlns="http://www.w3.org/2000/svg">
<g id="Frame 1000002943">
<g id="Group 42">
<path id="Vector" d="M30.9727 34.0321C31.5249 34.0321 31.9727 33.5844 31.9727 33.0321C31.9727 32.4798 31.5249 32.0321 30.9727 32.0321V34.0321ZM0 34.0321H30.9727V32.0321H0V34.0321Z" fill="#F26C23"/>
<path id="Vector_2" d="M28.016 33.0321V9.36035C28.016 8.99105 27.8693 8.63687 27.6082 8.37574C27.347 8.1146 26.9928 7.9679 26.6235 7.9679H12.699C12.3297 7.9679 11.9755 8.1146 11.7144 8.37574C11.4532 8.63687 11.3065 8.99105 11.3065 9.36035V33.0321" stroke="#F26C23" stroke-width="2" stroke-linecap="round" stroke-linejoin="round"/>
<path id="Vector_3" d="M15.4883 13.5377H23.843" stroke="#F26C23" stroke-width="2" stroke-linecap="round" stroke-linejoin="round"/>
<path id="Vector_4" d="M15.4883 18.8904H23.843" stroke="#F26C23" stroke-width="2" stroke-linecap="round" stroke-linejoin="round"/>
<path id="Vector_5" d="M2.95312 33.0321V14.9302C2.95312 14.5609 3.09983 14.2067 3.36097 13.9456C3.6221 13.6844 3.97628 13.5377 4.34558 13.5377H11.3079" stroke="#F26C23" stroke-width="2" stroke-linecap="round" stroke-linejoin="round"/>
<path id="Vector_6" d="M22.4473 33.0322V27.4623" stroke="#F26C23" stroke-width="2" stroke-linecap="round" stroke-linejoin="round"/>
<path id="Vector_7" d="M16.8789 27.4623V33.0322" stroke="#F26C23" stroke-width="2" stroke-linecap="round" stroke-linejoin="round"/>
<path id="Vector_8" d="M23.843 27.4623H15.4883" stroke="#F26C23" stroke-width="2" stroke-linecap="round" stroke-linejoin="round"/>
</g>
</g>
</svg>
