<svg width="78" height="22" viewBox="0 0 78 22" fill="none" xmlns="http://www.w3.org/2000/svg">
<g id="Group 19">
<g id="Group 20">
<path id="liteAPI" d="M0 21.1294V1.15869H3.43158V21.1294H0Z" fill="white"/>
<path id="liteAPI_2" d="M19.9962 18.2321C20.39 18.2602 20.9525 18.2321 21.5151 18.1758V21.0448C20.8119 21.1011 20.1087 21.1292 19.518 21.1292C15.8052 21.1292 13.8081 19.2447 13.8081 15.7006V3.38062H17.2397V7.34663H21.4307V10.1031H17.2397V15.588C17.2397 17.3601 17.8304 18.2321 19.9962 18.2321Z" fill="white"/>
<path id="liteAPI_3" d="M35.8791 14.1817V14.8849H26.0063C26.2595 17.1352 27.5815 18.4009 29.5504 18.4009C31.6037 18.4009 32.3632 17.3321 32.5882 16.4882H35.8229C35.3447 18.9072 33.432 21.1293 29.4098 21.1293C25.1906 21.1293 22.631 18.204 22.631 14.1255C22.631 9.96258 25.5 7.06543 29.4379 7.06543C33.5164 7.06543 35.8791 9.8782 35.8791 14.1817ZM29.466 9.70944C27.7502 9.70944 26.4282 10.7502 26.0626 12.7754H32.6163C32.335 10.6658 31.1818 9.70944 29.466 9.70944Z" fill="white"/>
<g id="liteAPI_4">
<path d="M51.8036 21.1291L50.3129 16.7412H42.2683L40.7776 21.1291H37.3179L44.2935 1.8335H48.2877L55.2634 21.1291H51.8036ZM43.2528 13.9284H49.3284L46.2906 5.04006L43.2528 13.9284Z" fill="white"/>
<path d="M64.9483 1.8335C69.0268 1.8335 71.699 3.91495 71.699 7.76845C71.699 11.5938 69.0268 13.7878 64.9483 13.7878H60.6729V21.1291H57.2413V1.8335H64.9483ZM64.9483 10.9188C67.086 10.9188 68.2111 9.59675 68.2111 7.79657C68.2111 6.02453 67.086 4.70252 64.9483 4.70252H60.6729V10.9188H64.9483Z" fill="white"/>
<path d="M74.1487 21.1291V1.8335H77.5803V21.1291H74.1487Z" fill="white"/>
</g>
<g id="Group 18">
<path id="liteAPI_5" d="M6.60791 21.1293V7.34668H10.0395V21.1293H6.60791Z" fill="white"/>
<path id="liteAPI_6" d="M8.32368 4.97256C9.47736 4.97256 10.3747 4.12571 10.3747 2.90835C10.3747 1.74393 9.47736 0.870605 8.32368 0.870605C7.17001 0.870605 6.27271 1.74393 6.27271 2.90835C6.27271 4.12571 7.17001 4.97256 8.32368 4.97256Z" fill="white"/>
</g>
</g>
</g>
</svg>
