<svg width="522" height="298" viewBox="0 0 522 298" fill="none" xmlns="http://www.w3.org/2000/svg">
<g filter="url(#filter0_d_1_1793)">
<rect x="22.144" y="17.3102" width="477.655" height="253.38" rx="10.2721" fill="white"/>
<rect x="22.572" y="17.7382" width="476.799" height="252.524" rx="9.84414" stroke="#F1F1F2" stroke-width="0.856012"/>
<path d="M58.9526 234.737L486.103 234.737" stroke="#F7F7F7" stroke-width="0.599209"/>
<path d="M58.9526 180.375L486.103 180.375" stroke="#F7F7F7" stroke-width="0.599209"/>
<path d="M58.9526 204.343L486.103 204.343" stroke="#F7F7F7" stroke-width="0.599209"/>
<path d="M58.9526 156.407L486.103 156.406" stroke="#F7F7F7" stroke-width="0.599209"/>
<path d="M58.9526 132.438L486.103 132.438" stroke="#F7F7F7" stroke-width="0.599209"/>
<path d="M58.9526 108.47L486.103 108.47" stroke="#F7F7F7" stroke-width="0.599209"/>
<path d="M58.9526 84.5015L486.103 84.5014" stroke="#F7F7F7" stroke-width="0.599209"/>
<path d="M36.9443 46.0064V34.8005H41.2341C42.0439 34.8005 42.7169 34.9281 43.2531 35.1835C43.793 35.4352 44.1961 35.7799 44.4624 36.2176C44.7323 36.6554 44.8673 37.1515 44.8673 37.7059C44.8673 38.1619 44.7797 38.5522 44.6046 38.8769C44.4295 39.1979 44.1943 39.4587 43.8988 39.6593C43.6033 39.8599 43.2732 40.004 42.9084 40.0916V40.201C43.306 40.2229 43.6872 40.3451 44.052 40.5676C44.4204 40.7865 44.7214 41.0965 44.9548 41.4978C45.1883 41.899 45.305 42.3842 45.305 42.9532C45.305 43.5332 45.1646 44.0549 44.8837 44.5181C44.6028 44.9778 44.1797 45.3407 43.6143 45.607C43.0489 45.8733 42.3375 46.0064 41.4803 46.0064H36.9443ZM38.9743 44.3102H41.1575C41.8943 44.3102 42.4251 44.1698 42.7497 43.8889C43.078 43.6044 43.2422 43.2396 43.2422 42.7946C43.2422 42.4626 43.1601 42.1635 42.996 41.8972C42.8318 41.6273 42.5984 41.4157 42.2956 41.2625C41.9928 41.1056 41.6317 41.0272 41.2122 41.0272H38.9743V44.3102ZM38.9743 39.5663H40.9824C41.3326 39.5663 41.6481 39.5024 41.929 39.3748C42.2099 39.2435 42.4306 39.0592 42.5911 38.8221C42.7552 38.5814 42.8373 38.2969 42.8373 37.9686C42.8373 37.5345 42.6841 37.177 42.3777 36.8961C42.0749 36.6152 41.6244 36.4748 41.0262 36.4748H38.9743V39.5663ZM50.8035 46.1706C49.9828 46.1706 49.2715 45.99 48.6696 45.6289C48.0677 45.2678 47.6008 44.7625 47.2688 44.1132C46.9405 43.4639 46.7764 42.7052 46.7764 41.837C46.7764 40.9689 46.9405 40.2083 47.2688 39.5553C47.6008 38.9024 48.0677 38.3953 48.6696 38.0342C49.2715 37.6731 49.9828 37.4925 50.8035 37.4925C51.6243 37.4925 52.3356 37.6731 52.9375 38.0342C53.5394 38.3953 54.0045 38.9024 54.3328 39.5553C54.6647 40.2083 54.8307 40.9689 54.8307 41.837C54.8307 42.7052 54.6647 43.4639 54.3328 44.1132C54.0045 44.7625 53.5394 45.2678 52.9375 45.6289C52.3356 45.99 51.6243 46.1706 50.8035 46.1706ZM50.8145 44.5838C51.2595 44.5838 51.6316 44.4616 51.9307 44.2172C52.2298 43.9692 52.4523 43.6372 52.5983 43.2214C52.7478 42.8055 52.8226 42.3422 52.8226 41.8316C52.8226 41.3172 52.7478 40.8521 52.5983 40.4363C52.4523 40.0168 52.2298 39.683 51.9307 39.435C51.6316 39.1869 51.2595 39.0629 50.8145 39.0629C50.3585 39.0629 49.9791 39.1869 49.6764 39.435C49.3773 39.683 49.1529 40.0168 49.0034 40.4363C48.8575 40.8521 48.7845 41.3172 48.7845 41.8316C48.7845 42.3422 48.8575 42.8055 49.0034 43.2214C49.1529 43.6372 49.3773 43.9692 49.6764 44.2172C49.9791 44.4616 50.3585 44.5838 50.8145 44.5838ZM60.332 46.1706C59.5112 46.1706 58.7999 45.99 58.198 45.6289C57.5961 45.2678 57.1292 44.7625 56.7973 44.1132C56.469 43.4639 56.3048 42.7052 56.3048 41.837C56.3048 40.9689 56.469 40.2083 56.7973 39.5553C57.1292 38.9024 57.5961 38.3953 58.198 38.0342C58.7999 37.6731 59.5112 37.4925 60.332 37.4925C61.1527 37.4925 61.864 37.6731 62.4659 38.0342C63.0678 38.3953 63.5329 38.9024 63.8612 39.5553C64.1931 40.2083 64.3591 40.9689 64.3591 41.837C64.3591 42.7052 64.1931 43.4639 63.8612 44.1132C63.5329 44.7625 63.0678 45.2678 62.4659 45.6289C61.864 45.99 61.1527 46.1706 60.332 46.1706ZM60.3429 44.5838C60.7879 44.5838 61.16 44.4616 61.4591 44.2172C61.7582 43.9692 61.9808 43.6372 62.1267 43.2214C62.2762 42.8055 62.351 42.3422 62.351 41.8316C62.351 41.3172 62.2762 40.8521 62.1267 40.4363C61.9808 40.0168 61.7582 39.683 61.4591 39.435C61.16 39.1869 60.7879 39.0629 60.3429 39.0629C59.8869 39.0629 59.5076 39.1869 59.2048 39.435C58.9057 39.683 58.6813 40.0168 58.5318 40.4363C58.3859 40.8521 58.3129 41.3172 58.3129 41.8316C58.3129 42.3422 58.3859 42.8055 58.5318 43.2214C58.6813 43.6372 58.9057 43.9692 59.2048 44.2172C59.5076 44.4616 59.8869 44.5838 60.3429 44.5838ZM68 43.3691L67.9945 40.978H68.3119L71.3323 37.602H73.6468L69.9315 41.7385H69.5211L68 43.3691ZM66.1944 46.0064V34.8005H68.1751V46.0064H66.1944ZM71.4691 46.0064L68.7332 42.1817L70.0683 40.7865L73.8383 46.0064H71.4691ZM75.1209 46.0064V37.602H77.1016V46.0064H75.1209ZM76.1167 36.4091C75.803 36.4091 75.5331 36.3052 75.3069 36.0972C75.0808 35.8857 74.9677 35.6322 74.9677 35.3367C74.9677 35.0376 75.0808 34.784 75.3069 34.5761C75.5331 34.3645 75.803 34.2588 76.1167 34.2588C76.4341 34.2588 76.704 34.3645 76.9266 34.5761C77.1527 34.784 77.2658 35.0376 77.2658 35.3367C77.2658 35.6322 77.1527 35.8857 76.9266 36.0972C76.704 36.3052 76.4341 36.4091 76.1167 36.4091ZM81.2733 41.0819V46.0064H79.2926V37.602H81.1858V39.0301H81.2842C81.4776 38.5595 81.7858 38.1856 82.209 37.9084C82.6357 37.6311 83.1629 37.4925 83.7903 37.4925C84.3703 37.4925 84.8755 37.6165 85.3059 37.8646C85.74 38.1126 86.0756 38.472 86.3127 38.9425C86.5535 39.4131 86.672 39.984 86.6684 40.6551V46.0064H84.6876V40.9616C84.6876 40.3998 84.5417 39.9602 84.2499 39.6429C83.9617 39.3255 83.5623 39.1669 83.0516 39.1669C82.7051 39.1669 82.3968 39.2435 82.1269 39.3967C81.8606 39.5462 81.6508 39.7633 81.4976 40.0478C81.3481 40.3323 81.2733 40.677 81.2733 41.0819ZM92.4911 49.3332C91.7798 49.3332 91.1688 49.2365 90.6581 49.0432C90.1474 48.8535 89.737 48.5982 89.427 48.2772C89.1169 47.9562 88.9017 47.6005 88.7813 47.2102L90.5651 46.7779C90.6453 46.9421 90.7621 47.1044 90.9153 47.2649C91.0685 47.4291 91.2746 47.564 91.5336 47.6698C91.7962 47.7793 92.1263 47.834 92.5239 47.834C93.0857 47.834 93.5508 47.6972 93.9192 47.4236C94.2876 47.1537 94.4718 46.7086 94.4718 46.0885V44.4963H94.3734C94.2712 44.7005 94.1217 44.9103 93.9247 45.1255C93.7313 45.3407 93.4742 45.5213 93.1532 45.6672C92.8358 45.8131 92.4364 45.8861 91.9549 45.8861C91.3092 45.8861 90.7238 45.7347 90.1985 45.4319C89.6768 45.1255 89.261 44.6695 88.9509 44.064C88.6445 43.4548 88.4913 42.6924 88.4913 41.7768C88.4913 40.854 88.6445 40.0751 88.9509 39.4404C89.261 38.8021 89.6787 38.3187 90.2039 37.9904C90.7292 37.6585 91.3147 37.4925 91.9603 37.4925C92.4528 37.4925 92.8577 37.5764 93.1751 37.7442C93.4961 37.9084 93.7514 38.1072 93.9411 38.3406C94.1308 38.5704 94.2749 38.7875 94.3734 38.9918H94.4828V37.602H96.4362V46.1432C96.4362 46.8618 96.2647 47.4564 95.9218 47.927C95.5789 48.3976 95.1102 48.7496 94.5156 48.983C93.921 49.2165 93.2462 49.3332 92.4911 49.3332ZM92.5075 44.3321C92.927 44.3321 93.2845 44.23 93.58 44.0257C93.8754 43.8214 94.0998 43.5278 94.253 43.1448C94.4062 42.7617 94.4828 42.3021 94.4828 41.7659C94.4828 41.237 94.4062 40.7737 94.253 40.3761C94.1034 39.9785 93.8809 39.6702 93.5854 39.4514C93.2936 39.2289 92.9343 39.1176 92.5075 39.1176C92.0661 39.1176 91.6977 39.2325 91.4022 39.4623C91.1068 39.6921 90.8843 40.0077 90.7347 40.4089C90.5851 40.8065 90.5104 41.2589 90.5104 41.7659C90.5104 42.2802 90.5851 42.7307 90.7347 43.1174C90.8879 43.5004 91.1122 43.7995 91.4077 44.0148C91.7068 44.2263 92.0734 44.3321 92.5075 44.3321ZM105.263 39.8235L103.457 40.0204C103.406 39.838 103.317 39.6666 103.189 39.5061C103.065 39.3456 102.897 39.2161 102.686 39.1176C102.474 39.0191 102.215 38.9699 101.909 38.9699C101.497 38.9699 101.15 39.0592 100.869 39.238C100.592 39.4167 100.455 39.6484 100.459 39.9329C100.455 40.1773 100.544 40.3761 100.727 40.5293C100.913 40.6825 101.219 40.8084 101.646 40.9068L103.08 41.2133C103.875 41.3847 104.466 41.6565 104.852 42.0285C105.243 42.4006 105.44 42.8876 105.443 43.4895C105.44 44.0184 105.285 44.4853 104.978 44.8902C104.676 45.2915 104.254 45.6052 103.714 45.8313C103.174 46.0575 102.554 46.1706 101.854 46.1706C100.825 46.1706 99.9973 45.9554 99.3699 45.5249C98.7424 45.0908 98.3685 44.4871 98.2482 43.7138L100.18 43.5278C100.267 43.9071 100.453 44.1935 100.738 44.3868C101.022 44.5802 101.393 44.6768 101.849 44.6768C102.319 44.6768 102.697 44.5802 102.981 44.3868C103.269 44.1935 103.413 43.9546 103.413 43.67C103.413 43.4293 103.32 43.2305 103.134 43.0736C102.952 42.9168 102.667 42.7964 102.281 42.7125L100.847 42.4116C100.041 42.2438 99.4446 41.9611 99.058 41.5634C98.6713 41.1622 98.4798 40.6551 98.4835 40.0423C98.4798 39.5243 98.6202 39.0757 98.9048 38.6963C99.1929 38.3133 99.5924 38.0178 100.103 37.8099C100.617 37.5983 101.21 37.4925 101.881 37.4925C102.866 37.4925 103.641 37.7023 104.207 38.1218C104.776 38.5413 105.128 39.1085 105.263 39.8235ZM114.873 46.1706C114.052 46.1706 113.341 45.99 112.739 45.6289C112.137 45.2678 111.67 44.7625 111.338 44.1132C111.01 43.4639 110.846 42.7052 110.846 41.837C110.846 40.9689 111.01 40.2083 111.338 39.5553C111.67 38.9024 112.137 38.3953 112.739 38.0342C113.341 37.6731 114.052 37.4925 114.873 37.4925C115.694 37.4925 116.405 37.6731 117.007 38.0342C117.609 38.3953 118.074 38.9024 118.402 39.5553C118.734 40.2083 118.9 40.9689 118.9 41.837C118.9 42.7052 118.734 43.4639 118.402 44.1132C118.074 44.7625 117.609 45.2678 117.007 45.6289C116.405 45.99 115.694 46.1706 114.873 46.1706ZM114.884 44.5838C115.329 44.5838 115.701 44.4616 116 44.2172C116.299 43.9692 116.522 43.6372 116.668 43.2214C116.817 42.8055 116.892 42.3422 116.892 41.8316C116.892 41.3172 116.817 40.8521 116.668 40.4363C116.522 40.0168 116.299 39.683 116 39.435C115.701 39.1869 115.329 39.0629 114.884 39.0629C114.428 39.0629 114.048 39.1869 113.746 39.435C113.447 39.683 113.222 40.0168 113.073 40.4363C112.927 40.8521 112.854 41.3172 112.854 41.8316C112.854 42.3422 112.927 42.8055 113.073 43.2214C113.222 43.6372 113.447 43.9692 113.746 44.2172C114.048 44.4616 114.428 44.5838 114.884 44.5838ZM127.956 37.602L124.963 46.0064H122.775L119.782 37.602H121.894L123.825 43.8451H123.913L125.85 37.602H127.956ZM132.916 46.1706C132.073 46.1706 131.346 45.9955 130.733 45.6453C130.124 45.2915 129.655 44.7917 129.327 44.1461C128.998 43.4968 128.834 42.7326 128.834 41.8534C128.834 40.9889 128.998 40.2302 129.327 39.5772C129.659 38.9206 130.122 38.4099 130.716 38.0452C131.311 37.6767 132.01 37.4925 132.812 37.4925C133.33 37.4925 133.819 37.5764 134.279 37.7442C134.742 37.9084 135.15 38.1637 135.504 38.5103C135.862 38.8568 136.143 39.2982 136.347 39.8344C136.551 40.367 136.653 41.0017 136.653 41.7385V42.3459H129.764V41.0108H134.755C134.751 40.6314 134.669 40.294 134.508 39.9985C134.348 39.6994 134.123 39.4641 133.835 39.2927C133.551 39.1213 133.219 39.0355 132.839 39.0355C132.435 39.0355 132.079 39.134 131.772 39.331C131.466 39.5243 131.227 39.7797 131.056 40.097C130.888 40.4107 130.802 40.7555 130.799 41.1312V42.2966C130.799 42.7854 130.888 43.2049 131.067 43.5551C131.245 43.9017 131.495 44.168 131.816 44.354C132.137 44.5364 132.513 44.6276 132.943 44.6276C133.232 44.6276 133.492 44.5875 133.726 44.5072C133.959 44.4233 134.162 44.3011 134.333 44.1406C134.505 43.9801 134.634 43.7813 134.722 43.5442L136.571 43.7521C136.454 44.2409 136.232 44.6677 135.904 45.0325C135.579 45.3936 135.163 45.6745 134.656 45.8751C134.149 46.0721 133.569 46.1706 132.916 46.1706ZM138.483 46.0064V37.602H140.404V39.0027H140.491C140.644 38.5175 140.907 38.1437 141.279 37.881C141.655 37.6147 142.083 37.4816 142.565 37.4816C142.674 37.4816 142.797 37.487 142.931 37.498C143.07 37.5053 143.185 37.5181 143.276 37.5363V39.3584C143.192 39.3292 143.059 39.3036 142.877 39.2818C142.698 39.2562 142.525 39.2435 142.357 39.2435C141.996 39.2435 141.671 39.3219 141.383 39.4787C141.098 39.6319 140.874 39.8453 140.71 40.1189C140.546 40.3925 140.464 40.708 140.464 41.0655V46.0064H138.483ZM152.509 37.602L149.516 46.0064H147.327L144.334 37.602H146.447L148.378 43.8451H148.466L150.403 37.602H152.509ZM154.034 46.0064V37.602H156.015V46.0064H154.034ZM155.03 36.4091C154.716 36.4091 154.446 36.3052 154.22 36.0972C153.994 35.8857 153.881 35.6322 153.881 35.3367C153.881 35.0376 153.994 34.784 154.22 34.5761C154.446 34.3645 154.716 34.2588 155.03 34.2588C155.347 34.2588 155.617 34.3645 155.84 34.5761C156.066 34.784 156.179 35.0376 156.179 35.3367C156.179 35.6322 156.066 35.8857 155.84 36.0972C155.617 36.3052 155.347 36.4091 155.03 36.4091ZM161.926 46.1706C161.084 46.1706 160.356 45.9955 159.743 45.6453C159.134 45.2915 158.665 44.7917 158.337 44.1461C158.009 43.4968 157.844 42.7326 157.844 41.8534C157.844 40.9889 158.009 40.2302 158.337 39.5772C158.669 38.9206 159.132 38.4099 159.727 38.0452C160.321 37.6767 161.02 37.4925 161.822 37.4925C162.34 37.4925 162.829 37.5764 163.289 37.7442C163.752 37.9084 164.161 38.1637 164.514 38.5103C164.872 38.8568 165.153 39.2982 165.357 39.8344C165.561 40.367 165.663 41.0017 165.663 41.7385V42.3459H158.775V41.0108H163.765C163.761 40.6314 163.679 40.294 163.519 39.9985C163.358 39.6994 163.134 39.4641 162.845 39.2927C162.561 39.1213 162.229 39.0355 161.85 39.0355C161.445 39.0355 161.089 39.134 160.783 39.331C160.476 39.5243 160.237 39.7797 160.066 40.097C159.898 40.4107 159.812 40.7555 159.809 41.1312V42.2966C159.809 42.7854 159.898 43.2049 160.077 43.5551C160.256 43.9017 160.505 44.168 160.826 44.354C161.147 44.5364 161.523 44.6276 161.954 44.6276C162.242 44.6276 162.503 44.5875 162.736 44.5072C162.97 44.4233 163.172 44.3011 163.343 44.1406C163.515 43.9801 163.644 43.7813 163.732 43.5442L165.581 43.7521C165.465 44.2409 165.242 44.6677 164.914 45.0325C164.589 45.3936 164.173 45.6745 163.666 45.8751C163.159 46.0721 162.579 46.1706 161.926 46.1706ZM169.183 46.0064L166.808 37.602H168.827L170.304 43.5114H170.381L171.891 37.602H173.888L175.398 43.4785H175.48L176.936 37.602H178.96L176.58 46.0064H174.517L172.942 40.3268H172.827L171.251 46.0064H169.183Z" fill="#19172C"/>
<rect x="296.354" y="34.8584" width="11.1282" height="11.1282" rx="3.85206" fill="white"/>
<rect x="296.354" y="34.8584" width="11.1282" height="11.1282" rx="3.85206" stroke="#D6DCE4" stroke-width="0.856012"/>
<rect x="299.35" y="37.8544" width="5.13607" height="5.13607" rx="2.56804" fill="#3DC80C"/>
<path d="M320.613 39.2215H319.665C319.629 39.0188 319.561 38.8405 319.461 38.6865C319.362 38.5324 319.24 38.4017 319.097 38.2943C318.953 38.1869 318.792 38.1058 318.613 38.0511C318.437 37.9964 318.249 37.9691 318.051 37.9691C317.692 37.9691 317.371 38.0592 317.087 38.2396C316.806 38.42 316.583 38.6844 316.418 39.033C316.256 39.3816 316.175 39.8071 316.175 40.3097C316.175 40.8163 316.256 41.244 316.418 41.5925C316.583 41.9411 316.807 42.2045 317.09 42.3829C317.374 42.5612 317.693 42.6504 318.048 42.6504C318.244 42.6504 318.431 42.624 318.607 42.5713C318.785 42.5166 318.947 42.4366 319.09 42.3312C319.234 42.2258 319.356 42.0971 319.455 41.9451C319.557 41.7911 319.626 41.6148 319.665 41.4162L320.613 41.4192C320.563 41.7253 320.464 42.0069 320.319 42.2643C320.175 42.5197 319.989 42.7406 319.762 42.927C319.537 43.1114 319.28 43.2543 318.99 43.3556C318.7 43.4569 318.384 43.5076 318.042 43.5076C317.503 43.5076 317.022 43.3799 316.601 43.1246C316.179 42.8672 315.847 42.4994 315.604 42.0211C315.363 41.5429 315.242 40.9724 315.242 40.3097C315.242 39.645 315.364 39.0745 315.607 38.5983C315.85 38.12 316.182 37.7532 316.604 37.4979C317.025 37.2405 317.505 37.1118 318.042 37.1118C318.372 37.1118 318.68 37.1595 318.966 37.2547C319.254 37.3479 319.512 37.4857 319.741 37.6681C319.97 37.8485 320.159 38.0694 320.309 38.3308C320.459 38.5902 320.561 38.8871 320.613 39.2215ZM323.631 43.5167C323.193 43.5167 322.811 43.4164 322.485 43.2158C322.159 43.0151 321.906 42.7345 321.725 42.3737C321.545 42.013 321.455 41.5915 321.455 41.1092C321.455 40.6248 321.545 40.2013 321.725 39.8385C321.906 39.4758 322.159 39.1941 322.485 38.9935C322.811 38.7928 323.193 38.6925 323.631 38.6925C324.069 38.6925 324.451 38.7928 324.777 38.9935C325.103 39.1941 325.357 39.4758 325.537 39.8385C325.718 40.2013 325.808 40.6248 325.808 41.1092C325.808 41.5915 325.718 42.013 325.537 42.3737C325.357 42.7345 325.103 43.0151 324.777 43.2158C324.451 43.4164 324.069 43.5167 323.631 43.5167ZM323.634 42.7537C323.918 42.7537 324.153 42.6787 324.339 42.5288C324.526 42.3788 324.664 42.1792 324.753 41.9299C324.844 41.6807 324.89 41.4061 324.89 41.1061C324.89 40.8082 324.844 40.5347 324.753 40.2854C324.664 40.0341 324.526 39.8325 324.339 39.6805C324.153 39.5285 323.918 39.4525 323.634 39.4525C323.348 39.4525 323.111 39.5285 322.923 39.6805C322.736 39.8325 322.598 40.0341 322.506 40.2854C322.417 40.5347 322.373 40.8082 322.373 41.1061C322.373 41.4061 322.417 41.6807 322.506 41.9299C322.598 42.1792 322.736 42.3788 322.923 42.5288C323.111 42.6787 323.348 42.7537 323.634 42.7537ZM327.731 40.6502V43.4225H326.822V38.7533H327.695V39.5133H327.752C327.86 39.266 328.028 39.0674 328.257 38.9175C328.488 38.7675 328.779 38.6925 329.129 38.6925C329.448 38.6925 329.726 38.7594 329.965 38.8932C330.205 39.0249 330.39 39.2215 330.522 39.4829C330.653 39.7443 330.719 40.0675 330.719 40.4526V43.4225H329.81V40.562C329.81 40.2236 329.722 39.9591 329.546 39.7686C329.37 39.5761 329.127 39.4798 328.819 39.4798C328.609 39.4798 328.421 39.5254 328.257 39.6166C328.095 39.7078 327.966 39.8416 327.871 40.0179C327.778 40.1922 327.731 40.4029 327.731 40.6502ZM334.16 38.7533V39.4829H331.522V38.7533H334.16ZM332.245 43.4225V38.2122C332.245 37.9204 332.309 37.6782 332.437 37.4857C332.564 37.2912 332.734 37.1463 332.944 37.051C333.155 36.9538 333.384 36.9051 333.631 36.9051C333.814 36.9051 333.97 36.9203 334.1 36.9507C334.229 36.9791 334.326 37.0054 334.388 37.0298L334.176 37.7654C334.133 37.7532 334.078 37.739 334.011 37.7228C333.945 37.7046 333.863 37.6955 333.768 37.6955C333.547 37.6955 333.389 37.7502 333.294 37.8596C333.201 37.9691 333.154 38.1271 333.154 38.3338V43.4225H332.245ZM335.098 43.4225V38.7533H336.007V43.4225H335.098ZM335.557 38.0329C335.399 38.0329 335.263 37.9802 335.15 37.8748C335.038 37.7674 334.983 37.6397 334.983 37.4918C334.983 37.3418 335.038 37.2142 335.15 37.1088C335.263 37.0014 335.399 36.9477 335.557 36.9477C335.715 36.9477 335.85 37.0014 335.961 37.1088C336.075 37.2142 336.132 37.3418 336.132 37.4918C336.132 37.6397 336.075 37.7674 335.961 37.8748C335.85 37.9802 335.715 38.0329 335.557 38.0329ZM337.23 43.4225V38.7533H338.108V39.495H338.157C338.242 39.2438 338.392 39.0462 338.607 38.9023C338.824 38.7564 339.069 38.6834 339.342 38.6834C339.399 38.6834 339.466 38.6854 339.543 38.6895C339.622 38.6935 339.684 38.6986 339.729 38.7047V39.5741C339.692 39.5639 339.627 39.5528 339.534 39.5406C339.441 39.5265 339.348 39.5194 339.254 39.5194C339.04 39.5194 338.848 39.565 338.68 39.6562C338.514 39.7453 338.382 39.87 338.285 40.0301C338.187 40.1881 338.139 40.3685 338.139 40.5711V43.4225H337.23ZM340.515 43.4225V38.7533H341.388V39.5133H341.445C341.543 39.2559 341.702 39.0553 341.923 38.9114C342.143 38.7655 342.408 38.6925 342.716 38.6925C343.028 38.6925 343.289 38.7655 343.5 38.9114C343.713 39.0573 343.87 39.2579 343.971 39.5133H344.02C344.131 39.264 344.309 39.0654 344.552 38.9175C344.795 38.7675 345.085 38.6925 345.421 38.6925C345.845 38.6925 346.19 38.8253 346.458 39.0907C346.727 39.3562 346.862 39.7565 346.862 40.2915V43.4225H345.953V40.3766C345.953 40.0604 345.867 39.8314 345.695 39.6896C345.523 39.5477 345.317 39.4768 345.078 39.4768C344.782 39.4768 344.552 39.568 344.388 39.7504C344.224 39.9307 344.142 40.1628 344.142 40.4465V43.4225H343.236V40.3188C343.236 40.0655 343.157 39.8618 342.999 39.7078C342.841 39.5538 342.635 39.4768 342.382 39.4768C342.209 39.4768 342.05 39.5224 341.904 39.6136C341.76 39.7028 341.644 39.8274 341.555 39.9875C341.468 40.1476 341.424 40.333 341.424 40.5438V43.4225H340.515ZM350.093 43.5167C349.633 43.5167 349.237 43.4184 348.904 43.2219C348.574 43.0233 348.319 42.7446 348.138 42.3859C347.96 42.0252 347.871 41.6026 347.871 41.1183C347.871 40.64 347.96 40.2185 348.138 39.8537C348.319 39.489 348.57 39.2042 348.892 38.9996C349.216 38.7949 349.595 38.6925 350.029 38.6925C350.292 38.6925 350.548 38.7361 350.795 38.8232C351.042 38.9104 351.264 39.0472 351.461 39.2336C351.657 39.4201 351.812 39.6622 351.926 39.9601C352.039 40.256 352.096 40.6157 352.096 41.0393V41.3615H348.384V40.6806H351.205C351.205 40.4414 351.157 40.2297 351.059 40.0452C350.962 39.8588 350.825 39.7119 350.649 39.6045C350.475 39.4971 350.27 39.4434 350.035 39.4434C349.78 39.4434 349.557 39.5062 349.366 39.6318C349.178 39.7555 349.032 39.9176 348.929 40.1182C348.827 40.3168 348.777 40.5326 348.777 40.7657V41.2977C348.777 41.6097 348.831 41.8752 348.941 42.0941C349.052 42.313 349.207 42.4801 349.406 42.5957C349.604 42.7091 349.836 42.7659 350.102 42.7659C350.274 42.7659 350.431 42.7416 350.573 42.6929C350.715 42.6423 350.838 42.5673 350.941 42.468C351.044 42.3687 351.123 42.2461 351.178 42.1002L352.038 42.2552C351.969 42.5085 351.846 42.7304 351.667 42.9209C351.491 43.1094 351.269 43.2563 351.002 43.3617C350.736 43.465 350.433 43.5167 350.093 43.5167ZM354.852 43.5137C354.475 43.5137 354.139 43.4174 353.843 43.2249C353.549 43.0303 353.318 42.7537 353.15 42.395C352.984 42.0343 352.901 41.6016 352.901 41.097C352.901 40.5924 352.985 40.1608 353.153 39.8021C353.323 39.4434 353.556 39.1688 353.852 38.9783C354.148 38.7878 354.484 38.6925 354.858 38.6925C355.148 38.6925 355.381 38.7412 355.558 38.8384C355.736 38.9337 355.874 39.0451 355.971 39.1728C356.07 39.3005 356.147 39.413 356.202 39.5102H356.257V37.1969H357.166V43.4225H356.278V42.696H356.202C356.147 42.7953 356.068 42.9088 355.965 43.0364C355.864 43.1641 355.724 43.2756 355.545 43.3708C355.367 43.4661 355.136 43.5137 354.852 43.5137ZM355.053 42.7385C355.314 42.7385 355.535 42.6696 355.716 42.5318C355.898 42.392 356.036 42.1985 356.129 41.9512C356.224 41.704 356.272 41.4162 356.272 41.0879C356.272 40.7637 356.225 40.4799 356.132 40.2368C356.039 39.9936 355.902 39.8041 355.722 39.6683C355.541 39.5325 355.318 39.4646 355.053 39.4646C354.779 39.4646 354.551 39.5356 354.369 39.6774C354.187 39.8193 354.049 40.0128 353.956 40.258C353.864 40.5032 353.819 40.7799 353.819 41.0879C353.819 41.4 353.865 41.6807 353.959 41.9299C354.052 42.1792 354.19 42.3768 354.372 42.5227C354.557 42.6666 354.783 42.7385 355.053 42.7385Z" fill="#72708A"/>
<rect x="371.171" y="34.8584" width="11.1282" height="11.1282" rx="3.85206" fill="white"/>
<rect x="371.171" y="34.8584" width="11.1282" height="11.1282" rx="3.85206" stroke="#D6DCE4" stroke-width="0.856012"/>
<rect x="374.167" y="37.8544" width="5.13607" height="5.13607" rx="2.56804" fill="#FFCC68"/>
<path d="M395.43 39.2215H394.481C394.445 39.0188 394.377 38.8405 394.278 38.6865C394.178 38.5324 394.057 38.4017 393.913 38.2943C393.769 38.1869 393.608 38.1058 393.43 38.0511C393.253 37.9964 393.066 37.9691 392.867 37.9691C392.509 37.9691 392.187 38.0592 391.904 38.2396C391.622 38.42 391.399 38.6844 391.235 39.033C391.073 39.3816 390.992 39.8071 390.992 40.3097C390.992 40.8163 391.073 41.244 391.235 41.5925C391.399 41.9411 391.623 42.2045 391.907 42.3829C392.19 42.5612 392.51 42.6504 392.864 42.6504C393.061 42.6504 393.247 42.624 393.424 42.5713C393.602 42.5166 393.763 42.4366 393.907 42.3312C394.051 42.2258 394.172 42.0971 394.272 41.9451C394.373 41.7911 394.443 41.6148 394.481 41.4162L395.43 41.4192C395.379 41.7253 395.281 42.0069 395.135 42.2643C394.991 42.5197 394.806 42.7406 394.579 42.927C394.354 43.1114 394.096 43.2543 393.807 43.3556C393.517 43.4569 393.201 43.5076 392.858 43.5076C392.319 43.5076 391.839 43.3799 391.417 43.1246C390.996 42.8672 390.663 42.4994 390.42 42.0211C390.179 41.5429 390.058 40.9724 390.058 40.3097C390.058 39.645 390.18 39.0745 390.423 38.5983C390.666 38.12 390.999 37.7532 391.42 37.4979C391.842 37.2405 392.321 37.1118 392.858 37.1118C393.188 37.1118 393.497 37.1595 393.782 37.2547C394.07 37.3479 394.328 37.4857 394.557 37.6681C394.786 37.8485 394.976 38.0694 395.126 38.3308C395.276 38.5902 395.377 38.8871 395.43 39.2215ZM397.84 43.5258C397.544 43.5258 397.276 43.4711 397.037 43.3617C396.798 43.2502 396.609 43.0891 396.469 42.8784C396.331 42.6676 396.262 42.4092 396.262 42.1032C396.262 41.8398 396.313 41.6229 396.414 41.4527C396.515 41.2825 396.652 41.1477 396.824 41.0484C396.997 40.9491 397.189 40.8741 397.402 40.8234C397.615 40.7728 397.832 40.7343 398.052 40.7079C398.332 40.6755 398.559 40.6492 398.733 40.6289C398.908 40.6066 399.034 40.5711 399.113 40.5225C399.192 40.4739 399.232 40.3948 399.232 40.2854V40.2641C399.232 39.9986 399.157 39.7929 399.007 39.647C398.859 39.5011 398.638 39.4282 398.344 39.4282C398.038 39.4282 397.797 39.4961 397.621 39.6318C397.447 39.7656 397.326 39.9145 397.259 40.0787L396.405 39.8841C396.506 39.6004 396.654 39.3714 396.849 39.1971C397.045 39.0208 397.271 38.8932 397.527 38.8141C397.782 38.7331 398.05 38.6925 398.332 38.6925C398.519 38.6925 398.716 38.7148 398.925 38.7594C399.136 38.802 399.332 38.881 399.515 38.9965C399.699 39.112 399.85 39.2772 399.968 39.492C400.085 39.7048 400.144 39.9814 400.144 40.3219V43.4225H399.256V42.7841H399.22C399.161 42.9017 399.073 43.0172 398.955 43.1307C398.838 43.2441 398.687 43.3384 398.502 43.4134C398.318 43.4883 398.097 43.5258 397.84 43.5258ZM398.037 42.7963C398.289 42.7963 398.503 42.7466 398.682 42.6473C398.862 42.548 398.999 42.4183 399.092 42.2582C399.187 42.0961 399.235 41.9228 399.235 41.7384V41.1365C399.203 41.169 399.14 41.1994 399.046 41.2277C398.955 41.2541 398.851 41.2774 398.733 41.2977C398.616 41.3159 398.501 41.3331 398.39 41.3493C398.278 41.3635 398.185 41.3757 398.11 41.3858C397.934 41.4081 397.773 41.4456 397.627 41.4983C397.483 41.551 397.367 41.627 397.28 41.7263C397.195 41.8235 397.153 41.9532 397.153 42.1154C397.153 42.3403 397.236 42.5105 397.402 42.6261C397.568 42.7395 397.78 42.7963 398.037 42.7963ZM402.263 40.6502V43.4225H401.354V38.7533H402.227V39.5133H402.285C402.392 39.266 402.56 39.0674 402.789 38.9175C403.02 38.7675 403.311 38.6925 403.662 38.6925C403.98 38.6925 404.258 38.7594 404.498 38.8932C404.737 39.0249 404.922 39.2215 405.054 39.4829C405.186 39.7443 405.251 40.0675 405.251 40.4526V43.4225H404.343V40.562C404.343 40.2236 404.254 39.9591 404.078 39.7686C403.902 39.5761 403.66 39.4798 403.352 39.4798C403.141 39.4798 402.953 39.5254 402.789 39.6166C402.627 39.7078 402.498 39.8416 402.403 40.0179C402.31 40.1922 402.263 40.4029 402.263 40.6502ZM408.437 43.5167C407.985 43.5167 407.596 43.4144 407.27 43.2097C406.946 43.003 406.696 42.7183 406.522 42.3555C406.348 41.9928 406.261 41.5773 406.261 41.1092C406.261 40.635 406.35 40.2165 406.528 39.8537C406.707 39.489 406.958 39.2042 407.282 38.9996C407.606 38.7949 407.988 38.6925 408.428 38.6925C408.783 38.6925 409.099 38.7584 409.377 38.8901C409.654 39.0198 409.878 39.2022 410.048 39.4373C410.221 39.6724 410.323 39.947 410.355 40.2611H409.471C409.422 40.0422 409.311 39.8537 409.136 39.6957C408.964 39.5376 408.733 39.4586 408.443 39.4586C408.19 39.4586 407.968 39.5254 407.778 39.6592C407.589 39.7909 407.442 39.9794 407.337 40.2246C407.231 40.4678 407.179 40.7556 407.179 41.0879C407.179 41.4284 407.23 41.7222 407.334 41.9695C407.437 42.2167 407.583 42.4082 407.772 42.544C407.962 42.6798 408.186 42.7476 408.443 42.7476C408.616 42.7476 408.772 42.7162 408.911 42.6534C409.053 42.5886 409.172 42.4964 409.267 42.3768C409.364 42.2572 409.432 42.1133 409.471 41.9451H410.355C410.323 42.2471 410.225 42.5166 410.06 42.7537C409.896 42.9908 409.676 43.1773 409.401 43.3131C409.127 43.4488 408.806 43.5167 408.437 43.5167ZM413.34 43.5167C412.88 43.5167 412.483 43.4184 412.151 43.2219C411.821 43.0233 411.565 42.7446 411.385 42.3859C411.207 42.0252 411.118 41.6026 411.118 41.1183C411.118 40.64 411.207 40.2185 411.385 39.8537C411.565 39.489 411.817 39.2042 412.139 38.9996C412.463 38.7949 412.842 38.6925 413.276 38.6925C413.539 38.6925 413.795 38.7361 414.042 38.8232C414.289 38.9104 414.511 39.0472 414.708 39.2336C414.904 39.4201 415.059 39.6622 415.173 39.9601C415.286 40.256 415.343 40.6157 415.343 41.0393V41.3615H411.631V40.6806H414.452C414.452 40.4414 414.404 40.2297 414.306 40.0452C414.209 39.8588 414.072 39.7119 413.896 39.6045C413.722 39.4971 413.517 39.4434 413.282 39.4434C413.027 39.4434 412.804 39.5062 412.613 39.6318C412.425 39.7555 412.279 39.9176 412.175 40.1182C412.074 40.3168 412.023 40.5326 412.023 40.7657V41.2977C412.023 41.6097 412.078 41.8752 412.188 42.0941C412.299 42.313 412.454 42.4801 412.653 42.5957C412.851 42.7091 413.083 42.7659 413.349 42.7659C413.521 42.7659 413.678 42.7416 413.82 42.6929C413.962 42.6423 414.084 42.5673 414.188 42.468C414.291 42.3687 414.37 42.2461 414.425 42.1002L415.285 42.2552C415.216 42.5085 415.093 42.7304 414.914 42.9209C414.738 43.1094 414.516 43.2563 414.249 43.3617C413.983 43.465 413.68 43.5167 413.34 43.5167ZM417.26 37.1969V43.4225H416.351V37.1969H417.26ZM419.392 37.1969V43.4225H418.483V37.1969H419.392ZM422.627 43.5167C422.167 43.5167 421.771 43.4184 421.439 43.2219C421.108 43.0233 420.853 42.7446 420.672 42.3859C420.494 42.0252 420.405 41.6026 420.405 41.1183C420.405 40.64 420.494 40.2185 420.672 39.8537C420.853 39.489 421.104 39.2042 421.426 38.9996C421.751 38.7949 422.13 38.6925 422.563 38.6925C422.827 38.6925 423.082 38.7361 423.329 38.8232C423.577 38.9104 423.798 39.0472 423.995 39.2336C424.192 39.4201 424.347 39.6622 424.46 39.9601C424.574 40.256 424.63 40.6157 424.63 41.0393V41.3615H420.919V40.6806H423.74C423.74 40.4414 423.691 40.2297 423.594 40.0452C423.496 39.8588 423.36 39.7119 423.183 39.6045C423.009 39.4971 422.804 39.4434 422.569 39.4434C422.314 39.4434 422.091 39.5062 421.901 39.6318C421.712 39.7555 421.566 39.9176 421.463 40.1182C421.362 40.3168 421.311 40.5326 421.311 40.7657V41.2977C421.311 41.6097 421.366 41.8752 421.475 42.0941C421.586 42.313 421.741 42.4801 421.94 42.5957C422.139 42.7091 422.371 42.7659 422.636 42.7659C422.808 42.7659 422.966 42.7416 423.107 42.6929C423.249 42.6423 423.372 42.5673 423.475 42.468C423.579 42.3687 423.658 42.2461 423.712 42.1002L424.573 42.2552C424.504 42.5085 424.38 42.7304 424.202 42.9209C424.025 43.1094 423.803 43.2563 423.536 43.3617C423.271 43.465 422.968 43.5167 422.627 43.5167ZM427.387 43.5137C427.01 43.5137 426.673 43.4174 426.377 43.2249C426.084 43.0303 425.853 42.7537 425.684 42.395C425.518 42.0343 425.435 41.6016 425.435 41.097C425.435 40.5924 425.519 40.1608 425.687 39.8021C425.858 39.4434 426.091 39.1688 426.387 38.9783C426.682 38.7878 427.018 38.6925 427.393 38.6925C427.683 38.6925 427.916 38.7412 428.092 38.8384C428.27 38.9337 428.408 39.0451 428.505 39.1728C428.605 39.3005 428.682 39.413 428.736 39.5102H428.791V37.1969H429.7V43.4225H428.812V42.696H428.736C428.682 42.7953 428.603 42.9088 428.499 43.0364C428.398 43.1641 428.258 43.2756 428.08 43.3708C427.901 43.4661 427.67 43.5137 427.387 43.5137ZM427.587 42.7385C427.849 42.7385 428.07 42.6696 428.25 42.5318C428.432 42.392 428.57 42.1985 428.663 41.9512C428.759 41.704 428.806 41.4162 428.806 41.0879C428.806 40.7637 428.76 40.4799 428.666 40.2368C428.573 39.9936 428.436 39.8041 428.256 39.6683C428.076 39.5325 427.853 39.4646 427.587 39.4646C427.314 39.4646 427.086 39.5356 426.903 39.6774C426.721 39.8193 426.583 40.0128 426.49 40.258C426.399 40.5032 426.353 40.7799 426.353 41.0879C426.353 41.4 426.4 41.6807 426.493 41.9299C426.586 42.1792 426.724 42.3768 426.906 42.5227C427.091 42.6666 427.318 42.7385 427.587 42.7385Z" fill="#72708A"/>
<rect x="442.559" y="39.7805" width="13.6962" height="1.28402" rx="0.642009" fill="#FD9111"/>
<rect x="445.982" y="36.9984" width="6.8481" height="6.8481" rx="3.42405" fill="#FD9111"/>
<rect x="448.081" y="39.0968" width="2.65137" height="2.65137" rx="1.32569" fill="white"/>
<path d="M467.183 38.8324C467.151 38.5446 467.017 38.3217 466.782 38.1636C466.547 38.0035 466.251 37.9235 465.894 37.9235C465.639 37.9235 465.418 37.964 465.231 38.0451C465.045 38.1241 464.9 38.2335 464.797 38.3734C464.695 38.5112 464.645 38.6682 464.645 38.8445C464.645 38.9925 464.679 39.1201 464.748 39.2275C464.819 39.3349 464.911 39.4251 465.025 39.4981C465.14 39.569 465.264 39.6288 465.396 39.6774C465.527 39.724 465.654 39.7625 465.776 39.7929L466.384 39.951C466.582 39.9997 466.786 40.0655 466.995 40.1486C467.203 40.2317 467.397 40.3411 467.575 40.4769C467.754 40.6127 467.897 40.7809 468.007 40.9815C468.118 41.1821 468.174 41.4223 468.174 41.7019C468.174 42.0546 468.083 42.3677 467.9 42.6413C467.72 42.9148 467.458 43.1307 467.113 43.2887C466.771 43.4468 466.356 43.5258 465.87 43.5258C465.404 43.5258 465 43.4519 464.66 43.3039C464.32 43.156 464.053 42.9462 463.861 42.6747C463.668 42.4011 463.562 42.0769 463.541 41.7019H464.484C464.502 41.9269 464.575 42.1144 464.703 42.2643C464.832 42.4123 464.997 42.5227 465.198 42.5957C465.401 42.6666 465.623 42.702 465.864 42.702C466.129 42.702 466.365 42.6605 466.572 42.5774C466.781 42.4923 466.945 42.3748 467.065 42.2248C467.184 42.0728 467.244 41.8955 467.244 41.6928C467.244 41.5084 467.191 41.3574 467.086 41.2399C466.982 41.1224 466.842 41.0251 466.663 40.9481C466.487 40.8711 466.287 40.8032 466.064 40.7444L465.329 40.5438C464.83 40.408 464.435 40.2084 464.143 39.9449C463.853 39.6815 463.709 39.3329 463.709 38.8992C463.709 38.5405 463.806 38.2274 464 37.9599C464.195 37.6924 464.458 37.4847 464.791 37.3368C465.123 37.1868 465.498 37.1118 465.915 37.1118C466.337 37.1118 466.709 37.1858 467.031 37.3337C467.355 37.4817 467.611 37.6853 467.797 37.9447C467.984 38.2021 468.081 38.498 468.089 38.8324H467.183ZM470.582 43.5258C470.286 43.5258 470.019 43.4711 469.78 43.3617C469.541 43.2502 469.351 43.0891 469.211 42.8784C469.074 42.6676 469.005 42.4092 469.005 42.1032C469.005 41.8398 469.055 41.6229 469.157 41.4527C469.258 41.2825 469.395 41.1477 469.567 41.0484C469.739 40.9491 469.932 40.8741 470.145 40.8234C470.357 40.7728 470.574 40.7343 470.795 40.7079C471.075 40.6755 471.302 40.6492 471.476 40.6289C471.65 40.6066 471.777 40.5711 471.856 40.5225C471.935 40.4739 471.975 40.3948 471.975 40.2854V40.2641C471.975 39.9986 471.9 39.7929 471.75 39.647C471.602 39.5011 471.381 39.4282 471.087 39.4282C470.781 39.4282 470.54 39.4961 470.363 39.6318C470.189 39.7656 470.069 39.9145 470.002 40.0787L469.148 39.8841C469.249 39.6004 469.397 39.3714 469.591 39.1971C469.788 39.0208 470.014 38.8932 470.269 38.8141C470.525 38.7331 470.793 38.6925 471.075 38.6925C471.261 38.6925 471.459 38.7148 471.668 38.7594C471.878 38.802 472.075 38.881 472.257 38.9965C472.442 39.112 472.593 39.2772 472.71 39.492C472.828 39.7048 472.887 39.9814 472.887 40.3219V43.4225H471.999V42.7841H471.962C471.904 42.9017 471.815 43.0172 471.698 43.1307C471.58 43.2441 471.429 43.3384 471.245 43.4134C471.061 43.4883 470.84 43.5258 470.582 43.5258ZM470.78 42.7963C471.031 42.7963 471.246 42.7466 471.424 42.6473C471.605 42.548 471.742 42.4183 471.835 42.2582C471.93 42.0961 471.978 41.9228 471.978 41.7384V41.1365C471.945 41.169 471.882 41.1994 471.789 41.2277C471.698 41.2541 471.594 41.2774 471.476 41.2977C471.358 41.3159 471.244 41.3331 471.133 41.3493C471.021 41.3635 470.928 41.3757 470.853 41.3858C470.677 41.4081 470.515 41.4456 470.37 41.4983C470.226 41.551 470.11 41.627 470.023 41.7263C469.938 41.8235 469.895 41.9532 469.895 42.1154C469.895 42.3403 469.978 42.5105 470.145 42.6261C470.311 42.7395 470.523 42.7963 470.78 42.7963ZM475.006 37.1969V43.4225H474.097V37.1969H475.006ZM478.241 43.5167C477.781 43.5167 477.385 43.4184 477.053 43.2219C476.722 43.0233 476.467 42.7446 476.287 42.3859C476.108 42.0252 476.019 41.6026 476.019 41.1183C476.019 40.64 476.108 40.2185 476.287 39.8537C476.467 39.489 476.718 39.2042 477.04 38.9996C477.365 38.7949 477.744 38.6925 478.177 38.6925C478.441 38.6925 478.696 38.7361 478.943 38.8232C479.191 38.9104 479.412 39.0472 479.609 39.2336C479.806 39.4201 479.961 39.6622 480.074 39.9601C480.188 40.256 480.244 40.6157 480.244 41.0393V41.3615H476.533V40.6806H479.354C479.354 40.4414 479.305 40.2297 479.208 40.0452C479.111 39.8588 478.974 39.7119 478.797 39.6045C478.623 39.4971 478.418 39.4434 478.183 39.4434C477.928 39.4434 477.705 39.5062 477.515 39.6318C477.326 39.7555 477.18 39.9176 477.077 40.1182C476.976 40.3168 476.925 40.5326 476.925 40.7657V41.2977C476.925 41.6097 476.98 41.8752 477.089 42.0941C477.201 42.313 477.356 42.4801 477.554 42.5957C477.753 42.7091 477.985 42.7659 478.25 42.7659C478.423 42.7659 478.58 42.7416 478.721 42.6929C478.863 42.6423 478.986 42.5673 479.089 42.468C479.193 42.3687 479.272 42.2461 479.326 42.1002L480.187 42.2552C480.118 42.5085 479.994 42.7304 479.816 42.9209C479.639 43.1094 479.418 43.2563 479.15 43.3617C478.885 43.465 478.582 43.5167 478.241 43.5167ZM484.752 39.8933L483.928 40.0392C483.893 39.9338 483.839 39.8335 483.764 39.7382C483.691 39.643 483.591 39.565 483.466 39.5042C483.34 39.4434 483.183 39.413 482.995 39.413C482.737 39.413 482.522 39.4707 482.35 39.5862C482.178 39.6997 482.092 39.8466 482.092 40.027C482.092 40.1831 482.15 40.3087 482.265 40.4039C482.381 40.4992 482.567 40.5772 482.824 40.638L483.566 40.8082C483.996 40.9075 484.316 41.0605 484.527 41.2673C484.737 41.474 484.843 41.7425 484.843 42.0728C484.843 42.3525 484.762 42.6017 484.6 42.8206C484.44 43.0374 484.216 43.2077 483.928 43.3313C483.642 43.4549 483.311 43.5167 482.934 43.5167C482.411 43.5167 481.984 43.4053 481.654 43.1823C481.324 42.9574 481.121 42.6382 481.046 42.2248L481.925 42.091C481.979 42.32 482.092 42.4933 482.262 42.6109C482.432 42.7264 482.654 42.7841 482.928 42.7841C483.226 42.7841 483.464 42.7223 483.642 42.5987C483.82 42.473 483.91 42.32 483.91 42.1397C483.91 41.9938 483.855 41.8712 483.745 41.7719C483.638 41.6726 483.473 41.5976 483.25 41.5469L482.46 41.3736C482.024 41.2743 481.702 41.1163 481.493 40.8994C481.286 40.6826 481.183 40.408 481.183 40.0756C481.183 39.8 481.26 39.5589 481.414 39.3522C481.568 39.1455 481.781 38.9844 482.052 38.8688C482.324 38.7513 482.635 38.6925 482.986 38.6925C483.49 38.6925 483.887 38.802 484.177 39.0208C484.467 39.2377 484.658 39.5285 484.752 39.8933Z" fill="#72708A"/>
<path d="M36.2135 89.1697V88.5617L38.3657 85.162H38.8448V86.0569H38.5408L37.0014 88.4936V88.5325H39.9513V89.1697H36.2135ZM38.5749 90.1424V88.9848L38.5797 88.7076V85.162H39.2923V90.1424H38.5749ZM42.5327 90.2251C42.1485 90.2235 41.8202 90.1221 41.5478 89.9211C41.2754 89.7201 41.0671 89.4274 40.9228 89.0432C40.7785 88.659 40.7064 88.1961 40.7064 87.6546C40.7064 87.1147 40.7785 86.6535 40.9228 86.2709C41.0687 85.8883 41.2779 85.5965 41.5502 85.3954C41.8242 85.1944 42.1517 85.0939 42.5327 85.0939C42.9137 85.0939 43.2404 85.1952 43.5127 85.3978C43.7851 85.5989 43.9934 85.8907 44.1377 86.2733C44.2836 86.6543 44.3566 87.1147 44.3566 87.6546C44.3566 88.1977 44.2844 88.6614 44.1402 89.0456C43.9959 89.4282 43.7875 89.7209 43.5152 89.9235C43.2428 90.1246 42.9153 90.2251 42.5327 90.2251ZM42.5327 89.5758C42.8699 89.5758 43.1334 89.4112 43.323 89.0821C43.5144 88.753 43.61 88.2772 43.61 87.6546C43.61 87.2412 43.5662 86.8918 43.4787 86.6065C43.3928 86.3195 43.2687 86.1023 43.1066 85.9547C42.9461 85.8056 42.7548 85.731 42.5327 85.731C42.1971 85.731 41.9336 85.8964 41.7423 86.2271C41.551 86.5578 41.4546 87.0337 41.453 87.6546C41.453 88.0696 41.4959 88.4206 41.5818 88.7076C41.6694 88.9929 41.7934 89.2094 41.9539 89.3569C42.1144 89.5028 42.3073 89.5758 42.5327 89.5758Z" fill="#9291A2"/>
<path d="M38.052 113.619C37.718 113.619 37.4197 113.561 37.1571 113.446C36.8961 113.331 36.6894 113.171 36.537 112.967C36.3862 112.761 36.3051 112.523 36.2938 112.252H37.0574C37.0671 112.4 37.1166 112.528 37.2057 112.636C37.2965 112.743 37.4149 112.826 37.5608 112.884C37.7067 112.943 37.8688 112.972 38.0471 112.972C38.2433 112.972 38.4168 112.938 38.5676 112.87C38.72 112.802 38.8391 112.707 38.925 112.585C39.011 112.462 39.0539 112.32 39.0539 112.16C39.0539 111.993 39.011 111.846 38.925 111.719C38.8407 111.591 38.7167 111.491 38.553 111.418C38.3908 111.345 38.1947 111.308 37.9645 111.308H37.5437V110.696H37.9645C38.1493 110.696 38.3114 110.662 38.4508 110.596C38.5919 110.529 38.7021 110.437 38.7816 110.319C38.861 110.199 38.9007 110.058 38.9007 109.898C38.9007 109.744 38.8659 109.61 38.7962 109.497C38.7281 109.382 38.6308 109.292 38.5043 109.227C38.3795 109.162 38.232 109.13 38.0617 109.13C37.8996 109.13 37.748 109.16 37.607 109.219C37.4676 109.278 37.3541 109.362 37.2665 109.472C37.179 109.581 37.132 109.712 37.1255 109.864H36.3983C36.4065 109.595 36.4859 109.358 36.6367 109.154C36.7891 108.95 36.9901 108.79 37.2398 108.675C37.4894 108.56 37.7667 108.502 38.0715 108.502C38.3908 108.502 38.6665 108.565 38.8983 108.689C39.1317 108.813 39.3117 108.977 39.4382 109.183C39.5662 109.389 39.6295 109.614 39.6278 109.859C39.6295 110.138 39.5516 110.375 39.3944 110.569C39.2388 110.764 39.0312 110.894 38.7718 110.961V111C39.1026 111.05 39.3587 111.181 39.5403 111.394C39.7235 111.606 39.8143 111.869 39.8127 112.184C39.8143 112.458 39.7381 112.704 39.5841 112.921C39.4317 113.138 39.2233 113.309 38.9591 113.434C38.6948 113.557 38.3925 113.619 38.052 113.619ZM42.4658 113.633C42.0816 113.632 41.7533 113.53 41.4809 113.329C41.2086 113.128 41.0002 112.836 40.8559 112.451C40.7116 112.067 40.6395 111.604 40.6395 111.063C40.6395 110.523 40.7116 110.062 40.8559 109.679C41.0018 109.297 41.211 109.005 41.4834 108.804C41.7573 108.603 42.0848 108.502 42.4658 108.502C42.8468 108.502 43.1735 108.603 43.4459 108.806C43.7182 109.007 43.9266 109.299 44.0708 109.682C44.2168 110.063 44.2897 110.523 44.2897 111.063C44.2897 111.606 44.2176 112.07 44.0733 112.454C43.929 112.836 43.7207 113.129 43.4483 113.332C43.1759 113.533 42.8484 113.633 42.4658 113.633ZM42.4658 112.984C42.803 112.984 43.0665 112.819 43.2562 112.49C43.4475 112.161 43.5431 111.685 43.5431 111.063C43.5431 110.649 43.4994 110.3 43.4118 110.015C43.3259 109.728 43.2019 109.511 43.0397 109.363C42.8792 109.214 42.6879 109.139 42.4658 109.139C42.1302 109.139 41.8668 109.305 41.6755 109.635C41.4842 109.966 41.3877 110.442 41.3861 111.063C41.3861 111.478 41.429 111.829 41.515 112.116C41.6025 112.401 41.7265 112.618 41.887 112.765C42.0475 112.911 42.2405 112.984 42.4658 112.984Z" fill="#9291A2"/>
<path d="M36.3181 136.959V136.414L38.0034 134.668C38.1833 134.478 38.3317 134.312 38.4484 134.169C38.5667 134.025 38.6551 133.888 38.7135 133.759C38.7718 133.629 38.801 133.491 38.801 133.345C38.801 133.18 38.7621 133.037 38.6843 132.917C38.6065 132.795 38.5003 132.702 38.3657 132.637C38.2312 132.571 38.0796 132.538 37.911 132.538C37.7326 132.538 37.577 132.574 37.444 132.647C37.3111 132.72 37.209 132.823 37.1376 132.956C37.0663 133.089 37.0306 133.245 37.0306 133.423H36.3132C36.3132 133.12 36.3829 132.855 36.5224 132.628C36.6618 132.401 36.8531 132.225 37.0963 132.1C37.3395 131.974 37.6159 131.91 37.9255 131.91C38.2384 131.91 38.5141 131.973 38.7524 132.098C38.9923 132.221 39.1796 132.389 39.3141 132.603C39.4487 132.816 39.516 133.056 39.516 133.323C39.516 133.508 39.4811 133.689 39.4114 133.866C39.3433 134.042 39.2242 134.239 39.0539 134.456C38.8837 134.672 38.647 134.934 38.3438 135.242L37.3541 136.278V136.314H39.5962V136.959H36.3181ZM42.2518 137.042C41.8676 137.04 41.5393 136.939 41.2669 136.738C40.9945 136.536 40.7862 136.244 40.6419 135.86C40.4976 135.475 40.4255 135.013 40.4255 134.471C40.4255 133.931 40.4976 133.47 40.6419 133.087C40.7878 132.705 40.997 132.413 41.2693 132.212C41.5433 132.011 41.8708 131.91 42.2518 131.91C42.6328 131.91 42.9595 132.012 43.2319 132.214C43.5042 132.415 43.7125 132.707 43.8568 133.09C44.0028 133.471 44.0757 133.931 44.0757 134.471C44.0757 135.014 44.0036 135.478 43.8593 135.862C43.715 136.245 43.5067 136.537 43.2343 136.74C42.9619 136.941 42.6344 137.042 42.2518 137.042ZM42.2518 136.392C42.589 136.392 42.8525 136.228 43.0422 135.899C43.2335 135.569 43.3291 135.094 43.3291 134.471C43.3291 134.058 43.2854 133.708 43.1978 133.423C43.1119 133.136 42.9879 132.919 42.8257 132.771C42.6652 132.622 42.4739 132.547 42.2518 132.547C41.9162 132.547 41.6528 132.713 41.4615 133.044C41.2702 133.374 41.1737 133.85 41.1721 134.471C41.1721 134.886 41.215 135.237 41.301 135.524C41.3885 135.809 41.5125 136.026 41.673 136.173C41.8335 136.319 42.0265 136.392 42.2518 136.392Z" fill="#9291A2"/>
<path d="M38.2076 155.387V160.367H37.4538V156.141H37.4246L36.233 156.919V156.199L37.4757 155.387H38.2076ZM41.1988 160.435C40.894 160.435 40.62 160.377 40.3769 160.26C40.1353 160.142 39.9424 159.98 39.7981 159.774C39.6538 159.568 39.5768 159.333 39.5671 159.068H40.2966C40.3144 159.282 40.4093 159.458 40.5811 159.596C40.753 159.734 40.9589 159.803 41.1988 159.803C41.3901 159.803 41.5595 159.759 41.7071 159.672C41.8562 159.582 41.973 159.46 42.0573 159.304C42.1432 159.149 42.1862 158.971 42.1862 158.772C42.1862 158.569 42.1424 158.388 42.0548 158.229C41.9673 158.071 41.8465 157.946 41.6925 157.855C41.5401 157.764 41.365 157.718 41.1672 157.716C41.0164 157.716 40.8648 157.742 40.7125 157.794C40.5601 157.846 40.4368 157.914 40.3428 157.998L39.6546 157.896L39.9343 155.387H42.6725V156.031H40.5592L40.4012 157.425H40.4304C40.5276 157.33 40.6565 157.252 40.817 157.189C40.9791 157.125 41.1526 157.094 41.3374 157.094C41.6406 157.094 41.9105 157.166 42.1472 157.31C42.3856 157.455 42.5728 157.651 42.709 157.901C42.8468 158.149 42.9149 158.435 42.9133 158.757C42.9149 159.08 42.8419 159.368 42.6944 159.62C42.5485 159.873 42.3458 160.073 42.0864 160.219C41.8287 160.363 41.5328 160.435 41.1988 160.435Z" fill="#9291A2"/>
<path d="M38.2076 178.795V183.775H37.4538V179.549H37.4246L36.233 180.327V179.607L37.4757 178.795H38.2076ZM41.2888 183.858C40.9046 183.856 40.5763 183.755 40.3039 183.554C40.0315 183.353 39.8232 183.06 39.6789 182.676C39.5346 182.292 39.4625 181.829 39.4625 181.287C39.4625 180.748 39.5346 180.286 39.6789 179.904C39.8248 179.521 40.034 179.229 40.3063 179.028C40.5803 178.827 40.9078 178.727 41.2888 178.727C41.6698 178.727 41.9965 178.828 42.2688 179.031C42.5412 179.232 42.7495 179.524 42.8938 179.906C43.0397 180.287 43.1127 180.748 43.1127 181.287C43.1127 181.831 43.0405 182.294 42.8963 182.679C42.752 183.061 42.5436 183.354 42.2713 183.556C41.9989 183.757 41.6714 183.858 41.2888 183.858ZM41.2888 183.209C41.626 183.209 41.8895 183.044 42.0792 182.715C42.2705 182.386 42.3661 181.91 42.3661 181.287C42.3661 180.874 42.3223 180.525 42.2348 180.239C42.1489 179.952 42.0248 179.735 41.8627 179.588C41.7022 179.438 41.5109 179.364 41.2888 179.364C40.9532 179.364 40.6898 179.529 40.4984 179.86C40.3071 180.191 40.2107 180.667 40.2091 181.287C40.2091 181.703 40.252 182.054 40.3379 182.34C40.4255 182.626 40.5495 182.842 40.71 182.99C40.8705 183.136 41.0635 183.209 41.2888 183.209Z" fill="#9291A2"/>
<path d="M37.962 207.252C37.6572 207.252 37.3832 207.193 37.1401 207.077C36.8985 206.958 36.7056 206.796 36.5613 206.59C36.417 206.384 36.34 206.149 36.3303 205.885H37.0598C37.0776 206.099 37.1725 206.275 37.3443 206.413C37.5162 206.55 37.7221 206.619 37.962 206.619C38.1533 206.619 38.3228 206.576 38.4703 206.488C38.6194 206.399 38.7362 206.276 38.8205 206.121C38.9064 205.965 38.9494 205.788 38.9494 205.588C38.9494 205.386 38.9056 205.205 38.818 205.046C38.7305 204.887 38.6097 204.762 38.4557 204.671C38.3033 204.581 38.1282 204.534 37.9304 204.533C37.7796 204.533 37.6281 204.559 37.4757 204.611C37.3233 204.662 37.2 204.731 37.106 204.815L36.4178 204.713L36.6975 202.203H39.4357V202.848H37.3225L37.1644 204.241H37.1936C37.2908 204.147 37.4197 204.068 37.5802 204.005C37.7424 203.942 37.9158 203.91 38.1006 203.91C38.4038 203.91 38.6737 203.982 38.9105 204.127C39.1488 204.271 39.336 204.468 39.4722 204.718C39.61 204.966 39.6781 205.251 39.6765 205.574C39.6781 205.896 39.6051 206.184 39.4576 206.437C39.3117 206.69 39.1091 206.889 38.8497 207.035C38.5919 207.179 38.296 207.252 37.962 207.252Z" fill="#9291A2"/>
<path d="M38.2076 225.611V230.592H37.4538V226.365H37.4246L36.233 227.143V226.424L37.4757 225.611H38.2076ZM41.2888 230.674C40.9046 230.673 40.5763 230.571 40.3039 230.37C40.0315 230.169 39.8232 229.877 39.6789 229.493C39.5346 229.108 39.4625 228.645 39.4625 228.104C39.4625 227.564 39.5346 227.103 39.6789 226.72C39.8248 226.338 40.034 226.046 40.3063 225.845C40.5803 225.644 40.9078 225.543 41.2888 225.543C41.6698 225.543 41.9965 225.645 42.2688 225.847C42.5412 226.048 42.7495 226.34 42.8938 226.723C43.0397 227.104 43.1127 227.564 43.1127 228.104C43.1127 228.647 43.0405 229.111 42.8963 229.495C42.752 229.878 42.5436 230.17 42.2713 230.373C41.9989 230.574 41.6714 230.674 41.2888 230.674ZM41.2888 230.025C41.626 230.025 41.8895 229.861 42.0792 229.531C42.2705 229.202 42.3661 228.726 42.3661 228.104C42.3661 227.691 42.3223 227.341 42.2348 227.056C42.1489 226.769 42.0248 226.552 41.8627 226.404C41.7022 226.255 41.5109 226.18 41.2888 226.18C40.9532 226.18 40.6898 226.346 40.4984 226.676C40.3071 227.007 40.2107 227.483 40.2091 228.104C40.2091 228.519 40.252 228.87 40.3379 229.157C40.4255 229.442 40.5495 229.659 40.71 229.806C40.8705 229.952 41.0635 230.025 41.2888 230.025Z" fill="#9291A2"/>
<path d="M64.5673 250.118V249.391H68.9036V250.118H67.1554V254.994H66.3127V250.118H64.5673ZM71.8863 253.251V250.791H72.7071V254.994H71.9027V254.266H71.859C71.7623 254.49 71.6073 254.677 71.3939 254.827C71.1823 254.975 70.9187 255.048 70.6032 255.048C70.3333 255.048 70.0944 254.989 69.8864 254.871C69.6803 254.75 69.518 254.572 69.3994 254.337C69.2827 254.102 69.2244 253.811 69.2244 253.464V250.791H70.0424V253.366C70.0424 253.652 70.1217 253.88 70.2804 254.05C70.4391 254.219 70.6452 254.304 70.8987 254.304C71.0519 254.304 71.2042 254.266 71.3556 254.189C71.5088 254.113 71.6355 253.997 71.7359 253.842C71.838 253.687 71.8881 253.49 71.8863 253.251ZM75.6173 255.079C75.2033 255.079 74.8467 254.99 74.5476 254.813C74.2503 254.634 74.0205 254.384 73.8582 254.061C73.6977 253.736 73.6174 253.356 73.6174 252.92C73.6174 252.49 73.6977 252.11 73.8582 251.782C74.0205 251.454 74.2467 251.197 74.5367 251.013C74.8285 250.829 75.1696 250.737 75.5599 250.737C75.797 250.737 76.0268 250.776 76.2493 250.854C76.4718 250.933 76.6715 251.056 76.8484 251.224C77.0254 251.392 77.1649 251.61 77.267 251.878C77.3692 252.144 77.4202 252.468 77.4202 252.849V253.139H74.0798V252.526H76.6186C76.6186 252.311 76.5749 252.12 76.4873 251.954C76.3998 251.786 76.2767 251.654 76.118 251.558C75.9611 251.461 75.7769 251.413 75.5653 251.413C75.3355 251.413 75.1349 251.469 74.9635 251.582C74.7938 251.693 74.6625 251.839 74.5695 252.02C74.4783 252.199 74.4327 252.393 74.4327 252.603V253.081C74.4327 253.362 74.4819 253.601 74.5804 253.798C74.6807 253.995 74.8203 254.146 74.999 254.25C75.1778 254.352 75.3866 254.403 75.6255 254.403C75.7806 254.403 75.9219 254.381 76.0496 254.337C76.1773 254.292 76.2876 254.224 76.3806 254.135C76.4736 254.045 76.5448 253.935 76.594 253.804L77.3683 253.943C77.3062 254.171 77.195 254.371 77.0345 254.542C76.8758 254.712 76.6761 254.844 76.4353 254.939C76.1964 255.032 75.9237 255.079 75.6173 255.079ZM82.4815 249.391V254.994H81.6334V250.239H81.6006L80.26 251.114V250.305L81.658 249.391H82.4815ZM84.1859 254.994L86.6318 250.157V250.116H83.8029V249.391H87.5073V250.14L85.0696 254.994H84.1859Z" fill="#9291A2"/>
<path d="M113.395 254.994L111.841 249.391H112.731L113.822 253.73H113.874L115.01 249.391H115.891L117.026 253.733H117.078L118.167 249.391H119.059L117.502 254.994H116.651L115.472 250.797H115.428L114.249 254.994H113.395ZM121.161 255.079C120.747 255.079 120.391 254.99 120.091 254.813C119.794 254.634 119.564 254.384 119.402 254.061C119.241 253.736 119.161 253.356 119.161 252.92C119.161 252.49 119.241 252.11 119.402 251.782C119.564 251.454 119.79 251.197 120.08 251.013C120.372 250.829 120.713 250.737 121.104 250.737C121.341 250.737 121.571 250.776 121.793 250.854C122.016 250.933 122.215 251.056 122.392 251.224C122.569 251.392 122.709 251.61 122.811 251.878C122.913 252.144 122.964 252.468 122.964 252.849V253.139H119.624V252.526H122.162C122.162 252.311 122.119 252.12 122.031 251.954C121.944 251.786 121.82 251.654 121.662 251.558C121.505 251.461 121.321 251.413 121.109 251.413C120.879 251.413 120.679 251.469 120.507 251.582C120.338 251.693 120.206 251.839 120.113 252.02C120.022 252.199 119.976 252.393 119.976 252.603V253.081C119.976 253.362 120.026 253.601 120.124 253.798C120.225 253.995 120.364 254.146 120.543 254.25C120.722 254.352 120.93 254.403 121.169 254.403C121.324 254.403 121.466 254.381 121.593 254.337C121.721 254.292 121.831 254.224 121.924 254.135C122.017 254.045 122.089 253.935 122.138 253.804L122.912 253.943C122.85 254.171 122.739 254.371 122.578 254.542C122.42 254.712 122.22 254.844 121.979 254.939C121.74 255.032 121.468 255.079 121.161 255.079ZM125.445 255.076C125.105 255.076 124.803 254.989 124.536 254.816C124.272 254.641 124.064 254.392 123.913 254.069C123.763 253.744 123.688 253.355 123.688 252.901C123.688 252.447 123.764 252.058 123.915 251.735C124.069 251.413 124.278 251.165 124.545 250.994C124.811 250.822 125.113 250.737 125.45 250.737C125.711 250.737 125.921 250.781 126.079 250.868C126.24 250.954 126.364 251.054 126.452 251.169C126.541 251.284 126.61 251.385 126.659 251.473H126.709V249.391H127.527V254.994H126.728V254.34H126.659C126.61 254.429 126.539 254.531 126.446 254.646C126.355 254.761 126.229 254.861 126.069 254.947C125.908 255.033 125.7 255.076 125.445 255.076ZM125.625 254.378C125.861 254.378 126.059 254.316 126.222 254.192C126.386 254.066 126.51 253.892 126.594 253.67C126.68 253.447 126.722 253.188 126.722 252.893C126.722 252.601 126.68 252.345 126.597 252.127C126.513 251.908 126.39 251.737 126.227 251.615C126.065 251.493 125.864 251.432 125.625 251.432C125.379 251.432 125.174 251.496 125.01 251.623C124.846 251.751 124.722 251.925 124.638 252.146C124.556 252.366 124.515 252.615 124.515 252.893C124.515 253.173 124.557 253.426 124.64 253.65C124.724 253.875 124.848 254.053 125.012 254.184C125.178 254.313 125.383 254.378 125.625 254.378ZM132.848 249.391V254.994H132V250.239H131.967L130.626 251.114V250.305L132.024 249.391H132.848ZM136.257 255.07C135.865 255.07 135.518 255.003 135.217 254.868C134.918 254.733 134.684 254.547 134.514 254.31C134.344 254.073 134.261 253.803 134.262 253.5C134.261 253.263 134.309 253.045 134.407 252.846C134.508 252.645 134.644 252.479 134.815 252.345C134.986 252.21 135.178 252.125 135.389 252.088V252.055C135.11 251.988 134.887 251.838 134.719 251.607C134.551 251.375 134.468 251.109 134.47 250.808C134.468 250.522 134.544 250.266 134.697 250.042C134.852 249.816 135.065 249.638 135.335 249.508C135.605 249.379 135.912 249.314 136.257 249.314C136.598 249.314 136.902 249.38 137.171 249.511C137.44 249.641 137.653 249.818 137.808 250.045C137.963 250.269 138.041 250.523 138.043 250.808C138.041 251.109 137.956 251.375 137.786 251.607C137.616 251.838 137.396 251.988 137.124 252.055V252.088C137.334 252.125 137.523 252.21 137.69 252.345C137.86 252.479 137.995 252.645 138.095 252.846C138.197 253.045 138.249 253.263 138.251 253.5C138.249 253.803 138.164 254.073 137.994 254.31C137.824 254.547 137.589 254.733 137.288 254.868C136.989 255.003 136.645 255.07 136.257 255.07ZM136.257 254.378C136.488 254.378 136.689 254.34 136.859 254.263C137.028 254.185 137.16 254.076 137.253 253.938C137.346 253.797 137.393 253.633 137.395 253.445C137.393 253.25 137.342 253.078 137.242 252.928C137.143 252.779 137.009 252.661 136.839 252.575C136.67 252.49 136.476 252.447 136.257 252.447C136.036 252.447 135.84 252.49 135.669 252.575C135.497 252.661 135.362 252.779 135.264 252.928C135.165 253.078 135.117 253.25 135.119 253.445C135.117 253.633 135.162 253.797 135.253 253.938C135.346 254.076 135.478 254.185 135.649 254.263C135.821 254.34 136.023 254.378 136.257 254.378ZM136.257 251.771C136.443 251.771 136.608 251.734 136.752 251.659C136.896 251.584 137.009 251.48 137.091 251.347C137.175 251.214 137.218 251.058 137.22 250.879C137.218 250.704 137.176 250.551 137.094 250.419C137.014 250.288 136.901 250.187 136.757 250.116C136.613 250.043 136.446 250.006 136.257 250.006C136.063 250.006 135.894 250.043 135.748 250.116C135.604 250.187 135.492 250.288 135.411 250.419C135.331 250.551 135.292 250.704 135.294 250.879C135.292 251.058 135.332 251.214 135.414 251.347C135.496 251.48 135.609 251.584 135.753 251.659C135.899 251.734 136.067 251.771 136.257 251.771Z" fill="#9291A2"/>
<path d="M162.494 254.994L160.94 249.391H161.829L162.921 253.73H162.973L164.108 249.391H164.989L166.125 253.733H166.177L167.265 249.391H168.157L166.601 254.994H165.75L164.571 250.797H164.527L163.348 254.994H162.494ZM170.26 255.079C169.846 255.079 169.489 254.99 169.19 254.813C168.893 254.634 168.663 254.384 168.501 254.061C168.34 253.736 168.26 253.356 168.26 252.92C168.26 252.49 168.34 252.11 168.501 251.782C168.663 251.454 168.889 251.197 169.179 251.013C169.471 250.829 169.812 250.737 170.202 250.737C170.439 250.737 170.669 250.776 170.892 250.854C171.114 250.933 171.314 251.056 171.491 251.224C171.668 251.392 171.807 251.61 171.909 251.878C172.012 252.144 172.063 252.468 172.063 252.849V253.139H168.722V252.526H171.261C171.261 252.311 171.217 252.12 171.13 251.954C171.042 251.786 170.919 251.654 170.76 251.558C170.604 251.461 170.419 251.413 170.208 251.413C169.978 251.413 169.777 251.469 169.606 251.582C169.436 251.693 169.305 251.839 169.212 252.02C169.121 252.199 169.075 252.393 169.075 252.603V253.081C169.075 253.362 169.124 253.601 169.223 253.798C169.323 253.995 169.463 254.146 169.641 254.25C169.82 254.352 170.029 254.403 170.268 254.403C170.423 254.403 170.564 254.381 170.692 254.337C170.82 254.292 170.93 254.224 171.023 254.135C171.116 254.045 171.187 253.935 171.236 253.804L172.011 253.943C171.949 254.171 171.837 254.371 171.677 254.542C171.518 254.712 171.319 254.844 171.078 254.939C170.839 255.032 170.566 255.079 170.26 255.079ZM174.543 255.076C174.204 255.076 173.901 254.989 173.635 254.816C173.371 254.641 173.163 254.392 173.011 254.069C172.862 253.744 172.787 253.355 172.787 252.901C172.787 252.447 172.863 252.058 173.014 251.735C173.167 251.413 173.377 251.165 173.643 250.994C173.91 250.822 174.211 250.737 174.549 250.737C174.81 250.737 175.019 250.781 175.178 250.868C175.339 250.954 175.463 251.054 175.55 251.169C175.64 251.284 175.709 251.385 175.758 251.473H175.807V249.391H176.625V254.994H175.827V254.34H175.758C175.709 254.429 175.638 254.531 175.545 254.646C175.454 254.761 175.328 254.861 175.167 254.947C175.007 255.033 174.799 255.076 174.543 255.076ZM174.724 254.378C174.959 254.378 175.158 254.316 175.32 254.192C175.485 254.066 175.609 253.892 175.692 253.67C175.778 253.447 175.821 253.188 175.821 252.893C175.821 252.601 175.779 252.345 175.695 252.127C175.611 251.908 175.488 251.737 175.326 251.615C175.164 251.493 174.963 251.432 174.724 251.432C174.478 251.432 174.273 251.496 174.108 251.623C173.944 251.751 173.82 251.925 173.736 252.146C173.654 252.366 173.613 252.615 173.613 252.893C173.613 253.173 173.655 253.426 173.739 253.65C173.823 253.875 173.947 254.053 174.111 254.184C174.277 254.313 174.481 254.378 174.724 254.378ZM181.947 249.391V254.994H181.098V250.239H181.066L179.725 251.114V250.305L181.123 249.391H181.947ZM185.325 249.314C185.575 249.316 185.821 249.362 186.064 249.451C186.307 249.54 186.525 249.686 186.721 249.889C186.918 250.091 187.074 250.365 187.191 250.709C187.31 251.052 187.37 251.479 187.372 251.99C187.372 252.48 187.322 252.917 187.224 253.3C187.125 253.681 186.984 254.003 186.8 254.266C186.618 254.529 186.396 254.728 186.135 254.865C185.874 255.002 185.581 255.07 185.254 255.07C184.92 255.07 184.624 255.005 184.365 254.873C184.106 254.742 183.895 254.561 183.733 254.329C183.571 254.095 183.47 253.827 183.429 253.525H184.264C184.319 253.765 184.43 253.96 184.598 254.11C184.767 254.258 184.986 254.332 185.254 254.332C185.665 254.332 185.985 254.153 186.214 253.795C186.444 253.436 186.56 252.935 186.562 252.291H186.518C186.423 252.448 186.305 252.583 186.162 252.696C186.022 252.809 185.864 252.896 185.689 252.958C185.514 253.02 185.327 253.051 185.128 253.051C184.806 253.051 184.512 252.972 184.247 252.813C183.983 252.655 183.772 252.437 183.615 252.159C183.459 251.882 183.38 251.566 183.38 251.21C183.38 250.856 183.46 250.535 183.621 250.247C183.783 249.959 184.009 249.731 184.299 249.563C184.591 249.393 184.933 249.31 185.325 249.314ZM185.328 250.025C185.115 250.025 184.922 250.078 184.751 250.184C184.581 250.288 184.447 250.429 184.349 250.608C184.25 250.785 184.201 250.982 184.201 251.199C184.201 251.416 184.248 251.613 184.343 251.79C184.44 251.965 184.571 252.105 184.737 252.209C184.905 252.311 185.096 252.362 185.312 252.362C185.472 252.362 185.622 252.331 185.76 252.269C185.899 252.207 186.02 252.121 186.124 252.012C186.228 251.9 186.309 251.775 186.368 251.634C186.426 251.494 186.455 251.346 186.455 251.191C186.455 250.985 186.406 250.793 186.307 250.616C186.211 250.439 186.078 250.297 185.908 250.19C185.738 250.08 185.545 250.025 185.328 250.025Z" fill="#9291A2"/>
<path d="M211.028 254.994L209.475 249.391H210.364L211.455 253.73H211.507L212.643 249.391H213.524L214.659 253.733H214.711L215.8 249.391H216.692L215.135 254.994H214.284L213.105 250.797H213.061L211.882 254.994H211.028ZM218.794 255.079C218.38 255.079 218.024 254.99 217.724 254.813C217.427 254.634 217.197 254.384 217.035 254.061C216.874 253.736 216.794 253.356 216.794 252.92C216.794 252.49 216.874 252.11 217.035 251.782C217.197 251.454 217.423 251.197 217.713 251.013C218.005 250.829 218.346 250.737 218.737 250.737C218.974 250.737 219.204 250.776 219.426 250.854C219.649 250.933 219.848 251.056 220.025 251.224C220.202 251.392 220.342 251.61 220.444 251.878C220.546 252.144 220.597 252.468 220.597 252.849V253.139H217.257V252.526H219.795C219.795 252.311 219.752 252.12 219.664 251.954C219.577 251.786 219.453 251.654 219.295 251.558C219.138 251.461 218.954 251.413 218.742 251.413C218.512 251.413 218.312 251.469 218.14 251.582C217.971 251.693 217.839 251.839 217.746 252.02C217.655 252.199 217.61 252.393 217.61 252.603V253.081C217.61 253.362 217.659 253.601 217.757 253.798C217.858 253.995 217.997 254.146 218.176 254.25C218.355 254.352 218.563 254.403 218.802 254.403C218.957 254.403 219.099 254.381 219.226 254.337C219.354 254.292 219.464 254.224 219.557 254.135C219.65 254.045 219.722 253.935 219.771 253.804L220.545 253.943C220.483 254.171 220.372 254.371 220.211 254.542C220.053 254.712 219.853 254.844 219.612 254.939C219.373 255.032 219.101 255.079 218.794 255.079ZM223.078 255.076C222.739 255.076 222.436 254.989 222.169 254.816C221.905 254.641 221.697 254.392 221.546 254.069C221.396 253.744 221.321 253.355 221.321 252.901C221.321 252.447 221.397 252.058 221.548 251.735C221.702 251.413 221.911 251.165 222.178 250.994C222.444 250.822 222.746 250.737 223.083 250.737C223.344 250.737 223.554 250.781 223.712 250.868C223.873 250.954 223.997 251.054 224.085 251.169C224.174 251.284 224.243 251.385 224.292 251.473H224.342V249.391H225.16V254.994H224.361V254.34H224.292C224.243 254.429 224.172 254.531 224.079 254.646C223.988 254.761 223.862 254.861 223.702 254.947C223.541 255.033 223.333 255.076 223.078 255.076ZM223.258 254.378C223.494 254.378 223.692 254.316 223.855 254.192C224.019 254.066 224.143 253.892 224.227 253.67C224.313 253.447 224.355 253.188 224.355 252.893C224.355 252.601 224.313 252.345 224.23 252.127C224.146 251.908 224.023 251.737 223.86 251.615C223.698 251.493 223.497 251.432 223.258 251.432C223.012 251.432 222.807 251.496 222.643 251.623C222.479 251.751 222.355 251.925 222.271 252.146C222.189 252.366 222.148 252.615 222.148 252.893C222.148 253.173 222.19 253.426 222.273 253.65C222.357 253.875 222.481 254.053 222.645 254.184C222.811 254.313 223.016 254.378 223.258 254.378ZM228.355 254.994V254.381L230.251 252.417C230.454 252.203 230.62 252.016 230.752 251.856C230.885 251.693 230.984 251.539 231.05 251.393C231.116 251.247 231.148 251.092 231.148 250.928C231.148 250.742 231.105 250.582 231.017 250.447C230.93 250.31 230.81 250.205 230.659 250.132C230.507 250.057 230.337 250.02 230.147 250.02C229.947 250.02 229.771 250.061 229.622 250.143C229.472 250.225 229.357 250.341 229.277 250.491C229.197 250.64 229.157 250.815 229.157 251.016H228.35C228.35 250.675 228.428 250.377 228.585 250.121C228.742 249.866 228.957 249.668 229.231 249.528C229.504 249.385 229.815 249.314 230.164 249.314C230.516 249.314 230.826 249.384 231.094 249.525C231.364 249.663 231.574 249.853 231.726 250.094C231.877 250.333 231.953 250.603 231.953 250.904C231.953 251.112 231.914 251.315 231.835 251.514C231.759 251.713 231.625 251.934 231.433 252.179C231.241 252.421 230.975 252.716 230.634 253.062L229.521 254.228V254.269H232.043V254.994H228.355ZM235.031 255.087C234.598 255.085 234.229 254.971 233.923 254.745C233.616 254.519 233.382 254.189 233.22 253.757C233.057 253.325 232.976 252.804 232.976 252.195C232.976 251.588 233.057 251.069 233.22 250.638C233.384 250.208 233.619 249.88 233.925 249.653C234.234 249.427 234.602 249.314 235.031 249.314C235.459 249.314 235.827 249.428 236.133 249.656C236.44 249.882 236.674 250.211 236.836 250.641C237 251.07 237.082 251.588 237.082 252.195C237.082 252.806 237.001 253.328 236.839 253.76C236.677 254.19 236.442 254.52 236.136 254.748C235.829 254.974 235.461 255.087 235.031 255.087ZM235.031 254.356C235.41 254.356 235.706 254.171 235.92 253.801C236.135 253.431 236.243 252.895 236.243 252.195C236.243 251.73 236.193 251.337 236.095 251.016C235.998 250.693 235.859 250.449 235.676 250.283C235.496 250.115 235.28 250.031 235.031 250.031C234.653 250.031 234.357 250.217 234.141 250.589C233.926 250.961 233.818 251.496 233.816 252.195C233.816 252.662 233.864 253.057 233.961 253.38C234.059 253.701 234.199 253.944 234.379 254.11C234.56 254.274 234.777 254.356 235.031 254.356Z" fill="#9291A2"/>
<path d="M260.808 254.994L259.254 249.391H260.143L261.235 253.73H261.287L262.422 249.391H263.303L264.438 253.733H264.49L265.579 249.391H266.471L264.914 254.994H264.064L262.885 250.797H262.841L261.662 254.994H260.808ZM268.574 255.079C268.16 255.079 267.803 254.99 267.504 254.813C267.207 254.634 266.977 254.384 266.815 254.061C266.654 253.736 266.574 253.356 266.574 252.92C266.574 252.49 266.654 252.11 266.815 251.782C266.977 251.454 267.203 251.197 267.493 251.013C267.785 250.829 268.126 250.737 268.516 250.737C268.753 250.737 268.983 250.776 269.206 250.854C269.428 250.933 269.628 251.056 269.805 251.224C269.982 251.392 270.121 251.61 270.223 251.878C270.326 252.144 270.377 252.468 270.377 252.849V253.139H267.036V252.526H269.575C269.575 252.311 269.531 252.12 269.444 251.954C269.356 251.786 269.233 251.654 269.074 251.558C268.917 251.461 268.733 251.413 268.522 251.413C268.292 251.413 268.091 251.469 267.92 251.582C267.75 251.693 267.619 251.839 267.526 252.02C267.435 252.199 267.389 252.393 267.389 252.603V253.081C267.389 253.362 267.438 253.601 267.537 253.798C267.637 253.995 267.777 254.146 267.955 254.25C268.134 254.352 268.343 254.403 268.582 254.403C268.737 254.403 268.878 254.381 269.006 254.337C269.134 254.292 269.244 254.224 269.337 254.135C269.43 254.045 269.501 253.935 269.55 253.804L270.325 253.943C270.263 254.171 270.151 254.371 269.991 254.542C269.832 254.712 269.632 254.844 269.392 254.939C269.153 255.032 268.88 255.079 268.574 255.079ZM272.857 255.076C272.518 255.076 272.215 254.989 271.949 254.816C271.685 254.641 271.477 254.392 271.325 254.069C271.176 253.744 271.101 253.355 271.101 252.901C271.101 252.447 271.177 252.058 271.328 251.735C271.481 251.413 271.691 251.165 271.957 250.994C272.224 250.822 272.525 250.737 272.863 250.737C273.124 250.737 273.333 250.781 273.492 250.868C273.653 250.954 273.777 251.054 273.864 251.169C273.953 251.284 274.023 251.385 274.072 251.473H274.121V249.391H274.939V254.994H274.14V254.34H274.072C274.023 254.429 273.952 254.531 273.859 254.646C273.767 254.761 273.642 254.861 273.481 254.947C273.321 255.033 273.113 255.076 272.857 255.076ZM273.038 254.378C273.273 254.378 273.472 254.316 273.634 254.192C273.798 254.066 273.922 253.892 274.006 253.67C274.092 253.447 274.135 253.188 274.135 252.893C274.135 252.601 274.093 252.345 274.009 252.127C273.925 251.908 273.802 251.737 273.64 251.615C273.477 251.493 273.277 251.432 273.038 251.432C272.792 251.432 272.586 251.496 272.422 251.623C272.258 251.751 272.134 251.925 272.05 252.146C271.968 252.366 271.927 252.615 271.927 252.893C271.927 253.173 271.969 253.426 272.053 253.65C272.137 253.875 272.261 254.053 272.425 254.184C272.591 254.313 272.795 254.378 273.038 254.378ZM278.135 254.994V254.381L280.031 252.417C280.233 252.203 280.4 252.016 280.531 251.856C280.664 251.693 280.764 251.539 280.83 251.393C280.895 251.247 280.928 251.092 280.928 250.928C280.928 250.742 280.884 250.582 280.797 250.447C280.709 250.31 280.59 250.205 280.438 250.132C280.287 250.057 280.116 250.02 279.927 250.02C279.726 250.02 279.551 250.061 279.401 250.143C279.252 250.225 279.137 250.341 279.057 250.491C278.976 250.64 278.936 250.815 278.936 251.016H278.129C278.129 250.675 278.208 250.377 278.365 250.121C278.521 249.866 278.737 249.668 279.01 249.528C279.284 249.385 279.595 249.314 279.943 249.314C280.295 249.314 280.605 249.384 280.873 249.525C281.143 249.663 281.354 249.853 281.505 250.094C281.657 250.333 281.732 250.603 281.732 250.904C281.732 251.112 281.693 251.315 281.615 251.514C281.538 251.713 281.404 251.934 281.213 252.179C281.021 252.421 280.755 252.716 280.414 253.062L279.3 254.228V254.269H281.823V254.994H278.135ZM284.985 249.391V254.994H284.137V250.239H284.104L282.764 251.114V250.305L284.162 249.391H284.985Z" fill="#9291A2"/>
<path d="M309.38 254.994L307.826 249.391H308.715L309.807 253.73H309.859L310.994 249.391H311.875L313.01 253.732H313.062L314.151 249.391H315.043L313.486 254.994H312.636L311.456 250.797H311.413L310.234 254.994H309.38ZM317.146 255.078C316.732 255.078 316.375 254.99 316.076 254.813C315.779 254.634 315.549 254.384 315.387 254.061C315.226 253.736 315.146 253.356 315.146 252.92C315.146 252.489 315.226 252.11 315.387 251.782C315.549 251.454 315.775 251.197 316.065 251.013C316.357 250.829 316.698 250.737 317.088 250.737C317.325 250.737 317.555 250.776 317.778 250.854C318 250.933 318.2 251.056 318.377 251.224C318.554 251.392 318.693 251.609 318.795 251.878C318.897 252.144 318.949 252.468 318.949 252.849V253.139H315.608V252.526H318.147C318.147 252.311 318.103 252.12 318.016 251.954C317.928 251.786 317.805 251.654 317.646 251.557C317.489 251.461 317.305 251.412 317.094 251.412C316.864 251.412 316.663 251.469 316.492 251.582C316.322 251.693 316.191 251.839 316.098 252.02C316.007 252.199 315.961 252.393 315.961 252.603V253.081C315.961 253.362 316.01 253.601 316.109 253.798C316.209 253.995 316.349 254.146 316.527 254.25C316.706 254.352 316.915 254.403 317.154 254.403C317.309 254.403 317.45 254.381 317.578 254.337C317.706 254.291 317.816 254.224 317.909 254.135C318.002 254.045 318.073 253.935 318.122 253.804L318.897 253.943C318.835 254.171 318.723 254.371 318.563 254.542C318.404 254.712 318.204 254.844 317.964 254.939C317.725 255.032 317.452 255.078 317.146 255.078ZM321.429 255.076C321.09 255.076 320.787 254.989 320.521 254.816C320.257 254.641 320.049 254.392 319.897 254.069C319.748 253.744 319.673 253.355 319.673 252.901C319.673 252.447 319.749 252.058 319.9 251.735C320.053 251.412 320.263 251.165 320.529 250.994C320.795 250.822 321.097 250.737 321.435 250.737C321.696 250.737 321.905 250.78 322.064 250.868C322.225 250.954 322.349 251.054 322.436 251.169C322.525 251.284 322.595 251.385 322.644 251.473H322.693V249.391H323.511V254.994H322.712V254.34H322.644C322.595 254.429 322.524 254.531 322.431 254.646C322.339 254.761 322.214 254.861 322.053 254.947C321.893 255.033 321.685 255.076 321.429 255.076ZM321.61 254.378C321.845 254.378 322.044 254.316 322.206 254.192C322.37 254.066 322.494 253.892 322.578 253.67C322.664 253.447 322.707 253.188 322.707 252.893C322.707 252.601 322.665 252.345 322.581 252.127C322.497 251.908 322.374 251.737 322.212 251.615C322.049 251.493 321.849 251.432 321.61 251.432C321.364 251.432 321.158 251.495 320.994 251.623C320.83 251.751 320.706 251.925 320.622 252.146C320.54 252.366 320.499 252.615 320.499 252.893C320.499 253.173 320.541 253.426 320.625 253.65C320.709 253.875 320.833 254.053 320.997 254.184C321.163 254.313 321.367 254.378 321.61 254.378ZM326.707 254.994V254.381L328.603 252.417C328.805 252.203 328.972 252.016 329.103 251.856C329.236 251.693 329.336 251.539 329.402 251.393C329.467 251.247 329.5 251.092 329.5 250.928C329.5 250.742 329.456 250.582 329.369 250.447C329.281 250.31 329.162 250.205 329.01 250.132C328.859 250.057 328.688 250.02 328.499 250.02C328.298 250.02 328.123 250.061 327.973 250.143C327.824 250.225 327.709 250.341 327.629 250.49C327.548 250.64 327.508 250.815 327.508 251.016H326.701C326.701 250.675 326.78 250.377 326.937 250.121C327.093 249.866 327.309 249.668 327.582 249.527C327.856 249.385 328.167 249.314 328.515 249.314C328.867 249.314 329.177 249.384 329.445 249.525C329.715 249.663 329.926 249.853 330.077 250.094C330.229 250.333 330.304 250.603 330.304 250.904C330.304 251.112 330.265 251.315 330.187 251.514C330.11 251.713 329.976 251.934 329.785 252.179C329.593 252.421 329.327 252.716 328.986 253.062L327.872 254.228V254.269H330.395V254.994H326.707ZM331.431 254.994V254.381L333.327 252.417C333.53 252.203 333.697 252.016 333.828 251.856C333.961 251.693 334.061 251.539 334.126 251.393C334.192 251.247 334.225 251.092 334.225 250.928C334.225 250.742 334.181 250.582 334.093 250.447C334.006 250.31 333.886 250.205 333.735 250.132C333.584 250.057 333.413 250.02 333.223 250.02C333.023 250.02 332.848 250.061 332.698 250.143C332.549 250.225 332.434 250.341 332.353 250.49C332.273 250.64 332.233 250.815 332.233 251.016H331.426C331.426 250.675 331.504 250.377 331.661 250.121C331.818 249.866 332.033 249.668 332.307 249.527C332.581 249.385 332.892 249.314 333.24 249.314C333.592 249.314 333.902 249.384 334.17 249.525C334.44 249.663 334.651 249.853 334.802 250.094C334.953 250.333 335.029 250.603 335.029 250.904C335.029 251.112 334.99 251.315 334.911 251.514C334.835 251.713 334.701 251.934 334.509 252.179C334.318 252.421 334.052 252.716 333.71 253.062L332.597 254.228V254.269H335.119V254.994H331.431Z" fill="#9291A2"/>
<path d="M358.373 254.994L356.819 249.391H357.709L358.8 253.73H358.852L359.987 249.391H360.868L362.004 253.733H362.056L363.145 249.391H364.037L362.48 254.994H361.629L360.45 250.797H360.406L359.227 254.994H358.373ZM366.139 255.079C365.725 255.079 365.368 254.99 365.069 254.813C364.772 254.634 364.542 254.384 364.38 254.061C364.219 253.736 364.139 253.356 364.139 252.92C364.139 252.49 364.219 252.11 364.38 251.782C364.542 251.454 364.768 251.197 365.058 251.013C365.35 250.829 365.691 250.737 366.082 250.737C366.319 250.737 366.548 250.776 366.771 250.854C366.994 250.933 367.193 251.056 367.37 251.224C367.547 251.392 367.687 251.61 367.789 251.878C367.891 252.144 367.942 252.468 367.942 252.849V253.139H364.601V252.526H367.14C367.14 252.311 367.097 252.12 367.009 251.954C366.921 251.786 366.798 251.654 366.64 251.558C366.483 251.461 366.299 251.413 366.087 251.413C365.857 251.413 365.657 251.469 365.485 251.582C365.316 251.693 365.184 251.839 365.091 252.02C365 252.199 364.954 252.393 364.954 252.603V253.081C364.954 253.362 365.004 253.601 365.102 253.798C365.202 253.995 365.342 254.146 365.521 254.25C365.699 254.352 365.908 254.403 366.147 254.403C366.302 254.403 366.444 254.381 366.571 254.337C366.699 254.292 366.809 254.224 366.902 254.135C366.995 254.045 367.066 253.935 367.116 253.804L367.89 253.943C367.828 254.171 367.717 254.371 367.556 254.542C367.397 254.712 367.198 254.844 366.957 254.939C366.718 255.032 366.445 255.079 366.139 255.079ZM370.423 255.076C370.083 255.076 369.781 254.989 369.514 254.816C369.25 254.641 369.042 254.392 368.891 254.069C368.741 253.744 368.666 253.355 368.666 252.901C368.666 252.447 368.742 252.058 368.893 251.735C369.047 251.413 369.256 251.165 369.523 250.994C369.789 250.822 370.091 250.737 370.428 250.737C370.689 250.737 370.899 250.781 371.057 250.868C371.218 250.954 371.342 251.054 371.429 251.169C371.519 251.284 371.588 251.385 371.637 251.473H371.687V249.391H372.505V254.994H371.706V254.34H371.637C371.588 254.429 371.517 254.531 371.424 254.646C371.333 254.761 371.207 254.861 371.046 254.947C370.886 255.033 370.678 255.076 370.423 255.076ZM370.603 254.378C370.838 254.378 371.037 254.316 371.2 254.192C371.364 254.066 371.488 253.892 371.572 253.67C371.657 253.447 371.7 253.188 371.7 252.893C371.7 252.601 371.658 252.345 371.574 252.127C371.491 251.908 371.367 251.737 371.205 251.615C371.043 251.493 370.842 251.432 370.603 251.432C370.357 251.432 370.152 251.496 369.988 251.623C369.824 251.751 369.699 251.925 369.616 252.146C369.534 252.366 369.492 252.615 369.492 252.893C369.492 253.173 369.534 253.426 369.618 253.65C369.702 253.875 369.826 254.053 369.99 254.184C370.156 254.313 370.361 254.378 370.603 254.378ZM375.7 254.994V254.381L377.596 252.417C377.798 252.203 377.965 252.016 378.097 251.856C378.23 251.693 378.329 251.539 378.395 251.393C378.461 251.247 378.493 251.092 378.493 250.928C378.493 250.742 378.45 250.582 378.362 250.447C378.274 250.31 378.155 250.205 378.004 250.132C377.852 250.057 377.682 250.02 377.492 250.02C377.291 250.02 377.116 250.061 376.967 250.143C376.817 250.225 376.702 250.341 376.622 250.491C376.542 250.64 376.502 250.815 376.502 251.016H375.695C375.695 250.675 375.773 250.377 375.93 250.121C376.087 249.866 376.302 249.668 376.576 249.528C376.849 249.385 377.16 249.314 377.508 249.314C377.86 249.314 378.171 249.384 378.439 249.525C378.709 249.663 378.919 249.853 379.071 250.094C379.222 250.333 379.298 250.603 379.298 250.904C379.298 251.112 379.258 251.315 379.18 251.514C379.103 251.713 378.969 251.934 378.778 252.179C378.586 252.421 378.32 252.716 377.979 253.062L376.866 254.228V254.269H379.388V254.994H375.7ZM382.376 255.07C382 255.07 381.664 255.006 381.369 254.876C381.075 254.747 380.843 254.567 380.671 254.337C380.501 254.105 380.41 253.837 380.398 253.533H381.257C381.267 253.699 381.323 253.843 381.423 253.965C381.526 254.085 381.659 254.178 381.823 254.244C381.987 254.31 382.169 254.343 382.37 254.343C382.591 254.343 382.786 254.304 382.956 254.228C383.127 254.151 383.261 254.044 383.358 253.908C383.454 253.769 383.503 253.609 383.503 253.429C383.503 253.241 383.454 253.076 383.358 252.934C383.263 252.79 383.123 252.676 382.939 252.594C382.757 252.512 382.536 252.471 382.277 252.471H381.804V251.782H382.277C382.485 251.782 382.667 251.744 382.824 251.67C382.983 251.595 383.107 251.491 383.196 251.358C383.286 251.223 383.33 251.065 383.33 250.885C383.33 250.711 383.291 250.561 383.213 250.433C383.136 250.304 383.027 250.202 382.884 250.129C382.744 250.056 382.578 250.02 382.386 250.02C382.204 250.02 382.034 250.054 381.875 250.121C381.718 250.187 381.59 250.282 381.492 250.406C381.393 250.528 381.34 250.675 381.333 250.846H380.515C380.524 250.543 380.614 250.277 380.783 250.047C380.955 249.818 381.181 249.638 381.462 249.508C381.743 249.379 382.055 249.314 382.397 249.314C382.757 249.314 383.067 249.384 383.328 249.525C383.59 249.663 383.793 249.849 383.935 250.08C384.079 250.312 384.15 250.565 384.148 250.841C384.15 251.154 384.063 251.421 383.886 251.64C383.711 251.858 383.477 252.005 383.185 252.08V252.124C383.557 252.18 383.846 252.328 384.05 252.567C384.256 252.806 384.358 253.102 384.356 253.456C384.358 253.764 384.272 254.041 384.099 254.285C383.928 254.53 383.693 254.722 383.396 254.862C383.099 255.001 382.759 255.07 382.376 255.07Z" fill="#9291A2"/>
<path d="M407.51 254.994L405.956 249.391H406.845L407.936 253.73H407.988L409.124 249.391H410.005L411.14 253.733H411.192L412.281 249.391H413.173L411.616 254.994H410.765L409.586 250.797H409.542L408.363 254.994H407.51ZM415.275 255.079C414.861 255.079 414.505 254.99 414.206 254.813C413.908 254.634 413.678 254.384 413.516 254.061C413.356 253.736 413.275 253.356 413.275 252.92C413.275 252.49 413.356 252.11 413.516 251.782C413.678 251.454 413.905 251.197 414.195 251.013C414.486 250.829 414.828 250.737 415.218 250.737C415.455 250.737 415.685 250.776 415.907 250.854C416.13 250.933 416.33 251.056 416.506 251.224C416.683 251.392 416.823 251.61 416.925 251.878C417.027 252.144 417.078 252.468 417.078 252.849V253.139H413.738V252.526H416.277C416.277 252.311 416.233 252.12 416.145 251.954C416.058 251.786 415.935 251.654 415.776 251.558C415.619 251.461 415.435 251.413 415.223 251.413C414.994 251.413 414.793 251.469 414.621 251.582C414.452 251.693 414.32 251.839 414.227 252.02C414.136 252.199 414.091 252.393 414.091 252.603V253.081C414.091 253.362 414.14 253.601 414.238 253.798C414.339 253.995 414.478 254.146 414.657 254.25C414.836 254.352 415.045 254.403 415.284 254.403C415.439 254.403 415.58 254.381 415.708 254.337C415.835 254.292 415.946 254.224 416.039 254.135C416.132 254.045 416.203 253.935 416.252 253.804L417.026 253.943C416.964 254.171 416.853 254.371 416.692 254.542C416.534 254.712 416.334 254.844 416.093 254.939C415.854 255.032 415.582 255.079 415.275 255.079ZM419.559 255.076C419.22 255.076 418.917 254.989 418.651 254.816C418.386 254.641 418.178 254.392 418.027 254.069C417.877 253.744 417.803 253.355 417.803 252.901C417.803 252.447 417.878 252.058 418.03 251.735C418.183 251.413 418.393 251.165 418.659 250.994C418.925 250.822 419.227 250.737 419.564 250.737C419.825 250.737 420.035 250.781 420.194 250.868C420.354 250.954 420.478 251.054 420.566 251.169C420.655 251.284 420.724 251.385 420.774 251.473H420.823V249.391H421.641V254.994H420.842V254.34H420.774C420.724 254.429 420.653 254.531 420.56 254.646C420.469 254.761 420.343 254.861 420.183 254.947C420.022 255.033 419.814 255.076 419.559 255.076ZM419.739 254.378C419.975 254.378 420.174 254.316 420.336 254.192C420.5 254.066 420.624 253.892 420.708 253.67C420.794 253.447 420.837 253.188 420.837 252.893C420.837 252.601 420.795 252.345 420.711 252.127C420.627 251.908 420.504 251.737 420.341 251.615C420.179 251.493 419.978 251.432 419.739 251.432C419.493 251.432 419.288 251.496 419.124 251.623C418.96 251.751 418.836 251.925 418.752 252.146C418.67 252.366 418.629 252.615 418.629 252.893C418.629 253.173 418.671 253.426 418.755 253.65C418.838 253.875 418.963 254.053 419.127 254.184C419.293 254.313 419.497 254.378 419.739 254.378ZM424.836 254.994V254.381L426.732 252.417C426.935 252.203 427.102 252.016 427.233 251.856C427.366 251.693 427.465 251.539 427.531 251.393C427.597 251.247 427.63 251.092 427.63 250.928C427.63 250.742 427.586 250.582 427.498 250.447C427.411 250.31 427.291 250.205 427.14 250.132C426.989 250.057 426.818 250.02 426.628 250.02C426.428 250.02 426.253 250.061 426.103 250.143C425.953 250.225 425.839 250.341 425.758 250.491C425.678 250.64 425.638 250.815 425.638 251.016H424.831C424.831 250.675 424.909 250.377 425.066 250.121C425.223 249.866 425.438 249.668 425.712 249.528C425.985 249.385 426.296 249.314 426.645 249.314C426.997 249.314 427.307 249.384 427.575 249.525C427.845 249.663 428.056 249.853 428.207 250.094C428.358 250.333 428.434 250.603 428.434 250.904C428.434 251.112 428.395 251.315 428.316 251.514C428.24 251.713 428.106 251.934 427.914 252.179C427.723 252.421 427.456 252.716 427.115 253.062L426.002 254.228V254.269H428.524V254.994H424.836ZM429.323 253.899V253.215L431.744 249.391H432.283V250.398H431.941L430.21 253.139V253.183H433.528V253.899H429.323ZM431.98 254.994V253.691L431.985 253.38V249.391H432.787V254.994H431.98Z" fill="#9291A2"/>
<path d="M456.695 254.994L455.141 249.391H456.03L457.122 253.73H457.174L458.309 249.391H459.19L460.325 253.733H460.377L461.466 249.391H462.358L460.801 254.994H459.95L458.771 250.797H458.728L457.548 254.994H456.695ZM464.46 255.079C464.046 255.079 463.69 254.99 463.391 254.813C463.093 254.634 462.864 254.384 462.701 254.061C462.541 253.736 462.461 253.356 462.461 252.92C462.461 252.49 462.541 252.11 462.701 251.782C462.864 251.454 463.09 251.197 463.38 251.013C463.672 250.829 464.013 250.737 464.403 250.737C464.64 250.737 464.87 250.776 465.092 250.854C465.315 250.933 465.515 251.056 465.692 251.224C465.869 251.392 466.008 251.61 466.11 251.878C466.212 252.144 466.263 252.468 466.263 252.849V253.139H462.923V252.526H465.462C465.462 252.311 465.418 252.12 465.33 251.954C465.243 251.786 465.12 251.654 464.961 251.558C464.804 251.461 464.62 251.413 464.408 251.413C464.179 251.413 463.978 251.469 463.807 251.582C463.637 251.693 463.506 251.839 463.413 252.02C463.321 252.199 463.276 252.393 463.276 252.603V253.081C463.276 253.362 463.325 253.601 463.424 253.798C463.524 253.995 463.663 254.146 463.842 254.25C464.021 254.352 464.23 254.403 464.469 254.403C464.624 254.403 464.765 254.381 464.893 254.337C465.02 254.292 465.131 254.224 465.224 254.135C465.317 254.045 465.388 253.935 465.437 253.804L466.211 253.943C466.149 254.171 466.038 254.371 465.878 254.542C465.719 254.712 465.519 254.844 465.278 254.939C465.04 255.032 464.767 255.079 464.46 255.079ZM468.744 255.076C468.405 255.076 468.102 254.989 467.836 254.816C467.571 254.641 467.363 254.392 467.212 254.069C467.062 253.744 466.988 253.355 466.988 252.901C466.988 252.447 467.063 252.058 467.215 251.735C467.368 251.413 467.578 251.165 467.844 250.994C468.11 250.822 468.412 250.737 468.75 250.737C469.01 250.737 469.22 250.781 469.379 250.868C469.539 250.954 469.663 251.054 469.751 251.169C469.84 251.284 469.91 251.385 469.959 251.473H470.008V249.391H470.826V254.994H470.027V254.34H469.959C469.91 254.429 469.838 254.531 469.745 254.646C469.654 254.761 469.528 254.861 469.368 254.947C469.207 255.033 468.999 255.076 468.744 255.076ZM468.925 254.378C469.16 254.378 469.359 254.316 469.521 254.192C469.685 254.066 469.809 253.892 469.893 253.67C469.979 253.447 470.022 253.188 470.022 252.893C470.022 252.601 469.98 252.345 469.896 252.127C469.812 251.908 469.689 251.737 469.527 251.615C469.364 251.493 469.164 251.432 468.925 251.432C468.678 251.432 468.473 251.496 468.309 251.623C468.145 251.751 468.021 251.925 467.937 252.146C467.855 252.366 467.814 252.615 467.814 252.893C467.814 253.173 467.856 253.426 467.94 253.65C468.024 253.875 468.148 254.053 468.312 254.184C468.478 254.313 468.682 254.378 468.925 254.378ZM474.022 254.994V254.381L475.917 252.417C476.12 252.203 476.287 252.016 476.418 251.856C476.551 251.693 476.651 251.539 476.716 251.393C476.782 251.247 476.815 251.092 476.815 250.928C476.815 250.742 476.771 250.582 476.684 250.447C476.596 250.31 476.476 250.205 476.325 250.132C476.174 250.057 476.003 250.02 475.814 250.02C475.613 250.02 475.438 250.061 475.288 250.143C475.139 250.225 475.024 250.341 474.944 250.491C474.863 250.64 474.823 250.815 474.823 251.016H474.016C474.016 250.675 474.094 250.377 474.251 250.121C474.408 249.866 474.623 249.668 474.897 249.528C475.171 249.385 475.482 249.314 475.83 249.314C476.182 249.314 476.492 249.384 476.76 249.525C477.03 249.663 477.241 249.853 477.392 250.094C477.543 250.333 477.619 250.603 477.619 250.904C477.619 251.112 477.58 251.315 477.502 251.514C477.425 251.713 477.291 251.934 477.099 252.179C476.908 252.421 476.642 252.716 476.3 253.062L475.187 254.228V254.269H477.709V254.994H474.022ZM480.596 255.07C480.253 255.07 479.945 255.005 479.671 254.873C479.399 254.74 479.182 254.558 479.02 254.326C478.858 254.095 478.771 253.83 478.76 253.533H479.581C479.601 253.774 479.708 253.971 479.901 254.126C480.094 254.281 480.326 254.359 480.596 254.359C480.811 254.359 481.002 254.31 481.168 254.211C481.335 254.111 481.467 253.973 481.561 253.798C481.658 253.623 481.706 253.423 481.706 253.199C481.706 252.971 481.657 252.768 481.559 252.589C481.46 252.41 481.324 252.27 481.151 252.168C480.98 252.065 480.783 252.013 480.56 252.012C480.391 252.012 480.22 252.041 480.049 252.099C479.877 252.158 479.739 252.234 479.633 252.329L478.858 252.214L479.173 249.391H482.254V250.116H479.876L479.698 251.683H479.731C479.841 251.578 479.986 251.489 480.166 251.418C480.349 251.347 480.544 251.311 480.752 251.311C481.093 251.311 481.396 251.392 481.663 251.555C481.931 251.717 482.141 251.939 482.295 252.22C482.45 252.499 482.526 252.82 482.525 253.183C482.526 253.546 482.444 253.869 482.278 254.154C482.114 254.438 481.886 254.663 481.594 254.827C481.304 254.989 480.971 255.07 480.596 255.07Z" fill="#9291A2"/>
<path d="M58.9536 136.296C58.9536 133.459 61.2531 131.16 64.0897 131.16H88.058C90.8946 131.16 93.1941 133.459 93.1941 136.296V152.471H58.9536V136.296Z" fill="#C7CED8"/>
<rect x="58.9536" y="152.471" width="34.2405" height="82.2666" fill="#E0E5EA"/>
<path d="M108.067 187.657C108.067 184.82 110.367 182.521 113.203 182.521H137.172C140.008 182.521 142.308 184.82 142.308 187.657V196.752H108.067V187.657Z" fill="#C7CED8"/>
<rect x="108.067" y="196.752" width="34.2405" height="37.985" fill="#E0E5EA"/>
<path d="M157.181 96.9193C157.181 94.0827 159.481 91.7832 162.317 91.7832H186.285C189.122 91.7832 191.422 94.0827 191.422 96.9193V134.079H157.181V96.9193Z" fill="#FFCC68"/>
<rect x="157.181" y="134.079" width="34.2405" height="100.659" fill="#3DC80C"/>
<path d="M206.295 215.049C206.295 212.212 208.594 209.913 211.431 209.913H235.399C238.236 209.913 240.535 212.212 240.535 215.049V218.982H206.295V215.049Z" fill="#C7CED8"/>
<rect x="206.295" y="218.982" width="34.2405" height="15.7552" fill="#E0E5EA"/>
<path d="M255.408 187.657C255.408 184.82 257.708 182.521 260.544 182.521H284.513C287.349 182.521 289.649 184.82 289.649 187.657V196.752H255.408V187.657Z" fill="#C7CED8"/>
<rect x="255.408" y="196.752" width="34.2405" height="37.985" fill="#E0E5EA"/>
<path d="M304.522 136.296C304.522 133.459 306.822 131.16 309.658 131.16H333.627C336.463 131.16 338.763 133.459 338.763 136.296V185.588H304.522V136.296Z" fill="#C7CED8"/>
<rect x="304.522" y="185.588" width="34.2405" height="49.1492" fill="#E0E5EA"/>
<path d="M353.636 136.296C353.636 133.459 355.935 131.16 358.772 131.16H382.74C385.577 131.16 387.876 133.459 387.876 136.296V142.456H353.636V136.296Z" fill="#C7CED8"/>
<rect x="353.636" y="142.456" width="34.2405" height="92.2809" fill="#E0E5EA"/>
<path d="M402.75 157.696C402.75 154.86 405.049 152.56 407.886 152.56H431.854C434.691 152.56 436.99 154.86 436.99 157.696V179.454H402.75V157.696Z" fill="#C7CED8"/>
<rect x="402.75" y="179.454" width="34.2405" height="55.2831" fill="#E0E5EA"/>
<path d="M451.863 187.657C451.863 184.82 454.163 182.521 456.999 182.521H480.968C483.804 182.521 486.104 184.82 486.104 187.657V196.752H451.863V187.657Z" fill="#C7CED8"/>
<rect x="451.863" y="196.752" width="34.2405" height="37.985" fill="#E0E5EA"/>
</g>
<defs>
<filter id="filter0_d_1_1793" x="0.385281" y="0.687491" width="521.172" height="296.897" filterUnits="userSpaceOnUse" color-interpolation-filters="sRGB">
<feFlood flood-opacity="0" result="BackgroundImageFix"/>
<feColorMatrix in="SourceAlpha" type="matrix" values="0 0 0 0 0 0 0 0 0 0 0 0 0 0 0 0 0 0 127 0" result="hardAlpha"/>
<feOffset dy="5.13607"/>
<feGaussianBlur stdDeviation="10.8794"/>
<feColorMatrix type="matrix" values="0 0 0 0 0 0 0 0 0 0 0 0 0 0 0 0 0 0 0.03 0"/>
<feBlend mode="normal" in2="BackgroundImageFix" result="effect1_dropShadow_1_1793"/>
<feBlend mode="normal" in="SourceGraphic" in2="effect1_dropShadow_1_1793" result="shape"/>
</filter>
</defs>
</svg>
